<svg xmlns="http://www.w3.org/2000/svg" xmlns:xlink="http://www.w3.org/1999/xlink" width="1024" zoomAndPan="magnify" viewBox="0 0 768 767.999994" height="1024" preserveAspectRatio="xMidYMid meet" version="1.0"><defs><g/><clipPath id="dfdae3ea91"><path d="M 198 77 L 569.953125 77 L 569.953125 768 L 198 768 Z M 198 77 " clip-rule="nonzero"/></clipPath></defs><g clip-path="url(#dfdae3ea91)"><path fill="#000000" d="M 248.035156 625.367188 L 248.035156 618.363281 C 248.035156 617.09375 247.988281 615.664062 247.941406 614.191406 C 247.871094 611.65625 247.824219 608.957031 247.917969 606.332031 C 237.324219 605.15625 227.234375 603.726562 217.585938 601.976562 C 221.476562 606.285156 226.683594 610.203125 231.199219 613.636719 L 233.730469 615.527344 C 238.246094 618.984375 243.058594 622.234375 248.035156 625.367188 Z M 268.394531 621.910156 C 268.484375 616.75 268.625 611.402344 268.023438 606.746094 C 267.585938 603.496094 266.25 601.007812 264.0625 599.625 C 261.945312 598.265625 259.757812 598.265625 258.488281 598.65625 C 255.910156 599.460938 256.253906 609.582031 256.394531 613.890625 C 256.417969 615.480469 256.464844 617.003906 256.464844 618.363281 L 256.464844 726.433594 C 256.464844 728.414062 256.300781 730.765625 256.09375 733.300781 C 255.65625 738.625 255.128906 745.929688 257.015625 748.832031 C 257.015625 748.832031 257.0625 748.789062 257.152344 748.789062 C 257.316406 748.789062 257.683594 748.832031 257.9375 748.832031 C 258.488281 748.878906 259.089844 748.925781 259.640625 749.042969 C 264.683594 749.894531 266.597656 749.59375 267.265625 749.179688 C 268.4375 747.660156 268.347656 740.765625 268.324219 738.164062 L 268.324219 736.042969 C 268.324219 714.609375 268.324219 693.128906 268.324219 671.648438 L 268.277344 628.226562 C 268.277344 626.199219 268.324219 624.054688 268.394531 621.910156 Z M 292.738281 126.367188 C 290.871094 123.277344 288.636719 120.167969 285.945312 117.007812 C 264.476562 121.78125 243.632812 130.722656 225.4375 143.007812 C 220.117188 146.578125 216.203125 150.84375 214.222656 155.152344 L 221.292969 167.089844 C 230.921875 158.101562 242.503906 149.921875 256.601562 142.359375 C 268.1875 136.070312 280.300781 130.769531 292.738281 126.367188 Z M 287.878906 760.519531 C 287.878906 760.265625 287.878906 759.941406 287.925781 759.597656 C 287.578125 759.550781 287.300781 759.503906 287.003906 759.480469 C 286.609375 759.4375 286.289062 759.390625 285.945312 759.390625 C 284.675781 759.296875 283.363281 759.34375 282.050781 759.34375 C 281.3125 759.390625 280.554688 759.390625 279.792969 759.390625 L 245.84375 759.390625 C 244.488281 759.390625 243.152344 759.4375 241.792969 759.390625 C 241.492188 760.449219 241.492188 762.5 241.492188 763.355469 C 241.492188 764.113281 241.492188 764.667969 241.445312 765.175781 C 241.445312 765.933594 241.398438 767.109375 241.492188 767.734375 C 243.152344 768.03125 244.945312 767.964844 246.8125 767.917969 C 247.734375 767.871094 248.632812 767.824219 249.507812 767.824219 L 279.816406 767.824219 C 280.554688 767.824219 281.476562 767.917969 282.488281 767.964844 C 283.800781 768.078125 286.566406 768.285156 287.96875 767.988281 C 287.925781 767.527344 287.878906 767.066406 287.878906 766.71875 Z M 295.433594 109.542969 L 291.839844 103.570312 C 272.03125 104.839844 252.917969 112.238281 238.382812 118.597656 C 228.339844 123 220.210938 127.082031 213.164062 132.796875 C 206.53125 138.1875 200.886719 146.949219 198.609375 155.519531 C 199.667969 157.59375 201.003906 159.625 202.5 161.511719 C 204.042969 160.960938 205.449219 160.085938 206.738281 159.117188 L 205.910156 157.6875 C 205.265625 156.628906 205.101562 155.359375 205.515625 154.183594 C 208.394531 145.703125 215.398438 139.570312 220.71875 136 C 240.480469 122.65625 263.257812 113.089844 286.566406 108.226562 C 288.0625 107.929688 289.558594 108.433594 290.574219 109.542969 C 291.539062 110.625 292.484375 111.730469 293.359375 112.835938 C 294.074219 111.890625 294.765625 110.855469 295.433594 109.542969 Z M 438.917969 95.136719 C 439.101562 94.582031 439.265625 94.054688 439.425781 93.546875 C 435.808594 91.082031 431.25 89.949219 426.574219 90.296875 L 422.476562 113.160156 C 426.460938 113.667969 430.328125 114.3125 434.242188 115.027344 C 434.886719 108.226562 436.914062 101.566406 438.917969 95.136719 Z M 439.101562 81.46875 C 439.402344 80.5 439.679688 79.535156 439.980469 78.566406 C 438.34375 77.550781 436.269531 77 434.035156 77 C 433.207031 78.589844 432.609375 80.316406 432.195312 82.070312 C 434.335938 82.367188 436.433594 82.898438 438.433594 83.660156 C 438.6875 82.945312 438.894531 82.183594 439.101562 81.46875 Z M 505.59375 642.167969 L 505.59375 628.226562 C 505.59375 626.242188 505.550781 624.167969 505.527344 622.117188 C 505.386719 617.648438 505.296875 613.082031 505.640625 608.703125 C 501.335938 609.074219 496.957031 609.535156 492.742188 610.132812 C 488.898438 610.640625 485.074219 611.308594 481.226562 611.953125 C 474.019531 613.175781 466.511719 614.488281 458.957031 614.90625 C 439.609375 615.964844 420.125 616.496094 400.640625 616.496094 C 376.988281 616.496094 353.332031 615.6875 329.886719 614.144531 C 319.59375 613.429688 309.296875 612.277344 299.347656 611.148438 C 291.929688 610.339844 284.308594 609.535156 276.707031 608.867188 C 277.007812 613.222656 276.914062 617.714844 276.824219 622.117188 C 276.753906 624.167969 276.707031 626.242188 276.707031 628.226562 L 276.707031 640.347656 C 282.304688 642.792969 288.175781 645.121094 294.304688 647.355469 C 297.527344 648.484375 300.820312 649.636719 304.117188 650.675781 C 352.320312 666.300781 400.777344 670.378906 444.285156 662.589844 C 465.914062 658.695312 486.503906 651.828125 505.59375 642.167969 Z M 525.496094 748.71875 C 527.199219 745.929688 526.644531 738.625 526.230469 733.300781 C 526 730.765625 525.839844 728.414062 525.839844 726.433594 L 525.839844 618.363281 C 525.839844 617.003906 525.886719 615.480469 525.933594 613.890625 C 526.09375 609.582031 526.394531 599.460938 523.859375 598.65625 C 522.59375 598.265625 520.359375 598.265625 518.285156 599.625 C 516.097656 601.007812 514.714844 603.496094 514.277344 606.746094 C 513.703125 611.402344 513.816406 616.75 513.957031 621.910156 C 514.003906 624.054688 514.023438 626.199219 514.023438 628.226562 L 514.023438 671.648438 C 514.003906 693.128906 514.003906 714.609375 514.003906 736.042969 L 514.003906 738.164062 C 513.957031 740.765625 513.863281 747.660156 515.085938 749.179688 C 515.777344 749.59375 517.617188 749.894531 522.683594 749.042969 C 523.238281 748.925781 523.8125 748.878906 524.414062 748.832031 C 524.78125 748.832031 525.332031 748.789062 525.496094 748.71875 Z M 540.8125 767.734375 C 540.949219 767.15625 540.902344 765.933594 540.855469 765.175781 C 540.855469 764.667969 540.8125 764.113281 540.8125 763.605469 C 540.8125 762.546875 540.8125 760.449219 540.558594 759.390625 C 539.175781 759.4375 537.816406 759.390625 536.480469 759.390625 L 502.554688 759.390625 C 501.820312 759.390625 501.011719 759.390625 500.253906 759.34375 C 498.941406 759.34375 497.671875 759.296875 496.359375 759.390625 C 496.039062 759.390625 495.691406 759.4375 495.347656 759.480469 C 495.023438 759.503906 494.726562 759.550781 494.425781 759.597656 C 494.425781 759.941406 494.425781 760.265625 494.425781 760.519531 L 494.425781 766.71875 C 494.425781 767.066406 494.425781 767.527344 494.378906 767.988281 C 495.785156 768.285156 498.570312 768.078125 499.816406 767.964844 C 500.875 767.917969 501.773438 767.824219 502.484375 767.824219 L 532.796875 767.824219 C 533.695312 767.824219 534.617188 767.871094 535.492188 767.917969 C 537.449219 767.964844 539.289062 768.03125 540.8125 767.734375 Z M 550.761719 198.066406 C 554.976562 199.082031 558.867188 200.671875 562.621094 202.492188 C 558.660156 194.976562 553.085938 188.433594 547.46875 182.464844 C 538.921875 173.289062 527.960938 164.949219 513.910156 156.882812 C 474.988281 134.523438 429.984375 123.277344 385.046875 123.277344 C 342.484375 123.277344 299.992188 133.328125 262.589844 153.492188 C 243.402344 163.839844 229.101562 175.25 218.898438 188.363281 C 214.589844 193.894531 211.183594 199.632812 208.648438 205.488281 C 243.152344 191.9375 282.234375 183.800781 327.816406 180.894531 C 368.375 178.269531 409.621094 179.996094 449.558594 181.703125 L 457.527344 181.980469 C 489.289062 183.292969 520.519531 190.808594 550.761719 198.066406 Z M 560.664062 601.398438 C 558.613281 601.765625 556.542969 602.113281 554.46875 602.414062 C 551.222656 602.875 548.203125 603.289062 545.1875 604.003906 C 542.675781 604.601562 540.210938 604.695312 537.910156 604.765625 C 536.6875 604.808594 535.492188 604.902344 534.363281 604.972656 C 534.523438 608.058594 534.453125 611.21875 534.363281 614.191406 C 534.316406 615.664062 534.269531 617.09375 534.269531 618.363281 L 534.269531 624.5625 C 535.722656 623.5 537.148438 622.488281 538.53125 621.402344 C 543.089844 617.855469 547.511719 614.050781 551.660156 610.179688 L 553.707031 608.222656 C 556.195312 605.917969 558.566406 603.679688 560.664062 601.398438 Z M 568.933594 227.175781 C 569.324219 224.226562 569.644531 221.390625 569.324219 218.992188 C 569.070312 217.058594 568.101562 214.777344 566.996094 212.402344 C 561.101562 209.175781 555.4375 206.132812 549.195312 204.636719 C 519.300781 197.46875 488.34375 190.046875 457.230469 188.734375 L 449.261719 188.410156 C 409.53125 186.75 368.417969 185.066406 328.230469 187.648438 C 281.0625 190.644531 241.03125 199.289062 205.953125 213.902344 C 204.804688 219.386719 205.054688 225.792969 205.355469 232.085938 C 205.515625 235.148438 205.65625 238.148438 205.65625 241.027344 L 205.65625 560.835938 C 205.65625 571.484375 208.394531 580.539062 211.597656 591.003906 L 212.359375 593.492188 C 212.402344 593.769531 212.566406 593.976562 212.65625 594.230469 C 224.035156 596.464844 235.964844 598.242188 248.703125 599.625 C 249.667969 595.359375 251.742188 591.949219 255.957031 590.589844 C 260.054688 589.320312 264.730469 590.035156 268.578125 592.480469 C 271.894531 594.644531 274.3125 597.941406 275.578125 601.976562 C 283.800781 602.667969 292.070312 603.542969 300.109375 604.441406 C 309.988281 605.570312 320.238281 606.722656 330.300781 607.390625 C 372.863281 610.25 416.027344 610.503906 458.589844 608.152344 C 465.75 607.738281 473.050781 606.492188 480.101562 605.269531 C 484.015625 604.648438 487.882812 603.957031 491.824219 603.425781 C 496.796875 602.734375 501.886719 602.25 506.816406 601.765625 C 508.082031 597.847656 510.457031 594.601562 513.75 592.480469 C 517.570312 590.035156 522.292969 589.320312 526.347656 590.589844 C 530.148438 591.765625 532.128906 594.691406 533.234375 598.308594 C 534.730469 598.148438 536.203125 598.058594 537.65625 598.011719 C 539.75 597.941406 541.730469 597.847656 543.667969 597.433594 C 546.914062 596.675781 550.253906 596.167969 553.5 595.707031 C 558.109375 595.0625 562.53125 594.4375 566.582031 593.03125 C 567.710938 590.519531 568.3125 587.984375 568.3125 585.242188 C 568.355469 579.410156 568.3125 573.558594 568.3125 567.726562 L 568.3125 234.78125 C 568.3125 232.109375 568.632812 229.617188 568.933594 227.175781 " fill-opacity="1" fill-rule="nonzero"/></g><g fill="#ffffff" fill-opacity="1"><g transform="translate(351.070298, 376.149846)"><g><path d="M 21.84375 0 L 18.796875 0 L 16.546875 -6.65625 L 6.203125 -6.65625 L 3.953125 0 L 0.96875 0 L 9.4375 -24.265625 L 13.375 -24.265625 Z M 11.171875 -21.328125 L 7 -9.046875 L 15.734375 -9.046875 L 11.59375 -21.328125 Z M 11.171875 -21.328125 "/></g></g></g><g fill="#ffffff" fill-opacity="1"><g transform="translate(373.878223, 376.149846)"><g><path d="M 13.421875 0.34375 C 11.296875 0.34375 9.398438 -0.140625 7.734375 -1.109375 C 6.078125 -2.085938 4.773438 -3.515625 3.828125 -5.390625 C 2.890625 -7.265625 2.421875 -9.515625 2.421875 -12.140625 C 2.421875 -14.765625 2.890625 -17.015625 3.828125 -18.890625 C 4.773438 -20.765625 6.078125 -22.1875 7.734375 -23.15625 C 9.398438 -24.132812 11.296875 -24.625 13.421875 -24.625 C 15.679688 -24.625 17.5625 -24.191406 19.0625 -23.328125 C 20.570312 -22.472656 21.660156 -21.179688 22.328125 -19.453125 L 20.5 -18.25 L 20.09375 -18.25 C 19.425781 -19.632812 18.5625 -20.613281 17.5 -21.1875 C 16.4375 -21.769531 15.078125 -22.0625 13.421875 -22.0625 C 11.890625 -22.0625 10.53125 -21.71875 9.34375 -21.03125 C 8.164062 -20.351562 7.226562 -19.273438 6.53125 -17.796875 C 5.832031 -16.328125 5.484375 -14.441406 5.484375 -12.140625 C 5.484375 -9.835938 5.832031 -7.945312 6.53125 -6.46875 C 7.226562 -5 8.164062 -3.921875 9.34375 -3.234375 C 10.53125 -2.554688 11.890625 -2.21875 13.421875 -2.21875 C 15.171875 -2.21875 16.601562 -2.613281 17.71875 -3.40625 C 18.84375 -4.195312 19.675781 -5.476562 20.21875 -7.25 L 20.640625 -7.25 L 22.546875 -6.3125 C 21.972656 -4.164062 20.90625 -2.519531 19.34375 -1.375 C 17.789062 -0.226562 15.816406 0.34375 13.421875 0.34375 Z M 13.421875 0.34375 "/></g></g></g><g fill="#ffffff" fill-opacity="1"><g transform="translate(397.682128, 376.149846)"><g><path d="M 17.9375 -24.265625 L 17.9375 -21.921875 L 6.53125 -21.921875 L 6.53125 -13.078125 L 16.78125 -13.078125 L 16.78125 -10.703125 L 6.53125 -10.703125 L 6.53125 0 L 3.671875 0 L 3.671875 -24.265625 Z M 17.9375 -24.265625 "/></g></g></g></svg>