<svg xmlns="http://www.w3.org/2000/svg" xmlns:xlink="http://www.w3.org/1999/xlink" width="1024" zoomAndPan="magnify" viewBox="0 0 768 767.999994" height="1024" preserveAspectRatio="xMidYMid meet" version="1.0"><defs><clipPath id="604f415c3b"><path d="M 538 753 L 592.949219 753 L 592.949219 766 L 538 766 Z M 538 753 " clip-rule="nonzero"/></clipPath><clipPath id="2f3d0b337c"><path d="M 175.199219 753 L 230 753 L 230 766 L 175.199219 766 Z M 175.199219 753 " clip-rule="nonzero"/></clipPath></defs><path fill="#c7ebf8" d="M 383.875 341.8125 C 351.472656 341.8125 325.121094 368.164062 325.121094 400.570312 C 325.121094 432.972656 351.472656 459.328125 383.875 459.328125 C 416.28125 459.328125 442.632812 432.972656 442.632812 400.570312 C 442.632812 368.164062 416.28125 341.8125 383.875 341.8125 Z M 427.777344 422.273438 C 421.96875 434.015625 411.941406 442.757812 399.589844 446.976562 C 394.453125 448.75 389.132812 449.605469 383.816406 449.605469 C 376.417969 449.605469 369.019531 447.894531 362.171875 444.53125 C 337.960938 432.546875 327.992188 403.136719 339.976562 378.925781 C 345.785156 367.1875 355.8125 358.441406 368.164062 354.222656 C 371.34375 353.125 374.828125 354.835938 375.929688 358.074219 C 377.027344 361.316406 375.316406 364.742188 372.074219 365.839844 C 362.78125 368.960938 355.261719 375.5625 350.921875 384.367188 C 341.933594 402.527344 349.394531 424.597656 367.613281 433.585938 C 376.417969 437.925781 386.382812 438.597656 395.675781 435.421875 C 404.96875 432.300781 412.492188 425.699219 416.832031 416.894531 C 425.820312 398.734375 418.359375 376.664062 400.140625 367.675781 C 397.878906 366.574219 395.554688 365.71875 393.171875 365.046875 C 389.929688 364.191406 387.972656 360.828125 388.828125 357.585938 C 389.683594 354.347656 393.046875 352.390625 396.289062 353.246094 C 399.46875 354.101562 402.585938 355.261719 405.582031 356.730469 C 429.792969 368.714844 439.761719 398.125 427.777344 422.335938 Z M 427.777344 422.273438 " fill-opacity="1" fill-rule="nonzero"/><path fill="#c7ebf8" d="M 182.597656 84.222656 L 182.597656 472.042969 L 332.578125 610.652344 C 360.824219 636.820312 406.867188 636.820312 435.175781 610.652344 L 585.15625 472.042969 L 585.15625 84.222656 Z M 214.941406 105.378906 C 214.941406 102.015625 217.695312 99.261719 221.054688 99.261719 C 224.417969 99.261719 227.171875 102.015625 227.171875 105.378906 L 227.171875 136.4375 C 227.171875 139.800781 224.417969 142.550781 221.054688 142.550781 C 217.695312 142.550781 214.941406 139.800781 214.941406 136.4375 Z M 360.886719 599.464844 C 359.664062 600.6875 358.136719 601.238281 356.546875 601.238281 C 354.957031 601.238281 353.429688 600.625 352.207031 599.464844 L 229.003906 476.691406 C 220.078125 468.496094 214.882812 456.574219 214.882812 444.222656 L 214.882812 158.265625 C 214.882812 154.902344 217.632812 152.152344 220.996094 152.152344 C 224.359375 152.152344 227.109375 154.902344 227.109375 158.265625 L 227.109375 444.222656 C 227.109375 453.152344 230.898438 461.773438 237.441406 467.886719 L 360.765625 590.84375 C 363.148438 593.226562 363.148438 597.078125 360.765625 599.464844 Z M 383.875 471.554688 C 344.746094 471.554688 312.890625 439.699219 312.890625 400.570312 C 312.890625 361.4375 344.746094 329.582031 383.875 329.582031 C 423.007812 329.582031 454.863281 361.4375 454.863281 400.570312 C 454.863281 439.699219 423.007812 471.554688 383.875 471.554688 Z M 383.875 471.554688 " fill-opacity="1" fill-rule="nonzero"/><path fill="#c7ebf8" d="M 227.171875 681.148438 L 540.582031 681.148438 L 540.582031 695.640625 L 227.171875 695.640625 Z M 227.171875 681.148438 " fill-opacity="1" fill-rule="nonzero"/><g clip-path="url(#604f415c3b)"><path fill="#c7ebf8" d="M 586.4375 765.890625 L 544.742188 765.890625 C 541.378906 765.890625 538.625 763.140625 538.625 759.777344 C 538.625 756.414062 541.378906 753.664062 544.742188 753.664062 L 586.4375 753.664062 C 589.800781 753.664062 592.554688 756.414062 592.554688 759.777344 C 592.554688 763.140625 589.800781 765.890625 586.4375 765.890625 Z M 586.4375 765.890625 " fill-opacity="1" fill-rule="nonzero"/></g><path fill="#c7ebf8" d="M 565.589844 765.890625 C 562.226562 765.890625 559.476562 763.140625 559.476562 759.777344 L 559.476562 731.957031 C 559.476562 728.59375 562.226562 725.84375 565.589844 725.84375 C 568.953125 725.84375 571.703125 728.59375 571.703125 731.957031 L 571.703125 759.777344 C 571.703125 763.140625 568.953125 765.890625 565.589844 765.890625 Z M 565.589844 765.890625 " fill-opacity="1" fill-rule="nonzero"/><g clip-path="url(#2f3d0b337c)"><path fill="#c7ebf8" d="M 223.074219 765.890625 L 181.375 765.890625 C 178.011719 765.890625 175.261719 763.140625 175.261719 759.777344 C 175.261719 756.414062 178.011719 753.664062 181.375 753.664062 L 223.074219 753.664062 C 226.4375 753.664062 229.1875 756.414062 229.1875 759.777344 C 229.1875 763.140625 226.4375 765.890625 223.074219 765.890625 Z M 223.074219 765.890625 " fill-opacity="1" fill-rule="nonzero"/></g><path fill="#c7ebf8" d="M 202.164062 765.890625 C 198.800781 765.890625 196.050781 763.140625 196.050781 759.777344 L 196.050781 731.957031 C 196.050781 728.59375 198.800781 725.84375 202.164062 725.84375 C 205.527344 725.84375 208.277344 728.59375 208.277344 731.957031 L 208.277344 759.777344 C 208.277344 763.140625 205.527344 765.890625 202.164062 765.890625 Z M 202.164062 765.890625 " fill-opacity="1" fill-rule="nonzero"/><path fill="#c7ebf8" d="M 576.535156 725.109375 L 576.535156 496.683594 L 554.644531 516.859375 L 554.644531 725.109375 Z M 576.535156 725.109375 " fill-opacity="1" fill-rule="nonzero"/><path fill="#c7ebf8" d="M 213.109375 725.109375 L 213.109375 516.859375 L 191.28125 496.683594 L 191.28125 725.109375 Z M 213.109375 725.109375 " fill-opacity="1" fill-rule="nonzero"/><path fill="#c7ebf8" d="M 383.875 2.046875 C 296.382812 2.046875 218.734375 31.578125 196.539062 71.992188 L 571.214844 71.992188 C 549.019531 31.578125 471.371094 2.046875 383.875 2.046875 Z M 278.652344 42.21875 C 264.40625 49.1875 252.542969 57.136719 243.371094 65.757812 C 242.210938 66.859375 240.683594 67.410156 239.152344 67.410156 C 237.503906 67.410156 235.914062 66.734375 234.691406 65.511719 C 232.367188 63.066406 232.488281 59.214844 234.933594 56.890625 C 245.023438 47.355469 257.925781 38.734375 273.269531 31.210938 C 276.328125 29.746094 279.9375 30.96875 281.464844 34.023438 C 282.933594 37.082031 281.707031 40.691406 278.652344 42.21875 Z M 307.328125 30.601562 C 302.863281 32.070312 298.523438 33.660156 294.363281 35.308594 C 293.632812 35.613281 292.898438 35.738281 292.101562 35.738281 C 289.65625 35.738281 287.332031 34.269531 286.417969 31.886719 C 285.195312 28.765625 286.722656 25.21875 289.902344 23.9375 C 294.304688 22.226562 298.828125 20.574219 303.476562 19.046875 C 306.714844 18.007812 310.140625 19.71875 311.179688 22.898438 C 312.21875 26.078125 310.507812 29.5625 307.328125 30.601562 Z M 307.328125 30.601562 " fill-opacity="1" fill-rule="nonzero"/></svg>