<svg xmlns="http://www.w3.org/2000/svg" xmlns:xlink="http://www.w3.org/1999/xlink" width="1024" zoomAndPan="magnify" viewBox="0 0 768 767.999994" height="1024" preserveAspectRatio="xMidYMid meet" version="1.0"><defs><clipPath id="f6daccaa6e"><path d="M 335.691406 230.398438 L 432.441406 230.398438 L 432.441406 258 L 335.691406 258 Z M 335.691406 230.398438 " clip-rule="nonzero"/></clipPath><clipPath id="8c50a158e7"><path d="M 335.691406 510 L 432.441406 510 L 432.441406 537.898438 L 335.691406 537.898438 Z M 335.691406 510 " clip-rule="nonzero"/></clipPath></defs><path fill="#020b0a" d="M 346.363281 498.453125 L 346.363281 269.714844 C 346.363281 267.9375 347.804688 266.492188 349.582031 266.492188 L 418.554688 266.492188 C 420.328125 266.492188 421.769531 267.9375 421.769531 269.714844 L 421.769531 498.453125 C 421.769531 500.234375 420.328125 501.679688 418.554688 501.679688 L 349.582031 501.679688 C 347.804688 501.679688 346.363281 500.234375 346.363281 498.453125 Z M 352.796875 272.941406 L 352.796875 495.230469 L 415.339844 495.230469 L 415.339844 272.941406 Z M 399.382812 485.300781 L 399.382812 458.609375 C 399.382812 456.828125 400.824219 455.382812 402.601562 455.382812 C 404.375 455.382812 405.816406 456.828125 405.816406 458.609375 L 405.816406 485.300781 C 405.816406 487.082031 404.375 488.527344 402.601562 488.527344 C 400.824219 488.527344 399.382812 487.082031 399.382812 485.300781 Z M 399.382812 440.855469 L 399.382812 293.46875 C 399.382812 291.691406 400.824219 290.246094 402.601562 290.246094 C 404.375 290.246094 405.816406 291.691406 405.816406 293.46875 L 405.816406 440.855469 C 405.816406 442.636719 404.375 444.082031 402.601562 444.082031 C 400.824219 444.082031 399.382812 442.636719 399.382812 440.855469 Z M 399.382812 440.855469 " fill-opacity="1" fill-rule="nonzero"/><path fill="#020b0a" d="M 342.632812 266.652344 L 342.632812 254.773438 C 342.632812 252.992188 344.074219 251.546875 345.847656 251.546875 L 422.285156 251.546875 C 424.0625 251.546875 425.503906 252.992188 425.503906 254.773438 L 425.503906 266.652344 C 425.503906 270.121094 422.675781 272.941406 419.199219 272.941406 L 348.941406 272.941406 C 345.460938 272.941406 342.632812 270.121094 342.632812 266.652344 Z M 349.066406 257.996094 L 349.066406 266.652344 L 419.070312 266.492188 L 419.070312 257.996094 Z M 419.070312 266.652344 L 419.070312 266.722656 Z M 419.070312 266.652344 " fill-opacity="1" fill-rule="nonzero"/><g clip-path="url(#f6daccaa6e)"><path fill="#020b0a" d="M 335.683594 251.070312 L 335.683594 237.402344 C 335.683594 233.582031 338.800781 230.472656 342.632812 230.472656 L 425.503906 230.472656 C 429.335938 230.472656 432.449219 233.582031 432.449219 237.402344 L 432.449219 251.070312 C 432.449219 254.890625 429.335938 257.996094 425.503906 257.996094 L 342.632812 257.996094 C 338.800781 257.996094 335.683594 254.890625 335.683594 251.070312 Z M 426.019531 237.402344 L 342.632812 236.921875 L 342.117188 251.070312 L 425.503906 251.546875 L 426.019531 251.070312 Z M 426.019531 237.402344 " fill-opacity="1" fill-rule="nonzero"/></g><path fill="#020b0a" d="M 342.632812 513.398438 L 342.632812 501.523438 C 342.632812 498.054688 345.460938 495.230469 348.941406 495.230469 L 419.199219 495.230469 C 422.675781 495.230469 425.503906 498.054688 425.503906 501.523438 L 425.503906 513.398438 C 425.503906 515.179688 424.0625 516.621094 422.285156 516.621094 L 345.847656 516.621094 C 344.074219 516.621094 342.632812 515.175781 342.632812 513.398438 Z M 419.070312 501.679688 L 348.941406 501.679688 L 349.03125 510.171875 L 419.070312 510.171875 Z M 419.070312 501.679688 " fill-opacity="1" fill-rule="nonzero"/><g clip-path="url(#8c50a158e7)"><path fill="#020b0a" d="M 335.683594 530.894531 L 335.683594 517.230469 C 335.683594 513.339844 338.800781 510.171875 342.632812 510.171875 L 425.503906 510.171875 C 429.335938 510.171875 432.449219 513.339844 432.449219 517.230469 L 432.449219 530.894531 C 432.449219 534.714844 429.335938 537.824219 425.503906 537.824219 L 342.632812 537.824219 C 338.800781 537.824219 335.683594 534.714844 335.683594 530.894531 Z M 426.019531 517.230469 C 426.019531 516.941406 425.746094 516.621094 425.503906 516.621094 L 342.632812 516.621094 C 342.386719 516.621094 342.117188 516.941406 342.117188 517.230469 L 342.117188 530.894531 L 425.503906 531.375 Z M 426.019531 517.230469 " fill-opacity="1" fill-rule="nonzero"/></g></svg>