<svg xmlns="http://www.w3.org/2000/svg" xmlns:xlink="http://www.w3.org/1999/xlink" width="1024" zoomAndPan="magnify" viewBox="0 0 768 767.999994" height="1024" preserveAspectRatio="xMidYMid meet" version="1.0"><defs><clipPath id="c6adc5a0cd"><path d="M 230.398438 341 L 537.898438 341 L 537.898438 427 L 230.398438 427 Z M 230.398438 341 " clip-rule="nonzero"/></clipPath><clipPath id="169df779c9"><path d="M 332 317.121094 L 367 317.121094 L 367 450.621094 L 332 450.621094 Z M 332 317.121094 " clip-rule="nonzero"/></clipPath><clipPath id="5bd8f96765"><path d="M 401 317.121094 L 436 317.121094 L 436 450.621094 L 401 450.621094 Z M 401 317.121094 " clip-rule="nonzero"/></clipPath></defs><g clip-path="url(#c6adc5a0cd)"><path fill="#000000" d="M 534.894531 426.65625 L 451.023438 426.65625 C 449.363281 426.65625 448.019531 425.316406 448.019531 423.664062 C 448.019531 422.011719 449.363281 420.667969 451.023438 420.667969 L 531.890625 420.667969 L 531.890625 347.082031 L 451.023438 347.082031 C 449.363281 347.082031 448.019531 345.742188 448.019531 344.085938 C 448.019531 342.433594 449.363281 341.09375 451.023438 341.09375 L 534.894531 341.09375 C 536.554688 341.09375 537.898438 342.433594 537.898438 344.085938 L 537.898438 423.664062 C 537.898438 425.316406 536.554688 426.65625 534.894531 426.65625 Z M 404.839844 426.65625 L 363.457031 426.65625 C 361.796875 426.65625 360.453125 425.316406 360.453125 423.664062 C 360.453125 422.011719 361.796875 420.667969 363.457031 420.667969 L 404.839844 420.667969 C 406.496094 420.667969 407.84375 422.011719 407.84375 423.664062 C 407.84375 425.316406 406.496094 426.65625 404.839844 426.65625 Z M 317.273438 426.65625 L 233.398438 426.65625 C 231.742188 426.65625 230.394531 425.316406 230.394531 423.664062 L 230.394531 344.089844 C 230.394531 342.433594 231.742188 341.09375 233.398438 341.09375 L 317.273438 341.09375 C 318.933594 341.09375 320.277344 342.433594 320.277344 344.089844 C 320.277344 345.742188 318.933594 347.082031 317.273438 347.082031 L 236.402344 347.082031 L 236.402344 420.671875 L 317.273438 420.671875 C 318.933594 420.671875 320.277344 422.011719 320.277344 423.664062 C 320.277344 425.316406 318.933594 426.660156 317.273438 426.660156 Z M 404.839844 347.082031 L 363.457031 347.082031 C 361.796875 347.082031 360.453125 345.742188 360.453125 344.085938 C 360.453125 342.433594 361.796875 341.09375 363.457031 341.09375 L 404.839844 341.09375 C 406.496094 341.09375 407.84375 342.433594 407.84375 344.085938 C 407.84375 345.742188 406.496094 347.082031 404.839844 347.082031 Z M 404.839844 347.082031 " fill-opacity="1" fill-rule="evenodd"/></g><g clip-path="url(#169df779c9)"><path fill="#000000" d="M 363.457031 450.605469 L 335.375 450.605469 C 333.714844 450.605469 332.371094 449.261719 332.371094 447.609375 L 332.371094 320.140625 C 332.371094 318.488281 333.714844 317.148438 335.375 317.148438 L 363.457031 317.148438 C 365.113281 317.148438 366.460938 318.488281 366.460938 320.140625 L 366.460938 447.609375 C 366.460938 449.261719 365.113281 450.605469 363.457031 450.605469 Z M 338.378906 444.617188 L 360.453125 444.617188 L 360.453125 323.136719 L 338.378906 323.136719 Z M 338.378906 444.617188 " fill-opacity="1" fill-rule="evenodd"/></g><g clip-path="url(#5bd8f96765)"><path fill="#000000" d="M 432.917969 450.605469 L 404.839844 450.605469 C 403.179688 450.605469 401.835938 449.261719 401.835938 447.609375 L 401.835938 320.140625 C 401.835938 318.488281 403.179688 317.148438 404.839844 317.148438 L 432.917969 317.148438 C 434.578125 317.148438 435.921875 318.488281 435.921875 320.140625 L 435.921875 447.609375 C 435.921875 449.261719 434.578125 450.605469 432.917969 450.605469 Z M 407.839844 444.617188 L 429.914062 444.617188 L 429.914062 323.136719 L 407.839844 323.136719 Z M 407.839844 444.617188 " fill-opacity="1" fill-rule="evenodd"/></g><path fill="#000000" d="M 335.378906 394.449219 L 320.875 394.449219 C 317.234375 394.449219 314.269531 391.496094 314.269531 387.867188 L 314.269531 375.707031 C 314.269531 372.074219 317.234375 369.121094 320.875 369.121094 L 335.378906 369.121094 C 337.035156 369.121094 338.382812 370.460938 338.382812 372.117188 L 338.382812 391.457031 C 338.382812 393.109375 337.035156 394.449219 335.378906 394.449219 Z M 320.875 375.109375 C 320.550781 375.109375 320.277344 375.382812 320.277344 375.707031 L 320.277344 387.867188 C 320.277344 388.1875 320.550781 388.460938 320.875 388.460938 L 332.375 388.460938 L 332.375 375.109375 Z M 320.875 375.109375 " fill-opacity="1" fill-rule="evenodd"/><path fill="#000000" d="M 335.378906 355.960938 L 320.875 355.960938 C 317.234375 355.960938 314.269531 353.007812 314.269531 349.375 L 314.269531 337.214844 C 314.269531 333.585938 317.234375 330.632812 320.875 330.632812 L 335.378906 330.632812 C 337.035156 330.632812 338.382812 331.972656 338.382812 333.625 L 338.382812 352.96875 C 338.382812 354.621094 337.035156 355.960938 335.378906 355.960938 Z M 320.875 336.621094 C 320.675781 336.621094 320.535156 336.71875 320.453125 336.796875 C 320.375 336.878906 320.277344 337.019531 320.277344 337.21875 L 320.277344 349.378906 C 320.277344 349.699219 320.550781 349.972656 320.875 349.972656 L 332.375 349.972656 L 332.375 336.621094 Z M 320.875 336.621094 " fill-opacity="1" fill-rule="evenodd"/><path fill="#000000" d="M 335.378906 437.117188 L 320.875 437.117188 C 317.234375 437.117188 314.269531 434.164062 314.269531 430.535156 L 314.269531 418.375 C 314.269531 414.742188 317.234375 411.789062 320.875 411.789062 L 335.378906 411.789062 C 337.035156 411.789062 338.382812 413.128906 338.382812 414.785156 L 338.382812 434.125 C 338.382812 435.78125 337.035156 437.117188 335.378906 437.117188 Z M 320.875 417.777344 C 320.550781 417.777344 320.277344 418.050781 320.277344 418.375 L 320.277344 430.535156 C 320.277344 430.855469 320.550781 431.128906 320.875 431.128906 L 332.375 431.128906 L 332.375 417.777344 Z M 320.875 417.777344 " fill-opacity="1" fill-rule="evenodd"/><path fill="#000000" d="M 447.421875 394.449219 L 432.917969 394.449219 C 431.261719 394.449219 429.914062 393.109375 429.914062 391.457031 L 429.914062 372.117188 C 429.914062 370.460938 431.261719 369.121094 432.917969 369.121094 L 447.421875 369.121094 C 451.0625 369.121094 454.027344 372.074219 454.027344 375.707031 L 454.027344 387.867188 C 454.027344 391.496094 451.0625 394.449219 447.421875 394.449219 Z M 435.921875 388.460938 L 447.421875 388.460938 C 447.746094 388.460938 448.019531 388.191406 448.019531 387.867188 L 448.019531 375.707031 C 448.019531 375.382812 447.746094 375.109375 447.421875 375.109375 L 435.921875 375.109375 Z M 435.921875 388.460938 " fill-opacity="1" fill-rule="evenodd"/><path fill="#000000" d="M 447.421875 355.960938 L 432.917969 355.960938 C 431.261719 355.960938 429.914062 354.621094 429.914062 352.96875 L 429.914062 333.625 C 429.914062 331.972656 431.261719 330.632812 432.917969 330.632812 L 447.421875 330.632812 C 449.183594 330.632812 450.839844 331.316406 452.089844 332.5625 C 453.339844 333.808594 454.027344 335.460938 454.027344 337.214844 L 454.027344 349.375 C 454.027344 353.007812 451.0625 355.960938 447.421875 355.960938 Z M 435.921875 349.972656 L 447.421875 349.972656 C 447.746094 349.972656 448.019531 349.699219 448.019531 349.378906 L 448.019531 337.21875 C 448.019531 336.894531 447.746094 336.621094 447.421875 336.621094 L 435.921875 336.621094 Z M 435.921875 349.972656 " fill-opacity="1" fill-rule="evenodd"/><path fill="#000000" d="M 447.421875 437.117188 L 432.917969 437.117188 C 431.261719 437.117188 429.914062 435.777344 429.914062 434.125 L 429.914062 414.785156 C 429.914062 413.128906 431.261719 411.789062 432.917969 411.789062 L 447.421875 411.789062 C 451.0625 411.789062 454.027344 414.742188 454.027344 418.375 L 454.027344 430.535156 C 454.027344 434.164062 451.0625 437.117188 447.421875 437.117188 Z M 435.921875 431.128906 L 447.421875 431.128906 C 447.746094 431.128906 448.019531 430.859375 448.019531 430.535156 L 448.019531 418.375 C 448.019531 418.050781 447.746094 417.777344 447.421875 417.777344 L 435.921875 417.777344 Z M 435.921875 431.128906 " fill-opacity="1" fill-rule="evenodd"/></svg>