<svg xmlns="http://www.w3.org/2000/svg" xmlns:xlink="http://www.w3.org/1999/xlink" width="1024" zoomAndPan="magnify" viewBox="0 0 768 767.999994" height="1024" preserveAspectRatio="xMidYMid meet" version="1.0"><defs><clipPath id="8181bee1b3"><path d="M 230.398438 230.398438 L 537.898438 230.398438 L 537.898438 537.898438 L 230.398438 537.898438 Z M 230.398438 230.398438 " clip-rule="nonzero"/></clipPath></defs><g clip-path="url(#8181bee1b3)"><path fill="#000000" d="M 533.539062 429.898438 L 507.140625 429.898438 C 504.824219 429.898438 502.941406 431.777344 502.941406 434.097656 L 502.941406 443.695312 L 441.667969 443.695312 L 441.667969 434.097656 C 441.671875 431.777344 439.789062 429.898438 437.46875 429.898438 L 411.070312 429.898438 C 408.75 429.898438 406.871094 431.777344 406.871094 434.097656 L 406.871094 443.695312 L 368.550781 443.695312 C 344.375 443.667969 324.78125 424.078125 324.753906 399.898438 L 324.753906 361.28125 L 334.351562 361.28125 C 336.671875 361.28125 338.554688 359.398438 338.554688 357.082031 L 338.554688 330.683594 C 338.554688 328.363281 336.671875 326.480469 334.351562 326.480469 L 324.753906 326.480469 L 324.753906 265.207031 L 334.351562 265.207031 C 336.671875 265.207031 338.554688 263.328125 338.554688 261.007812 L 338.554688 234.609375 C 338.554688 232.292969 336.671875 230.410156 334.351562 230.410156 L 234.757812 230.410156 C 232.441406 230.410156 230.558594 232.292969 230.558594 234.609375 L 230.558594 261.007812 C 230.558594 263.328125 232.441406 265.207031 234.757812 265.207031 L 244.359375 265.207031 L 244.359375 326.480469 L 234.757812 326.480469 C 232.441406 326.480469 230.558594 328.363281 230.558594 330.683594 L 230.558594 357.082031 C 230.558594 359.398438 232.441406 361.28125 234.757812 361.28125 L 244.359375 361.28125 L 244.359375 399.898438 C 244.4375 468.457031 299.992188 524.011719 368.550781 524.089844 L 406.871094 524.089844 L 406.871094 533.691406 C 406.871094 536.011719 408.75 537.890625 411.070312 537.890625 L 437.46875 537.890625 C 439.789062 537.890625 441.667969 536.011719 441.667969 533.691406 L 441.667969 524.089844 L 502.941406 524.089844 L 502.941406 533.691406 C 502.941406 536.011719 504.824219 537.890625 507.140625 537.890625 L 533.539062 537.890625 C 535.859375 537.890625 537.738281 536.011719 537.738281 533.691406 L 537.738281 434.097656 C 537.738281 431.777344 535.859375 429.898438 533.539062 429.898438 Z M 502.941406 467.695312 L 441.667969 467.695312 L 441.667969 452.097656 L 502.941406 452.097656 Z M 368.550781 452.097656 L 406.871094 452.097656 L 406.871094 467.695312 L 368.550781 467.695312 C 331.125 467.652344 300.800781 437.324219 300.753906 399.898438 L 300.753906 361.28125 L 316.355469 361.28125 L 316.355469 399.898438 C 316.390625 428.714844 339.738281 452.066406 368.550781 452.097656 Z M 316.355469 326.480469 L 300.753906 326.480469 L 300.753906 265.207031 L 316.355469 265.207031 Z M 238.960938 238.808594 L 330.152344 238.808594 L 330.152344 256.808594 L 238.960938 256.808594 Z M 252.757812 265.207031 L 292.355469 265.207031 L 292.355469 326.480469 L 252.757812 326.480469 Z M 238.960938 334.882812 L 330.152344 334.882812 L 330.152344 352.878906 L 238.960938 352.878906 Z M 368.550781 515.691406 C 304.628906 515.625 252.824219 463.824219 252.757812 399.898438 L 252.757812 361.28125 L 292.355469 361.28125 L 292.355469 399.898438 C 292.40625 441.960938 326.492188 476.046875 368.550781 476.09375 L 406.871094 476.09375 L 406.871094 515.691406 Z M 433.269531 529.492188 L 415.269531 529.492188 L 415.269531 438.296875 L 433.269531 438.296875 Z M 441.667969 476.09375 L 502.941406 476.09375 L 502.941406 515.691406 L 441.667969 515.691406 Z M 529.339844 529.492188 L 511.339844 529.492188 L 511.339844 438.296875 L 529.339844 438.296875 Z M 529.339844 529.492188 " fill-opacity="1" fill-rule="nonzero"/></g></svg>