<svg xmlns="http://www.w3.org/2000/svg" xmlns:xlink="http://www.w3.org/1999/xlink" width="1024" zoomAndPan="magnify" viewBox="0 0 768 767.999994" height="1024" preserveAspectRatio="xMidYMid meet" version="1.0"><defs><clipPath id="f6410058b4"><path d="M 302 302.398438 L 466 302.398438 L 466 465.898438 L 302 465.898438 Z M 302 302.398438 " clip-rule="nonzero"/></clipPath><clipPath id="38967c9a23"><path d="M 230.398438 340 L 269 340 L 269 428 L 230.398438 428 Z M 230.398438 340 " clip-rule="nonzero"/></clipPath><clipPath id="671cd81f65"><path d="M 499 340 L 537.898438 340 L 537.898438 428 L 499 428 Z M 499 340 " clip-rule="nonzero"/></clipPath></defs><g clip-path="url(#f6410058b4)"><path fill="#000000" d="M 384.148438 465.898438 C 339.113281 465.898438 302.472656 429.226562 302.472656 384.148438 C 302.472656 339.074219 339.113281 302.398438 384.148438 302.398438 C 429.1875 302.398438 465.828125 339.074219 465.828125 384.148438 C 465.828125 429.226562 429.1875 465.898438 384.148438 465.898438 Z M 384.148438 312.019531 C 344.410156 312.019531 312.082031 344.375 312.082031 384.148438 C 312.082031 423.921875 344.410156 456.28125 384.148438 456.28125 C 423.890625 456.28125 456.21875 423.921875 456.21875 384.148438 C 456.21875 344.375 423.890625 312.019531 384.148438 312.019531 Z M 384.148438 312.019531 " fill-opacity="1" fill-rule="nonzero"/></g><path fill="#000000" d="M 504.265625 360.105469 L 455.617188 360.105469 C 452.964844 360.105469 450.8125 357.953125 450.8125 355.296875 C 450.8125 352.640625 452.964844 350.488281 455.617188 350.488281 L 504.265625 350.488281 C 506.917969 350.488281 509.070312 352.640625 509.070312 355.296875 C 509.070312 357.953125 506.917969 360.105469 504.265625 360.105469 Z M 504.265625 360.105469 " fill-opacity="1" fill-rule="nonzero"/><path fill="#000000" d="M 504.265625 417.8125 L 455.617188 417.8125 C 452.964844 417.8125 450.8125 415.660156 450.8125 413.003906 C 450.8125 410.347656 452.964844 408.195312 455.617188 408.195312 L 504.265625 408.195312 C 506.917969 408.195312 509.070312 410.347656 509.070312 413.003906 C 509.070312 415.660156 506.917969 417.8125 504.265625 417.8125 Z M 504.265625 417.8125 " fill-opacity="1" fill-rule="nonzero"/><path fill="#000000" d="M 312.679688 360.105469 L 264.035156 360.105469 C 261.382812 360.105469 259.230469 357.953125 259.230469 355.296875 C 259.230469 352.640625 261.382812 350.488281 264.035156 350.488281 L 312.679688 350.488281 C 315.335938 350.488281 317.484375 352.640625 317.484375 355.296875 C 317.484375 357.953125 315.335938 360.105469 312.679688 360.105469 Z M 312.679688 360.105469 " fill-opacity="1" fill-rule="nonzero"/><path fill="#000000" d="M 312.679688 417.8125 L 264.035156 417.8125 C 261.382812 417.8125 259.230469 415.660156 259.230469 413.003906 C 259.230469 410.347656 261.382812 408.195312 264.035156 408.195312 L 312.679688 408.195312 C 315.335938 408.195312 317.484375 410.347656 317.484375 413.003906 C 317.484375 415.660156 315.335938 417.8125 312.679688 417.8125 Z M 312.679688 417.8125 " fill-opacity="1" fill-rule="nonzero"/><g clip-path="url(#38967c9a23)"><path fill="#000000" d="M 264.035156 427.429688 L 235.207031 427.429688 C 232.554688 427.429688 230.402344 425.277344 230.402344 422.621094 L 230.402344 345.679688 C 230.402344 343.023438 232.554688 340.871094 235.207031 340.871094 L 264.035156 340.871094 C 266.6875 340.871094 268.839844 343.023438 268.839844 345.679688 L 268.839844 422.621094 C 268.839844 425.277344 266.6875 427.429688 264.035156 427.429688 Z M 240.011719 417.8125 L 259.230469 417.8125 L 259.230469 350.488281 L 240.011719 350.488281 Z M 240.011719 417.8125 " fill-opacity="1" fill-rule="nonzero"/></g><g clip-path="url(#671cd81f65)"><path fill="#000000" d="M 533.09375 427.429688 L 504.265625 427.429688 C 501.613281 427.429688 499.460938 425.277344 499.460938 422.621094 L 499.460938 345.679688 C 499.460938 343.023438 501.613281 340.871094 504.265625 340.871094 L 533.09375 340.871094 C 535.746094 340.871094 537.898438 343.023438 537.898438 345.679688 L 537.898438 422.621094 C 537.898438 425.277344 535.746094 427.429688 533.09375 427.429688 Z M 509.070312 417.8125 L 528.289062 417.8125 L 528.289062 350.488281 L 509.070312 350.488281 Z M 509.070312 417.8125 " fill-opacity="1" fill-rule="nonzero"/></g><path fill="#000000" d="M 427.390625 379.339844 L 340.910156 379.339844 C 338.253906 379.339844 336.105469 377.1875 336.105469 374.53125 L 336.105469 345.679688 C 336.105469 343.023438 338.253906 340.871094 340.910156 340.871094 L 427.390625 340.871094 C 430.046875 340.871094 432.195312 343.023438 432.195312 345.679688 L 432.195312 374.53125 C 432.195312 377.1875 430.046875 379.339844 427.390625 379.339844 Z M 345.714844 369.722656 L 422.585938 369.722656 L 422.585938 350.488281 L 345.714844 350.488281 Z M 345.714844 369.722656 " fill-opacity="1" fill-rule="nonzero"/><path fill="#000000" d="M 384.148438 446.664062 C 373.554688 446.664062 364.929688 438.035156 364.929688 427.429688 C 364.929688 418.09375 377.960938 403.085938 380.574219 400.171875 C 381.484375 399.15625 382.785156 398.578125 384.148438 398.578125 C 385.515625 398.578125 386.816406 399.15625 387.726562 400.171875 C 390.339844 403.085938 403.367188 418.09375 403.367188 427.429688 C 403.367188 438.035156 394.746094 446.664062 384.148438 446.664062 Z M 384.148438 410.832031 C 379.054688 417.207031 374.539062 424.363281 374.539062 427.429688 C 374.539062 432.730469 378.851562 437.046875 384.148438 437.046875 C 389.449219 437.046875 393.757812 432.730469 393.757812 427.429688 C 393.757812 424.363281 389.242188 417.207031 384.148438 410.832031 Z M 384.148438 410.832031 " fill-opacity="1" fill-rule="nonzero"/><path fill="#000000" d="M 340.910156 417.8125 C 332.960938 417.8125 326.496094 411.339844 326.496094 403.386719 C 326.496094 395.429688 332.960938 388.957031 340.910156 388.957031 C 348.855469 388.957031 355.324219 395.429688 355.324219 403.386719 C 355.324219 411.339844 348.855469 417.8125 340.910156 417.8125 Z M 340.910156 398.578125 C 338.257812 398.578125 336.105469 400.734375 336.105469 403.386719 C 336.105469 406.035156 338.257812 408.195312 340.910156 408.195312 C 343.558594 408.195312 345.714844 406.035156 345.714844 403.386719 C 345.714844 400.734375 343.558594 398.578125 340.910156 398.578125 Z M 340.910156 398.578125 " fill-opacity="1" fill-rule="nonzero"/><path fill="#000000" d="M 427.390625 417.8125 C 419.445312 417.8125 412.976562 411.339844 412.976562 403.386719 C 412.976562 395.429688 419.445312 388.957031 427.390625 388.957031 C 435.339844 388.957031 441.804688 395.429688 441.804688 403.386719 C 441.804688 411.339844 435.339844 417.8125 427.390625 417.8125 Z M 427.390625 398.578125 C 424.742188 398.578125 422.585938 400.734375 422.585938 403.386719 C 422.585938 406.035156 424.742188 408.195312 427.390625 408.195312 C 430.039062 408.195312 432.195312 406.035156 432.195312 403.386719 C 432.195312 400.734375 430.039062 398.578125 427.390625 398.578125 Z M 427.390625 398.578125 " fill-opacity="1" fill-rule="nonzero"/></svg>