<svg xmlns="http://www.w3.org/2000/svg" xmlns:xlink="http://www.w3.org/1999/xlink" width="1024" zoomAndPan="magnify" viewBox="0 0 768 767.999994" height="1024" preserveAspectRatio="xMidYMid meet" version="1.0"><defs><clipPath id="0b1dd1e063"><path d="M 234 275 L 328 275 L 328 521.199219 L 234 521.199219 Z M 234 275 " clip-rule="nonzero"/></clipPath><clipPath id="58989bfbb0"><path d="M 230.398438 241.449219 L 543.148438 241.449219 L 543.148438 283 L 230.398438 283 Z M 230.398438 241.449219 " clip-rule="nonzero"/></clipPath><clipPath id="e1fbcf2e0a"><path d="M 449 275 L 543 275 L 543 521.199219 L 449 521.199219 Z M 449 275 " clip-rule="nonzero"/></clipPath><clipPath id="1511e092c2"><path d="M 340 275 L 433 275 L 433 521.199219 L 340 521.199219 Z M 340 275 " clip-rule="nonzero"/></clipPath></defs><g clip-path="url(#0b1dd1e063)"><path fill="#020b0a" d="M 283.046875 521.085938 L 278.96875 521.085938 C 257.511719 521.085938 240.050781 503.492188 240.050781 481.863281 L 240.050781 337.058594 C 236.867188 335.566406 234.671875 331.9375 234.671875 327.589844 C 234.671875 322.105469 238.128906 317.722656 242.535156 317.242188 C 242.746094 315.296875 243.394531 313.488281 244.378906 311.914062 C 242.515625 309.851562 241.355469 306.761719 241.355469 303.253906 L 241.355469 299.132812 C 241.355469 292.785156 245.160156 287.808594 250.019531 287.808594 L 252.488281 287.808594 L 252.488281 279.664062 C 252.488281 277.335938 254.371094 275.453125 256.703125 275.453125 L 305.128906 275.453125 C 307.460938 275.453125 309.34375 277.335938 309.34375 279.664062 L 309.34375 287.808594 L 311.996094 287.808594 C 316.855469 287.808594 320.664062 292.785156 320.664062 299.132812 L 320.664062 303.253906 C 320.664062 306.761719 319.503906 309.851562 317.640625 311.914062 C 318.628906 313.492188 319.277344 315.308594 319.484375 317.261719 C 323.902344 317.832031 327.34375 322.164062 327.34375 327.402344 C 327.34375 331.921875 325.070312 335.609375 321.777344 337.089844 L 321.777344 481.863281 C 321.777344 503.492188 304.402344 521.085938 283.046875 521.085938 Z M 248.484375 353.894531 L 248.484375 481.863281 C 248.484375 498.847656 262.15625 512.664062 278.96875 512.664062 L 283.046875 512.664062 C 299.753906 512.664062 313.347656 498.847656 313.347656 481.863281 L 313.347656 337.792969 L 248.484375 337.792969 L 248.484375 345.472656 L 267.089844 345.472656 C 269.421875 345.472656 271.304688 347.355469 271.304688 349.683594 C 271.304688 352.011719 269.421875 353.894531 267.089844 353.894531 Z M 243.671875 325.621094 C 243.457031 325.871094 243.101562 326.503906 243.101562 327.402344 C 243.101562 328.632812 243.488281 329.242188 243.65625 329.410156 C 243.855469 329.386719 244.058594 329.371094 244.265625 329.371094 L 317.5625 329.371094 C 317.589844 329.371094 317.621094 329.371094 317.652344 329.371094 L 318.492188 329.371094 C 318.476562 329.3125 318.914062 328.699219 318.914062 327.589844 C 318.914062 326.390625 318.433594 325.6875 318.238281 325.570312 L 316.003906 325.570312 C 315.785156 325.605469 315.558594 325.621094 315.335938 325.621094 L 246.679688 325.621094 C 246.632812 325.621094 246.582031 325.621094 246.539062 325.621094 Z M 251.128906 317.199219 L 310.886719 317.199219 C 310.347656 315.667969 308.972656 314.574219 307.359375 314.574219 L 254.65625 314.574219 C 253.042969 314.574219 251.667969 315.667969 251.128906 317.199219 Z M 250.53125 296.230469 C 250.242188 296.644531 249.78125 297.640625 249.78125 299.132812 L 249.78125 303.253906 C 249.78125 305.050781 250.445312 306.140625 250.6875 306.332031 L 252.625 306.324219 C 253.285156 306.210938 253.964844 306.15625 254.65625 306.15625 L 307.359375 306.15625 C 307.539062 306.15625 307.714844 306.15625 307.894531 306.164062 L 311.996094 306.15625 C 311.570312 306.140625 312.230469 305.050781 312.230469 303.253906 L 312.230469 299.132812 C 312.230469 297.335938 311.566406 296.246094 311.328125 296.054688 L 306.292969 296.070312 C 305.925781 296.175781 305.535156 296.230469 305.128906 296.230469 L 256.699219 296.230469 C 256.566406 296.230469 256.433594 296.226562 256.304688 296.21875 Z M 250.03125 296.230469 L 250.019531 296.230469 C 250.023438 296.230469 250.023438 296.230469 250.03125 296.230469 Z M 260.917969 287.808594 L 300.914062 287.808594 L 300.914062 283.875 L 260.917969 283.875 Z M 298.265625 471.472656 C 295.933594 471.472656 294.050781 469.589844 294.050781 467.261719 L 294.050781 379.824219 C 294.050781 377.496094 295.933594 375.617188 298.265625 375.617188 C 300.597656 375.617188 302.480469 377.496094 302.480469 379.824219 L 302.480469 467.261719 C 302.480469 469.589844 300.59375 471.472656 298.265625 471.472656 Z M 298.265625 370.933594 C 295.933594 370.933594 294.050781 369.050781 294.050781 366.722656 L 294.050781 352.308594 C 294.050781 349.976562 295.933594 348.097656 298.265625 348.097656 C 300.597656 348.097656 302.480469 349.976562 302.480469 352.308594 L 302.480469 366.722656 C 302.480469 369.050781 300.59375 370.933594 298.265625 370.933594 Z M 298.265625 370.933594 " fill-opacity="1" fill-rule="nonzero"/></g><g clip-path="url(#58989bfbb0)"><path fill="#020b0a" d="M 528.726562 282.9375 L 244.636719 282.9375 C 236.785156 282.9375 230.398438 276.425781 230.398438 268.425781 L 230.398438 256.070312 C 230.398438 248.070312 236.785156 241.5625 244.636719 241.5625 L 528.726562 241.5625 C 536.679688 241.5625 543.148438 248.070312 543.148438 256.070312 L 543.148438 268.425781 C 543.148438 276.425781 536.679688 282.9375 528.726562 282.9375 Z M 244.636719 249.984375 C 241.4375 249.984375 238.832031 252.710938 238.832031 256.070312 L 238.832031 268.425781 C 238.832031 271.785156 241.4375 274.515625 244.636719 274.515625 L 528.726562 274.515625 C 531.972656 274.515625 534.71875 271.726562 534.71875 268.425781 L 534.71875 256.070312 C 534.71875 252.773438 531.972656 249.980469 528.726562 249.980469 L 244.636719 249.980469 Z M 244.636719 249.984375 " fill-opacity="1" fill-rule="nonzero"/></g><g clip-path="url(#e1fbcf2e0a)"><path fill="#020b0a" d="M 498.296875 521.085938 L 494.214844 521.085938 C 472.757812 521.085938 455.300781 503.492188 455.300781 481.863281 L 455.300781 337.003906 C 452.109375 335.480469 449.921875 331.886719 449.921875 327.589844 C 449.921875 322.175781 453.363281 317.832031 457.78125 317.261719 C 457.988281 315.3125 458.636719 313.492188 459.621094 311.914062 C 457.757812 309.851562 456.597656 306.765625 456.597656 303.253906 L 456.597656 299.132812 C 456.597656 292.785156 460.40625 287.808594 465.269531 287.808594 L 467.914062 287.808594 L 467.914062 279.664062 C 467.914062 277.335938 469.800781 275.453125 472.128906 275.453125 L 520.375 275.453125 C 522.707031 275.453125 524.589844 277.335938 524.589844 279.664062 L 524.589844 287.808594 L 527.246094 287.808594 C 532.101562 287.808594 535.910156 292.785156 535.910156 299.132812 L 535.910156 303.253906 C 535.910156 306.761719 534.75 309.851562 532.886719 311.914062 C 533.871094 313.488281 534.519531 315.296875 534.730469 317.242188 C 539.136719 317.722656 542.59375 322.097656 542.59375 327.402344 C 542.59375 331.890625 540.398438 335.554688 537.210938 337.054688 L 537.210938 481.863281 C 537.210938 503.492188 519.753906 521.085938 498.296875 521.085938 Z M 463.730469 353.894531 L 463.730469 481.863281 C 463.730469 498.847656 477.40625 512.664062 494.214844 512.664062 L 498.296875 512.664062 C 515.105469 512.664062 528.78125 498.847656 528.78125 481.863281 L 528.78125 337.792969 L 463.730469 337.792969 L 463.730469 345.472656 L 482.339844 345.472656 C 484.667969 345.472656 486.554688 347.355469 486.554688 349.683594 C 486.554688 352.011719 484.667969 353.894531 482.339844 353.894531 Z M 458.953125 325.621094 C 458.730469 325.832031 458.347656 326.492188 458.347656 327.402344 C 458.347656 328.6875 458.78125 329.300781 458.941406 329.40625 C 459.132812 329.378906 459.320312 329.371094 459.515625 329.371094 L 532.996094 329.371094 C 533.015625 329.371094 533.035156 329.371094 533.0625 329.371094 L 533.921875 329.371094 C 533.679688 329.367188 534.160156 328.773438 534.160156 327.589844 C 534.160156 326.335938 533.660156 325.644531 533.484375 325.519531 L 531.492188 325.527344 C 531.203125 325.59375 530.894531 325.621094 530.582031 325.621094 L 461.925781 325.621094 C 461.867188 325.621094 461.800781 325.621094 461.738281 325.621094 Z M 466.378906 317.199219 L 526.128906 317.199219 C 525.597656 315.667969 524.214844 314.574219 522.601562 314.574219 L 469.90625 314.574219 C 468.292969 314.574219 466.917969 315.667969 466.378906 317.199219 Z M 465.78125 296.230469 C 465.484375 296.636719 465.027344 297.640625 465.027344 299.132812 L 465.027344 303.253906 C 465.027344 305.050781 465.691406 306.132812 465.933594 306.332031 L 467.886719 306.324219 C 468.539062 306.210938 469.21875 306.15625 469.90625 306.15625 L 522.601562 306.15625 C 522.78125 306.15625 522.957031 306.15625 523.140625 306.164062 L 527.242188 306.15625 C 526.816406 306.140625 527.480469 305.050781 527.480469 303.253906 L 527.480469 299.132812 C 527.480469 297.335938 526.816406 296.246094 526.578125 296.054688 L 521.542969 296.070312 C 521.175781 296.175781 520.785156 296.230469 520.375 296.230469 L 472.128906 296.230469 C 471.996094 296.230469 471.859375 296.226562 471.726562 296.21875 Z M 465.277344 296.230469 L 465.269531 296.230469 C 465.273438 296.230469 465.273438 296.230469 465.277344 296.230469 Z M 476.347656 287.808594 L 516.160156 287.808594 L 516.160156 283.875 L 476.347656 283.875 Z M 513.515625 471.472656 C 511.183594 471.472656 509.296875 469.589844 509.296875 467.261719 L 509.296875 379.824219 C 509.296875 377.496094 511.183594 375.617188 513.515625 375.617188 C 515.84375 375.617188 517.726562 377.496094 517.726562 379.824219 L 517.726562 467.261719 C 517.726562 469.589844 515.84375 471.472656 513.515625 471.472656 Z M 513.515625 370.933594 C 511.183594 370.933594 509.296875 369.050781 509.296875 366.722656 L 509.296875 352.308594 C 509.296875 349.976562 511.183594 348.097656 513.515625 348.097656 C 515.84375 348.097656 517.726562 349.976562 517.726562 352.308594 L 517.726562 366.722656 C 517.726562 369.050781 515.84375 370.933594 513.515625 370.933594 Z M 513.515625 370.933594 " fill-opacity="1" fill-rule="nonzero"/></g><g clip-path="url(#1511e092c2)"><path fill="#020b0a" d="M 388.632812 521.085938 L 384.546875 521.085938 C 363.089844 521.085938 345.636719 503.492188 345.636719 481.863281 L 345.636719 337.058594 C 342.453125 335.566406 340.257812 331.9375 340.257812 327.589844 C 340.257812 322.183594 343.617188 317.847656 347.933594 317.265625 C 348.144531 315.269531 348.828125 313.417969 349.867188 311.816406 C 348.058594 309.753906 346.933594 306.707031 346.933594 303.253906 L 346.933594 299.132812 C 346.933594 292.785156 350.742188 287.808594 355.605469 287.808594 L 358.066406 287.808594 L 358.066406 279.664062 C 358.066406 277.335938 359.949219 275.453125 362.28125 275.453125 L 410.714844 275.453125 C 413.042969 275.453125 414.929688 277.335938 414.929688 279.664062 L 414.929688 287.808594 L 417.582031 287.808594 C 422.417969 287.808594 426.0625 292.675781 426.0625 299.132812 L 426.0625 303.253906 C 426.0625 306.792969 424.964844 309.851562 423.183594 311.898438 C 424.1875 313.480469 424.851562 315.304688 425.0625 317.261719 C 429.484375 317.832031 432.929688 322.164062 432.929688 327.402344 C 432.929688 331.921875 430.652344 335.605469 427.363281 337.089844 L 427.363281 481.863281 C 427.363281 503.492188 409.988281 521.085938 388.632812 521.085938 Z M 354.066406 353.894531 L 354.066406 481.863281 C 354.066406 498.847656 367.742188 512.664062 384.546875 512.664062 L 388.632812 512.664062 C 405.335938 512.664062 418.933594 498.847656 418.933594 481.863281 L 418.933594 337.792969 L 354.066406 337.792969 L 354.066406 345.472656 L 372.675781 345.472656 C 375.007812 345.472656 376.890625 347.355469 376.890625 349.683594 C 376.890625 352.011719 375.007812 353.894531 372.675781 353.894531 Z M 349.257812 325.621094 C 349.042969 325.871094 348.683594 326.503906 348.683594 327.402344 C 348.683594 328.632812 349.074219 329.242188 349.242188 329.410156 C 349.441406 329.386719 349.644531 329.371094 349.851562 329.371094 L 423.144531 329.371094 C 423.175781 329.371094 423.207031 329.371094 423.234375 329.371094 L 424.070312 329.371094 C 424.054688 329.3125 424.496094 328.699219 424.496094 327.589844 C 424.496094 326.386719 424.019531 325.691406 423.824219 325.570312 L 421.578125 325.570312 C 421.363281 325.605469 421.140625 325.621094 420.917969 325.621094 L 352.078125 325.621094 C 352.03125 325.621094 351.984375 325.621094 351.941406 325.621094 Z M 356.554688 317.199219 L 416.441406 317.199219 C 415.867188 315.683594 414.410156 314.574219 412.753906 314.574219 L 360.242188 314.574219 C 358.582031 314.574219 357.125 315.683594 356.554688 317.199219 Z M 356.113281 296.230469 C 355.820312 296.636719 355.363281 297.640625 355.363281 299.132812 L 355.363281 303.253906 C 355.363281 305.050781 356.027344 306.132812 356.265625 306.332031 L 358.191406 306.324219 C 358.859375 306.210938 359.542969 306.15625 360.242188 306.15625 L 412.753906 306.15625 C 412.9375 306.15625 413.125 306.15625 413.304688 306.164062 L 417.582031 306.15625 C 417.066406 306.148438 417.632812 305.035156 417.632812 303.253906 L 417.632812 299.132812 C 417.632812 297.351562 417.066406 296.238281 416.808594 296 L 412.042969 296.019531 C 411.621094 296.15625 411.175781 296.230469 410.714844 296.230469 L 362.28125 296.230469 C 362.132812 296.230469 361.980469 296.226562 361.835938 296.210938 Z M 355.613281 296.230469 L 355.605469 296.230469 C 355.609375 296.230469 355.609375 296.230469 355.613281 296.230469 Z M 366.496094 287.808594 L 406.496094 287.808594 L 406.496094 283.875 L 366.496094 283.875 Z M 403.84375 471.472656 C 401.511719 471.472656 399.628906 469.589844 399.628906 467.261719 L 399.628906 379.824219 C 399.628906 377.496094 401.515625 375.617188 403.84375 375.617188 C 406.175781 375.617188 408.058594 377.496094 408.058594 379.824219 L 408.058594 467.261719 C 408.058594 469.589844 406.175781 471.472656 403.84375 471.472656 Z M 403.84375 370.933594 C 401.511719 370.933594 399.628906 369.050781 399.628906 366.722656 L 399.628906 352.308594 C 399.628906 349.976562 401.515625 348.097656 403.84375 348.097656 C 406.175781 348.097656 408.058594 349.976562 408.058594 352.308594 L 408.058594 366.722656 C 408.058594 369.050781 406.175781 370.933594 403.84375 370.933594 Z M 403.84375 370.933594 " fill-opacity="1" fill-rule="nonzero"/></g></svg>