<svg xmlns="http://www.w3.org/2000/svg" xmlns:xlink="http://www.w3.org/1999/xlink" width="1024" zoomAndPan="magnify" viewBox="0 0 768 767.999994" height="1024" preserveAspectRatio="xMidYMid meet" version="1.0"><defs><clipPath id="c5801bd666"><path d="M 113.910156 220.019531 L 527.160156 220.019531 L 527.160156 257.519531 L 113.910156 257.519531 Z M 113.910156 220.019531 " clip-rule="nonzero"/></clipPath><clipPath id="fc8889b201"><path d="M 180.410156 402.167969 L 591.410156 402.167969 L 591.410156 438.917969 L 180.410156 438.917969 Z M 180.410156 402.167969 " clip-rule="nonzero"/></clipPath><clipPath id="0a16f6b619"><path d="M 205.074219 230.402344 L 334.074219 230.402344 L 334.074219 537.902344 L 205.074219 537.902344 Z M 205.074219 230.402344 " clip-rule="nonzero"/></clipPath><clipPath id="7ac81b715f"><path d="M 333.714844 230.402344 L 462.714844 230.402344 L 462.714844 537.902344 L 333.714844 537.902344 Z M 333.714844 230.402344 " clip-rule="nonzero"/></clipPath><clipPath id="4d89dcca20"><path d="M 476.367188 220.253906 L 608.882812 220.253906 L 608.882812 413.160156 L 476.367188 413.160156 Z M 476.367188 220.253906 " clip-rule="nonzero"/></clipPath><clipPath id="10a2ea9a67"><path d="M 457.136719 417.101562 L 596.636719 417.101562 L 596.636719 556.601562 L 457.136719 556.601562 Z M 457.136719 417.101562 " clip-rule="nonzero"/></clipPath><clipPath id="eda7b5a794"><path d="M 462.355469 230.402344 L 591.355469 230.402344 L 591.355469 537.902344 L 462.355469 537.902344 Z M 462.355469 230.402344 " clip-rule="nonzero"/></clipPath><clipPath id="0ffc66cc55"><path d="M 76.4375 230.402344 L 205.4375 230.402344 L 205.4375 537.902344 L 76.4375 537.902344 Z M 76.4375 230.402344 " clip-rule="nonzero"/></clipPath><clipPath id="7e67e9ab66"><path d="M 113.910156 519.105469 L 530.910156 519.105469 L 530.910156 556.605469 L 113.910156 556.605469 Z M 113.910156 519.105469 " clip-rule="nonzero"/></clipPath><clipPath id="780a539705"><path d="M 1.191406 359.148438 L 133.707031 359.148438 L 133.707031 552.054688 L 1.191406 552.054688 Z M 1.191406 359.148438 " clip-rule="nonzero"/></clipPath><clipPath id="ecdf50b57a"><path d="M 13.4375 215.710938 L 152.9375 215.710938 L 152.9375 355.210938 L 13.4375 355.210938 Z M 13.4375 215.710938 " clip-rule="nonzero"/></clipPath></defs><g clip-path="url(#c5801bd666)"><path fill="#100f0d" d="M 527.160156 224.515625 L 527.160156 252.996094 C 527.160156 255.265625 525.335938 257.121094 523.070312 257.121094 L 521.566406 257.121094 C 519.304688 257.121094 517.476562 255.265625 517.476562 252.996094 L 517.476562 250.429688 L 426.269531 250.429688 L 426.269531 252.996094 C 426.269531 255.265625 424.441406 257.121094 422.191406 257.121094 L 420.675781 257.121094 C 418.410156 257.121094 416.585938 255.265625 416.585938 252.996094 L 416.585938 250.429688 L 325.378906 250.429688 L 325.378906 252.996094 C 325.378906 255.265625 323.550781 257.121094 321.289062 257.121094 L 319.785156 257.121094 C 317.519531 257.121094 315.695312 255.265625 315.695312 252.996094 L 315.695312 250.429688 L 224.488281 250.429688 L 224.488281 252.996094 C 224.488281 255.265625 222.660156 257.121094 220.394531 257.121094 L 218.894531 257.121094 C 216.628906 257.121094 214.800781 255.265625 214.800781 252.996094 L 214.800781 250.429688 L 123.597656 250.429688 L 123.597656 252.996094 C 123.597656 255.265625 121.769531 257.121094 119.503906 257.121094 L 118.003906 257.121094 C 115.738281 257.121094 113.910156 255.265625 113.910156 252.996094 L 113.910156 224.515625 C 113.910156 222.242188 115.738281 220.390625 118.003906 220.390625 L 119.503906 220.390625 C 121.769531 220.390625 123.597656 222.242188 123.597656 224.515625 L 123.597656 227.082031 L 214.800781 227.082031 L 214.800781 224.515625 C 214.800781 222.242188 216.628906 220.390625 218.894531 220.390625 L 220.394531 220.390625 C 222.660156 220.390625 224.488281 222.242188 224.488281 224.515625 L 224.488281 227.082031 L 315.695312 227.082031 L 315.695312 224.515625 C 315.695312 222.242188 317.519531 220.390625 319.785156 220.390625 L 321.289062 220.390625 C 323.550781 220.390625 325.378906 222.242188 325.378906 224.515625 L 325.378906 227.082031 L 416.585938 227.082031 L 416.585938 224.515625 C 416.585938 222.242188 418.410156 220.390625 420.675781 220.390625 L 422.191406 220.390625 C 424.441406 220.390625 426.269531 222.242188 426.269531 224.515625 L 426.269531 227.082031 L 517.476562 227.082031 L 517.476562 224.515625 C 517.476562 222.242188 519.304688 220.390625 521.566406 220.390625 L 523.070312 220.390625 C 525.335938 220.390625 527.160156 222.242188 527.160156 224.515625 " fill-opacity="1" fill-rule="nonzero"/></g><g clip-path="url(#fc8889b201)"><path fill="#100f0d" d="M 591.410156 406.582031 L 591.410156 434.484375 C 591.410156 436.710938 589.59375 438.527344 587.339844 438.527344 L 585.847656 438.527344 C 583.59375 438.527344 581.777344 436.710938 581.777344 434.484375 L 581.777344 431.96875 L 491.066406 431.96875 L 491.066406 434.484375 C 491.066406 436.710938 489.25 438.527344 487.007812 438.527344 L 485.503906 438.527344 C 483.253906 438.527344 481.433594 436.710938 481.433594 434.484375 L 481.433594 431.96875 L 390.726562 431.96875 L 390.726562 434.484375 C 390.726562 436.710938 388.910156 438.527344 386.65625 438.527344 L 385.164062 438.527344 C 382.910156 438.527344 381.09375 436.710938 381.09375 434.484375 L 381.09375 431.96875 L 290.382812 431.96875 L 290.382812 434.484375 C 290.382812 436.710938 288.566406 438.527344 286.316406 438.527344 L 284.820312 438.527344 C 282.570312 438.527344 280.75 436.710938 280.75 434.484375 L 280.75 431.96875 L 190.042969 431.96875 L 190.042969 434.484375 C 190.042969 436.710938 188.226562 438.527344 185.972656 438.527344 L 184.480469 438.527344 C 182.226562 438.527344 180.410156 436.710938 180.410156 434.484375 L 180.410156 406.582031 C 180.410156 404.355469 182.226562 402.539062 184.480469 402.539062 L 185.972656 402.539062 C 188.226562 402.539062 190.042969 404.355469 190.042969 406.582031 L 190.042969 409.09375 L 280.75 409.09375 L 280.75 406.582031 C 280.75 404.355469 282.570312 402.539062 284.820312 402.539062 L 286.316406 402.539062 C 288.566406 402.539062 290.382812 404.355469 290.382812 406.582031 L 290.382812 409.09375 L 381.09375 409.09375 L 381.09375 406.582031 C 381.09375 404.355469 382.910156 402.539062 385.164062 402.539062 L 386.65625 402.539062 C 388.910156 402.539062 390.726562 404.355469 390.726562 406.582031 L 390.726562 409.09375 L 481.433594 409.09375 L 481.433594 406.582031 C 481.433594 404.355469 483.253906 402.539062 485.503906 402.539062 L 487.007812 402.539062 C 489.25 402.539062 491.066406 404.355469 491.066406 406.582031 L 491.066406 409.09375 L 581.777344 409.09375 L 581.777344 406.582031 C 581.777344 404.355469 583.59375 402.539062 585.847656 402.539062 L 587.339844 402.539062 C 589.59375 402.539062 591.410156 404.355469 591.410156 406.582031 " fill-opacity="1" fill-rule="nonzero"/></g><path fill="#c8eaf6" d="M 313.914062 406.179688 L 313.914062 432.832031 L 295.789062 432.832031 L 295.789062 406.179688 Z M 313.914062 406.179688 " fill-opacity="1" fill-rule="evenodd"/><path fill="#96d9f0" d="M 329.421875 398.664062 L 329.421875 440.347656 L 313.914062 440.347656 L 313.914062 398.664062 Z M 329.421875 398.664062 " fill-opacity="1" fill-rule="evenodd"/><path fill="#c8eaf6" d="M 295.789062 301.578125 L 295.789062 466.683594 L 219.960938 466.683594 L 219.960938 301.578125 Z M 295.789062 301.578125 " fill-opacity="1" fill-rule="evenodd"/><path fill="#ecf8fe" d="M 295.789062 308.265625 L 295.789062 466.683594 L 223.367188 466.683594 C 228.792969 395.636719 257.042969 336.144531 295.789062 308.265625 Z M 295.789062 308.265625 " fill-opacity="1" fill-rule="evenodd"/><path fill="#96d9f0" d="M 306.023438 299.191406 L 306.023438 283.863281 C 306.023438 282.550781 304.949219 281.457031 303.636719 281.457031 L 212.132812 281.457031 C 210.820312 281.457031 209.722656 282.542969 209.722656 283.863281 L 209.722656 299.191406 C 209.722656 300.503906 210.8125 301.578125 212.132812 301.578125 L 303.636719 301.578125 C 304.957031 301.578125 306.023438 300.511719 306.023438 299.191406 Z M 306.023438 299.191406 " fill-opacity="1" fill-rule="evenodd"/><path fill="#96d9f0" d="M 269.042969 242.6875 L 269.042969 256.949219 L 246.722656 256.949219 L 246.722656 242.6875 C 246.722656 238.480469 250.167969 235.019531 254.386719 235.019531 L 261.371094 235.019531 C 265.585938 235.019531 269.042969 238.480469 269.042969 242.6875 Z M 269.042969 242.6875 " fill-opacity="1" fill-rule="evenodd"/><path fill="#c8eaf6" d="M 216.554688 281.457031 C 216.554688 265.378906 235.050781 252.316406 257.882812 252.316406 C 280.695312 252.316406 299.195312 265.375 299.195312 281.457031 Z M 216.554688 281.457031 " fill-opacity="1" fill-rule="evenodd"/><path fill="#96d9f0" d="M 306.023438 469.089844 L 306.023438 484.417969 C 306.023438 485.730469 304.949219 486.804688 303.636719 486.804688 L 212.132812 486.804688 C 210.820312 486.804688 209.722656 485.730469 209.722656 484.417969 L 209.722656 469.089844 C 209.722656 467.757812 210.8125 466.683594 212.132812 466.683594 L 303.636719 466.683594 C 304.957031 466.683594 306.023438 467.757812 306.023438 469.089844 Z M 306.023438 469.089844 " fill-opacity="1" fill-rule="evenodd"/><path fill="#96d9f0" d="M 269.042969 525.59375 L 269.042969 511.316406 L 246.722656 511.316406 L 246.722656 525.59375 C 246.722656 529.800781 250.167969 533.242188 254.386719 533.242188 L 261.371094 533.242188 C 265.585938 533.242188 269.042969 529.800781 269.042969 525.59375 Z M 269.042969 525.59375 " fill-opacity="1" fill-rule="evenodd"/><path fill="#c8eaf6" d="M 216.554688 486.804688 C 216.554688 502.902344 235.050781 515.945312 257.882812 515.945312 C 280.695312 515.945312 299.195312 502.90625 299.195312 486.804688 Z M 216.554688 486.804688 " fill-opacity="1" fill-rule="evenodd"/><g clip-path="url(#0a16f6b619)"><path fill="#108cb5" d="M 278.902344 494.84375 C 281.460938 494.84375 283.550781 496.910156 283.550781 499.480469 C 283.550781 502.039062 281.460938 504.121094 278.902344 504.121094 L 271.640625 504.121094 C 269.085938 504.121094 266.992188 502.035156 266.992188 499.480469 C 266.992188 496.910156 269.085938 494.84375 271.640625 494.84375 Z M 261.332031 494.84375 C 263.894531 494.84375 265.976562 496.910156 265.976562 499.480469 C 265.976562 502.039062 263.886719 504.121094 261.332031 504.121094 L 254.085938 504.121094 C 251.511719 504.121094 249.4375 502.035156 249.4375 499.480469 C 249.4375 496.910156 251.511719 494.84375 254.085938 494.84375 Z M 243.75 494.84375 C 246.324219 494.84375 248.398438 496.910156 248.398438 499.480469 C 248.398438 502.039062 246.324219 504.121094 243.75 504.121094 L 236.84375 504.121094 C 234.289062 504.121094 232.21875 502.035156 232.21875 499.480469 C 232.21875 496.910156 234.289062 494.84375 236.84375 494.84375 Z M 291.140625 452.726562 L 286.964844 452.726562 C 284.40625 452.726562 282.316406 450.660156 282.316406 448.089844 C 282.316406 445.539062 284.40625 443.46875 286.964844 443.46875 L 291.140625 443.46875 L 291.140625 324.820312 L 286.964844 324.820312 C 284.40625 324.820312 282.316406 322.730469 282.316406 320.179688 C 282.316406 317.628906 284.40625 315.539062 286.964844 315.539062 L 291.140625 315.539062 L 291.140625 306.214844 L 224.617188 306.214844 L 224.617188 315.535156 L 228.792969 315.535156 C 231.367188 315.535156 233.4375 317.621094 233.4375 320.171875 C 233.4375 322.722656 231.367188 324.8125 228.792969 324.8125 L 224.617188 324.8125 L 224.617188 443.464844 L 228.792969 443.464844 C 231.367188 443.464844 233.4375 445.53125 233.4375 448.082031 C 233.4375 450.652344 231.367188 452.722656 228.792969 452.722656 L 224.617188 452.722656 L 224.617188 462.039062 L 291.140625 462.039062 Z M 273.753906 443.464844 C 276.328125 443.464844 278.398438 445.53125 278.398438 448.082031 C 278.398438 450.652344 276.328125 452.722656 273.753906 452.722656 L 264.476562 452.722656 C 261.921875 452.722656 259.847656 450.652344 259.847656 448.082031 C 259.847656 445.53125 261.921875 443.464844 264.476562 443.464844 Z M 251.277344 443.464844 C 253.839844 443.464844 255.925781 445.53125 255.925781 448.082031 C 255.925781 450.652344 253.835938 452.722656 251.277344 452.722656 L 242.003906 452.722656 C 239.425781 452.722656 237.355469 450.652344 237.355469 448.082031 C 237.355469 445.53125 239.425781 443.464844 242.003906 443.464844 Z M 221.886719 491.441406 C 223.261719 496.082031 226.605469 500.289062 231.335938 503.617188 C 245.859375 513.875 269.894531 513.875 284.429688 503.617188 C 289.148438 500.289062 292.519531 496.082031 293.875 491.441406 Z M 303.410156 491.441406 C 300.847656 505.460938 287.488281 514.851562 273.691406 518.546875 L 273.691406 525.59375 C 273.691406 532.351562 268.160156 537.878906 261.363281 537.878906 L 254.378906 537.878906 C 247.605469 537.878906 242.070312 532.359375 242.070312 525.59375 L 242.070312 518.546875 C 228.253906 514.851562 214.914062 505.453125 212.332031 491.441406 C 208.191406 491.441406 205.070312 488.320312 205.070312 484.417969 L 205.070312 469.089844 C 205.070312 465.238281 208.269531 462.046875 212.125 462.046875 L 215.308594 462.046875 L 215.308594 306.214844 C 212.167969 306.214844 209.585938 306.59375 207.140625 304.167969 C 205.859375 302.890625 205.070312 301.125 205.070312 299.191406 L 205.070312 283.863281 C 205.070312 279.953125 208.230469 276.820312 212.332031 276.820312 C 214.910156 262.800781 228.253906 253.410156 242.070312 249.726562 L 242.070312 242.6875 C 242.070312 235.910156 247.601562 230.382812 254.378906 230.382812 L 261.363281 230.382812 C 268.15625 230.382812 273.691406 235.902344 273.691406 242.6875 L 273.691406 249.734375 C 287.488281 253.417969 300.847656 262.808594 303.410156 276.824219 C 307.566406 276.824219 310.671875 279.945312 310.671875 283.871094 L 310.671875 299.199219 C 310.671875 303.046875 307.492188 306.222656 303.636719 306.222656 L 300.433594 306.222656 L 300.433594 401.539062 L 309.257812 401.539062 L 309.257812 398.664062 C 309.257812 396.113281 311.328125 394.023438 313.90625 394.023438 L 329.414062 394.023438 C 331.992188 394.023438 334.0625 396.113281 334.0625 398.664062 L 334.0625 440.347656 C 334.0625 442.90625 331.992188 444.988281 329.414062 444.988281 L 313.90625 444.988281 C 311.328125 444.988281 309.257812 442.898438 309.257812 440.347656 L 309.257812 437.472656 L 300.433594 437.472656 L 300.433594 462.046875 C 303.574219 462.046875 306.179688 461.667969 308.601562 464.113281 C 309.882812 465.390625 310.671875 467.136719 310.671875 469.089844 L 310.671875 484.417969 C 310.671875 488.328125 307.511719 491.441406 303.410156 491.441406 Z M 264.398438 520.246094 C 260.070312 520.695312 255.6875 520.695312 251.359375 520.246094 L 251.359375 525.597656 C 251.359375 527.25 252.730469 528.609375 254.386719 528.609375 L 261.371094 528.609375 C 263.023438 528.609375 264.398438 527.257812 264.398438 525.597656 Z M 301.378906 482.164062 L 301.378906 471.324219 L 214.371094 471.324219 L 214.371094 482.164062 Z M 278.902344 264.066406 C 281.460938 264.066406 283.550781 266.136719 283.550781 268.707031 C 283.550781 271.257812 281.460938 273.347656 278.902344 273.347656 L 271.640625 273.347656 C 269.085938 273.347656 266.992188 271.257812 266.992188 268.707031 C 266.992188 266.136719 269.085938 264.066406 271.640625 264.066406 Z M 261.332031 264.066406 C 263.894531 264.066406 265.976562 266.136719 265.976562 268.707031 C 265.976562 271.257812 263.886719 273.347656 261.332031 273.347656 L 254.085938 273.347656 C 251.511719 273.347656 249.4375 271.257812 249.4375 268.707031 C 249.4375 266.136719 251.511719 264.066406 254.085938 264.066406 Z M 243.75 264.066406 C 246.324219 264.066406 248.398438 266.136719 248.398438 268.707031 C 248.398438 271.257812 246.324219 273.347656 243.75 273.347656 L 236.84375 273.347656 C 234.289062 273.347656 232.21875 271.257812 232.21875 268.707031 C 232.21875 266.136719 234.289062 264.066406 236.84375 264.066406 Z M 273.753906 315.535156 C 276.328125 315.535156 278.398438 317.621094 278.398438 320.171875 C 278.398438 322.722656 276.328125 324.8125 273.753906 324.8125 L 264.476562 324.8125 C 261.921875 324.8125 259.847656 322.722656 259.847656 320.171875 C 259.847656 317.621094 261.921875 315.535156 264.476562 315.535156 Z M 251.277344 315.535156 C 253.839844 315.535156 255.925781 317.621094 255.925781 320.171875 C 255.925781 322.722656 253.835938 324.8125 251.277344 324.8125 L 242.003906 324.8125 C 239.425781 324.8125 237.355469 322.722656 237.355469 320.171875 C 237.355469 317.621094 239.425781 315.535156 242.003906 315.535156 Z M 251.359375 248.023438 C 255.6875 247.574219 260.089844 247.574219 264.398438 248.023438 L 264.398438 242.6875 C 264.398438 241.039062 263.023438 239.667969 261.371094 239.667969 L 254.386719 239.667969 C 252.730469 239.667969 251.359375 241.039062 251.359375 242.6875 Z M 293.867188 276.820312 C 292.515625 272.199219 289.148438 267.972656 284.421875 264.644531 C 269.894531 254.40625 245.859375 254.40625 231.328125 264.644531 C 226.605469 267.972656 223.253906 272.199219 221.878906 276.820312 Z M 301.378906 296.9375 L 301.378906 286.097656 L 214.371094 286.097656 L 214.371094 296.9375 Z M 300.433594 410.816406 L 300.433594 428.195312 L 309.257812 428.195312 L 309.257812 410.816406 Z M 324.773438 435.710938 L 324.773438 403.304688 L 318.566406 403.304688 L 318.566406 435.710938 Z M 324.773438 435.710938 " fill-opacity="1" fill-rule="nonzero"/></g><path fill="#c8eaf6" d="M 442.550781 406.179688 L 442.550781 432.832031 L 424.425781 432.832031 L 424.425781 406.179688 Z M 442.550781 406.179688 " fill-opacity="1" fill-rule="evenodd"/><path fill="#96d9f0" d="M 458.0625 398.664062 L 458.0625 440.347656 L 442.550781 440.347656 L 442.550781 398.664062 Z M 458.0625 398.664062 " fill-opacity="1" fill-rule="evenodd"/><path fill="#c8eaf6" d="M 424.425781 301.578125 L 424.425781 466.683594 L 348.601562 466.683594 L 348.601562 301.578125 Z M 424.425781 301.578125 " fill-opacity="1" fill-rule="evenodd"/><path fill="#ecf8fe" d="M 424.425781 308.265625 L 424.425781 466.683594 L 352.007812 466.683594 C 357.429688 395.636719 385.679688 336.144531 424.425781 308.265625 Z M 424.425781 308.265625 " fill-opacity="1" fill-rule="evenodd"/><path fill="#96d9f0" d="M 434.664062 299.191406 L 434.664062 283.863281 C 434.664062 282.550781 433.589844 281.457031 432.273438 281.457031 L 340.773438 281.457031 C 339.457031 281.457031 338.363281 282.542969 338.363281 283.863281 L 338.363281 299.191406 C 338.363281 300.503906 339.453125 301.578125 340.773438 301.578125 L 432.273438 301.578125 C 433.597656 301.578125 434.664062 300.511719 434.664062 299.191406 Z M 434.664062 299.191406 " fill-opacity="1" fill-rule="evenodd"/><path fill="#96d9f0" d="M 397.683594 242.6875 L 397.683594 256.949219 L 375.363281 256.949219 L 375.363281 242.6875 C 375.363281 238.480469 378.808594 235.019531 383.027344 235.019531 L 390.011719 235.019531 C 394.226562 235.019531 397.683594 238.480469 397.683594 242.6875 Z M 397.683594 242.6875 " fill-opacity="1" fill-rule="evenodd"/><path fill="#c8eaf6" d="M 345.195312 281.457031 C 345.195312 265.378906 363.691406 252.316406 386.523438 252.316406 C 409.335938 252.316406 427.832031 265.375 427.832031 281.457031 Z M 345.195312 281.457031 " fill-opacity="1" fill-rule="evenodd"/><path fill="#96d9f0" d="M 434.664062 469.089844 L 434.664062 484.417969 C 434.664062 485.730469 433.589844 486.804688 432.273438 486.804688 L 340.773438 486.804688 C 339.457031 486.804688 338.363281 485.730469 338.363281 484.417969 L 338.363281 469.089844 C 338.363281 467.757812 339.453125 466.683594 340.773438 466.683594 L 432.273438 466.683594 C 433.597656 466.683594 434.664062 467.757812 434.664062 469.089844 Z M 434.664062 469.089844 " fill-opacity="1" fill-rule="evenodd"/><path fill="#96d9f0" d="M 397.683594 525.59375 L 397.683594 511.316406 L 375.363281 511.316406 L 375.363281 525.59375 C 375.363281 529.800781 378.808594 533.242188 383.027344 533.242188 L 390.011719 533.242188 C 394.226562 533.242188 397.683594 529.800781 397.683594 525.59375 Z M 397.683594 525.59375 " fill-opacity="1" fill-rule="evenodd"/><path fill="#c8eaf6" d="M 345.195312 486.804688 C 345.195312 502.902344 363.691406 515.945312 386.523438 515.945312 C 409.335938 515.945312 427.832031 502.90625 427.832031 486.804688 Z M 345.195312 486.804688 " fill-opacity="1" fill-rule="evenodd"/><g clip-path="url(#7ac81b715f)"><path fill="#108cb5" d="M 407.542969 494.84375 C 410.101562 494.84375 412.191406 496.910156 412.191406 499.480469 C 412.191406 502.039062 410.101562 504.121094 407.542969 504.121094 L 400.28125 504.121094 C 397.726562 504.121094 395.632812 502.035156 395.632812 499.480469 C 395.632812 496.910156 397.726562 494.84375 400.28125 494.84375 Z M 389.96875 494.84375 C 392.53125 494.84375 394.617188 496.910156 394.617188 499.480469 C 394.617188 502.039062 392.527344 504.121094 389.96875 504.121094 L 382.726562 504.121094 C 380.152344 504.121094 378.078125 502.035156 378.078125 499.480469 C 378.078125 496.910156 380.152344 494.84375 382.726562 494.84375 Z M 372.390625 494.84375 C 374.964844 494.84375 377.035156 496.910156 377.035156 499.480469 C 377.035156 502.039062 374.964844 504.121094 372.390625 504.121094 L 365.484375 504.121094 C 362.929688 504.121094 360.855469 502.035156 360.855469 499.480469 C 360.855469 496.910156 362.929688 494.84375 365.484375 494.84375 Z M 419.78125 452.726562 L 415.605469 452.726562 C 413.046875 452.726562 410.957031 450.660156 410.957031 448.089844 C 410.957031 445.539062 413.046875 443.46875 415.605469 443.46875 L 419.78125 443.46875 L 419.78125 324.820312 L 415.605469 324.820312 C 413.046875 324.820312 410.957031 322.730469 410.957031 320.179688 C 410.957031 317.628906 413.046875 315.539062 415.605469 315.539062 L 419.78125 315.539062 L 419.78125 306.214844 L 353.253906 306.214844 L 353.253906 315.535156 L 357.429688 315.535156 C 360.007812 315.535156 362.078125 317.621094 362.078125 320.171875 C 362.078125 322.722656 360.007812 324.8125 357.429688 324.8125 L 353.253906 324.8125 L 353.253906 443.464844 L 357.429688 443.464844 C 360.007812 443.464844 362.078125 445.53125 362.078125 448.082031 C 362.078125 450.652344 360.007812 452.722656 357.429688 452.722656 L 353.253906 452.722656 L 353.253906 462.039062 L 419.78125 462.039062 Z M 402.390625 443.464844 C 404.96875 443.464844 407.039062 445.53125 407.039062 448.082031 C 407.039062 450.652344 404.96875 452.722656 402.390625 452.722656 L 393.117188 452.722656 C 390.5625 452.722656 388.488281 450.652344 388.488281 448.082031 C 388.488281 445.53125 390.5625 443.464844 393.117188 443.464844 Z M 379.917969 443.464844 C 382.480469 443.464844 384.566406 445.53125 384.566406 448.082031 C 384.566406 450.652344 382.472656 452.722656 379.917969 452.722656 L 370.644531 452.722656 C 368.066406 452.722656 365.996094 450.652344 365.996094 448.082031 C 365.996094 445.53125 368.066406 443.464844 370.644531 443.464844 Z M 350.527344 491.441406 C 351.902344 496.082031 355.246094 500.289062 359.972656 503.617188 C 374.5 513.875 398.535156 513.875 413.066406 503.617188 C 417.789062 500.289062 421.160156 496.082031 422.515625 491.441406 Z M 432.050781 491.441406 C 429.488281 505.460938 416.128906 514.851562 402.332031 518.546875 L 402.332031 525.59375 C 402.332031 532.351562 396.800781 537.878906 390.003906 537.878906 L 383.019531 537.878906 C 376.246094 537.878906 370.710938 532.359375 370.710938 525.59375 L 370.710938 518.546875 C 356.894531 514.851562 343.554688 505.453125 340.972656 491.441406 C 336.828125 491.441406 333.710938 488.320312 333.710938 484.417969 L 333.710938 469.089844 C 333.710938 465.238281 336.910156 462.046875 340.765625 462.046875 L 343.945312 462.046875 L 343.945312 306.214844 C 340.808594 306.214844 338.222656 306.59375 335.78125 304.167969 C 334.5 302.890625 333.710938 301.125 333.710938 299.191406 L 333.710938 283.863281 C 333.710938 279.953125 336.871094 276.820312 340.972656 276.820312 C 343.546875 262.800781 356.894531 253.410156 370.710938 249.726562 L 370.710938 242.6875 C 370.710938 235.910156 376.242188 230.382812 383.019531 230.382812 L 390.003906 230.382812 C 396.796875 230.382812 402.332031 235.902344 402.332031 242.6875 L 402.332031 249.734375 C 416.128906 253.417969 429.488281 262.808594 432.050781 276.824219 C 436.207031 276.824219 439.3125 279.945312 439.3125 283.871094 L 439.3125 299.199219 C 439.3125 303.046875 436.132812 306.222656 432.273438 306.222656 L 429.074219 306.222656 L 429.074219 401.539062 L 437.898438 401.539062 L 437.898438 398.664062 C 437.898438 396.113281 439.96875 394.023438 442.546875 394.023438 L 458.054688 394.023438 C 460.632812 394.023438 462.703125 396.113281 462.703125 398.664062 L 462.703125 440.347656 C 462.703125 442.90625 460.632812 444.988281 458.054688 444.988281 L 442.546875 444.988281 C 439.96875 444.988281 437.898438 442.898438 437.898438 440.347656 L 437.898438 437.472656 L 429.074219 437.472656 L 429.074219 462.046875 C 432.214844 462.046875 434.816406 461.667969 437.242188 464.113281 C 438.523438 465.390625 439.3125 467.136719 439.3125 469.089844 L 439.3125 484.417969 C 439.3125 488.328125 436.152344 491.441406 432.050781 491.441406 Z M 393.039062 520.246094 C 388.707031 520.695312 384.328125 520.695312 379.996094 520.246094 L 379.996094 525.597656 C 379.996094 527.25 381.371094 528.609375 383.027344 528.609375 L 390.011719 528.609375 C 391.664062 528.609375 393.039062 527.257812 393.039062 525.597656 Z M 430.019531 482.164062 L 430.019531 471.324219 L 343.011719 471.324219 L 343.011719 482.164062 Z M 407.542969 264.066406 C 410.101562 264.066406 412.191406 266.136719 412.191406 268.707031 C 412.191406 271.257812 410.101562 273.347656 407.542969 273.347656 L 400.28125 273.347656 C 397.726562 273.347656 395.632812 271.257812 395.632812 268.707031 C 395.632812 266.136719 397.726562 264.066406 400.28125 264.066406 Z M 389.96875 264.066406 C 392.53125 264.066406 394.617188 266.136719 394.617188 268.707031 C 394.617188 271.257812 392.527344 273.347656 389.96875 273.347656 L 382.726562 273.347656 C 380.152344 273.347656 378.078125 271.257812 378.078125 268.707031 C 378.078125 266.136719 380.152344 264.066406 382.726562 264.066406 Z M 372.390625 264.066406 C 374.964844 264.066406 377.035156 266.136719 377.035156 268.707031 C 377.035156 271.257812 374.964844 273.347656 372.390625 273.347656 L 365.484375 273.347656 C 362.929688 273.347656 360.855469 271.257812 360.855469 268.707031 C 360.855469 266.136719 362.929688 264.066406 365.484375 264.066406 Z M 402.390625 315.535156 C 404.96875 315.535156 407.039062 317.621094 407.039062 320.171875 C 407.039062 322.722656 404.96875 324.8125 402.390625 324.8125 L 393.117188 324.8125 C 390.5625 324.8125 388.488281 322.722656 388.488281 320.171875 C 388.488281 317.621094 390.5625 315.535156 393.117188 315.535156 Z M 379.917969 315.535156 C 382.480469 315.535156 384.566406 317.621094 384.566406 320.171875 C 384.566406 322.722656 382.472656 324.8125 379.917969 324.8125 L 370.644531 324.8125 C 368.066406 324.8125 365.996094 322.722656 365.996094 320.171875 C 365.996094 317.621094 368.066406 315.535156 370.644531 315.535156 Z M 379.996094 248.023438 C 384.328125 247.574219 388.730469 247.574219 393.039062 248.023438 L 393.039062 242.6875 C 393.039062 241.039062 391.664062 239.667969 390.011719 239.667969 L 383.027344 239.667969 C 381.371094 239.667969 379.996094 241.039062 379.996094 242.6875 Z M 422.507812 276.820312 C 421.15625 272.199219 417.789062 267.972656 413.0625 264.644531 C 398.535156 254.40625 374.5 254.40625 359.96875 264.644531 C 355.246094 267.972656 351.894531 272.199219 350.519531 276.820312 Z M 430.019531 296.9375 L 430.019531 286.097656 L 343.011719 286.097656 L 343.011719 296.9375 Z M 429.074219 410.816406 L 429.074219 428.195312 L 437.898438 428.195312 L 437.898438 410.816406 Z M 453.414062 435.710938 L 453.414062 403.304688 L 447.207031 403.304688 L 447.207031 435.710938 Z M 453.414062 435.710938 " fill-opacity="1" fill-rule="nonzero"/></g><g clip-path="url(#4d89dcca20)"><path fill="#100f0d" d="M 593.398438 372.871094 L 593.398438 374.265625 C 593.398438 374.582031 593.644531 374.839844 593.945312 374.839844 L 596.132812 374.839844 C 596.6875 374.839844 596.890625 374.082031 596.421875 373.777344 L 594.238281 372.386719 C 593.871094 372.148438 593.398438 372.421875 593.398438 372.871094 Z M 593.945312 375.921875 C 593.644531 375.921875 593.398438 376.179688 593.398438 376.492188 L 593.398438 377.890625 C 593.398438 378.335938 593.871094 378.609375 594.238281 378.378906 L 596.421875 376.980469 C 596.890625 376.675781 596.6875 375.921875 596.132812 375.921875 Z M 485.457031 224.117188 L 485.457031 227 L 567.382812 227 C 577.816406 227 586.269531 235.6875 587.027344 246.660156 L 587.171875 246.660156 L 587.171875 337.871094 L 589.917969 337.871094 C 592.046875 337.871094 593.769531 339.597656 593.769531 341.730469 L 593.769531 343.160156 C 593.769531 345.289062 592.046875 347.015625 589.917969 347.015625 L 587.203125 347.015625 L 587.203125 367.214844 C 587.964844 367.796875 588.546875 368.617188 588.839844 369.570312 L 592.921875 369.570312 C 593.027344 369.570312 593.125 369.601562 593.210938 369.660156 L 599.046875 373.386719 C 599.136719 373.441406 599.234375 373.46875 599.335938 373.46875 L 601.617188 373.46875 C 601.925781 373.46875 602.171875 373.726562 602.171875 374.039062 C 602.171875 374.359375 602.417969 374.613281 602.71875 374.613281 L 606.945312 374.613281 L 606.945312 369.105469 C 606.945312 368.632812 607.308594 368.246094 607.761719 368.246094 L 608.300781 368.246094 C 608.75 368.246094 609.121094 368.632812 609.121094 369.105469 L 609.121094 381.660156 C 609.121094 382.128906 608.75 382.511719 608.300781 382.511719 L 607.761719 382.511719 C 607.308594 382.511719 606.945312 382.128906 606.945312 381.660156 L 606.945312 376.144531 L 602.71875 376.144531 C 602.417969 376.144531 602.171875 376.398438 602.171875 376.71875 C 602.171875 377.03125 601.925781 377.289062 601.617188 377.289062 L 599.335938 377.289062 C 599.234375 377.289062 599.136719 377.316406 599.046875 377.371094 L 593.210938 381.105469 C 593.125 381.15625 593.027344 381.1875 592.921875 381.1875 L 588.839844 381.1875 C 588.546875 382.144531 587.964844 382.960938 587.203125 383.542969 L 587.203125 404.007812 L 589.917969 404.007812 C 592.046875 404.007812 593.769531 405.738281 593.769531 407.871094 L 593.769531 409.296875 C 593.769531 411.433594 592.046875 413.160156 589.917969 413.160156 L 563.285156 413.160156 C 561.160156 413.160156 559.4375 411.433594 559.4375 409.296875 L 559.4375 407.871094 C 559.4375 405.738281 561.160156 404.007812 563.285156 404.007812 L 565.609375 404.007812 L 565.609375 383.542969 C 564.492188 382.6875 563.765625 381.316406 563.765625 379.769531 L 563.765625 370.988281 C 563.765625 369.441406 564.492188 368.070312 565.609375 367.214844 L 565.609375 347.015625 L 563.285156 347.015625 C 561.160156 347.015625 559.4375 345.289062 559.4375 343.160156 L 559.4375 341.730469 C 559.4375 339.597656 561.160156 337.871094 563.285156 337.871094 L 565.609375 337.871094 L 565.609375 265.484375 L 565.683594 265.484375 L 565.683594 248.585938 L 485.457031 248.585938 L 485.457031 250.800781 C 485.457031 252.933594 483.734375 254.660156 481.601562 254.660156 L 480.175781 254.660156 C 478.050781 254.660156 476.324219 252.933594 476.324219 250.800781 L 476.324219 224.117188 C 476.324219 221.980469 478.050781 220.253906 480.175781 220.253906 L 481.601562 220.253906 C 483.734375 220.253906 485.457031 221.980469 485.457031 224.117188 " fill-opacity="1" fill-rule="nonzero"/></g><g clip-path="url(#10a2ea9a67)"><path fill="#211d1d" d="M 460.855469 550.695312 L 468.796875 550.695312 L 468.796875 553.65625 L 460.855469 553.65625 Z M 483.332031 541.75 L 542.273438 541.75 L 545.015625 541.734375 L 548.285156 541.566406 C 557 540.695312 565.308594 536.621094 571.34375 530.351562 C 577.449219 524.136719 581.164062 515.609375 581.675781 506.890625 C 581.828125 504.539062 581.773438 502.9375 581.78125 501.125 L 581.78125 442.183594 L 584.746094 442.183594 L 584.746094 501.125 C 584.734375 502.953125 584.796875 504.472656 584.632812 507.070312 C 584.082031 516.492188 580.058594 525.707031 573.476562 532.40625 C 566.96875 539.171875 557.996094 543.578125 548.574219 544.511719 L 545.042969 544.695312 L 542.273438 544.710938 L 483.332031 544.710938 Z M 590.726562 420.824219 L 593.691406 420.824219 L 593.691406 428.761719 L 590.726562 428.761719 Z M 472.519531 556.601562 L 472.519531 549.820312 L 544.574219 549.820312 C 556.453125 549.898438 568.449219 544.898438 576.722656 536.414062 C 580.902344 532.195312 584.253906 527.148438 586.507812 521.613281 C 587.625 518.839844 588.476562 515.957031 589.046875 513.019531 C 589.269531 511.542969 589.554688 510.066406 589.660156 508.578125 L 589.785156 506.34375 L 589.851562 432.484375 L 596.636719 432.484375 L 596.636719 417.101562 L 553.464844 417.101562 L 553.464844 432.484375 L 560.246094 432.484375 L 560.164062 505.988281 C 560.144531 506.5 559.996094 506.992188 559.957031 507.5 C 559.753906 508.5 559.464844 509.472656 559.09375 510.425781 C 558.328125 512.316406 557.164062 514.085938 555.699219 515.566406 C 552.730469 518.566406 548.765625 520.214844 544.574219 520.210938 L 472.519531 520.210938 L 472.519531 513.429688 L 457.136719 513.429688 L 457.136719 556.601562 L 472.519531 556.601562 " fill-opacity="1" fill-rule="nonzero"/></g><path fill="#c8eaf6" d="M 571.191406 406.179688 L 571.191406 432.832031 L 553.066406 432.832031 L 553.066406 406.179688 Z M 571.191406 406.179688 " fill-opacity="1" fill-rule="evenodd"/><path fill="#96d9f0" d="M 586.703125 398.664062 L 586.703125 440.347656 L 571.191406 440.347656 L 571.191406 398.664062 Z M 586.703125 398.664062 " fill-opacity="1" fill-rule="evenodd"/><path fill="#c8eaf6" d="M 553.066406 301.578125 L 553.066406 466.683594 L 477.242188 466.683594 L 477.242188 301.578125 Z M 553.066406 301.578125 " fill-opacity="1" fill-rule="evenodd"/><path fill="#ecf8fe" d="M 553.066406 308.265625 L 553.066406 466.683594 L 480.648438 466.683594 C 486.070312 395.636719 514.320312 336.144531 553.066406 308.265625 Z M 553.066406 308.265625 " fill-opacity="1" fill-rule="evenodd"/><path fill="#96d9f0" d="M 563.304688 299.191406 L 563.304688 283.863281 C 563.304688 282.550781 562.230469 281.457031 560.914062 281.457031 L 469.414062 281.457031 C 468.097656 281.457031 467.003906 282.542969 467.003906 283.863281 L 467.003906 299.191406 C 467.003906 300.503906 468.09375 301.578125 469.414062 301.578125 L 560.914062 301.578125 C 562.238281 301.578125 563.304688 300.511719 563.304688 299.191406 Z M 563.304688 299.191406 " fill-opacity="1" fill-rule="evenodd"/><path fill="#96d9f0" d="M 526.324219 242.6875 L 526.324219 256.949219 L 504.003906 256.949219 L 504.003906 242.6875 C 504.003906 238.480469 507.449219 235.019531 511.664062 235.019531 L 518.648438 235.019531 C 522.867188 235.019531 526.324219 238.480469 526.324219 242.6875 Z M 526.324219 242.6875 " fill-opacity="1" fill-rule="evenodd"/><path fill="#c8eaf6" d="M 473.835938 281.457031 C 473.835938 265.378906 492.332031 252.316406 515.164062 252.316406 C 537.976562 252.316406 556.472656 265.375 556.472656 281.457031 Z M 473.835938 281.457031 " fill-opacity="1" fill-rule="evenodd"/><path fill="#96d9f0" d="M 563.304688 469.089844 L 563.304688 484.417969 C 563.304688 485.730469 562.230469 486.804688 560.914062 486.804688 L 469.414062 486.804688 C 468.097656 486.804688 467.003906 485.730469 467.003906 484.417969 L 467.003906 469.089844 C 467.003906 467.757812 468.09375 466.683594 469.414062 466.683594 L 560.914062 466.683594 C 562.238281 466.683594 563.304688 467.757812 563.304688 469.089844 Z M 563.304688 469.089844 " fill-opacity="1" fill-rule="evenodd"/><path fill="#96d9f0" d="M 526.324219 525.59375 L 526.324219 511.316406 L 504.003906 511.316406 L 504.003906 525.59375 C 504.003906 529.800781 507.449219 533.242188 511.664062 533.242188 L 518.648438 533.242188 C 522.867188 533.242188 526.324219 529.800781 526.324219 525.59375 Z M 526.324219 525.59375 " fill-opacity="1" fill-rule="evenodd"/><path fill="#c8eaf6" d="M 473.835938 486.804688 C 473.835938 502.902344 492.332031 515.945312 515.164062 515.945312 C 537.976562 515.945312 556.472656 502.90625 556.472656 486.804688 Z M 473.835938 486.804688 " fill-opacity="1" fill-rule="evenodd"/><g clip-path="url(#eda7b5a794)"><path fill="#108cb5" d="M 536.183594 494.84375 C 538.742188 494.84375 540.832031 496.910156 540.832031 499.480469 C 540.832031 502.039062 538.742188 504.121094 536.183594 504.121094 L 528.921875 504.121094 C 526.363281 504.121094 524.273438 502.035156 524.273438 499.480469 C 524.273438 496.910156 526.363281 494.84375 528.921875 494.84375 Z M 518.609375 494.84375 C 521.171875 494.84375 523.257812 496.910156 523.257812 499.480469 C 523.257812 502.039062 521.167969 504.121094 518.609375 504.121094 L 511.367188 504.121094 C 508.789062 504.121094 506.71875 502.035156 506.71875 499.480469 C 506.71875 496.910156 508.789062 494.84375 511.367188 494.84375 Z M 501.03125 494.84375 C 503.605469 494.84375 505.675781 496.910156 505.675781 499.480469 C 505.675781 502.039062 503.605469 504.121094 501.03125 504.121094 L 494.125 504.121094 C 491.570312 504.121094 489.496094 502.035156 489.496094 499.480469 C 489.496094 496.910156 491.570312 494.84375 494.125 494.84375 Z M 548.421875 452.726562 L 544.246094 452.726562 C 541.6875 452.726562 539.597656 450.660156 539.597656 448.089844 C 539.597656 445.539062 541.6875 443.46875 544.246094 443.46875 L 548.421875 443.46875 L 548.421875 324.820312 L 544.246094 324.820312 C 541.6875 324.820312 539.597656 322.730469 539.597656 320.179688 C 539.597656 317.628906 541.6875 315.539062 544.246094 315.539062 L 548.421875 315.539062 L 548.421875 306.214844 L 481.894531 306.214844 L 481.894531 315.535156 L 486.070312 315.535156 C 488.648438 315.535156 490.71875 317.621094 490.71875 320.171875 C 490.71875 322.722656 488.648438 324.8125 486.070312 324.8125 L 481.894531 324.8125 L 481.894531 443.464844 L 486.070312 443.464844 C 488.648438 443.464844 490.71875 445.53125 490.71875 448.082031 C 490.71875 450.652344 488.648438 452.722656 486.070312 452.722656 L 481.894531 452.722656 L 481.894531 462.039062 L 548.421875 462.039062 Z M 531.03125 443.464844 C 533.609375 443.464844 535.679688 445.53125 535.679688 448.082031 C 535.679688 450.652344 533.609375 452.722656 531.03125 452.722656 L 521.757812 452.722656 C 519.199219 452.722656 517.128906 450.652344 517.128906 448.082031 C 517.128906 445.53125 519.199219 443.464844 521.757812 443.464844 Z M 508.558594 443.464844 C 511.121094 443.464844 513.207031 445.53125 513.207031 448.082031 C 513.207031 450.652344 511.113281 452.722656 508.558594 452.722656 L 499.285156 452.722656 C 496.707031 452.722656 494.636719 450.652344 494.636719 448.082031 C 494.636719 445.53125 496.707031 443.464844 499.285156 443.464844 Z M 479.167969 491.441406 C 480.539062 496.082031 483.886719 500.289062 488.613281 503.617188 C 503.140625 513.875 527.175781 513.875 541.707031 503.617188 C 546.429688 500.289062 549.800781 496.082031 551.15625 491.441406 Z M 560.691406 491.441406 C 558.125 505.460938 544.769531 514.851562 530.972656 518.546875 L 530.972656 525.59375 C 530.972656 532.351562 525.441406 537.878906 518.644531 537.878906 L 511.660156 537.878906 C 504.886719 537.878906 499.351562 532.359375 499.351562 525.59375 L 499.351562 518.546875 C 485.535156 514.851562 472.195312 505.453125 469.613281 491.441406 C 465.46875 491.441406 462.347656 488.320312 462.347656 484.417969 L 462.347656 469.089844 C 462.347656 465.238281 465.550781 462.046875 469.40625 462.046875 L 472.585938 462.046875 L 472.585938 306.214844 C 469.445312 306.214844 466.863281 306.59375 464.421875 304.167969 C 463.140625 302.890625 462.347656 301.125 462.347656 299.191406 L 462.347656 283.863281 C 462.347656 279.953125 465.507812 276.820312 469.613281 276.820312 C 472.1875 262.800781 485.535156 253.410156 499.351562 249.726562 L 499.351562 242.6875 C 499.351562 235.910156 504.878906 230.382812 511.660156 230.382812 L 518.644531 230.382812 C 525.433594 230.382812 530.972656 235.902344 530.972656 242.6875 L 530.972656 249.734375 C 544.769531 253.417969 558.125 262.808594 560.691406 276.824219 C 564.84375 276.824219 567.953125 279.945312 567.953125 283.871094 L 567.953125 299.199219 C 567.953125 303.046875 564.773438 306.222656 560.914062 306.222656 L 557.714844 306.222656 L 557.714844 401.539062 L 566.539062 401.539062 L 566.539062 398.664062 C 566.539062 396.113281 568.609375 394.023438 571.1875 394.023438 L 586.695312 394.023438 C 589.269531 394.023438 591.34375 396.113281 591.34375 398.664062 L 591.34375 440.347656 C 591.34375 442.90625 589.269531 444.988281 586.695312 444.988281 L 571.1875 444.988281 C 568.609375 444.988281 566.539062 442.898438 566.539062 440.347656 L 566.539062 437.472656 L 557.714844 437.472656 L 557.714844 462.046875 C 560.855469 462.046875 563.457031 461.667969 565.882812 464.113281 C 567.164062 465.390625 567.953125 467.136719 567.953125 469.089844 L 567.953125 484.417969 C 567.953125 488.328125 564.792969 491.441406 560.691406 491.441406 Z M 521.675781 520.246094 C 517.347656 520.695312 512.964844 520.695312 508.636719 520.246094 L 508.636719 525.597656 C 508.636719 527.25 510.011719 528.609375 511.664062 528.609375 L 518.648438 528.609375 C 520.304688 528.609375 521.675781 527.257812 521.675781 525.597656 Z M 558.65625 482.164062 L 558.65625 471.324219 L 471.652344 471.324219 L 471.652344 482.164062 Z M 536.183594 264.066406 C 538.742188 264.066406 540.832031 266.136719 540.832031 268.707031 C 540.832031 271.257812 538.742188 273.347656 536.183594 273.347656 L 528.921875 273.347656 C 526.363281 273.347656 524.273438 271.257812 524.273438 268.707031 C 524.273438 266.136719 526.363281 264.066406 528.921875 264.066406 Z M 518.609375 264.066406 C 521.171875 264.066406 523.257812 266.136719 523.257812 268.707031 C 523.257812 271.257812 521.167969 273.347656 518.609375 273.347656 L 511.367188 273.347656 C 508.789062 273.347656 506.71875 271.257812 506.71875 268.707031 C 506.71875 266.136719 508.789062 264.066406 511.367188 264.066406 Z M 501.03125 264.066406 C 503.605469 264.066406 505.675781 266.136719 505.675781 268.707031 C 505.675781 271.257812 503.605469 273.347656 501.03125 273.347656 L 494.125 273.347656 C 491.570312 273.347656 489.496094 271.257812 489.496094 268.707031 C 489.496094 266.136719 491.570312 264.066406 494.125 264.066406 Z M 531.03125 315.535156 C 533.609375 315.535156 535.679688 317.621094 535.679688 320.171875 C 535.679688 322.722656 533.609375 324.8125 531.03125 324.8125 L 521.757812 324.8125 C 519.199219 324.8125 517.128906 322.722656 517.128906 320.171875 C 517.128906 317.621094 519.199219 315.535156 521.757812 315.535156 Z M 508.558594 315.535156 C 511.121094 315.535156 513.207031 317.621094 513.207031 320.171875 C 513.207031 322.722656 511.113281 324.8125 508.558594 324.8125 L 499.285156 324.8125 C 496.707031 324.8125 494.636719 322.722656 494.636719 320.171875 C 494.636719 317.621094 496.707031 315.535156 499.285156 315.535156 Z M 508.636719 248.023438 C 512.964844 247.574219 517.367188 247.574219 521.675781 248.023438 L 521.675781 242.6875 C 521.675781 241.039062 520.304688 239.667969 518.648438 239.667969 L 511.664062 239.667969 C 510.011719 239.667969 508.636719 241.039062 508.636719 242.6875 Z M 551.148438 276.820312 C 549.792969 272.199219 546.429688 267.972656 541.703125 264.644531 C 527.175781 254.40625 503.140625 254.40625 488.609375 264.644531 C 483.886719 267.972656 480.535156 272.199219 479.160156 276.820312 Z M 558.65625 296.9375 L 558.65625 286.097656 L 471.652344 286.097656 L 471.652344 296.9375 Z M 557.714844 410.816406 L 557.714844 428.195312 L 566.539062 428.195312 L 566.539062 410.816406 Z M 582.054688 435.710938 L 582.054688 403.304688 L 575.847656 403.304688 L 575.847656 435.710938 Z M 582.054688 435.710938 " fill-opacity="1" fill-rule="nonzero"/></g><path fill="#c8eaf6" d="M 185.273438 406.179688 L 185.273438 432.832031 L 167.148438 432.832031 L 167.148438 406.179688 Z M 185.273438 406.179688 " fill-opacity="1" fill-rule="evenodd"/><path fill="#96d9f0" d="M 200.78125 398.664062 L 200.78125 440.347656 L 185.273438 440.347656 L 185.273438 398.664062 Z M 200.78125 398.664062 " fill-opacity="1" fill-rule="evenodd"/><path fill="#c8eaf6" d="M 167.148438 301.578125 L 167.148438 466.683594 L 91.320312 466.683594 L 91.320312 301.578125 Z M 167.148438 301.578125 " fill-opacity="1" fill-rule="evenodd"/><path fill="#ecf8fe" d="M 167.148438 308.265625 L 167.148438 466.683594 L 94.726562 466.683594 C 100.152344 395.636719 128.402344 336.144531 167.148438 308.265625 Z M 167.148438 308.265625 " fill-opacity="1" fill-rule="evenodd"/><path fill="#96d9f0" d="M 177.386719 299.191406 L 177.386719 283.863281 C 177.386719 282.550781 176.308594 281.457031 174.996094 281.457031 L 83.492188 281.457031 C 82.179688 281.457031 81.082031 282.542969 81.082031 283.863281 L 81.082031 299.191406 C 81.082031 300.503906 82.171875 301.578125 83.492188 301.578125 L 174.996094 301.578125 C 176.316406 301.578125 177.386719 300.511719 177.386719 299.191406 Z M 177.386719 299.191406 " fill-opacity="1" fill-rule="evenodd"/><path fill="#96d9f0" d="M 140.40625 242.6875 L 140.40625 256.949219 L 118.082031 256.949219 L 118.082031 242.6875 C 118.082031 238.480469 121.53125 235.019531 125.746094 235.019531 L 132.730469 235.019531 C 136.945312 235.019531 140.40625 238.480469 140.40625 242.6875 Z M 140.40625 242.6875 " fill-opacity="1" fill-rule="evenodd"/><path fill="#c8eaf6" d="M 87.914062 281.457031 C 87.914062 265.378906 106.410156 252.316406 129.246094 252.316406 C 152.058594 252.316406 170.554688 265.375 170.554688 281.457031 Z M 87.914062 281.457031 " fill-opacity="1" fill-rule="evenodd"/><path fill="#96d9f0" d="M 177.386719 469.089844 L 177.386719 484.417969 C 177.386719 485.730469 176.308594 486.804688 174.996094 486.804688 L 83.492188 486.804688 C 82.179688 486.804688 81.082031 485.730469 81.082031 484.417969 L 81.082031 469.089844 C 81.082031 467.757812 82.171875 466.683594 83.492188 466.683594 L 174.996094 466.683594 C 176.316406 466.683594 177.386719 467.757812 177.386719 469.089844 Z M 177.386719 469.089844 " fill-opacity="1" fill-rule="evenodd"/><path fill="#96d9f0" d="M 140.40625 525.59375 L 140.40625 511.316406 L 118.082031 511.316406 L 118.082031 525.59375 C 118.082031 529.800781 121.53125 533.242188 125.746094 533.242188 L 132.730469 533.242188 C 136.945312 533.242188 140.40625 529.800781 140.40625 525.59375 Z M 140.40625 525.59375 " fill-opacity="1" fill-rule="evenodd"/><path fill="#c8eaf6" d="M 87.914062 486.804688 C 87.914062 502.902344 106.410156 515.945312 129.246094 515.945312 C 152.058594 515.945312 170.554688 502.90625 170.554688 486.804688 Z M 87.914062 486.804688 " fill-opacity="1" fill-rule="evenodd"/><g clip-path="url(#0ffc66cc55)"><path fill="#108cb5" d="M 150.265625 494.84375 C 152.820312 494.84375 154.910156 496.910156 154.910156 499.480469 C 154.910156 502.039062 152.820312 504.121094 150.265625 504.121094 L 143 504.121094 C 140.445312 504.121094 138.351562 502.035156 138.351562 499.480469 C 138.351562 496.910156 140.445312 494.84375 143 494.84375 Z M 132.691406 494.84375 C 135.253906 494.84375 137.335938 496.910156 137.335938 499.480469 C 137.335938 502.039062 135.246094 504.121094 132.691406 504.121094 L 125.445312 504.121094 C 122.871094 504.121094 120.800781 502.035156 120.800781 499.480469 C 120.800781 496.910156 122.871094 494.84375 125.445312 494.84375 Z M 115.109375 494.84375 C 117.683594 494.84375 119.757812 496.910156 119.757812 499.480469 C 119.757812 502.039062 117.683594 504.121094 115.109375 504.121094 L 108.203125 504.121094 C 105.648438 504.121094 103.578125 502.035156 103.578125 499.480469 C 103.578125 496.910156 105.648438 494.84375 108.203125 494.84375 Z M 162.5 452.726562 L 158.324219 452.726562 C 155.769531 452.726562 153.675781 450.660156 153.675781 448.089844 C 153.675781 445.539062 155.769531 443.46875 158.324219 443.46875 L 162.5 443.46875 L 162.5 324.820312 L 158.324219 324.820312 C 155.769531 324.820312 153.675781 322.730469 153.675781 320.179688 C 153.675781 317.628906 155.769531 315.539062 158.324219 315.539062 L 162.5 315.539062 L 162.5 306.214844 L 95.976562 306.214844 L 95.976562 315.535156 L 100.152344 315.535156 C 102.726562 315.535156 104.796875 317.621094 104.796875 320.171875 C 104.796875 322.722656 102.726562 324.8125 100.152344 324.8125 L 95.976562 324.8125 L 95.976562 443.464844 L 100.152344 443.464844 C 102.726562 443.464844 104.796875 445.53125 104.796875 448.082031 C 104.796875 450.652344 102.726562 452.722656 100.152344 452.722656 L 95.976562 452.722656 L 95.976562 462.039062 L 162.5 462.039062 Z M 145.113281 443.464844 C 147.6875 443.464844 149.757812 445.53125 149.757812 448.082031 C 149.757812 450.652344 147.6875 452.722656 145.113281 452.722656 L 135.835938 452.722656 C 133.28125 452.722656 131.210938 450.652344 131.210938 448.082031 C 131.210938 445.53125 133.28125 443.464844 135.835938 443.464844 Z M 122.636719 443.464844 C 125.199219 443.464844 127.285156 445.53125 127.285156 448.082031 C 127.285156 450.652344 125.195312 452.722656 122.636719 452.722656 L 113.363281 452.722656 C 110.789062 452.722656 108.714844 450.652344 108.714844 448.082031 C 108.714844 445.53125 110.789062 443.464844 113.363281 443.464844 Z M 93.246094 491.441406 C 94.621094 496.082031 97.96875 500.289062 102.695312 503.617188 C 117.222656 513.875 141.253906 513.875 155.789062 503.617188 C 160.507812 500.289062 163.882812 496.082031 165.234375 491.441406 Z M 174.769531 491.441406 C 172.207031 505.460938 158.847656 514.851562 145.050781 518.546875 L 145.050781 525.59375 C 145.050781 532.351562 139.523438 537.878906 132.722656 537.878906 L 125.738281 537.878906 C 118.96875 537.878906 113.429688 532.359375 113.429688 525.59375 L 113.429688 518.546875 C 99.613281 514.851562 86.273438 505.453125 83.691406 491.441406 C 79.550781 491.441406 76.429688 488.320312 76.429688 484.417969 L 76.429688 469.089844 C 76.429688 465.238281 79.628906 462.046875 83.488281 462.046875 L 86.667969 462.046875 L 86.667969 306.214844 C 83.527344 306.214844 80.945312 306.59375 78.5 304.167969 C 77.21875 302.890625 76.429688 301.125 76.429688 299.191406 L 76.429688 283.863281 C 76.429688 279.953125 79.589844 276.820312 83.691406 276.820312 C 86.269531 262.800781 99.613281 253.410156 113.429688 249.726562 L 113.429688 242.6875 C 113.429688 235.910156 118.960938 230.382812 125.738281 230.382812 L 132.722656 230.382812 C 139.515625 230.382812 145.050781 235.902344 145.050781 242.6875 L 145.050781 249.734375 C 158.847656 253.417969 172.207031 262.808594 174.769531 276.824219 C 178.925781 276.824219 182.03125 279.945312 182.03125 283.871094 L 182.03125 299.199219 C 182.03125 303.046875 178.851562 306.222656 174.996094 306.222656 L 171.796875 306.222656 L 171.796875 401.539062 L 180.617188 401.539062 L 180.617188 398.664062 C 180.617188 396.113281 182.691406 394.023438 185.265625 394.023438 L 200.773438 394.023438 C 203.351562 394.023438 205.421875 396.113281 205.421875 398.664062 L 205.421875 440.347656 C 205.421875 442.90625 203.351562 444.988281 200.773438 444.988281 L 185.265625 444.988281 C 182.691406 444.988281 180.617188 442.898438 180.617188 440.347656 L 180.617188 437.472656 L 171.796875 437.472656 L 171.796875 462.046875 C 174.933594 462.046875 177.539062 461.667969 179.960938 464.113281 C 181.242188 465.390625 182.03125 467.136719 182.03125 469.089844 L 182.03125 484.417969 C 182.03125 488.328125 178.871094 491.441406 174.769531 491.441406 Z M 135.757812 520.246094 C 131.429688 520.695312 127.046875 520.695312 122.71875 520.246094 L 122.71875 525.597656 C 122.71875 527.25 124.09375 528.609375 125.746094 528.609375 L 132.730469 528.609375 C 134.382812 528.609375 135.757812 527.257812 135.757812 525.597656 Z M 172.738281 482.164062 L 172.738281 471.324219 L 85.730469 471.324219 L 85.730469 482.164062 Z M 150.265625 264.066406 C 152.820312 264.066406 154.910156 266.136719 154.910156 268.707031 C 154.910156 271.257812 152.820312 273.347656 150.265625 273.347656 L 143 273.347656 C 140.445312 273.347656 138.351562 271.257812 138.351562 268.707031 C 138.351562 266.136719 140.445312 264.066406 143 264.066406 Z M 132.691406 264.066406 C 135.253906 264.066406 137.335938 266.136719 137.335938 268.707031 C 137.335938 271.257812 135.246094 273.347656 132.691406 273.347656 L 125.445312 273.347656 C 122.871094 273.347656 120.800781 271.257812 120.800781 268.707031 C 120.800781 266.136719 122.871094 264.066406 125.445312 264.066406 Z M 115.109375 264.066406 C 117.683594 264.066406 119.757812 266.136719 119.757812 268.707031 C 119.757812 271.257812 117.683594 273.347656 115.109375 273.347656 L 108.203125 273.347656 C 105.648438 273.347656 103.578125 271.257812 103.578125 268.707031 C 103.578125 266.136719 105.648438 264.066406 108.203125 264.066406 Z M 145.113281 315.535156 C 147.6875 315.535156 149.757812 317.621094 149.757812 320.171875 C 149.757812 322.722656 147.6875 324.8125 145.113281 324.8125 L 135.835938 324.8125 C 133.28125 324.8125 131.210938 322.722656 131.210938 320.171875 C 131.210938 317.621094 133.28125 315.535156 135.835938 315.535156 Z M 122.636719 315.535156 C 125.199219 315.535156 127.285156 317.621094 127.285156 320.171875 C 127.285156 322.722656 125.195312 324.8125 122.636719 324.8125 L 113.363281 324.8125 C 110.789062 324.8125 108.714844 322.722656 108.714844 320.171875 C 108.714844 317.621094 110.789062 315.535156 113.363281 315.535156 Z M 122.71875 248.023438 C 127.046875 247.574219 131.449219 247.574219 135.757812 248.023438 L 135.757812 242.6875 C 135.757812 241.039062 134.382812 239.667969 132.730469 239.667969 L 125.746094 239.667969 C 124.09375 239.667969 122.71875 241.039062 122.71875 242.6875 Z M 165.230469 276.820312 C 163.875 272.199219 160.507812 267.972656 155.78125 264.644531 C 141.253906 254.40625 117.222656 254.40625 102.6875 264.644531 C 97.96875 267.972656 94.613281 272.199219 93.238281 276.820312 Z M 172.738281 296.9375 L 172.738281 286.097656 L 85.730469 286.097656 L 85.730469 296.9375 Z M 171.796875 410.816406 L 171.796875 428.195312 L 180.617188 428.195312 L 180.617188 410.816406 Z M 196.132812 435.710938 L 196.132812 403.304688 L 189.925781 403.304688 L 189.925781 435.710938 Z M 196.132812 435.710938 " fill-opacity="1" fill-rule="nonzero"/></g><g clip-path="url(#7e67e9ab66)"><path fill="#100f0d" d="M 530.910156 523.605469 L 530.910156 552.085938 C 530.910156 554.355469 529.066406 556.210938 526.78125 556.210938 L 525.265625 556.210938 C 522.980469 556.210938 521.136719 554.355469 521.136719 552.085938 L 521.136719 549.519531 L 429.105469 549.519531 L 429.105469 552.085938 C 429.105469 554.355469 427.261719 556.210938 424.988281 556.210938 L 423.460938 556.210938 C 421.175781 556.210938 419.332031 554.355469 419.332031 552.085938 L 419.332031 549.519531 L 327.296875 549.519531 L 327.296875 552.085938 C 327.296875 554.355469 325.453125 556.210938 323.167969 556.210938 L 321.652344 556.210938 C 319.367188 556.210938 317.523438 554.355469 317.523438 552.085938 L 317.523438 549.519531 L 225.492188 549.519531 L 225.492188 552.085938 C 225.492188 554.355469 223.648438 556.210938 221.363281 556.210938 L 219.847656 556.210938 C 217.5625 556.210938 215.71875 554.355469 215.71875 552.085938 L 215.71875 549.519531 L 123.683594 549.519531 L 123.683594 552.085938 C 123.683594 554.355469 121.839844 556.210938 119.554688 556.210938 L 118.039062 556.210938 C 115.753906 556.210938 113.910156 554.355469 113.910156 552.085938 L 113.910156 523.605469 C 113.910156 521.332031 115.753906 519.476562 118.039062 519.476562 L 119.554688 519.476562 C 121.839844 519.476562 123.683594 521.332031 123.683594 523.605469 L 123.683594 526.171875 L 215.71875 526.171875 L 215.71875 523.605469 C 215.71875 521.332031 217.5625 519.476562 219.847656 519.476562 L 221.363281 519.476562 C 223.648438 519.476562 225.492188 521.332031 225.492188 523.605469 L 225.492188 526.171875 L 317.523438 526.171875 L 317.523438 523.605469 C 317.523438 521.332031 319.367188 519.476562 321.652344 519.476562 L 323.167969 519.476562 C 325.453125 519.476562 327.296875 521.332031 327.296875 523.605469 L 327.296875 526.171875 L 419.332031 526.171875 L 419.332031 523.605469 C 419.332031 521.332031 421.175781 519.476562 423.460938 519.476562 L 424.988281 519.476562 C 427.261719 519.476562 429.105469 521.332031 429.105469 523.605469 L 429.105469 526.171875 L 521.136719 526.171875 L 521.136719 523.605469 C 521.136719 521.332031 522.980469 519.476562 525.265625 519.476562 L 526.78125 519.476562 C 529.066406 519.476562 530.910156 521.332031 530.910156 523.605469 " fill-opacity="1" fill-rule="nonzero"/></g><g clip-path="url(#780a539705)"><path fill="#100f0d" d="M 16.675781 399.4375 L 16.675781 398.046875 C 16.675781 397.726562 16.429688 397.46875 16.128906 397.46875 L 13.9375 397.46875 C 13.386719 397.46875 13.183594 398.230469 13.652344 398.53125 L 15.835938 399.925781 C 16.199219 400.160156 16.675781 399.886719 16.675781 399.4375 Z M 16.128906 396.386719 C 16.429688 396.386719 16.675781 396.132812 16.675781 395.816406 L 16.675781 394.417969 C 16.675781 393.976562 16.199219 393.703125 15.835938 393.933594 L 13.652344 395.332031 C 13.183594 395.632812 13.386719 396.386719 13.9375 396.386719 Z M 124.617188 548.195312 L 124.617188 545.3125 L 42.691406 545.3125 C 32.257812 545.3125 23.804688 536.625 23.046875 525.652344 L 22.898438 525.652344 L 22.898438 434.441406 L 20.152344 434.441406 C 18.027344 434.441406 16.304688 432.714844 16.304688 430.578125 L 16.304688 429.152344 C 16.304688 427.019531 18.027344 425.292969 20.152344 425.292969 L 22.867188 425.292969 L 22.867188 405.09375 C 22.105469 404.515625 21.527344 403.691406 21.234375 402.738281 L 17.152344 402.738281 C 17.046875 402.738281 16.945312 402.707031 16.863281 402.652344 L 11.023438 398.925781 C 10.9375 398.867188 10.835938 398.839844 10.738281 398.839844 L 8.457031 398.839844 C 8.148438 398.839844 7.902344 398.585938 7.902344 398.269531 C 7.902344 397.953125 7.65625 397.695312 7.355469 397.695312 L 3.128906 397.695312 L 3.128906 403.207031 C 3.128906 403.675781 2.761719 404.0625 2.308594 404.0625 L 1.769531 404.0625 C 1.324219 404.0625 0.953125 403.675781 0.953125 403.207031 L 0.953125 390.652344 C 0.953125 390.179688 1.324219 389.800781 1.769531 389.800781 L 2.308594 389.800781 C 2.761719 389.800781 3.128906 390.179688 3.128906 390.652344 L 3.128906 396.167969 L 7.355469 396.167969 C 7.65625 396.167969 7.902344 395.910156 7.902344 395.59375 C 7.902344 395.277344 8.148438 395.023438 8.457031 395.023438 L 10.738281 395.023438 C 10.835938 395.023438 10.9375 394.996094 11.023438 394.9375 L 16.863281 391.207031 C 16.945312 391.15625 17.046875 391.125 17.152344 391.125 L 21.234375 391.125 C 21.527344 390.164062 22.105469 389.347656 22.867188 388.769531 L 22.867188 368.300781 L 20.152344 368.300781 C 18.027344 368.300781 16.304688 366.570312 16.304688 364.441406 L 16.304688 363.011719 C 16.304688 360.875 18.027344 359.148438 20.152344 359.148438 L 46.785156 359.148438 C 48.910156 359.148438 50.632812 360.875 50.632812 363.011719 L 50.632812 364.441406 C 50.632812 366.570312 48.910156 368.300781 46.785156 368.300781 L 44.460938 368.300781 L 44.460938 388.769531 C 45.578125 389.621094 46.304688 390.992188 46.304688 392.542969 L 46.304688 401.320312 C 46.304688 402.871094 45.578125 404.242188 44.460938 405.09375 L 44.460938 425.292969 L 46.785156 425.292969 C 48.910156 425.292969 50.632812 427.019531 50.632812 429.152344 L 50.632812 430.578125 C 50.632812 432.714844 48.910156 434.441406 46.785156 434.441406 L 44.460938 434.441406 L 44.460938 506.828125 L 44.390625 506.828125 L 44.390625 523.726562 L 124.617188 523.726562 L 124.617188 521.511719 C 124.617188 519.375 126.339844 517.648438 128.46875 517.648438 L 129.894531 517.648438 C 132.019531 517.648438 133.75 519.375 133.75 521.511719 L 133.75 548.195312 C 133.75 550.328125 132.019531 552.054688 129.894531 552.054688 L 128.46875 552.054688 C 126.339844 552.054688 124.617188 550.328125 124.617188 548.195312 " fill-opacity="1" fill-rule="nonzero"/></g><g clip-path="url(#ecdf50b57a)"><path fill="#211d1d" d="M 149.214844 221.617188 L 141.277344 221.617188 L 141.277344 218.652344 L 149.214844 218.652344 Z M 126.738281 230.5625 L 67.800781 230.5625 L 65.058594 230.578125 L 61.789062 230.746094 C 53.070312 231.613281 44.761719 235.6875 38.730469 241.960938 C 32.621094 248.171875 28.910156 256.703125 28.398438 265.417969 C 28.246094 267.769531 28.300781 269.371094 28.289062 271.1875 L 28.289062 330.125 L 25.328125 330.125 L 25.328125 271.1875 C 25.339844 269.355469 25.277344 267.839844 25.441406 265.238281 C 25.992188 255.820312 30.011719 246.605469 36.597656 239.902344 C 43.101562 233.136719 52.078125 228.734375 61.5 227.796875 L 65.027344 227.613281 L 67.800781 227.601562 L 126.738281 227.601562 Z M 19.34375 351.488281 L 16.382812 351.488281 L 16.382812 343.546875 L 19.34375 343.546875 Z M 137.554688 215.710938 L 137.554688 222.492188 L 65.496094 222.492188 C 53.617188 222.410156 41.625 227.410156 33.351562 235.898438 C 29.171875 240.113281 25.820312 245.160156 23.566406 250.699219 C 22.449219 253.472656 21.59375 256.351562 21.027344 259.292969 C 20.804688 260.769531 20.519531 262.246094 20.410156 263.730469 L 20.289062 265.964844 L 20.21875 339.828125 L 13.4375 339.828125 L 13.4375 355.210938 L 56.609375 355.210938 L 56.609375 339.828125 L 49.828125 339.828125 L 49.90625 266.324219 C 49.929688 265.808594 50.074219 265.316406 50.117188 264.808594 C 50.316406 263.8125 50.605469 262.835938 50.980469 261.886719 C 51.746094 259.992188 52.910156 258.226562 54.375 256.742188 C 57.34375 253.742188 61.308594 252.097656 65.496094 252.101562 L 137.554688 252.101562 L 137.554688 258.882812 L 152.9375 258.882812 L 152.9375 215.710938 L 137.554688 215.710938 " fill-opacity="1" fill-rule="nonzero"/></g></svg>