<svg xmlns="http://www.w3.org/2000/svg" xmlns:xlink="http://www.w3.org/1999/xlink" width="1024" zoomAndPan="magnify" viewBox="0 0 768 767.999994" height="1024" preserveAspectRatio="xMidYMid meet" version="1.0"><defs><clipPath id="b3c421a4f3"><path d="M 0 233.152344 L 307 233.152344 L 307 534.652344 L 0 534.652344 Z M 0 233.152344 " clip-rule="nonzero"/></clipPath></defs><path fill="#000000" d="M 132.722656 325.296875 C 134.078125 328.265625 135.632812 332.40625 137.148438 338.054688 C 140.820312 351.707031 142.839844 369.082031 142.839844 386.980469 C 142.839844 399.890625 141.789062 412.558594 139.800781 423.820312 C 134.378906 421.945312 129.359375 420.496094 124.933594 419.378906 C 123.417969 409.277344 122.609375 398.121094 122.609375 386.980469 C 122.609375 369.082031 124.628906 351.707031 128.300781 338.054688 C 129.816406 332.40625 131.371094 328.265625 132.722656 325.296875 Z M 132.722656 325.296875 " fill-opacity="1" fill-rule="nonzero"/><path fill="#000000" d="M 144.445312 425.5 C 146.582031 413.75 147.710938 400.484375 147.710938 386.980469 C 147.710938 368.667969 145.628906 350.847656 141.855469 336.796875 C 139.320312 327.363281 136.625 321.789062 134.8125 318.773438 C 134.371094 318.039062 133.578125 317.59375 132.722656 317.59375 C 131.867188 317.59375 131.078125 318.039062 130.636719 318.773438 C 128.824219 321.789062 126.128906 327.363281 123.59375 336.796875 C 119.816406 350.84375 117.738281 368.667969 117.738281 386.980469 C 117.738281 397.65625 118.460938 408.355469 119.832031 418.171875 C 114.328125 416.957031 110.15625 416.332031 107.867188 416.039062 C 106.753906 406.851562 106.171875 397.054688 106.171875 386.980469 C 106.171875 364.203125 109.140625 342.820312 114.535156 326.773438 C 119.578125 311.777344 126.207031 303.171875 132.722656 303.171875 C 139.242188 303.171875 145.871094 311.777344 150.914062 326.773438 C 156.308594 342.820312 159.277344 364.203125 159.277344 386.980469 C 159.277344 402.207031 157.925781 417.011719 155.363281 430.027344 C 151.621094 428.328125 147.96875 426.828125 144.445312 425.5 Z M 144.445312 425.5 " fill-opacity="1" fill-rule="nonzero"/><path fill="#000000" d="M 101.300781 386.980469 C 101.300781 410.269531 104.359375 432.203125 109.917969 448.734375 C 113.320312 458.855469 117.492188 466.316406 122.136719 470.785156 L 103.734375 470.785156 C 97.214844 470.785156 90.585938 462.183594 85.546875 447.1875 C 80.152344 431.140625 77.179688 409.757812 77.179688 386.980469 C 77.179688 364.203125 80.152344 342.820312 85.546875 326.773438 C 90.585938 311.777344 97.21875 303.171875 103.734375 303.171875 L 122.136719 303.171875 C 117.492188 307.644531 113.320312 315.105469 109.917969 325.226562 C 104.359375 341.757812 101.300781 363.6875 101.300781 386.980469 Z M 101.300781 386.980469 " fill-opacity="1" fill-rule="nonzero"/><path fill="#000000" d="M 131.511719 470.6875 C 126.210938 469.828125 120.90625 463.382812 116.507812 452.535156 C 122.71875 457.289062 127.628906 463.675781 131.511719 470.6875 Z M 131.511719 470.6875 " fill-opacity="1" fill-rule="nonzero"/><path fill="#000000" d="M 72.3125 386.980469 C 72.3125 410.269531 75.371094 432.203125 80.929688 448.734375 C 84.332031 458.855469 88.503906 466.316406 93.148438 470.785156 L 33.726562 470.785156 L 33.726562 303.171875 L 93.148438 303.171875 C 88.503906 307.644531 84.332031 315.105469 80.929688 325.226562 C 75.371094 341.757812 72.3125 363.6875 72.3125 386.980469 Z M 72.3125 386.980469 " fill-opacity="1" fill-rule="nonzero"/><g clip-path="url(#b3c421a4f3)"><path fill="#000000" d="M 0.0898438 530.582031 C 0.417969 529.28125 1.742188 528.488281 3.046875 528.816406 C 3.65625 528.96875 4.273438 529.101562 4.886719 529.222656 L 4.886719 233.152344 L 28.855469 233.152344 L 28.855469 524.429688 L 37.507812 517.746094 C 37.96875 517.25 38.617188 516.964844 39.296875 516.964844 C 39.296875 516.964844 39.296875 516.964844 39.300781 516.964844 C 39.976562 516.964844 40.625 517.25 41.085938 517.746094 C 41.199219 517.863281 52.445312 529.789062 67.835938 529.789062 C 83.222656 529.789062 94.472656 517.863281 94.582031 517.746094 C 95.039062 517.25 95.691406 516.964844 96.371094 516.964844 C 97.050781 516.964844 97.699219 517.246094 98.160156 517.742188 C 98.273438 517.863281 109.519531 529.789062 124.90625 529.789062 C 134.261719 529.789062 142.039062 525.464844 146.914062 521.835938 C 148.421875 520.71875 149.605469 519.699219 150.414062 518.953125 C 150.414062 518.953125 150.414062 518.953125 150.414062 518.949219 C 149.824219 513.171875 148.390625 502.742188 145.058594 491.203125 C 138.558594 468.703125 127.769531 452.746094 113.824219 444.960938 C 111.59375 437.84375 109.820312 429.769531 108.546875 421.054688 C 116.375 422.199219 138.132812 426.265625 161.429688 438.386719 C 199.15625 458.015625 223.292969 488.566406 233.222656 529.222656 C 233.222656 529.222656 233.21875 529.222656 233.21875 529.222656 L 239.054688 529.789062 C 254.445312 529.789062 265.691406 517.863281 265.800781 517.746094 C 266.261719 517.25 266.910156 516.964844 267.589844 516.964844 C 267.589844 516.964844 267.589844 516.964844 267.59375 516.964844 C 268.269531 516.964844 268.917969 517.246094 269.378906 517.742188 C 269.492188 517.863281 280.738281 529.789062 296.128906 529.789062 C 298.675781 529.789062 301.273438 529.460938 303.84375 528.816406 C 305.148438 528.488281 306.472656 529.28125 306.800781 530.582031 C 307.128906 531.886719 306.335938 533.207031 305.03125 533.53125 C 302.070312 534.277344 299.074219 534.652344 296.128906 534.652344 C 282.222656 534.652344 271.648438 526.472656 267.589844 522.785156 C 263.535156 526.472656 252.960938 534.652344 239.054688 534.652344 C 227.417969 533.003906 217.855469 529.105469 210.519531 522.785156 C 206.460938 526.472656 195.886719 534.652344 181.980469 534.652344 C 168.070312 534.652344 157.492188 526.464844 153.441406 522.78125 C 152.542969 523.59375 151.324219 524.625 149.820312 525.738281 C 144.355469 529.804688 135.597656 534.652344 124.90625 534.652344 C 111.003906 534.652344 100.429688 526.472656 96.371094 522.785156 C 92.3125 526.472656 81.742188 534.652344 67.835938 534.652344 C 53.925781 534.652344 43.347656 526.464844 39.296875 522.78125 C 37.847656 524.09375 35.566406 525.976562 32.597656 527.859375 C 25.597656 532.304688 18.046875 534.652344 10.761719 534.652344 C 7.8125 534.652344 4.816406 534.277344 1.859375 533.53125 C 0.554688 533.207031 -0.238281 531.886719 0.0898438 530.582031 Z M 190.503906 488.375 C 190.917969 489.253906 191.792969 489.765625 192.707031 489.765625 C 193.054688 489.765625 193.40625 489.691406 193.742188 489.535156 C 194.960938 488.964844 195.480469 487.515625 194.910156 486.300781 C 194.4375 485.300781 183.078125 461.664062 156.316406 446.515625 C 155.144531 445.851562 153.660156 446.261719 152.996094 447.429688 C 152.332031 448.597656 152.742188 450.082031 153.914062 450.746094 C 179.277344 465.101562 190.394531 488.140625 190.503906 488.375 Z M 168.640625 496.980469 C 168.816406 498.1875 169.855469 499.0625 171.046875 499.0625 C 171.160156 499.0625 171.28125 499.054688 171.398438 499.035156 C 172.730469 498.84375 173.652344 497.613281 173.460938 496.285156 C 173.308594 495.234375 169.554688 470.441406 152.226562 457.28125 C 151.15625 456.46875 149.628906 456.675781 148.816406 457.746094 C 148 458.8125 148.210938 460.339844 149.28125 461.152344 C 165 473.089844 168.605469 496.742188 168.640625 496.980469 Z M 168.640625 496.980469 " fill-opacity="1" fill-rule="nonzero"/></g></svg>