<svg xmlns="http://www.w3.org/2000/svg" xmlns:xlink="http://www.w3.org/1999/xlink" width="1024" zoomAndPan="magnify" viewBox="0 0 768 767.999994" height="1024" preserveAspectRatio="xMidYMid meet" version="1.0"><defs><clipPath id="e012efcdf3"><path d="M 230.398438 375 L 537.898438 375 L 537.898438 446 L 230.398438 446 Z M 230.398438 375 " clip-rule="nonzero"/></clipPath><clipPath id="219628a602"><path d="M 230.398438 359 L 305 359 L 305 462 L 230.398438 462 Z M 230.398438 359 " clip-rule="nonzero"/></clipPath><clipPath id="ab34f1cb60"><path d="M 464 359 L 537.898438 359 L 537.898438 462 L 464 462 Z M 464 359 " clip-rule="nonzero"/></clipPath><clipPath id="d725e9d9a8"><path d="M 342 350 L 427 350 L 427 470.234375 L 342 470.234375 Z M 342 350 " clip-rule="nonzero"/></clipPath><clipPath id="ce475141ff"><path d="M 306 174.734375 L 463 174.734375 L 463 331 L 306 331 Z M 306 174.734375 " clip-rule="nonzero"/></clipPath></defs><path stroke-linecap="butt" transform="matrix(0.75, 0, 0, 0.75, -404.003089, 384.000001)" fill="none" stroke-linejoin="miter" d="M -0.00108965 2.499999 L 865.176036 2.499999 " stroke="#000000" stroke-width="5" stroke-opacity="1" stroke-miterlimit="4"/><path stroke-linecap="butt" transform="matrix(0.75, 0, 0, 0.75, -404.003089, 438.07243)" fill="none" stroke-linejoin="miter" d="M -0.00108965 2.502385 L 865.176036 2.502385 " stroke="#000000" stroke-width="5" stroke-opacity="1" stroke-miterlimit="4"/><path stroke-linecap="butt" transform="matrix(0.75, 0, 0, 0.75, 514.71185, 384.000001)" fill="none" stroke-linejoin="miter" d="M -0.00121604 2.499999 L 865.17591 2.499999 " stroke="#000000" stroke-width="5" stroke-opacity="1" stroke-miterlimit="4"/><path stroke-linecap="butt" transform="matrix(0.75, 0, 0, 0.75, 514.71185, 438.07243)" fill="none" stroke-linejoin="miter" d="M -0.00121604 2.502385 L 865.17591 2.502385 " stroke="#000000" stroke-width="5" stroke-opacity="1" stroke-miterlimit="4"/><path fill="#003f67" d="M 384.773438 377.941406 C 380.675781 377.941406 377.355469 374.625 377.355469 370.527344 L 377.355469 309.113281 C 377.355469 305.015625 380.675781 301.699219 384.773438 301.699219 C 388.871094 301.699219 392.191406 305.015625 392.191406 309.113281 L 392.191406 370.527344 C 392.191406 374.625 388.871094 377.941406 384.773438 377.941406 Z M 384.773438 377.941406 " fill-opacity="1" fill-rule="nonzero"/><path fill="#3dbfea" d="M 245.484375 437.957031 C 241.386719 437.957031 238.066406 434.636719 238.066406 430.542969 L 238.066406 390.027344 C 238.066406 385.929688 241.386719 382.613281 245.484375 382.613281 L 522.699219 382.613281 C 526.796875 382.613281 530.121094 385.929688 530.121094 390.027344 L 530.121094 430.542969 C 530.121094 434.636719 526.796875 437.957031 522.699219 437.957031 Z M 245.484375 437.957031 " fill-opacity="1" fill-rule="nonzero"/><g clip-path="url(#e012efcdf3)"><path fill="#003f67" d="M 522.699219 390.027344 L 522.699219 430.542969 L 245.484375 430.542969 L 245.484375 390.027344 L 522.699219 390.027344 M 522.699219 375.199219 L 245.484375 375.199219 C 237.289062 375.199219 230.648438 381.835938 230.648438 390.027344 L 230.648438 430.542969 C 230.648438 438.730469 237.289062 445.367188 245.484375 445.367188 L 522.699219 445.367188 C 530.894531 445.367188 537.539062 438.730469 537.539062 430.542969 L 537.539062 390.027344 C 537.539062 381.835938 530.894531 375.199219 522.699219 375.199219 Z M 522.699219 375.199219 " fill-opacity="1" fill-rule="nonzero"/></g><path fill="#b1deef" d="M 245.484375 390.027344 L 522.699219 390.027344 L 522.699219 410.28125 L 245.484375 410.28125 Z M 245.484375 390.027344 " fill-opacity="1" fill-rule="nonzero"/><path fill="#3dbfea" d="M 278.292969 453.804688 C 274.203125 453.804688 270.414062 452.457031 267.359375 450.183594 C 264.300781 452.457031 260.515625 453.804688 256.421875 453.804688 C 246.300781 453.804688 238.066406 445.574219 238.066406 435.460938 L 238.066406 385.09375 C 238.066406 374.984375 246.300781 366.753906 256.421875 366.753906 C 260.515625 366.753906 264.300781 368.101562 267.359375 370.375 C 270.414062 368.101562 274.199219 366.753906 278.292969 366.753906 C 288.039062 366.753906 296.03125 374.375 296.617188 383.964844 C 296.640625 384.203125 296.652344 384.441406 296.652344 384.683594 L 296.652344 435.875 C 296.652344 436.117188 296.640625 436.355469 296.617188 436.59375 C 296.03125 446.183594 288.035156 453.804688 278.292969 453.804688 Z M 278.292969 453.804688 " fill-opacity="1" fill-rule="nonzero"/><g clip-path="url(#219628a602)"><path fill="#003f67" d="M 278.292969 374.167969 C 284.335938 374.167969 289.230469 379.0625 289.230469 385.09375 C 289.230469 389.941406 289.230469 435.875 289.230469 435.875 C 289.230469 435.875 289.230469 435.742188 289.230469 435.460938 C 289.230469 441.496094 284.335938 446.390625 278.292969 446.390625 C 272.253906 446.390625 267.359375 441.496094 267.359375 435.460938 C 267.359375 441.496094 262.460938 446.390625 256.421875 446.390625 C 250.382812 446.390625 245.484375 441.496094 245.484375 435.460938 L 245.484375 385.09375 C 245.484375 379.0625 250.382812 374.167969 256.421875 374.167969 C 262.460938 374.167969 267.359375 379.0625 267.359375 385.09375 C 267.359375 379.0625 272.253906 374.167969 278.292969 374.167969 M 289.230469 384.683594 C 289.230469 384.683594 289.230469 384.816406 289.230469 385.09375 C 289.230469 384.828125 289.230469 384.683594 289.230469 384.683594 M 278.292969 359.34375 C 274.386719 359.34375 270.679688 360.214844 267.359375 361.777344 C 264.035156 360.214844 260.332031 359.34375 256.421875 359.34375 C 242.210938 359.34375 230.648438 370.894531 230.648438 385.09375 L 230.648438 435.460938 C 230.648438 449.664062 242.210938 461.214844 256.421875 461.214844 C 260.332031 461.214844 264.039062 460.34375 267.359375 458.78125 C 270.679688 460.34375 274.386719 461.214844 278.292969 461.214844 C 291.933594 461.214844 303.128906 450.582031 304.015625 437.175781 C 304.050781 436.746094 304.070312 436.3125 304.070312 435.875 L 304.070312 384.683594 C 304.070312 384.246094 304.050781 383.8125 304.015625 383.382812 C 303.128906 369.976562 291.933594 359.34375 278.292969 359.34375 Z M 278.292969 359.34375 " fill-opacity="1" fill-rule="nonzero"/></g><path fill="#3dbfea" d="M 511.761719 453.804688 C 507.667969 453.804688 503.882812 452.457031 500.824219 450.183594 C 497.769531 452.457031 493.984375 453.804688 489.890625 453.804688 C 479.765625 453.804688 471.53125 445.574219 471.53125 435.460938 L 471.53125 385.09375 C 471.53125 374.984375 479.765625 366.753906 489.890625 366.753906 C 493.980469 366.753906 497.769531 368.101562 500.824219 370.375 C 503.882812 368.101562 507.667969 366.753906 511.761719 366.753906 C 521.503906 366.753906 529.5 374.375 530.082031 383.964844 C 530.105469 384.203125 530.117188 384.441406 530.117188 384.683594 L 530.117188 435.875 C 530.117188 436.117188 530.105469 436.355469 530.082031 436.59375 C 529.5 446.183594 521.503906 453.804688 511.761719 453.804688 Z M 511.761719 453.804688 " fill-opacity="1" fill-rule="nonzero"/><g clip-path="url(#ab34f1cb60)"><path fill="#003f67" d="M 511.761719 374.167969 C 517.800781 374.167969 522.699219 379.0625 522.699219 385.09375 C 522.699219 389.941406 522.699219 435.875 522.699219 435.875 C 522.699219 435.875 522.699219 435.742188 522.699219 435.460938 C 522.699219 441.496094 517.800781 446.390625 511.761719 446.390625 C 505.722656 446.390625 500.824219 441.496094 500.824219 435.460938 C 500.824219 441.496094 495.929688 446.390625 489.890625 446.390625 C 483.847656 446.390625 478.953125 441.496094 478.953125 435.460938 L 478.953125 385.09375 C 478.953125 379.0625 483.847656 374.167969 489.890625 374.167969 C 495.929688 374.167969 500.824219 379.0625 500.824219 385.09375 C 500.828125 379.0625 505.722656 374.167969 511.761719 374.167969 M 522.699219 384.683594 C 522.699219 384.683594 522.699219 384.816406 522.699219 385.09375 C 522.699219 384.828125 522.699219 384.683594 522.699219 384.683594 M 511.761719 359.34375 C 507.855469 359.34375 504.148438 360.214844 500.824219 361.777344 C 497.503906 360.214844 493.796875 359.34375 489.890625 359.34375 C 475.675781 359.34375 464.113281 370.894531 464.113281 385.09375 L 464.113281 435.460938 C 464.113281 449.664062 475.675781 461.214844 489.890625 461.214844 C 493.796875 461.214844 497.503906 460.34375 500.824219 458.78125 C 504.148438 460.34375 507.855469 461.214844 511.761719 461.214844 C 525.398438 461.214844 536.597656 450.582031 537.480469 437.175781 C 537.519531 436.746094 537.539062 436.3125 537.539062 435.875 L 537.539062 384.683594 C 537.539062 384.246094 537.519531 383.8125 537.480469 383.382812 C 536.597656 369.976562 525.398438 359.34375 511.761719 359.34375 Z M 511.761719 359.34375 " fill-opacity="1" fill-rule="nonzero"/></g><path fill="#3dbfea" d="M 398.457031 462.882812 C 393.242188 462.882812 388.460938 460.984375 384.773438 457.839844 C 381.085938 460.984375 376.304688 462.882812 371.085938 462.882812 C 359.449219 462.882812 349.980469 453.425781 349.980469 441.796875 L 349.980469 378.761719 C 349.980469 367.136719 359.449219 357.675781 371.085938 357.675781 C 376.304688 357.675781 381.085938 359.574219 384.773438 362.722656 C 388.460938 359.574219 393.242188 357.675781 398.457031 357.675781 C 409.671875 357.675781 418.871094 366.457031 419.527344 377.496094 C 419.550781 377.742188 419.566406 377.992188 419.566406 378.246094 L 419.566406 442.3125 C 419.566406 442.566406 419.554688 442.8125 419.527344 443.0625 C 418.871094 454.101562 409.671875 462.882812 398.457031 462.882812 Z M 398.457031 462.882812 " fill-opacity="1" fill-rule="nonzero"/><g clip-path="url(#d725e9d9a8)"><path fill="#003f67" d="M 398.457031 365.089844 C 406.015625 365.089844 412.144531 371.210938 412.144531 378.761719 C 412.144531 384.824219 412.144531 442.3125 412.144531 442.3125 C 412.144531 442.3125 412.144531 442.144531 412.144531 441.796875 C 412.144531 449.347656 406.015625 455.472656 398.457031 455.472656 C 390.898438 455.472656 384.773438 449.347656 384.773438 441.796875 C 384.773438 449.347656 378.644531 455.472656 371.085938 455.472656 C 363.527344 455.472656 357.398438 449.347656 357.398438 441.796875 L 357.398438 378.761719 C 357.398438 371.210938 363.527344 365.089844 371.085938 365.089844 C 378.644531 365.089844 384.773438 371.210938 384.773438 378.761719 C 384.773438 371.210938 390.902344 365.089844 398.457031 365.089844 M 412.148438 378.25 C 412.148438 378.25 412.148438 378.414062 412.148438 378.761719 C 412.148438 378.425781 412.148438 378.25 412.148438 378.25 M 398.457031 350.261719 C 393.503906 350.261719 388.835938 351.53125 384.773438 353.761719 C 380.707031 351.53125 376.042969 350.261719 371.085938 350.261719 C 355.355469 350.261719 342.558594 363.046875 342.558594 378.761719 L 342.558594 441.796875 C 342.558594 457.511719 355.355469 470.296875 371.085938 470.296875 C 376.039062 470.296875 380.707031 469.027344 384.773438 466.796875 C 388.835938 469.027344 393.503906 470.296875 398.457031 470.296875 C 413.566406 470.296875 425.96875 458.503906 426.925781 443.648438 C 426.964844 443.207031 426.984375 442.761719 426.984375 442.308594 L 426.984375 378.246094 C 426.984375 377.796875 426.964844 377.347656 426.925781 376.910156 C 425.96875 362.054688 413.566406 350.261719 398.457031 350.261719 Z M 398.457031 350.261719 " fill-opacity="1" fill-rule="nonzero"/></g><path fill="#b1deef" d="M 512.453125 374.191406 C 506.417969 373.820312 501.351562 378.347656 500.863281 384.171875 C 500.859375 384.21875 500.792969 384.21875 500.789062 384.171875 C 500.300781 378.347656 495.238281 373.820312 489.199219 374.191406 C 483.363281 374.550781 478.953125 379.664062 478.953125 385.507812 L 478.953125 403.226562 C 478.953125 397.191406 483.847656 392.296875 489.890625 392.296875 C 495.617188 392.296875 500.316406 396.699219 500.785156 402.296875 C 500.789062 402.34375 500.859375 402.34375 500.863281 402.296875 C 501.335938 396.699219 506.035156 392.296875 511.761719 392.296875 C 517.800781 392.296875 522.699219 397.191406 522.699219 403.226562 L 522.699219 385.507812 C 522.699219 379.667969 518.289062 374.550781 512.453125 374.191406 Z M 512.453125 374.191406 " fill-opacity="1" fill-rule="nonzero"/><path fill="#b1deef" d="M 278.988281 374.191406 C 272.949219 373.820312 267.882812 378.347656 267.398438 384.171875 C 267.394531 384.21875 267.324219 384.21875 267.320312 384.171875 C 266.832031 378.347656 261.769531 373.820312 255.730469 374.191406 C 249.898438 374.550781 245.484375 379.664062 245.484375 385.507812 L 245.484375 403.226562 C 245.484375 397.191406 250.382812 392.296875 256.421875 392.296875 C 262.152344 392.296875 266.847656 396.699219 267.320312 402.296875 C 267.324219 402.34375 267.390625 402.34375 267.398438 402.296875 C 267.867188 396.699219 272.566406 392.296875 278.292969 392.296875 C 284.335938 392.296875 289.230469 397.191406 289.230469 403.226562 L 289.230469 385.507812 C 289.230469 379.667969 284.820312 374.550781 278.988281 374.191406 Z M 278.988281 374.191406 " fill-opacity="1" fill-rule="nonzero"/><path fill="#b1deef" d="M 398.679688 365.089844 C 391.367188 364.976562 385.34375 370.589844 384.8125 377.730469 C 384.808594 377.777344 384.738281 377.777344 384.734375 377.730469 C 384.203125 370.589844 378.179688 364.976562 370.867188 365.089844 C 363.3125 365.207031 357.402344 371.703125 357.402344 379.253906 L 357.402344 395.964844 C 357.402344 388.414062 363.527344 382.292969 371.085938 382.292969 C 378.300781 382.292969 384.214844 387.871094 384.734375 394.945312 C 384.738281 394.996094 384.804688 394.996094 384.8125 394.945312 C 385.332031 387.871094 391.246094 382.292969 398.460938 382.292969 C 406.019531 382.292969 412.148438 388.414062 412.148438 395.964844 L 412.148438 379.253906 C 412.144531 371.703125 406.234375 365.207031 398.679688 365.089844 Z M 398.679688 365.089844 " fill-opacity="1" fill-rule="nonzero"/><path fill="#0093c1" d="M 512.453125 446.371094 C 506.417969 446.742188 501.351562 442.214844 500.863281 436.390625 C 500.859375 436.34375 500.792969 436.34375 500.789062 436.390625 C 500.300781 442.214844 495.238281 446.742188 489.199219 446.371094 C 483.363281 446.011719 478.953125 440.894531 478.953125 435.054688 L 478.953125 417.335938 C 478.953125 423.371094 483.847656 428.265625 489.890625 428.265625 C 495.617188 428.265625 500.316406 423.863281 500.785156 418.261719 C 500.789062 418.214844 500.859375 418.214844 500.863281 418.261719 C 501.335938 423.863281 506.035156 428.265625 511.761719 428.265625 C 517.800781 428.265625 522.699219 423.371094 522.699219 417.335938 L 522.699219 435.054688 C 522.699219 440.894531 518.289062 446.011719 512.453125 446.371094 Z M 512.453125 446.371094 " fill-opacity="1" fill-rule="nonzero"/><path fill="#0093c1" d="M 278.988281 446.371094 C 272.949219 446.742188 267.882812 442.214844 267.398438 436.390625 C 267.394531 436.34375 267.324219 436.34375 267.320312 436.390625 C 266.832031 442.214844 261.769531 446.742188 255.730469 446.371094 C 249.898438 446.011719 245.484375 440.894531 245.484375 435.054688 L 245.484375 417.335938 C 245.484375 423.371094 250.382812 428.265625 256.421875 428.265625 C 262.152344 428.265625 266.847656 423.863281 267.320312 418.261719 C 267.324219 418.214844 267.390625 418.214844 267.398438 418.261719 C 267.867188 423.863281 272.566406 428.265625 278.292969 428.265625 C 284.335938 428.265625 289.230469 423.371094 289.230469 417.335938 L 289.230469 435.054688 C 289.230469 440.894531 284.820312 446.011719 278.988281 446.371094 Z M 278.988281 446.371094 " fill-opacity="1" fill-rule="nonzero"/><path fill="#0093c1" d="M 398.679688 455.472656 C 391.367188 455.585938 385.34375 449.972656 384.8125 442.832031 C 384.808594 442.78125 384.738281 442.78125 384.734375 442.832031 C 384.203125 449.972656 378.179688 455.585938 370.867188 455.472656 C 363.3125 455.351562 357.402344 448.855469 357.402344 441.308594 L 357.402344 424.59375 C 357.402344 432.148438 363.527344 438.269531 371.085938 438.269531 C 378.300781 438.269531 384.214844 432.691406 384.734375 425.613281 C 384.738281 425.566406 384.804688 425.566406 384.8125 425.613281 C 385.332031 432.691406 391.246094 438.269531 398.460938 438.269531 C 406.019531 438.269531 412.148438 432.148438 412.148438 424.59375 L 412.148438 441.308594 C 412.144531 448.855469 406.234375 455.355469 398.679688 455.472656 Z M 398.679688 455.472656 " fill-opacity="1" fill-rule="nonzero"/><path fill="#3dbfea" d="M 455.269531 252.636719 C 455.269531 253.789062 455.242188 254.941406 455.1875 256.09375 C 455.128906 257.242188 455.042969 258.394531 454.933594 259.539062 C 454.820312 260.6875 454.675781 261.832031 454.507812 262.972656 C 454.339844 264.113281 454.140625 265.246094 453.917969 266.378906 C 453.691406 267.507812 453.4375 268.632812 453.160156 269.75 C 452.878906 270.867188 452.570312 271.980469 452.234375 273.082031 C 451.902344 274.1875 451.539062 275.28125 451.148438 276.367188 C 450.761719 277.449219 450.347656 278.527344 449.90625 279.589844 C 449.464844 280.65625 448.996094 281.710938 448.503906 282.75 C 448.007812 283.792969 447.492188 284.824219 446.945312 285.839844 C 446.402344 286.855469 445.835938 287.859375 445.242188 288.847656 C 444.648438 289.835938 444.03125 290.808594 443.390625 291.769531 C 442.75 292.726562 442.085938 293.667969 441.398438 294.59375 C 440.710938 295.519531 440 296.429688 439.269531 297.320312 C 438.535156 298.210938 437.785156 299.085938 437.007812 299.9375 C 436.234375 300.792969 435.4375 301.628906 434.621094 302.441406 C 433.808594 303.257812 432.972656 304.050781 432.117188 304.824219 C 431.261719 305.601562 430.386719 306.351562 429.496094 307.085938 C 428.605469 307.816406 427.695312 308.523438 426.769531 309.210938 C 425.84375 309.898438 424.898438 310.5625 423.941406 311.203125 C 422.980469 311.84375 422.007812 312.457031 421.015625 313.050781 C 420.027344 313.644531 419.023438 314.210938 418.003906 314.753906 C 416.988281 315.300781 415.957031 315.816406 414.914062 316.308594 C 413.871094 316.800781 412.816406 317.269531 411.75 317.710938 C 410.6875 318.152344 409.609375 318.566406 408.523438 318.953125 C 407.4375 319.34375 406.339844 319.703125 405.238281 320.039062 C 404.132812 320.375 403.023438 320.679688 401.902344 320.960938 C 400.785156 321.242188 399.660156 321.496094 398.527344 321.71875 C 397.394531 321.945312 396.257812 322.140625 395.117188 322.308594 C 393.976562 322.480469 392.832031 322.621094 391.683594 322.734375 C 390.535156 322.847656 389.386719 322.929688 388.230469 322.988281 C 387.078125 323.042969 385.925781 323.074219 384.773438 323.074219 C 383.621094 323.074219 382.464844 323.042969 381.3125 322.988281 C 380.160156 322.929688 379.011719 322.847656 377.863281 322.734375 C 376.714844 322.621094 375.570312 322.480469 374.429688 322.308594 C 373.289062 322.140625 372.152344 321.945312 371.019531 321.71875 C 369.886719 321.496094 368.761719 321.242188 367.644531 320.960938 C 366.523438 320.679688 365.414062 320.375 364.308594 320.039062 C 363.203125 319.703125 362.109375 319.34375 361.023438 318.953125 C 359.9375 318.566406 358.859375 318.152344 357.792969 317.710938 C 356.730469 317.269531 355.675781 316.800781 354.632812 316.308594 C 353.589844 315.816406 352.558594 315.296875 351.539062 314.753906 C 350.523438 314.210938 349.519531 313.644531 348.53125 313.050781 C 347.539062 312.457031 346.566406 311.84375 345.605469 311.203125 C 344.648438 310.5625 343.703125 309.898438 342.777344 309.210938 C 341.851562 308.523438 340.941406 307.816406 340.050781 307.085938 C 339.15625 306.351562 338.285156 305.601562 337.429688 304.824219 C 336.574219 304.050781 335.738281 303.257812 334.921875 302.441406 C 334.109375 301.628906 333.3125 300.792969 332.539062 299.9375 C 331.761719 299.085938 331.007812 298.210938 330.277344 297.320312 C 329.546875 296.429688 328.835938 295.519531 328.148438 294.59375 C 327.460938 293.667969 326.796875 292.726562 326.15625 291.769531 C 325.515625 290.808594 324.898438 289.835938 324.304688 288.847656 C 323.710938 287.859375 323.144531 286.855469 322.601562 285.839844 C 322.054688 284.824219 321.539062 283.792969 321.042969 282.75 C 320.550781 281.710938 320.082031 280.65625 319.640625 279.589844 C 319.199219 278.527344 318.785156 277.449219 318.394531 276.367188 C 318.007812 275.28125 317.644531 274.1875 317.3125 273.082031 C 316.976562 271.980469 316.667969 270.867188 316.386719 269.75 C 316.109375 268.632812 315.855469 267.507812 315.628906 266.378906 C 315.40625 265.246094 315.207031 264.113281 315.039062 262.972656 C 314.867188 261.832031 314.726562 260.6875 314.613281 259.539062 C 314.5 258.394531 314.417969 257.242188 314.359375 256.09375 C 314.304688 254.941406 314.273438 253.789062 314.273438 252.636719 C 314.273438 251.484375 314.304688 250.332031 314.359375 249.179688 C 314.417969 248.027344 314.5 246.878906 314.613281 245.730469 C 314.726562 244.585938 314.867188 243.441406 315.039062 242.300781 C 315.207031 241.160156 315.40625 240.023438 315.628906 238.894531 C 315.855469 237.765625 316.109375 236.640625 316.386719 235.519531 C 316.667969 234.402344 316.976562 233.292969 317.3125 232.191406 C 317.644531 231.085938 318.007812 229.992188 318.394531 228.90625 C 318.785156 227.820312 319.199219 226.746094 319.640625 225.679688 C 320.082031 224.617188 320.550781 223.5625 321.042969 222.519531 C 321.539062 221.480469 322.054688 220.449219 322.601562 219.433594 C 323.144531 218.414062 323.710938 217.414062 324.304688 216.425781 C 324.898438 215.4375 325.515625 214.460938 326.15625 213.503906 C 326.796875 212.546875 327.460938 211.601562 328.148438 210.675781 C 328.835938 209.75 329.546875 208.84375 330.277344 207.953125 C 331.007812 207.0625 331.761719 206.1875 332.539062 205.332031 C 333.3125 204.480469 334.109375 203.644531 334.921875 202.828125 C 335.738281 202.015625 336.574219 201.21875 337.429688 200.445312 C 338.285156 199.671875 339.15625 198.917969 340.050781 198.1875 C 340.941406 197.457031 341.851562 196.746094 342.777344 196.0625 C 343.703125 195.375 344.648438 194.710938 345.605469 194.070312 C 346.566406 193.429688 347.539062 192.8125 348.53125 192.222656 C 349.519531 191.628906 350.523438 191.058594 351.539062 190.515625 C 352.558594 189.972656 353.589844 189.457031 354.632812 188.960938 C 355.675781 188.46875 356.730469 188.003906 357.792969 187.5625 C 358.859375 187.121094 359.9375 186.707031 361.023438 186.316406 C 362.109375 185.929688 363.203125 185.566406 364.308594 185.234375 C 365.414062 184.898438 366.523438 184.589844 367.644531 184.308594 C 368.761719 184.03125 369.886719 183.777344 371.019531 183.554688 C 372.152344 183.328125 373.289062 183.132812 374.429688 182.960938 C 375.570312 182.792969 376.714844 182.652344 377.863281 182.539062 C 379.011719 182.425781 380.160156 182.339844 381.3125 182.285156 C 382.464844 182.226562 383.621094 182.199219 384.773438 182.199219 C 385.925781 182.199219 387.078125 182.226562 388.234375 182.285156 C 389.386719 182.339844 390.535156 182.425781 391.683594 182.539062 C 392.832031 182.652344 393.976562 182.792969 395.117188 182.960938 C 396.257812 183.132812 397.394531 183.328125 398.527344 183.554688 C 399.660156 183.777344 400.785156 184.03125 401.902344 184.308594 C 403.023438 184.589844 404.132812 184.898438 405.238281 185.234375 C 406.339844 185.566406 407.4375 185.929688 408.523438 186.316406 C 409.609375 186.707031 410.6875 187.121094 411.75 187.5625 C 412.816406 188.003906 413.871094 188.46875 414.914062 188.960938 C 415.957031 189.457031 416.988281 189.972656 418.003906 190.515625 C 419.023438 191.058594 420.027344 191.628906 421.015625 192.222656 C 422.007812 192.8125 422.980469 193.429688 423.941406 194.070312 C 424.898438 194.710938 425.84375 195.375 426.769531 196.0625 C 427.695312 196.746094 428.605469 197.457031 429.496094 198.1875 C 430.386719 198.917969 431.261719 199.671875 432.117188 200.445312 C 432.972656 201.21875 433.808594 202.015625 434.621094 202.828125 C 435.4375 203.644531 436.234375 204.480469 437.007812 205.332031 C 437.785156 206.1875 438.535156 207.0625 439.269531 207.953125 C 440 208.84375 440.710938 209.75 441.398438 210.675781 C 442.085938 211.601562 442.75 212.546875 443.390625 213.503906 C 444.03125 214.460938 444.648438 215.4375 445.242188 216.425781 C 445.835938 217.414062 446.402344 218.414062 446.945312 219.433594 C 447.492188 220.449219 448.007812 221.480469 448.503906 222.519531 C 448.996094 223.5625 449.464844 224.617188 449.90625 225.679688 C 450.347656 226.746094 450.761719 227.820312 451.148438 228.90625 C 451.539062 229.992188 451.902344 231.085938 452.234375 232.191406 C 452.570312 233.292969 452.878906 234.402344 453.160156 235.519531 C 453.4375 236.640625 453.691406 237.765625 453.917969 238.894531 C 454.140625 240.023438 454.339844 241.160156 454.507812 242.300781 C 454.675781 243.441406 454.820312 244.585938 454.933594 245.730469 C 455.042969 246.878906 455.128906 248.027344 455.1875 249.179688 C 455.242188 250.332031 455.269531 251.484375 455.269531 252.636719 Z M 455.269531 252.636719 " fill-opacity="1" fill-rule="nonzero"/><g clip-path="url(#ce475141ff)"><path fill="#003f67" d="M 384.773438 189.613281 C 419.609375 189.613281 447.851562 217.828125 447.851562 252.636719 C 447.851562 287.441406 419.609375 315.660156 384.773438 315.660156 C 349.9375 315.660156 321.695312 287.441406 321.695312 252.636719 C 321.695312 217.828125 349.9375 189.613281 384.773438 189.613281 M 384.773438 174.785156 C 341.808594 174.785156 306.855469 209.710938 306.855469 252.636719 C 306.855469 295.5625 341.808594 330.484375 384.773438 330.484375 C 427.738281 330.484375 462.691406 295.5625 462.691406 252.636719 C 462.691406 209.710938 427.738281 174.785156 384.773438 174.785156 Z M 384.773438 174.785156 " fill-opacity="1" fill-rule="nonzero"/></g><path fill="#0093c1" d="M 439.394531 252.636719 C 439.394531 254.421875 439.308594 256.207031 439.132812 257.984375 C 438.957031 259.765625 438.695312 261.53125 438.347656 263.28125 C 437.996094 265.035156 437.5625 266.769531 437.042969 268.476562 C 436.523438 270.1875 435.921875 271.871094 435.238281 273.519531 C 434.554688 275.171875 433.789062 276.785156 432.945312 278.363281 C 432.101562 279.9375 431.183594 281.46875 430.191406 282.957031 C 429.195312 284.441406 428.132812 285.875 426.996094 287.257812 C 425.863281 288.640625 424.660156 289.960938 423.398438 291.226562 C 422.132812 292.488281 420.808594 293.6875 419.425781 294.824219 C 418.042969 295.957031 416.605469 297.019531 415.121094 298.011719 C 413.632812 299.007812 412.101562 299.925781 410.523438 300.765625 C 408.945312 301.609375 407.328125 302.371094 405.675781 303.054688 C 404.023438 303.742188 402.339844 304.339844 400.628906 304.859375 C 398.917969 305.378906 397.183594 305.8125 395.429688 306.160156 C 393.675781 306.511719 391.90625 306.773438 390.128906 306.949219 C 388.347656 307.121094 386.5625 307.210938 384.773438 307.210938 C 382.984375 307.210938 381.199219 307.121094 379.417969 306.949219 C 377.640625 306.773438 375.871094 306.511719 374.117188 306.160156 C 372.363281 305.8125 370.628906 305.378906 368.917969 304.859375 C 367.207031 304.34375 365.523438 303.742188 363.871094 303.054688 C 362.21875 302.371094 360.601562 301.609375 359.023438 300.765625 C 357.445312 299.925781 355.914062 299.007812 354.425781 298.011719 C 352.9375 297.019531 351.503906 295.957031 350.121094 294.824219 C 348.738281 293.6875 347.414062 292.488281 346.148438 291.226562 C 344.882812 289.960938 343.683594 288.640625 342.550781 287.257812 C 341.414062 285.875 340.351562 284.441406 339.355469 282.957031 C 338.363281 281.46875 337.445312 279.9375 336.601562 278.363281 C 335.757812 276.785156 334.992188 275.171875 334.308594 273.519531 C 333.625 271.871094 333.023438 270.1875 332.503906 268.476562 C 331.984375 266.769531 331.550781 265.035156 331.199219 263.28125 C 330.851562 261.53125 330.589844 259.765625 330.414062 257.984375 C 330.238281 256.207031 330.152344 254.421875 330.152344 252.636719 C 330.152344 250.847656 330.238281 249.066406 330.414062 247.285156 C 330.589844 245.507812 330.851562 243.742188 331.199219 241.988281 C 331.550781 240.234375 331.984375 238.503906 332.503906 236.792969 C 333.023438 235.082031 333.625 233.402344 334.308594 231.75 C 334.992188 230.101562 335.757812 228.484375 336.601562 226.910156 C 337.445312 225.332031 338.363281 223.800781 339.355469 222.316406 C 340.351562 220.828125 341.414062 219.394531 342.550781 218.015625 C 343.683594 216.632812 344.882812 215.308594 346.148438 214.046875 C 347.414062 212.78125 348.738281 211.582031 350.121094 210.449219 C 351.503906 209.316406 352.9375 208.253906 354.425781 207.257812 C 355.914062 206.265625 357.445312 205.347656 359.023438 204.503906 C 360.601562 203.664062 362.21875 202.898438 363.871094 202.214844 C 365.523438 201.53125 367.207031 200.929688 368.917969 200.410156 C 370.628906 199.894531 372.363281 199.457031 374.117188 199.109375 C 375.871094 198.761719 377.640625 198.5 379.417969 198.324219 C 381.199219 198.148438 382.984375 198.0625 384.773438 198.0625 C 386.5625 198.0625 388.347656 198.148438 390.128906 198.324219 C 391.90625 198.5 393.675781 198.761719 395.429688 199.109375 C 397.183594 199.457031 398.917969 199.894531 400.628906 200.410156 C 402.339844 200.929688 404.023438 201.53125 405.675781 202.214844 C 407.328125 202.898438 408.945312 203.664062 410.523438 204.503906 C 412.101562 205.347656 413.632812 206.265625 415.121094 207.257812 C 416.605469 208.253906 418.042969 209.316406 419.425781 210.449219 C 420.808594 211.582031 422.132812 212.78125 423.398438 214.046875 C 424.660156 215.308594 425.863281 216.632812 426.996094 218.015625 C 428.132812 219.394531 429.195312 220.828125 430.191406 222.316406 C 431.183594 223.800781 432.101562 225.332031 432.945312 226.910156 C 433.789062 228.484375 434.554688 230.101562 435.238281 231.75 C 435.921875 233.402344 436.523438 235.082031 437.042969 236.792969 C 437.5625 238.503906 437.996094 240.234375 438.347656 241.988281 C 438.695312 243.742188 438.957031 245.507812 439.132812 247.285156 C 439.308594 249.066406 439.394531 250.847656 439.394531 252.636719 Z M 439.394531 252.636719 " fill-opacity="1" fill-rule="nonzero"/><path fill="#b1deef" d="M 429.375 252.636719 C 429.375 254.09375 429.304688 255.550781 429.160156 257.003906 C 429.019531 258.457031 428.804688 259.898438 428.519531 261.332031 C 428.234375 262.761719 427.878906 264.175781 427.457031 265.574219 C 427.03125 266.96875 426.539062 268.339844 425.980469 269.691406 C 425.421875 271.039062 424.796875 272.355469 424.109375 273.644531 C 423.421875 274.929688 422.671875 276.179688 421.859375 277.394531 C 421.046875 278.609375 420.179688 279.777344 419.253906 280.90625 C 418.324219 282.035156 417.34375 283.117188 416.3125 284.148438 C 415.28125 285.179688 414.199219 286.160156 413.070312 287.085938 C 411.941406 288.011719 410.769531 288.878906 409.554688 289.691406 C 408.339844 290.5 407.085938 291.25 405.800781 291.9375 C 404.511719 292.625 403.191406 293.25 401.84375 293.808594 C 400.492188 294.367188 399.117188 294.859375 397.722656 295.28125 C 396.324219 295.707031 394.90625 296.058594 393.476562 296.34375 C 392.042969 296.628906 390.597656 296.84375 389.144531 296.984375 C 387.691406 297.128906 386.234375 297.199219 384.773438 297.199219 C 383.3125 297.199219 381.855469 297.128906 380.402344 296.984375 C 378.949219 296.84375 377.503906 296.628906 376.070312 296.34375 C 374.640625 296.058594 373.222656 295.707031 371.824219 295.28125 C 370.425781 294.859375 369.054688 294.367188 367.703125 293.808594 C 366.355469 293.25 365.035156 292.625 363.746094 291.9375 C 362.460938 291.25 361.207031 290.5 359.992188 289.691406 C 358.777344 288.878906 357.605469 288.011719 356.476562 287.085938 C 355.347656 286.160156 354.265625 285.179688 353.234375 284.148438 C 352.199219 283.117188 351.222656 282.035156 350.292969 280.90625 C 349.367188 279.777344 348.5 278.609375 347.6875 277.394531 C 346.875 276.179688 346.125 274.929688 345.4375 273.644531 C 344.746094 272.355469 344.125 271.039062 343.566406 269.691406 C 343.007812 268.339844 342.515625 266.96875 342.089844 265.574219 C 341.667969 264.175781 341.3125 262.761719 341.027344 261.332031 C 340.742188 259.898438 340.527344 258.457031 340.382812 257.003906 C 340.242188 255.550781 340.167969 254.09375 340.167969 252.636719 C 340.167969 251.175781 340.242188 249.71875 340.382812 248.269531 C 340.527344 246.816406 340.742188 245.375 341.027344 243.941406 C 341.3125 242.511719 341.667969 241.097656 342.089844 239.699219 C 342.515625 238.304688 343.007812 236.929688 343.566406 235.582031 C 344.125 234.234375 344.746094 232.914062 345.4375 231.628906 C 346.125 230.339844 346.875 229.089844 347.6875 227.878906 C 348.5 226.664062 349.367188 225.492188 350.292969 224.363281 C 351.222656 223.238281 352.199219 222.15625 353.234375 221.125 C 354.265625 220.09375 355.347656 219.113281 356.476562 218.1875 C 357.605469 217.261719 358.777344 216.394531 359.992188 215.582031 C 361.207031 214.769531 362.460938 214.023438 363.746094 213.332031 C 365.035156 212.644531 366.355469 212.023438 367.703125 211.464844 C 369.054688 210.90625 370.425781 210.414062 371.824219 209.992188 C 373.222656 209.566406 374.640625 209.210938 376.070312 208.929688 C 377.503906 208.644531 378.949219 208.429688 380.402344 208.285156 C 381.855469 208.144531 383.3125 208.070312 384.773438 208.070312 C 386.234375 208.070312 387.691406 208.144531 389.144531 208.285156 C 390.597656 208.429688 392.042969 208.644531 393.476562 208.929688 C 394.90625 209.210938 396.324219 209.566406 397.722656 209.992188 C 399.117188 210.414062 400.492188 210.90625 401.84375 211.464844 C 403.191406 212.023438 404.511719 212.644531 405.800781 213.332031 C 407.085938 214.023438 408.339844 214.769531 409.554688 215.582031 C 410.769531 216.394531 411.941406 217.261719 413.070312 218.1875 C 414.199219 219.113281 415.28125 220.09375 416.3125 221.125 C 417.34375 222.15625 418.324219 223.238281 419.253906 224.363281 C 420.179688 225.492188 421.046875 226.664062 421.859375 227.878906 C 422.671875 229.089844 423.421875 230.339844 424.109375 231.628906 C 424.796875 232.914062 425.421875 234.234375 425.980469 235.582031 C 426.539062 236.929688 427.03125 238.304688 427.457031 239.699219 C 427.878906 241.097656 428.234375 242.511719 428.519531 243.941406 C 428.804688 245.375 429.019531 246.816406 429.160156 248.269531 C 429.304688 249.71875 429.375 251.175781 429.375 252.636719 Z M 429.375 252.636719 " fill-opacity="1" fill-rule="nonzero"/><path fill="#003f67" d="M 377.355469 260.695312 L 384.773438 219.808594 L 392.191406 260.695312 C 392.9375 264.789062 390.214844 268.710938 386.117188 269.453125 C 382.019531 270.191406 378.09375 267.476562 377.355469 263.382812 C 377.1875 262.476562 377.203125 261.550781 377.355469 260.695312 Z M 377.355469 260.695312 " fill-opacity="1" fill-rule="nonzero"/><path fill="#003f67" d="M 404.976562 342.671875 L 367.003906 342.671875 C 362.90625 342.671875 359.585938 339.351562 359.585938 335.257812 C 359.585938 331.164062 362.90625 327.84375 367.003906 327.84375 L 404.976562 327.84375 C 409.074219 327.84375 412.398438 331.164062 412.398438 335.257812 C 412.398438 339.351562 409.074219 342.671875 404.976562 342.671875 Z M 404.976562 342.671875 " fill-opacity="1" fill-rule="nonzero"/></svg>