<svg xmlns="http://www.w3.org/2000/svg" xmlns:xlink="http://www.w3.org/1999/xlink" width="1024" zoomAndPan="magnify" viewBox="0 0 768 767.999994" height="1024" preserveAspectRatio="xMidYMid meet" version="1.0"><defs><g/><clipPath id="58d6acd94d"><path d="M 197.953125 77 L 569.953125 77 L 569.953125 768 L 197.953125 768 Z M 197.953125 77 " clip-rule="nonzero"/></clipPath></defs><g clip-path="url(#58d6acd94d)"><path fill="#90beab" d="M 229.457031 700.09375 L 229.457031 692.132812 C 229.457031 690.691406 229.40625 689.070312 229.351562 687.394531 C 229.273438 684.511719 229.222656 681.449219 229.328125 678.464844 C 217.28125 677.128906 205.8125 675.503906 194.839844 673.515625 C 199.265625 678.410156 205.183594 682.863281 210.316406 686.765625 L 213.195312 688.910156 C 218.328125 692.839844 223.800781 696.53125 229.457031 700.09375 Z M 252.605469 696.164062 C 252.710938 690.300781 252.867188 684.222656 252.1875 678.933594 C 251.691406 675.242188 250.171875 672.414062 247.683594 670.84375 C 245.273438 669.296875 242.785156 669.296875 241.347656 669.742188 C 238.414062 670.660156 238.808594 682.15625 238.964844 687.050781 C 238.988281 688.859375 239.042969 690.585938 239.042969 692.132812 L 239.042969 814.925781 C 239.042969 817.175781 238.859375 819.847656 238.625 822.726562 C 238.125 828.777344 237.523438 837.078125 239.671875 840.378906 C 239.671875 840.378906 239.722656 840.324219 239.828125 840.324219 C 240.011719 840.324219 240.429688 840.378906 240.71875 840.378906 C 241.347656 840.429688 242.027344 840.484375 242.65625 840.613281 C 248.390625 841.582031 250.566406 841.242188 251.324219 840.769531 C 252.660156 839.042969 252.554688 831.210938 252.527344 828.253906 L 252.527344 825.84375 C 252.527344 801.488281 252.527344 777.082031 252.527344 752.675781 L 252.476562 703.339844 C 252.476562 701.035156 252.527344 698.601562 252.605469 696.164062 Z M 280.285156 133.117188 C 278.164062 129.609375 275.625 126.074219 272.5625 122.484375 C 248.15625 127.90625 224.457031 138.066406 203.769531 152.023438 C 197.71875 156.082031 193.265625 160.929688 191.015625 165.824219 L 199.054688 179.390625 C 210 169.175781 223.171875 159.882812 239.199219 151.292969 C 252.371094 144.144531 266.144531 138.121094 280.285156 133.117188 Z M 274.761719 853.65625 C 274.761719 853.367188 274.761719 853 274.8125 852.605469 C 274.421875 852.554688 274.105469 852.503906 273.765625 852.476562 C 273.320312 852.421875 272.953125 852.371094 272.5625 852.371094 C 271.121094 852.265625 269.628906 852.320312 268.136719 852.320312 C 267.296875 852.371094 266.433594 852.371094 265.570312 852.371094 L 226.96875 852.371094 C 225.425781 852.371094 223.90625 852.421875 222.359375 852.371094 C 222.019531 853.574219 222.019531 855.90625 222.019531 856.875 C 222.019531 857.738281 222.019531 858.367188 221.96875 858.945312 C 221.96875 859.808594 221.914062 861.144531 222.019531 861.851562 C 223.90625 862.191406 225.949219 862.113281 228.070312 862.0625 C 229.117188 862.007812 230.140625 861.957031 231.132812 861.957031 L 265.597656 861.957031 C 266.433594 861.957031 267.480469 862.0625 268.632812 862.113281 C 270.125 862.242188 273.269531 862.480469 274.867188 862.140625 C 274.8125 861.617188 274.761719 861.089844 274.761719 860.699219 Z M 283.351562 114 L 279.265625 107.21875 C 256.746094 108.660156 235.007812 117.066406 218.484375 124.292969 C 207.066406 129.292969 197.824219 133.929688 189.8125 140.425781 C 182.269531 146.550781 175.851562 156.503906 173.261719 166.246094 C 174.464844 168.601562 175.984375 170.90625 177.6875 173.054688 C 179.441406 172.425781 181.039062 171.429688 182.503906 170.328125 L 181.5625 168.707031 C 180.828125 167.5 180.644531 166.0625 181.117188 164.726562 C 184.390625 155.089844 192.351562 148.125 198.398438 144.0625 C 220.867188 128.902344 246.765625 118.035156 273.269531 112.507812 C 274.972656 112.167969 276.671875 112.746094 277.824219 114 C 278.925781 115.230469 280 116.488281 280.992188 117.746094 C 281.804688 116.671875 282.589844 115.492188 283.351562 114 Z M 446.496094 97.632812 C 446.707031 97.007812 446.890625 96.402344 447.074219 95.828125 C 442.960938 93.027344 437.777344 91.742188 432.460938 92.136719 L 427.796875 118.113281 C 432.328125 118.6875 436.726562 119.421875 441.179688 120.234375 C 441.914062 112.507812 444.21875 104.941406 446.496094 97.632812 Z M 446.707031 82.105469 C 447.046875 81.003906 447.359375 79.90625 447.699219 78.804688 C 445.839844 77.652344 443.484375 77.023438 440.945312 77.023438 C 440 78.832031 439.320312 80.796875 438.847656 82.785156 C 441.285156 83.125 443.667969 83.730469 445.945312 84.59375 C 446.234375 83.78125 446.46875 82.917969 446.707031 82.105469 Z M 522.308594 719.183594 L 522.308594 703.339844 C 522.308594 701.089844 522.253906 698.730469 522.230469 696.402344 C 522.070312 691.320312 521.96875 686.136719 522.359375 681.160156 C 517.464844 681.578125 512.488281 682.101562 507.695312 682.785156 C 503.320312 683.359375 498.976562 684.121094 494.601562 684.851562 C 486.40625 686.242188 477.867188 687.734375 469.277344 688.203125 C 447.28125 689.410156 425.128906 690.011719 402.972656 690.011719 C 376.078125 690.011719 349.183594 689.09375 322.527344 687.339844 C 310.820312 686.527344 299.117188 685.21875 287.800781 683.9375 C 279.371094 683.019531 270.703125 682.101562 262.0625 681.34375 C 262.402344 686.292969 262.296875 691.398438 262.191406 696.402344 C 262.113281 698.730469 262.0625 701.089844 262.0625 703.339844 L 262.0625 717.117188 C 268.425781 719.890625 275.101562 722.535156 282.066406 725.078125 C 285.734375 726.359375 289.480469 727.667969 293.222656 728.847656 C 348.03125 746.601562 403.128906 751.238281 452.597656 742.386719 C 477.1875 737.960938 500.597656 730.15625 522.308594 719.183594 Z M 544.933594 840.246094 C 546.871094 837.078125 546.242188 828.777344 545.769531 822.726562 C 545.507812 819.847656 545.324219 817.175781 545.324219 814.925781 L 545.324219 692.132812 C 545.324219 690.585938 545.378906 688.859375 545.429688 687.050781 C 545.613281 682.15625 545.953125 670.660156 543.074219 669.742188 C 541.632812 669.296875 539.09375 669.296875 536.738281 670.84375 C 534.25 672.414062 532.679688 675.242188 532.179688 678.933594 C 531.527344 684.222656 531.65625 690.300781 531.8125 696.164062 C 531.867188 698.601562 531.890625 701.035156 531.890625 703.339844 L 531.890625 752.675781 C 531.867188 777.082031 531.867188 801.488281 531.867188 825.84375 L 531.867188 828.253906 C 531.8125 831.210938 531.707031 839.042969 533.097656 840.769531 C 533.882812 841.242188 535.976562 841.582031 541.738281 840.613281 C 542.367188 840.484375 543.023438 840.429688 543.703125 840.378906 C 544.121094 840.378906 544.75 840.324219 544.933594 840.246094 Z M 562.347656 861.851562 C 562.503906 861.195312 562.453125 859.808594 562.398438 858.945312 C 562.398438 858.367188 562.347656 857.738281 562.347656 857.164062 C 562.347656 855.960938 562.347656 853.574219 562.058594 852.371094 C 560.488281 852.421875 558.941406 852.371094 557.425781 852.371094 L 518.851562 852.371094 C 518.011719 852.371094 517.097656 852.371094 516.230469 852.320312 C 514.738281 852.320312 513.300781 852.265625 511.808594 852.371094 C 511.441406 852.371094 511.046875 852.421875 510.65625 852.476562 C 510.289062 852.503906 509.949219 852.554688 509.605469 852.605469 C 509.605469 853 509.605469 853.367188 509.605469 853.65625 L 509.605469 860.699219 C 509.605469 861.089844 509.605469 861.617188 509.554688 862.140625 C 511.152344 862.480469 514.320312 862.242188 515.734375 862.113281 C 516.9375 862.0625 517.960938 861.957031 518.773438 861.957031 L 553.234375 861.957031 C 554.257812 861.957031 555.304688 862.007812 556.296875 862.0625 C 558.523438 862.113281 560.621094 862.191406 562.347656 861.851562 Z M 573.660156 214.585938 C 578.453125 215.738281 582.878906 217.546875 587.148438 219.613281 C 582.644531 211.078125 576.304688 203.640625 569.914062 196.855469 C 560.199219 186.433594 547.734375 176.953125 531.761719 167.789062 C 487.503906 142.386719 436.335938 129.609375 385.246094 129.609375 C 336.851562 129.609375 288.535156 141.027344 246.007812 163.941406 C 224.195312 175.699219 207.933594 188.660156 196.332031 203.5625 C 191.433594 209.847656 187.558594 216.367188 184.679688 223.019531 C 223.90625 207.621094 268.34375 198.375 320.167969 195.078125 C 366.285156 192.089844 413.1875 194.054688 458.59375 195.992188 L 467.65625 196.308594 C 503.765625 197.800781 539.277344 206.335938 573.660156 214.585938 Z M 584.921875 672.859375 C 582.589844 673.277344 580.234375 673.671875 577.875 674.011719 C 574.183594 674.535156 570.753906 675.007812 567.324219 675.816406 C 564.46875 676.5 561.667969 676.605469 559.046875 676.683594 C 557.660156 676.734375 556.296875 676.839844 555.015625 676.917969 C 555.199219 680.425781 555.121094 684.015625 555.015625 687.394531 C 554.964844 689.070312 554.910156 690.691406 554.910156 692.132812 L 554.910156 699.175781 C 556.558594 697.972656 558.183594 696.820312 559.753906 695.589844 C 564.941406 691.558594 569.96875 687.234375 574.683594 682.835938 L 577.011719 680.609375 C 579.839844 677.992188 582.539062 675.453125 584.921875 672.859375 Z M 594.320312 247.660156 C 594.765625 244.308594 595.132812 241.085938 594.765625 238.363281 C 594.480469 236.164062 593.378906 233.570312 592.121094 230.875 C 585.417969 227.207031 578.976562 223.75 571.878906 222.050781 C 537.890625 213.90625 502.695312 205.472656 467.316406 203.980469 L 458.253906 203.613281 C 413.082031 201.726562 366.335938 199.816406 320.640625 202.75 C 267.011719 206.152344 221.496094 215.972656 181.613281 232.578125 C 180.304688 238.808594 180.59375 246.089844 180.933594 253.238281 C 181.117188 256.722656 181.273438 260.125 181.273438 263.398438 L 181.273438 626.769531 C 181.273438 638.867188 184.390625 649.160156 188.03125 661.050781 L 188.894531 663.878906 C 188.945312 664.191406 189.128906 664.425781 189.234375 664.714844 C 202.171875 667.253906 215.734375 669.273438 230.21875 670.84375 C 231.316406 666 233.675781 662.121094 238.464844 660.578125 C 243.128906 659.136719 248.445312 659.949219 252.816406 662.726562 C 256.585938 665.1875 259.335938 668.929688 260.777344 673.515625 C 270.125 674.300781 279.527344 675.292969 288.667969 676.316406 C 299.902344 677.597656 311.554688 678.910156 322.996094 679.667969 C 371.390625 682.914062 420.464844 683.203125 468.859375 680.53125 C 477.003906 680.0625 485.304688 678.648438 493.320312 677.257812 C 497.769531 676.550781 502.167969 675.765625 506.648438 675.164062 C 512.304688 674.378906 518.089844 673.828125 523.695312 673.277344 C 525.136719 668.828125 527.832031 665.132812 531.578125 662.726562 C 535.925781 659.949219 541.292969 659.136719 545.902344 660.578125 C 550.222656 661.914062 552.476562 665.238281 553.730469 669.351562 C 555.433594 669.167969 557.109375 669.0625 558.761719 669.007812 C 561.144531 668.929688 563.394531 668.828125 565.59375 668.355469 C 569.289062 667.492188 573.085938 666.914062 576.777344 666.390625 C 582.015625 665.65625 587.042969 664.949219 591.652344 663.351562 C 592.933594 660.5 593.613281 657.617188 593.613281 654.503906 C 593.667969 647.875 593.613281 641.226562 593.613281 634.601562 L 593.613281 256.300781 C 593.613281 253.265625 593.980469 250.4375 594.320312 247.660156 " fill-opacity="1" fill-rule="nonzero"/></g><g fill="#ffffff" fill-opacity="1"><g transform="translate(306.326239, 439.95751)"><g><path d="M 10.609375 0.34375 C 9.078125 0.34375 7.707031 0.140625 6.5 -0.265625 C 5.289062 -0.679688 4.28125 -1.226562 3.46875 -1.90625 C 2.664062 -2.582031 2.0625 -3.328125 1.65625 -4.140625 L 3.21875 -6.03125 L 3.640625 -6.03125 C 5.140625 -3.488281 7.460938 -2.21875 10.609375 -2.21875 C 12.429688 -2.21875 13.785156 -2.597656 14.671875 -3.359375 C 15.566406 -4.128906 16.015625 -5.195312 16.015625 -6.5625 C 16.015625 -7.351562 15.867188 -8.023438 15.578125 -8.578125 C 15.285156 -9.128906 14.800781 -9.601562 14.125 -10 C 13.445312 -10.394531 12.53125 -10.738281 11.375 -11.03125 L 8.53125 -11.71875 C 6.414062 -12.226562 4.859375 -13.039062 3.859375 -14.15625 C 2.859375 -15.269531 2.359375 -16.675781 2.359375 -18.375 C 2.359375 -19.582031 2.664062 -20.660156 3.28125 -21.609375 C 3.90625 -22.554688 4.8125 -23.296875 6 -23.828125 C 7.195312 -24.359375 8.628906 -24.625 10.296875 -24.625 C 12.117188 -24.625 13.65625 -24.363281 14.90625 -23.84375 C 16.164062 -23.332031 17.175781 -22.5625 17.9375 -21.53125 L 16.53125 -19.65625 L 16.125 -19.65625 C 15.425781 -20.507812 14.597656 -21.132812 13.640625 -21.53125 C 12.691406 -21.925781 11.578125 -22.125 10.296875 -22.125 C 8.609375 -22.125 7.335938 -21.796875 6.484375 -21.140625 C 5.628906 -20.492188 5.203125 -19.59375 5.203125 -18.4375 C 5.203125 -17.34375 5.515625 -16.472656 6.140625 -15.828125 C 6.773438 -15.179688 7.835938 -14.679688 9.328125 -14.328125 L 12.234375 -13.625 C 14.585938 -13.070312 16.289062 -12.222656 17.34375 -11.078125 C 18.40625 -9.929688 18.9375 -8.46875 18.9375 -6.6875 C 18.9375 -5.3125 18.628906 -4.097656 18.015625 -3.046875 C 17.398438 -1.992188 16.46875 -1.164062 15.21875 -0.5625 C 13.96875 0.0390625 12.429688 0.34375 10.609375 0.34375 Z M 10.609375 0.34375 "/></g></g></g><g fill="#ffffff" fill-opacity="1"><g transform="translate(327.125612, 439.95751)"><g><path d="M 13.3125 0.34375 C 11.207031 0.34375 9.335938 -0.109375 7.703125 -1.015625 C 6.066406 -1.921875 4.773438 -3.304688 3.828125 -5.171875 C 2.890625 -7.035156 2.421875 -9.359375 2.421875 -12.140625 C 2.421875 -14.910156 2.890625 -17.226562 3.828125 -19.09375 C 4.773438 -20.957031 6.066406 -22.34375 7.703125 -23.25 C 9.335938 -24.164062 11.207031 -24.625 13.3125 -24.625 C 15.414062 -24.625 17.285156 -24.164062 18.921875 -23.25 C 20.566406 -22.34375 21.859375 -20.957031 22.796875 -19.09375 C 23.734375 -17.226562 24.203125 -14.910156 24.203125 -12.140625 C 24.203125 -9.359375 23.734375 -7.035156 22.796875 -5.171875 C 21.859375 -3.304688 20.566406 -1.921875 18.921875 -1.015625 C 17.285156 -0.109375 15.414062 0.34375 13.3125 0.34375 Z M 13.3125 -2.296875 C 15.832031 -2.296875 17.769531 -3.082031 19.125 -4.65625 C 20.476562 -6.226562 21.15625 -8.722656 21.15625 -12.140625 C 21.15625 -15.546875 20.476562 -18.035156 19.125 -19.609375 C 17.769531 -21.191406 15.832031 -21.984375 13.3125 -21.984375 C 8.09375 -21.984375 5.484375 -18.703125 5.484375 -12.140625 C 5.484375 -5.578125 8.09375 -2.296875 13.3125 -2.296875 Z M 13.3125 -2.296875 "/></g></g></g><g fill="#ffffff" fill-opacity="1"><g transform="translate(353.751457, 439.95751)"><g><path d="M 17.9375 -24.265625 L 17.9375 -21.921875 L 6.53125 -21.921875 L 6.53125 -13.078125 L 16.78125 -13.078125 L 16.78125 -10.703125 L 6.53125 -10.703125 L 6.53125 0 L 3.671875 0 L 3.671875 -24.265625 Z M 17.9375 -24.265625 "/></g></g></g><g fill="#ffffff" fill-opacity="1"><g transform="translate(372.990462, 439.95751)"><g><path d="M 18.9375 -24.265625 L 18.9375 -21.84375 L 11.34375 -21.84375 L 11.34375 0 L 8.5 0 L 8.5 -21.84375 L 0.890625 -21.84375 L 0.890625 -24.265625 Z M 18.9375 -24.265625 "/></g></g></g><g fill="#ffffff" fill-opacity="1"><g transform="translate(392.810449, 439.95751)"><g><path d="M 6.453125 0 L 3.671875 0 L 3.671875 -24.265625 L 7.171875 -24.265625 L 19.015625 -5.734375 L 19.421875 -5.796875 L 19.421875 -24.265625 L 22.203125 -24.265625 L 22.203125 0 L 19.203125 0 L 6.875 -19.84375 L 6.453125 -19.765625 Z M 6.453125 0 "/></g></g></g><g fill="#ffffff" fill-opacity="1"><g transform="translate(418.689316, 439.95751)"><g><path d="M 6.53125 -11.4375 L 6.53125 -2.359375 L 18.890625 -2.359375 L 18.890625 0 L 3.671875 0 L 3.671875 -24.265625 L 18.625 -24.265625 L 18.625 -21.921875 L 6.53125 -21.921875 L 6.53125 -13.796875 L 17.203125 -13.796875 L 17.203125 -11.4375 Z M 6.53125 -11.4375 "/></g></g></g><g fill="#ffffff" fill-opacity="1"><g transform="translate(439.189894, 439.95751)"><g><path d="M 3.671875 0 L 3.671875 -24.265625 L 12.484375 -24.265625 C 14.109375 -24.265625 15.472656 -23.992188 16.578125 -23.453125 C 17.691406 -22.921875 18.523438 -22.164062 19.078125 -21.1875 C 19.628906 -20.207031 19.90625 -19.050781 19.90625 -17.71875 C 19.90625 -16.207031 19.523438 -14.960938 18.765625 -13.984375 C 18.015625 -13.003906 16.84375 -12.269531 15.25 -11.78125 L 15.25 -11.4375 C 16.039062 -11.125 16.6875 -10.632812 17.1875 -9.96875 C 17.6875 -9.3125 18.144531 -8.320312 18.5625 -7 L 20.796875 0 L 17.859375 0 L 15.4375 -7.421875 C 15.15625 -8.296875 14.820312 -8.984375 14.4375 -9.484375 C 14.0625 -9.984375 13.585938 -10.34375 13.015625 -10.5625 C 12.441406 -10.78125 11.710938 -10.890625 10.828125 -10.890625 L 6.53125 -10.890625 L 6.53125 0 Z M 12.421875 -13.3125 C 13.929688 -13.3125 15.054688 -13.660156 15.796875 -14.359375 C 16.546875 -15.066406 16.921875 -16.140625 16.921875 -17.578125 C 16.921875 -19.015625 16.546875 -20.082031 15.796875 -20.78125 C 15.054688 -21.488281 13.929688 -21.84375 12.421875 -21.84375 L 6.53125 -21.84375 L 6.53125 -13.3125 Z M 12.421875 -13.3125 "/></g></g></g></svg>