<svg xmlns="http://www.w3.org/2000/svg" xmlns:xlink="http://www.w3.org/1999/xlink" width="1024" zoomAndPan="magnify" viewBox="0 0 768 767.999994" height="1024" preserveAspectRatio="xMidYMid meet" version="1.0"><defs><clipPath id="7b0c41abb1"><path d="M 259.390625 287.5 L 462.640625 287.5 L 462.640625 537 L 259.390625 537 Z M 259.390625 287.5 " clip-rule="nonzero"/></clipPath><clipPath id="0d5c90f9ab"><path d="M 317.484375 175.664062 L 450.148438 175.664062 L 450.148438 329.414062 L 317.484375 329.414062 Z M 317.484375 175.664062 " clip-rule="nonzero"/></clipPath></defs><g clip-path="url(#7b0c41abb1)"><path fill="#000000" d="M 462.554688 407.769531 C 462.59375 414.199219 462.28125 420.007812 461.917969 425.820312 C 461.769531 428.214844 461.65625 430.613281 461.457031 432.996094 C 461.210938 436.011719 460.898438 439.015625 460.585938 442.03125 C 460.339844 444.480469 460.0625 446.914062 459.765625 449.34375 C 459.390625 452.398438 458.992188 455.464844 458.570312 458.507812 C 458.082031 461.960938 457.597656 465.398438 457.023438 468.835938 C 456.089844 474.410156 455.132812 479.972656 454.097656 485.523438 C 453.585938 488.265625 452.890625 490.984375 452.21875 493.691406 C 452.019531 494.511719 451.609375 495.28125 451.269531 496.0625 C 451.160156 496.324219 450.984375 496.558594 450.773438 496.746094 C 450.523438 496.96875 450.199219 497.070312 449.863281 496.96875 C 449.566406 497.664062 449.242188 498.335938 448.980469 499.03125 C 451.121094 501.585938 452.167969 504.46875 451.308594 507.855469 C 451.011719 509.046875 450.386719 510.078125 449.492188 510.910156 C 448.445312 511.890625 447.410156 512.871094 446.289062 513.765625 C 440.039062 518.792969 433.015625 522.46875 425.554688 525.363281 C 417.644531 528.429688 409.511719 530.738281 401.21875 532.5 C 397.023438 533.394531 392.800781 534.175781 388.566406 534.835938 C 385.179688 535.367188 381.753906 535.679688 378.339844 536.039062 C 371.953125 536.710938 365.539062 536.96875 359.125 536.921875 C 354.777344 536.882812 350.417969 536.632812 346.070312 536.386719 C 342.933594 536.199219 339.78125 535.941406 336.65625 535.566406 C 332.460938 535.058594 328.273438 534.4375 324.101562 533.667969 C 318.074219 532.550781 312.121094 531.171875 306.242188 529.457031 C 298.359375 527.164062 290.777344 524.144531 283.589844 520.160156 C 280.675781 518.546875 277.9375 516.695312 275.371094 514.5625 C 273.800781 513.257812 272.644531 511.632812 271.570312 509.957031 C 270.089844 507.632812 270.003906 505.125 270.9375 502.554688 C 271.347656 501.414062 271.933594 500.371094 272.667969 499.414062 C 272.769531 499.289062 272.878906 499.167969 273.003906 499.054688 C 272.644531 498.382812 272.40625 497.675781 272.183594 496.957031 C 271.847656 497.082031 271.507812 497.007812 271.25 496.769531 C 271.035156 496.585938 270.875 496.347656 270.726562 496.101562 C 270.203125 495.269531 269.878906 494.347656 269.667969 493.40625 C 268.855469 489.730469 267.960938 486.070312 267.273438 482.371094 C 266.304688 477.15625 265.417969 471.914062 264.597656 466.675781 C 263.898438 462.21875 263.316406 457.75 262.730469 453.28125 C 262.15625 448.863281 261.609375 444.441406 261.136719 440.023438 C 260.785156 436.730469 260.523438 433.429688 260.324219 430.128906 C 259.988281 424.652344 259.617188 419.175781 259.453125 413.703125 C 259.328125 409.195312 259.429688 404.675781 259.527344 400.171875 C 259.589844 397.203125 259.777344 394.234375 259.988281 391.269531 C 260.203125 388.191406 260.476562 385.125 260.800781 382.058594 C 261.035156 379.734375 261.359375 377.414062 261.695312 375.09375 C 262.183594 371.765625 262.667969 368.425781 263.242188 365.109375 C 264.074219 360.269531 264.957031 355.453125 265.878906 350.621094 C 266.953125 345.023438 268.148438 339.4375 269.628906 333.925781 C 270.402344 331.054688 271.324219 328.238281 272.230469 325.40625 C 272.46875 324.664062 272.90625 323.980469 273.265625 323.222656 C 272.679688 321.894531 272.03125 320.503906 271.460938 319.078125 C 270.9375 317.785156 270.789062 316.445312 270.898438 315.042969 C 271.074219 313.117188 271.722656 311.367188 272.742188 309.753906 C 273.425781 308.683594 274.238281 307.714844 275.570312 307.40625 C 275.832031 307.34375 276.105469 307.183594 276.292969 306.996094 C 278.074219 305.246094 280.238281 304.078125 282.445312 302.972656 C 288.859375 299.757812 295.570312 297.351562 302.46875 295.386719 C 308.699219 293.625 315.011719 292.296875 321.386719 291.203125 C 325.910156 290.433594 330.441406 289.800781 334.988281 289.292969 C 338.402344 288.921875 341.835938 288.734375 345.261719 288.460938 C 352.300781 287.925781 359.335938 287.730469 366.382812 287.878906 C 370.445312 287.964844 374.503906 288.210938 378.578125 288.421875 C 380.746094 288.535156 382.921875 288.683594 385.089844 288.882812 C 387.878906 289.144531 390.671875 289.441406 393.460938 289.777344 C 396.472656 290.136719 399.476562 290.523438 402.476562 290.980469 C 406.597656 291.625 410.707031 292.359375 414.78125 293.289062 C 420.085938 294.496094 425.355469 295.8125 430.449219 297.710938 C 432.539062 298.480469 434.609375 299.3125 436.675781 300.144531 C 437.359375 300.417969 438.03125 300.75 438.667969 301.148438 C 440.324219 302.167969 441.941406 303.234375 443.585938 304.289062 C 444.121094 304.636719 444.597656 305.035156 444.78125 305.691406 C 444.832031 305.855469 444.820312 306.015625 444.769531 306.164062 C 445.332031 306.550781 445.878906 306.960938 446.378906 307.429688 C 446.390625 307.429688 446.402344 307.429688 446.425781 307.429688 C 447.261719 307.554688 447.894531 308.039062 448.433594 308.660156 C 449.628906 310.011719 450.363281 311.628906 450.8125 313.351562 C 451.023438 314.171875 451.097656 315.027344 451.183594 315.539062 C 451.109375 318.09375 450.4375 320.03125 448.792969 321.570312 C 448.632812 321.734375 448.433594 321.855469 448.234375 321.980469 C 448.433594 322.539062 448.582031 323.109375 448.730469 323.695312 C 448.84375 323.71875 448.992188 323.804688 449.042969 323.894531 C 449.316406 324.390625 449.628906 324.886719 449.789062 325.421875 C 451.371094 330.359375 452.828125 335.339844 453.972656 340.417969 C 455.78125 348.4375 457.273438 356.519531 458.667969 364.601562 C 459.453125 369.097656 460.140625 373.613281 460.722656 378.132812 C 461.234375 382.15625 461.558594 386.191406 461.917969 390.226562 C 462.417969 396.257812 462.605469 402.316406 462.554688 407.769531 Z M 462.554688 407.769531 " fill-opacity="1" fill-rule="nonzero"/></g><path fill="#a3a5a8" d="M 278.160156 309.953125 C 277.949219 309.332031 277.773438 308.710938 277.75 308.101562 C 279.554688 307.019531 281.375 305.976562 283.292969 305.097656 C 290.765625 301.707031 298.496094 299.074219 306.441406 297.066406 C 315.371094 294.804688 324.453125 293.265625 333.617188 292.199219 C 338.289062 291.652344 342.957031 291.253906 347.652344 290.992188 C 353.421875 290.660156 359.210938 290.460938 365.003906 290.570312 C 366.945312 290.609375 368.898438 290.609375 370.84375 290.707031 C 373.871094 290.84375 376.910156 291.042969 379.933594 291.230469 C 381.941406 291.355469 383.933594 291.515625 385.925781 291.675781 C 387.183594 291.777344 388.441406 291.898438 389.6875 292.050781 C 392.015625 292.335938 394.34375 292.621094 396.671875 292.957031 C 400.011719 293.425781 403.359375 293.875 406.6875 294.445312 C 411.753906 295.328125 416.785156 296.429688 421.742188 297.820312 C 428.703125 299.757812 435.515625 302.09375 441.695312 305.953125 C 442.03125 306.164062 442.390625 306.339844 442.753906 306.523438 C 443.089844 306.699219 443.4375 306.761719 443.785156 306.75 C 443.824219 306.808594 443.847656 306.882812 443.886719 306.945312 C 444.320312 308.164062 443.550781 309.441406 442.453125 310.335938 C 442.304688 310.222656 442.09375 310.125 441.96875 310.175781 C 441.433594 310.359375 440.910156 310.597656 440.410156 310.871094 C 439.214844 311.527344 438.058594 312.261719 436.898438 312.757812 C 435.652344 311.949219 434.53125 311.167969 433.363281 310.472656 C 429.988281 308.484375 426.3125 307.21875 422.601562 306.054688 C 417.246094 304.363281 411.792969 303.121094 406.300781 302.019531 C 401.976562 301.148438 397.621094 300.515625 393.25 299.945312 C 390.695312 299.609375 388.128906 299.375 385.5625 299.125 C 382.261719 298.800781 378.949219 298.429688 375.636719 298.257812 C 371.292969 298.03125 366.933594 297.996094 362.585938 297.859375 C 357.59375 297.710938 352.621094 297.996094 347.640625 298.269531 C 343.132812 298.515625 338.625 298.925781 334.128906 299.460938 C 329.644531 300.007812 325.175781 300.652344 320.742188 301.519531 C 310.679688 303.507812 300.890625 306.460938 291.3125 310.113281 C 288.847656 311.042969 286.46875 312.148438 284.414062 313.9375 C 283.925781 313.636719 283.414062 313.367188 282.953125 313.042969 C 281.984375 312.347656 281.023438 311.601562 280.066406 310.894531 C 279.65625 310.597656 279.230469 310.285156 278.78125 310.050781 C 278.570312 309.914062 278.347656 309.902344 278.160156 309.953125 Z M 278.160156 309.953125 " fill-opacity="1" fill-rule="nonzero"/><path fill="#bcbec0" d="M 447.199219 498.882812 C 447.148438 499.015625 447.136719 499.191406 447.175781 499.289062 C 447.375 499.824219 447.660156 500.320312 447.882812 500.855469 C 448.246094 501.699219 448.644531 502.519531 448.894531 503.386719 C 449.578125 505.757812 449.277344 507.917969 447.296875 509.632812 C 447 509.894531 446.636719 510.152344 446.476562 510.488281 C 446.003906 511.46875 445.167969 512.054688 444.347656 512.6875 C 441.742188 514.671875 438.917969 516.300781 436.039062 517.824219 C 429.863281 521.117188 423.335938 523.597656 416.675781 525.683594 C 406.226562 528.960938 395.566406 531.234375 384.703125 532.660156 C 380.558594 533.207031 376.398438 533.605469 372.226562 533.867188 C 368.164062 534.125 364.09375 534.175781 360.492188 534.300781 C 353.84375 534.152344 347.667969 533.941406 341.488281 533.355469 C 337.328125 532.960938 333.183594 532.464844 329.058594 531.816406 C 323.132812 530.875 317.253906 529.644531 311.4375 528.117188 C 303.667969 526.082031 296.117188 523.488281 288.921875 519.910156 C 285.121094 518.023438 281.421875 515.964844 278.097656 513.320312 C 276.664062 512.175781 275.332031 510.9375 274.199219 509.484375 C 272.855469 507.746094 272.320312 505.832031 272.980469 503.699219 C 273.316406 502.617188 273.789062 501.574219 274.210938 500.519531 C 274.285156 500.347656 274.363281 500.171875 274.4375 500 C 275.34375 500.917969 276.453125 501.648438 277.636719 502.246094 C 277.601562 502.355469 277.574219 502.480469 277.585938 502.617188 C 277.601562 502.890625 277.675781 503.175781 277.761719 503.449219 C 277.972656 504.070312 278.421875 504.53125 278.945312 504.890625 C 279.929688 505.574219 280.914062 506.269531 281.957031 506.863281 C 284.933594 508.589844 288.148438 509.804688 291.335938 511.097656 C 301.351562 515.132812 311.6875 518.011719 322.296875 519.9375 C 325.285156 520.484375 328.261719 521.015625 331.25 521.5 C 333.792969 521.910156 336.34375 522.296875 338.898438 522.554688 C 342.085938 522.890625 345.289062 523.164062 348.488281 523.363281 C 352.484375 523.613281 356.496094 523.761719 359.359375 523.898438 C 367.207031 523.722656 373.90625 523.523438 380.570312 522.679688 C 383.746094 522.28125 386.945312 522.011719 390.109375 521.488281 C 394.230469 520.816406 398.339844 520.046875 402.414062 519.15625 C 411.480469 517.167969 420.335938 514.4375 428.902344 510.847656 C 434.433594 508.539062 439.589844 505.597656 443.9375 501.414062 C 444.308594 501.054688 444.683594 500.707031 445.007812 500.308594 C 445.117188 500.160156 445.167969 499.984375 445.132812 499.824219 C 445.792969 499.339844 446.488281 498.84375 447.199219 498.882812 Z M 448.59375 314.148438 C 448.195312 312.632812 447.347656 311.339844 446.4375 310.085938 C 446.101562 309.628906 445.753906 309.167969 445.492188 308.671875 C 445.378906 308.460938 445.429688 308.101562 445.53125 307.878906 C 445.679688 307.566406 446.003906 307.417969 446.351562 307.457031 C 445.855469 306.996094 445.304688 306.574219 444.746094 306.191406 C 444.671875 306.414062 444.496094 306.597656 444.261719 306.660156 C 444.097656 306.699219 443.949219 306.722656 443.800781 306.722656 C 443.835938 306.785156 443.859375 306.859375 443.898438 306.921875 C 444.335938 308.136719 443.5625 309.417969 442.464844 310.3125 C 442.503906 310.335938 442.527344 310.359375 442.566406 310.386719 C 442.652344 310.472656 442.679688 310.757812 442.601562 310.859375 C 442.230469 311.355469 441.882812 311.898438 441.394531 312.273438 C 440.398438 313.03125 439.339844 313.738281 438.257812 314.371094 C 433.015625 317.4375 427.535156 320.007812 421.804688 322.066406 C 415.277344 324.414062 408.605469 326.191406 401.816406 327.605469 C 397.332031 328.535156 392.8125 329.269531 388.277344 329.890625 C 385.789062 330.238281 383.273438 330.410156 380.769531 330.707031 C 376.558594 331.207031 372.3125 331.304688 368.089844 331.589844 C 367.007812 331.664062 365.910156 331.675781 364.828125 331.675781 C 361.214844 331.691406 357.605469 331.703125 354.003906 331.703125 C 349.535156 331.691406 345.074219 331.453125 340.617188 331.09375 C 337.480469 330.84375 334.339844 330.621094 331.203125 330.285156 C 328.585938 330.011719 325.972656 329.652344 323.378906 329.230469 C 320.328125 328.734375 317.289062 328.214844 314.265625 327.582031 C 306.007812 325.867188 297.960938 323.484375 290.253906 320.042969 C 287.066406 318.617188 283.988281 316.964844 281.085938 315.015625 C 279.941406 314.246094 278.90625 313.339844 278.023438 312.285156 C 277.6875 311.875 277.460938 311.441406 277.476562 310.882812 C 277.488281 310.410156 277.761719 310.0625 278.136719 309.949219 C 277.921875 309.332031 277.75 308.710938 277.722656 308.101562 C 277.414062 308.289062 277.113281 308.472656 276.804688 308.660156 C 276.566406 308.808594 276.316406 308.984375 276.15625 309.207031 C 275.382812 310.335938 274.535156 311.441406 273.925781 312.65625 C 272.082031 316.257812 273.054688 319.695312 275.894531 322.242188 C 277.910156 324.042969 280.140625 325.53125 282.480469 326.886719 C 286.40625 329.144531 290.503906 331.03125 294.6875 332.746094 C 302.808594 336.058594 311.164062 338.59375 319.757812 340.367188 C 324.238281 341.296875 328.75 342.054688 333.292969 342.640625 C 337.378906 343.160156 341.488281 343.546875 345.597656 343.832031 C 351.425781 344.242188 357.269531 344.5 363.109375 344.378906 C 366.484375 344.304688 369.871094 344.242188 373.246094 344.03125 C 376.335938 343.84375 379.410156 343.496094 382.476562 343.148438 C 385.316406 342.824219 388.15625 342.464844 390.980469 342.019531 C 406.847656 339.535156 422.167969 335.289062 436.390625 327.628906 C 439.367188 326.027344 442.28125 324.339844 445.082031 322.453125 C 445.40625 322.230469 445.753906 322.042969 446.054688 321.871094 C 446.402344 321.980469 446.589844 322.144531 446.578125 322.378906 C 446.75 322.265625 446.925781 322.144531 447.097656 322.03125 C 447.035156 321.945312 447.011719 321.84375 447.011719 321.746094 C 447.023438 321.472656 447.0625 321.175781 447.175781 320.925781 C 447.335938 320.566406 447.546875 320.21875 447.785156 319.894531 C 449.078125 318.09375 449.128906 316.144531 448.59375 314.148438 Z M 448.59375 314.148438 " fill-opacity="1" fill-rule="nonzero"/><path fill="#477a9a" d="M 459.765625 399.277344 C 459.578125 394.65625 459.378906 390.039062 458.84375 385.433594 C 458.46875 382.253906 458.171875 379.078125 457.761719 375.910156 C 457.3125 372.460938 456.800781 369.019531 456.242188 365.582031 C 455.53125 361.300781 454.796875 357.027344 453.988281 352.769531 C 453.050781 347.839844 452.082031 342.914062 451.023438 338.007812 C 450.1875 334.109375 449.203125 330.238281 448.269531 326.351562 C 448.09375 325.617188 447.957031 324.898438 448.121094 324.152344 C 448.15625 323.96875 448.382812 323.78125 448.570312 323.695312 C 448.59375 323.683594 448.644531 323.683594 448.707031 323.695312 C 448.570312 323.125 448.417969 322.539062 448.207031 321.980469 C 448.070312 322.066406 447.921875 322.144531 447.785156 322.21875 C 447.574219 322.328125 447.296875 322.203125 447.148438 321.992188 C 446.976562 322.117188 446.800781 322.230469 446.625 322.339844 C 446.625 322.429688 446.601562 322.527344 446.539062 322.640625 C 446.339844 322.988281 446.101562 323.320312 445.816406 323.582031 C 445.019531 324.316406 444.210938 325.058594 443.339844 325.707031 C 439.414062 328.597656 435.167969 330.957031 430.773438 333.066406 C 422.539062 337.027344 413.910156 339.847656 405.042969 341.957031 C 399.859375 343.1875 394.628906 344.179688 389.375 344.960938 C 386.097656 345.445312 382.785156 345.753906 379.484375 346.128906 C 372.648438 346.910156 365.773438 347.035156 358.898438 347.058594 C 354.601562 347.070312 350.304688 346.859375 346.023438 346.511719 C 342.773438 346.253906 339.507812 346.027344 336.269531 345.679688 C 333.59375 345.40625 330.929688 345.035156 328.273438 344.625 C 323.691406 343.917969 319.144531 343.050781 314.636719 341.957031 C 304.152344 339.410156 294.027344 335.859375 284.398438 330.945312 C 281.546875 329.492188 278.757812 327.890625 276.21875 325.917969 C 275.558594 325.40625 274.910156 324.875 274.1875 324.289062 C 273.453125 327.292969 272.730469 330.164062 272.070312 333.042969 C 270.203125 341.101562 268.546875 349.207031 267.175781 357.375 C 266.304688 362.613281 265.382812 367.84375 264.585938 373.082031 C 264.097656 376.296875 263.761719 379.535156 263.425781 382.777344 C 263.089844 386.015625 262.792969 389.257812 262.554688 392.496094 C 262.355469 395.292969 262.207031 398.085938 262.144531 400.878906 C 262.070312 404.875 262.03125 408.871094 262.121094 412.871094 C 262.207031 416.632812 262.457031 420.40625 262.65625 424.167969 C 262.78125 426.503906 262.902344 428.847656 263.089844 431.183594 C 263.363281 434.535156 263.6875 437.886719 264.011719 441.238281 C 264.25 443.621094 264.523438 446.007812 264.808594 448.390625 C 265.183594 451.445312 265.558594 454.511719 265.980469 457.5625 C 266.464844 461.066406 267 464.566406 267.550781 468.066406 C 268.160156 471.902344 268.792969 475.726562 269.453125 479.550781 C 270.289062 484.394531 271.308594 489.183594 272.46875 493.964844 C 272.644531 494.671875 272.691406 495.429688 272.742188 496.164062 C 272.769531 496.523438 272.566406 496.820312 272.207031 496.957031 C 272.195312 496.957031 272.183594 496.957031 272.183594 496.96875 C 272.417969 497.6875 272.644531 498.398438 273.003906 499.066406 C 273.253906 498.84375 273.550781 498.644531 273.839844 498.472656 C 273.976562 498.382812 274.285156 498.457031 274.472656 498.546875 C 274.746094 498.683594 274.871094 498.980469 274.773438 499.277344 C 274.683594 499.527344 274.574219 499.773438 274.460938 500.011719 C 275.371094 500.929688 276.480469 501.660156 277.660156 502.257812 C 277.835938 501.773438 278.371094 501.511719 278.894531 501.75 C 279.105469 501.835938 279.292969 501.972656 279.480469 502.109375 C 282.308594 504.183594 285.410156 505.785156 288.648438 507.125 C 296.15625 510.253906 303.804688 512.933594 311.699219 514.910156 C 316.417969 516.089844 321.175781 517.09375 325.972656 517.886719 C 329.246094 518.433594 332.507812 518.992188 335.796875 519.464844 C 338.238281 519.8125 340.691406 520.035156 343.132812 520.273438 C 345.238281 520.484375 347.355469 520.632812 349.460938 520.816406 C 349.808594 520.84375 350.144531 520.894531 350.492188 520.90625 C 355.585938 521.027344 360.679688 521.402344 365.785156 521.066406 C 368.925781 520.855469 372.089844 520.804688 375.226562 520.570312 C 378.078125 520.359375 380.917969 520.011719 383.757812 519.664062 C 386.3125 519.351562 388.863281 518.992188 391.40625 518.609375 C 397.121094 517.765625 402.773438 516.558594 408.367188 515.105469 C 415.128906 513.355469 421.753906 511.207031 428.242188 508.613281 C 433.261719 506.601562 437.933594 503.972656 442.316406 500.816406 C 442.964844 500.347656 443.636719 499.910156 444.320312 499.5 C 444.472656 499.414062 444.78125 499.476562 444.945312 499.589844 C 445.058594 499.664062 445.117188 499.75 445.144531 499.863281 C 445.816406 499.351562 446.515625 498.867188 447.222656 498.90625 C 447.25 498.820312 447.296875 498.757812 447.347656 498.707031 C 447.546875 498.546875 447.859375 498.433594 448.109375 498.457031 C 448.371094 498.496094 448.65625 498.671875 448.832031 498.882812 C 448.878906 498.941406 448.929688 499.003906 448.992188 499.066406 C 449.253906 498.371094 449.578125 497.703125 449.875 497.007812 C 449.863281 497.007812 449.851562 496.992188 449.828125 496.992188 C 449.464844 496.871094 449.230469 496.609375 449.214844 496.25 C 449.203125 495.851562 449.230469 495.441406 449.316406 495.058594 C 449.765625 492.996094 450.300781 490.949219 450.710938 488.886719 C 451.609375 484.355469 452.492188 479.8125 453.289062 475.269531 C 454 471.21875 454.632812 467.160156 455.230469 463.101562 C 455.78125 459.375 456.265625 455.640625 456.75 451.902344 C 457.1875 448.5 457.609375 445.113281 457.984375 441.710938 C 458.308594 438.707031 458.59375 435.6875 458.804688 432.671875 C 459.140625 427.894531 459.453125 423.101562 459.691406 418.308594 C 459.851562 415.054688 459.890625 411.804688 459.914062 408.550781 C 459.890625 405.433594 459.890625 402.355469 459.765625 399.277344 Z M 270.414062 379.511719 C 271 379.460938 271.386719 379.808594 271.808594 380.058594 C 273.726562 381.210938 275.621094 382.367188 277.539062 383.507812 C 281.085938 385.632812 284.933594 387.109375 288.769531 388.625 C 295.222656 391.167969 301.898438 392.980469 308.660156 394.460938 C 312.96875 395.402344 317.304688 396.148438 321.664062 396.769531 C 324.886719 397.226562 328.136719 397.589844 331.375 397.921875 C 334.789062 398.269531 338.214844 398.582031 341.636719 398.816406 C 344.265625 399.003906 346.90625 399.152344 349.535156 399.1875 C 354.179688 399.25 358.824219 399.289062 363.457031 399.175781 C 367.691406 399.066406 371.925781 398.828125 376.148438 398.496094 C 380.542969 398.148438 384.929688 397.710938 389.300781 397.140625 C 402.714844 395.402344 415.9375 392.832031 428.828125 388.625 C 433.027344 387.257812 437.109375 385.644531 441.121094 383.808594 C 442.15625 383.324219 443.175781 382.789062 444.160156 382.21875 C 445.492188 381.4375 446.789062 380.605469 447.835938 379.398438 C 448.34375 379.609375 448.457031 379.921875 448.269531 380.15625 C 447.882812 380.640625 447.449219 381.113281 446.960938 381.5 C 445.394531 382.753906 443.675781 383.769531 441.867188 384.652344 C 436.289062 387.34375 430.5 389.480469 424.582031 391.257812 C 417.394531 393.417969 410.109375 395.117188 402.738281 396.507812 C 397.957031 397.414062 393.148438 398.148438 388.328125 398.792969 C 384.640625 399.277344 380.929688 399.625 377.21875 399.933594 C 372.933594 400.292969 368.652344 400.605469 364.367188 400.816406 C 361.339844 400.964844 358.289062 400.941406 355.261719 400.953125 C 352.859375 400.964844 350.445312 400.988281 348.039062 400.890625 C 344.601562 400.753906 341.175781 400.53125 337.753906 400.320312 C 335.746094 400.195312 333.753906 400.058594 331.761719 399.871094 C 329.421875 399.648438 327.09375 399.425781 324.761719 399.113281 C 321.984375 398.742188 319.222656 398.308594 316.445312 397.875 C 305.335938 396.121094 294.511719 393.34375 284.089844 389.046875 C 280.089844 387.394531 276.292969 385.457031 272.855469 382.863281 C 272.082031 382.28125 271.386719 381.597656 270.699219 380.914062 C 270.3125 380.542969 270.113281 380.070312 270.414062 379.511719 Z M 448.96875 441.015625 C 448.144531 441.636719 447.3125 442.246094 446.453125 442.789062 C 442.316406 445.386719 437.910156 447.410156 433.425781 449.296875 C 426.875 452.050781 420.050781 453.988281 413.1875 455.738281 C 407.308594 457.242188 401.378906 458.46875 395.402344 459.476562 C 390.945312 460.222656 386.484375 460.917969 381.976562 461.339844 C 378.902344 461.625 375.835938 462.019531 372.75 462.230469 C 368.289062 462.542969 363.832031 462.753906 359.359375 462.714844 C 355.859375 462.679688 352.375 462.714844 348.875 462.605469 C 345.785156 462.503906 342.695312 462.269531 339.621094 462.046875 C 336.542969 461.824219 333.457031 461.574219 330.378906 461.238281 C 327.191406 460.890625 324.015625 460.480469 320.851562 460.011719 C 317.402344 459.5 313.964844 458.894531 310.527344 458.296875 C 304.949219 457.316406 299.457031 455.9375 294.015625 454.410156 C 288.386719 452.835938 282.90625 450.886719 277.539062 448.589844 C 275.320312 447.632812 273.277344 446.390625 271.285156 445.023438 C 271.1875 444.964844 271.097656 444.902344 271 444.828125 C 270.476562 444.429688 270.238281 443.957031 270.464844 443.710938 C 270.835938 443.300781 271.308594 443.410156 271.734375 443.574219 C 273.214844 444.15625 274.710938 444.765625 276.179688 445.398438 C 284.699219 449.074219 293.492188 451.941406 302.519531 454.113281 C 308.199219 455.480469 313.929688 456.558594 319.683594 457.453125 C 323.582031 458.046875 327.503906 458.484375 331.425781 458.941406 C 334.328125 459.277344 337.230469 459.5625 340.132812 459.835938 C 342.011719 460.011719 343.90625 460.148438 345.785156 460.222656 C 351.390625 460.433594 357.007812 460.753906 362.625 460.570312 C 366.222656 460.445312 369.835938 460.246094 373.433594 460.011719 C 376.632812 459.800781 379.835938 459.574219 383.011719 459.203125 C 386.820312 458.769531 390.609375 458.222656 394.394531 457.625 C 397.84375 457.09375 401.28125 456.496094 404.691406 455.8125 C 416.261719 453.480469 427.621094 450.425781 438.417969 445.582031 C 441.183594 444.34375 443.886719 442.964844 446.5 441.4375 C 447.335938 440.953125 448.109375 440.355469 448.917969 439.8125 C 449.203125 439.613281 449.441406 439.648438 449.664062 439.921875 C 449.664062 440.40625 449.328125 440.742188 448.96875 441.015625 Z M 448.96875 441.015625 " fill-opacity="1" fill-rule="nonzero"/><path fill="#355d76" d="M 434.210938 314.085938 C 429.886719 316.28125 425.515625 318.144531 421.03125 319.710938 C 414.757812 321.894531 408.355469 323.570312 401.855469 324.921875 C 397.371094 325.855469 392.863281 326.625 388.316406 327.207031 C 384.457031 327.691406 380.570312 328.003906 376.695312 328.363281 C 368.242188 329.144531 359.757812 329.132812 351.277344 328.972656 C 347.726562 328.894531 344.191406 328.609375 340.640625 328.398438 C 338.699219 328.289062 336.757812 328.152344 334.8125 327.953125 C 332.472656 327.730469 330.144531 327.492188 327.816406 327.160156 C 324.476562 326.675781 321.140625 326.175781 317.8125 325.558594 C 308.398438 323.792969 299.21875 321.199219 290.488281 317.203125 C 288.933594 316.492188 287.4375 315.648438 285.945312 314.90625 C 285.917969 314.359375 286.304688 314.308594 286.578125 314.171875 C 289.207031 312.894531 291.972656 311.949219 294.738281 311.019531 C 301.949219 308.597656 309.246094 306.488281 316.691406 304.847656 C 320.328125 304.054688 323.980469 303.347656 327.664062 302.863281 C 330.953125 302.441406 334.242188 301.992188 337.542969 301.621094 C 339.421875 301.410156 341.300781 301.296875 343.195312 301.175781 C 346.171875 300.976562 349.136719 300.789062 352.113281 300.628906 C 353.371094 300.554688 354.628906 300.515625 355.886719 300.515625 C 359.894531 300.515625 363.90625 300.464844 367.917969 300.578125 C 371.355469 300.664062 374.777344 300.902344 378.203125 301.136719 C 381.292969 301.347656 384.367188 301.597656 387.445312 301.929688 C 390.632812 302.277344 393.796875 302.761719 396.972656 303.160156 C 402.089844 303.816406 407.132812 304.847656 412.152344 305.992188 C 417.234375 307.144531 422.242188 308.535156 427.109375 310.410156 C 429.464844 311.316406 431.679688 312.496094 433.898438 313.699219 C 434.023438 313.738281 434.058594 313.875 434.210938 314.085938 Z M 434.210938 314.085938 " fill-opacity="1" fill-rule="nonzero"/><g clip-path="url(#0d5c90f9ab)"><path fill="#100f0d" d="M 331.796875 224.226562 C 327.34375 230.398438 324.691406 237.933594 324.691406 246.066406 C 324.691406 246.273438 324.691406 246.476562 324.691406 246.695312 C 324.828125 254.515625 327.398438 261.875 331.757812 267.933594 L 318.898438 277.570312 L 318.898438 214.566406 Z M 377.234375 327.910156 L 344.875 327.910156 L 351.460938 307.519531 C 351.5 307.449219 351.5 307.382812 351.5 307.300781 L 351.5 244.484375 C 357.789062 242.449219 364.539062 242.765625 370.621094 245.398438 L 370.621094 281.570312 C 370.621094 281.570312 370.621094 281.570312 370.621094 281.613281 C 370.621094 281.640625 370.621094 281.667969 370.660156 281.695312 L 370.660156 307.3125 C 370.660156 307.394531 370.660156 307.464844 370.703125 307.53125 Z M 406.925781 210.140625 L 406.925781 236.976562 L 398.890625 236.976562 C 398.46875 236.976562 398.128906 237.304688 398.128906 237.726562 L 398.128906 246.914062 C 397.757812 262.570312 387.113281 276.261719 372.121094 280.589844 L 372.121094 244.90625 C 372.121094 244.621094 371.945312 244.347656 371.671875 244.226562 C 364.976562 241.179688 357.445312 240.828125 350.492188 243.242188 C 350.191406 243.339844 349.984375 243.625 349.984375 243.9375 L 349.984375 279.863281 C 335.964844 274.800781 326.441406 261.613281 326.195312 246.65625 C 326.195312 246.464844 326.195312 246.273438 326.195312 246.066406 C 326.195312 226.523438 341.949219 210.46875 361.574219 210.140625 Z M 410.863281 207.617188 L 410.863281 239.503906 L 408.429688 239.503906 L 408.429688 207.644531 Z M 448.101562 177.164062 L 441.789062 188.863281 C 441.734375 188.972656 441.707031 189.09375 441.707031 189.21875 L 441.707031 232.71875 L 412.367188 232.71875 L 412.367188 213.621094 L 421.835938 213.621094 C 422.246094 213.621094 422.585938 213.296875 422.585938 212.871094 L 422.585938 189.21875 C 422.585938 189.09375 422.546875 188.984375 422.492188 188.875 L 416.300781 177.164062 Z M 450.136719 176.398438 C 450.136719 176.277344 450.09375 176.152344 450.027344 176.03125 C 449.890625 175.800781 449.644531 175.664062 449.371094 175.664062 L 415.070312 175.664062 C 414.8125 175.664062 414.566406 175.800781 414.429688 176.03125 C 414.28125 176.25 414.28125 176.535156 414.402344 176.769531 L 421.070312 189.40625 L 421.070312 212.121094 L 412.367188 212.121094 L 412.367188 206.867188 C 412.367188 206.457031 412.023438 206.117188 411.613281 206.117188 L 407.679688 206.117188 C 407.253906 206.117188 406.925781 206.457031 406.925781 206.867188 L 406.925781 208.640625 L 361.558594 208.640625 C 349.808594 208.832031 339.421875 214.441406 332.683594 223.027344 L 318.597656 212.460938 C 318.363281 212.285156 318.0625 212.269531 317.804688 212.394531 C 317.558594 212.515625 317.394531 212.777344 317.394531 213.0625 L 317.394531 279.085938 C 317.394531 279.375 317.558594 279.632812 317.804688 279.753906 C 318.0625 279.878906 318.363281 279.863281 318.597656 279.6875 L 332.671875 269.121094 C 337.042969 274.703125 342.976562 279.058594 349.972656 281.460938 L 349.972656 307.175781 L 343.113281 328.429688 C 343.070312 328.5 343.070312 328.582031 343.070312 328.664062 C 343.070312 328.8125 343.113281 328.960938 343.222656 329.097656 C 343.359375 329.304688 343.578125 329.414062 343.820312 329.414062 L 378.257812 329.414062 C 378.492188 329.414062 378.722656 329.304688 378.859375 329.097656 C 379.011719 328.90625 379.066406 328.664062 378.984375 328.429688 L 372.109375 307.175781 L 372.109375 282.144531 C 387.960938 277.777344 399.246094 263.402344 399.628906 246.941406 L 399.628906 238.480469 L 406.914062 238.480469 L 406.914062 240.253906 C 406.914062 240.675781 407.253906 241.003906 407.664062 241.003906 L 411.613281 241.003906 C 412.023438 241.003906 412.367188 240.675781 412.367188 240.253906 L 412.367188 234.234375 L 442.484375 234.234375 C 442.90625 234.234375 443.25 233.890625 443.25 233.46875 L 443.25 189.421875 L 450.054688 176.769531 C 450.09375 176.660156 450.136719 176.535156 450.121094 176.398438 L 450.136719 176.398438 " fill-opacity="1" fill-rule="nonzero"/></g></svg>