<svg xmlns="http://www.w3.org/2000/svg" xmlns:xlink="http://www.w3.org/1999/xlink" width="1024" zoomAndPan="magnify" viewBox="0 0 768 767.999994" height="1024" preserveAspectRatio="xMidYMid meet" version="1.0"><defs><clipPath id="faa4fcee15"><path d="M 275 230.398438 L 494 230.398438 L 494 537.898438 L 275 537.898438 Z M 275 230.398438 " clip-rule="nonzero"/></clipPath></defs><g clip-path="url(#faa4fcee15)"><path fill="#000000" d="M 283.234375 530.429688 C 283.253906 528.777344 282.8125 527.136719 281.929688 525.769531 C 281.652344 525.316406 281.421875 525.046875 281.179688 524.898438 C 281.050781 524.808594 280.972656 524.789062 280.910156 524.769531 C 279.921875 525.578125 279.480469 526.910156 279.878906 528.1875 C 280.308594 529.640625 281.761719 530.558594 283.234375 530.429688 Z M 286.433594 529.507812 L 309.34375 522.417969 C 309.132812 520.308594 307.851562 518.238281 305.96875 517.226562 C 305.820312 517.148438 305.6875 517.015625 305.558594 516.886719 L 284.242188 523.488281 C 284.363281 523.679688 284.535156 523.867188 284.625 524.019531 C 285.695312 525.6875 286.316406 527.558594 286.433594 529.507812 Z M 316.546875 518.878906 C 319.769531 515.585938 319.539062 510.734375 319.410156 507.835938 C 319.339844 506.855469 319.28125 505.867188 319.210938 504.867188 C 319.210938 504.65625 319.1875 504.445312 319.1875 504.226562 C 317.097656 503.625 314.855469 503.695312 312.785156 504.355469 C 312.804688 504.65625 312.804688 504.976562 312.824219 505.273438 L 312.84375 505.523438 C 312.894531 506.40625 312.953125 507.277344 312.996094 508.15625 C 313.164062 511.804688 312.914062 513.425781 311.972656 514.386719 C 311.433594 514.925781 310.621094 515.285156 309.300781 515.71875 C 310.921875 517.207031 312.054688 519.238281 312.445312 521.398438 C 313.824219 520.859375 315.328125 520.136719 316.546875 518.878906 Z M 319.789062 488.894531 L 320.28125 427.882812 C 320.261719 427.882812 320.21875 427.902344 320.179688 427.902344 C 320.089844 427.902344 319.980469 427.882812 319.898438 427.863281 C 317.910156 427.503906 315.90625 427.394531 313.894531 427.484375 L 313.386719 488.851562 C 313.363281 490.222656 313.164062 491.601562 312.996094 492.972656 C 312.824219 494.253906 312.65625 495.574219 312.59375 496.984375 C 312.542969 498.355469 312.542969 499.722656 312.613281 501.085938 C 314.707031 500.554688 316.886719 500.515625 319 500.933594 C 318.960938 499.675781 318.960938 498.464844 319 497.265625 C 319.050781 496.132812 319.1875 495.003906 319.371094 493.804688 C 319.558594 492.3125 319.769531 490.644531 319.789062 488.894531 Z M 320.332031 424.703125 L 320.410156 414.671875 C 318.277344 414.351562 316.136719 414.300781 314.003906 414.503906 L 313.914062 424.285156 C 316.058594 424.195312 318.207031 424.324219 320.332031 424.703125 Z M 320.859375 359.023438 C 320.949219 348.304688 320.730469 337.882812 320.539062 327.808594 C 320.390625 321 320.261719 313.949219 320.21875 306.796875 C 318.078125 306.535156 315.945312 306.558594 313.804688 306.855469 C 313.855469 314.039062 313.976562 321.097656 314.125 327.960938 C 314.324219 338.011719 314.535156 348.371094 314.445312 358.964844 L 314.027344 411.273438 C 316.15625 411.101562 318.296875 411.171875 320.429688 411.441406 Z M 323.492188 298.367188 C 323.644531 296.355469 323.34375 294.324219 322.53125 292.484375 C 322.480469 292.386719 322.460938 292.292969 322.421875 292.253906 C 322.230469 292.164062 322.03125 292.042969 321.882812 291.886719 C 321.710938 291.886719 321.542969 291.863281 321.351562 291.863281 C 320.730469 291.863281 320.070312 291.933594 319.390625 292.105469 C 318 292.484375 313.746094 293.644531 313.765625 302.417969 C 313.765625 302.828125 313.765625 303.226562 313.765625 303.636719 C 315.90625 303.375 318.058594 303.355469 320.179688 303.566406 C 320.179688 303.1875 320.179688 302.796875 320.179688 302.417969 C 320.179688 301.546875 320.21875 300.796875 320.28125 300.195312 C 320.429688 299.085938 321.390625 298.277344 322.53125 298.335938 C 322.871094 298.367188 323.171875 298.367188 323.492188 298.367188 Z M 333.589844 295.695312 C 333.808594 294.855469 333.679688 293.984375 333.25 293.253906 C 332.800781 292.535156 332.097656 291.996094 331.269531 291.804688 C 329.425781 291.335938 327.464844 291.523438 325.664062 291.746094 C 326.433594 293.746094 326.796875 295.90625 326.714844 298.066406 C 328.105469 297.914062 329.015625 297.84375 329.636719 297.996094 C 330.539062 298.214844 331.386719 298.105469 332.140625 297.65625 C 332.871094 297.207031 333.398438 296.527344 333.589844 295.695312 Z M 470.253906 259.800781 L 411.707031 239.078125 C 409.035156 238.148438 406.285156 237.15625 403.632812 237.078125 C 403.480469 237.058594 403.3125 237.058594 403.164062 237.058594 C 399.738281 237.058594 396.238281 238.398438 392.84375 239.707031 L 335.882812 261.609375 C 337.992188 261.480469 340.136719 261.371094 342.226562 261.269531 C 349.683594 260.890625 357.378906 260.5 364.875 259.769531 C 374.699219 258.808594 384.398438 258.75 391.753906 258.789062 C 393.785156 258.808594 395.765625 258.789062 397.738281 258.789062 C 403.722656 258.75 409.375 258.730469 415.402344 259.332031 C 419.105469 259.710938 422.4375 260.011719 425.679688 259.769531 C 426.75 259.710938 427.75 259.539062 428.820312 259.371094 C 430.8125 259.03125 432.863281 258.710938 435.234375 259.03125 C 441.5625 259.949219 448.136719 259.769531 454.511719 259.621094 C 457.300781 259.539062 460.085938 259.480469 462.875 259.5 C 465.320312 259.5 467.769531 259.621094 470.253906 259.800781 Z M 481.53125 514.15625 C 484.074219 511.714844 485.445312 508.066406 485.613281 503.375 C 472.835938 511.65625 457.074219 516.90625 438.570312 519.027344 C 434.824219 519.449219 430.851562 519.765625 426.75 519.96875 C 423.328125 520.117188 419.933594 520.175781 416.5625 520.175781 C 408.546875 520.175781 400.789062 519.816406 393.933594 519.40625 C 389.570312 519.15625 385.167969 519.175781 380.894531 519.175781 C 376.203125 519.199219 371.328125 519.199219 366.453125 518.878906 C 349.980469 517.71875 335.640625 513.726562 323.644531 507.027344 C 323.644531 507.234375 323.664062 507.425781 323.664062 507.617188 C 323.722656 508.894531 323.8125 510.734375 323.574219 512.765625 C 325.8125 514.707031 328.847656 516.65625 330.21875 517.507812 L 330.917969 517.957031 C 335.5625 520.898438 340.90625 523.316406 346.800781 525.109375 C 357.496094 528.378906 368.695312 529.398438 380.15625 530.21875 C 407.003906 532.140625 437.988281 533.308594 465.9375 522.777344 C 470.953125 520.878906 476.6875 518.425781 481.152344 514.515625 C 481.28125 514.417969 481.402344 514.285156 481.53125 514.175781 C 481.53125 514.15625 481.53125 514.15625 481.53125 514.15625 Z M 485.632812 499.445312 L 485.632812 468.691406 C 472.363281 476.441406 456.132812 480.710938 439.460938 480.710938 L 381.046875 480.710938 C 362.3125 480.710938 342.65625 479.113281 324.214844 468.859375 L 324.0625 488.933594 C 324.042969 490.941406 323.8125 492.761719 323.59375 494.363281 C 323.441406 495.472656 323.324219 496.515625 323.273438 497.453125 C 323.191406 499.253906 323.292969 501.195312 323.402344 503.226562 C 335.371094 510.285156 349.851562 514.496094 366.695312 515.667969 C 371.429688 515.988281 376.242188 515.988281 380.894531 515.96875 C 385.1875 515.945312 389.660156 515.945312 394.105469 516.207031 C 403.78125 516.785156 415.210938 517.296875 426.601562 516.757812 C 430.621094 516.566406 434.527344 516.265625 438.199219 515.847656 C 457.09375 513.6875 473.003906 508.136719 485.632812 499.445312 Z M 485.765625 314.679688 C 485.785156 312.878906 485.765625 311.066406 485.722656 309.277344 C 485.671875 307.695312 485.632812 306.085938 485.632812 304.507812 L 485.632812 279.441406 C 484.933594 279.371094 484.242188 279.3125 483.542969 279.234375 C 482.222656 279.054688 480.980469 278.882812 479.738281 278.824219 C 477.796875 278.734375 475.785156 278.78125 473.84375 278.824219 C 472.8125 278.84375 471.8125 278.863281 470.8125 278.863281 L 385.730469 279.121094 C 378.355469 279.121094 370.988281 279.144531 363.632812 279.164062 L 336.113281 279.273438 C 334.8125 279.273438 333.46875 279.203125 332.097656 279.164062 C 328.316406 279.03125 324.433594 278.882812 321.121094 279.914062 L 321.121094 287.613281 C 321.78125 287.59375 322.382812 287.644531 322.851562 287.664062 C 323.0625 287.683594 323.253906 287.683594 323.441406 287.683594 C 323.664062 287.664062 324.132812 287.613281 324.601562 287.554688 C 326.753906 287.292969 329.558594 286.953125 332.308594 287.664062 C 334.261719 288.132812 335.882812 289.355469 336.902344 291.054688 C 337.933594 292.785156 338.234375 294.796875 337.742188 296.714844 C 337.253906 298.65625 336.050781 300.304688 334.320312 301.324219 C 332.609375 302.355469 330.597656 302.625 328.65625 302.136719 C 328.445312 302.136719 326.996094 302.335938 326.523438 302.375 C 325.792969 302.457031 325.09375 302.546875 324.453125 302.585938 C 324.453125 306.605469 324.492188 310.527344 324.554688 314.457031 C 327.074219 314.226562 329.6875 314.308594 332.230469 314.398438 C 333.550781 314.4375 334.8125 314.457031 336.09375 314.496094 L 363.613281 314.398438 C 370.988281 314.378906 378.355469 314.359375 385.730469 314.359375 L 470.8125 314.097656 C 471.792969 314.097656 472.773438 314.078125 473.773438 314.058594 C 475.785156 314.007812 477.859375 313.96875 479.910156 314.058594 C 481.261719 314.136719 482.621094 314.308594 483.941406 314.476562 C 484.542969 314.546875 485.164062 314.609375 485.765625 314.679688 Z M 485.722656 269.550781 C 485.785156 268.402344 485.804688 267.3125 485.785156 266.242188 C 477.988281 264.640625 470.273438 263.789062 462.855469 263.769531 C 460.105469 263.75 457.371094 263.8125 454.609375 263.871094 C 448.074219 264.039062 441.300781 264.222656 434.636719 263.25 C 432.90625 263.019531 431.34375 263.28125 429.511719 263.570312 C 428.402344 263.769531 427.238281 263.960938 425.980469 264.039062 C 422.367188 264.28125 418.863281 263.980469 414.980469 263.570312 C 409.167969 263 403.632812 263.019531 397.777344 263.0625 C 395.765625 263.0625 393.765625 263.082031 391.734375 263.0625 C 384.46875 263.019531 374.921875 263.082031 365.285156 264.019531 C 357.679688 264.769531 349.941406 265.160156 342.4375 265.542969 C 335.84375 265.859375 329.015625 266.222656 322.3125 266.800781 C 321.671875 267.179688 321.160156 267.613281 320.902344 268.082031 C 320.332031 269.113281 320.628906 271.75 320.839844 273.671875 C 320.972656 274.703125 321.050781 275.664062 321.101562 276.601562 C 324.664062 275.703125 328.507812 275.832031 332.230469 275.960938 C 333.550781 276.003906 334.8125 276.023438 336.09375 276.0625 L 363.613281 275.960938 C 370.988281 275.941406 378.355469 275.921875 385.730469 275.921875 L 470.8125 275.664062 C 471.792969 275.664062 472.773438 275.640625 473.773438 275.621094 C 475.785156 275.582031 477.859375 275.53125 479.910156 275.621094 C 481.261719 275.703125 482.621094 275.871094 483.941406 276.042969 C 484.503906 276.113281 485.082031 276.152344 485.632812 276.222656 L 485.632812 272.78125 C 485.632812 271.730469 485.671875 270.640625 485.722656 269.550781 Z M 485.804688 367.117188 C 485.785156 365.726562 485.765625 364.363281 485.742188 363.015625 C 485.671875 360.925781 485.632812 358.835938 485.632812 356.765625 C 485.632812 355.992188 485.671875 355.222656 485.695312 354.453125 C 481.152344 355.925781 476.125 357.355469 471.34375 357.855469 C 469.203125 358.085938 467.070312 358.0625 465.417969 358.023438 C 464.4375 357.996094 463.4375 358.144531 462.386719 358.273438 C 461.855469 358.363281 461.34375 358.425781 460.785156 358.496094 C 458.453125 358.746094 456.0625 358.785156 453.738281 358.785156 C 453.089844 358.785156 452.449219 358.785156 451.839844 358.785156 L 449.996094 358.765625 L 348.929688 358.765625 C 341.347656 358.8125 332.929688 358.746094 325.152344 356.785156 C 325.132812 357.554688 325.152344 358.292969 325.132812 359.042969 L 325.042969 369.527344 C 332.609375 371.625 340.875 371.667969 348.929688 371.644531 L 451.839844 371.644531 C 454.699219 371.667969 457.644531 371.667969 460.445312 371.367188 C 460.957031 371.324219 461.445312 371.257812 461.9375 371.175781 C 463.078125 371.027344 464.246094 370.855469 465.507812 370.894531 C 467.050781 370.917969 469.050781 370.9375 471.023438 370.746094 C 475.894531 370.234375 481.152344 368.675781 485.804688 367.117188 Z M 485.972656 385.199219 L 485.894531 384.707031 C 485.273438 381.296875 485.421875 378.367188 485.632812 375.1875 C 485.742188 373.648438 485.785156 372.066406 485.804688 370.484375 C 481.230469 371.984375 476.167969 373.417969 471.34375 373.925781 C 469.203125 374.148438 467.070312 374.117188 465.417969 374.097656 C 464.4375 374.078125 463.4375 374.207031 462.386719 374.355469 C 461.855469 374.417969 461.34375 374.507812 460.785156 374.566406 C 458.453125 374.808594 456.0625 374.847656 453.738281 374.847656 C 453.089844 374.847656 452.449219 374.847656 451.839844 374.847656 L 348.929688 374.847656 C 341.304688 374.847656 332.851562 374.828125 325.023438 372.816406 L 324.875 389.75 C 332.4375 393.769531 340.816406 393.769531 348.929688 393.769531 L 451.859375 393.769531 C 454.652344 393.808594 457.582031 393.828125 460.316406 393.300781 C 460.804688 393.1875 461.277344 393.058594 461.746094 392.960938 C 462.945312 392.640625 464.1875 392.320312 465.546875 392.378906 C 467.050781 392.4375 468.992188 392.46875 470.871094 392.117188 C 475.828125 391.160156 481.230469 388.128906 485.972656 385.199219 Z M 485.875 461.777344 C 485.992188 459.898438 486.105469 458.148438 486.085938 456.347656 C 486.085938 454.558594 485.972656 452.789062 485.875 451.015625 C 485.765625 449.027344 485.632812 446.976562 485.632812 444.925781 L 485.632812 431.09375 C 481.699219 434.253906 472.285156 440.894531 463.097656 440.394531 C 462.234375 440.355469 461.324219 440.636719 460.335938 440.9375 C 459.804688 441.105469 459.242188 441.257812 458.695312 441.386719 C 455.621094 442.085938 452.519531 442.066406 449.527344 442.027344 L 364.574219 442.027344 C 363.851562 442.027344 363.121094 442.066406 362.351562 442.085938 C 361.519531 442.125 360.671875 442.195312 359.808594 442.195312 C 358.660156 442.195312 357.527344 442.105469 356.386719 441.835938 C 354.367188 441.316406 352.355469 440.9375 350.261719 440.617188 C 341.476562 439.265625 332.851562 436.796875 324.511719 433.273438 L 324.253906 465.210938 C 342.527344 475.890625 362.25 477.511719 381.046875 477.511719 L 439.460938 477.511719 C 456.28125 477.511719 472.625 473.050781 485.695312 464.960938 C 485.742188 463.871094 485.804688 462.800781 485.875 461.777344 Z M 486.0625 345.503906 C 486.445312 338.382812 486.835938 331.652344 485.765625 324.710938 C 485.402344 322.339844 485.535156 320.078125 485.652344 317.878906 C 484.953125 317.808594 484.242188 317.75 483.542969 317.660156 C 482.222656 317.488281 480.980469 317.320312 479.738281 317.257812 C 477.796875 317.167969 475.785156 317.21875 473.84375 317.257812 C 472.8125 317.277344 471.8125 317.296875 470.8125 317.296875 L 385.730469 317.558594 C 378.355469 317.558594 370.988281 317.578125 363.632812 317.597656 L 336.113281 317.707031 C 334.8125 317.707031 333.46875 317.636719 332.097656 317.597656 C 329.597656 317.507812 327.035156 317.449219 324.625 317.707031 C 324.664062 321.078125 324.722656 324.429688 324.8125 327.71875 C 324.984375 336.070312 325.152344 344.671875 325.152344 353.492188 C 332.679688 355.5625 340.925781 355.605469 348.929688 355.5625 L 451.839844 355.582031 C 454.699219 355.582031 457.644531 355.605469 460.445312 355.304688 C 460.957031 355.242188 461.445312 355.183594 461.9375 355.113281 C 463.078125 354.945312 464.246094 354.792969 465.507812 354.8125 C 467.050781 354.863281 469.050781 354.882812 471.023438 354.664062 C 475.867188 354.152344 481.128906 352.59375 485.765625 351.0625 C 485.855469 349.183594 485.953125 347.324219 486.0625 345.503906 Z M 486.214844 417.082031 C 486.273438 416.613281 486.3125 416.140625 486.382812 415.671875 C 481.851562 419.074219 473.566406 424.214844 465.378906 423.785156 C 464.546875 423.742188 463.605469 424.023438 462.625 424.324219 C 462.085938 424.492188 461.535156 424.664062 460.976562 424.792969 C 457.902344 425.492188 454.800781 425.453125 451.808594 425.433594 L 449.996094 425.414062 L 366.863281 425.414062 C 366.132812 425.414062 365.414062 425.453125 364.644531 425.492188 C 363.804688 425.542969 362.953125 425.582031 362.101562 425.582031 C 360.941406 425.582031 359.789062 425.492188 358.679688 425.214844 C 356.648438 424.722656 354.636719 424.324219 352.542969 424.003906 C 342.996094 422.554688 333.640625 419.753906 324.664062 415.722656 L 324.554688 429.792969 C 333 433.503906 341.777344 436.066406 350.734375 437.4375 C 352.953125 437.777344 355.046875 438.207031 357.15625 438.714844 C 358.660156 439.074219 360.449219 438.996094 362.179688 438.90625 C 362.992188 438.867188 363.804688 438.816406 364.574219 438.816406 L 449.566406 438.816406 C 452.367188 438.867188 455.269531 438.886719 457.992188 438.265625 C 458.453125 438.15625 458.921875 438.003906 459.394531 437.855469 C 460.613281 437.496094 461.855469 437.117188 463.265625 437.195312 C 472.304688 437.707031 481.921875 430.085938 484.652344 427.734375 C 484.953125 427.503906 485.292969 427.394531 485.632812 427.394531 L 485.632812 424.703125 C 485.632812 422.035156 485.933594 419.523438 486.214844 417.082031 Z M 486.722656 411.34375 C 486.792969 409.3125 486.632812 407.300781 486.125 405.300781 C 484.863281 400.511719 485.59375 394.960938 486.34375 390.648438 C 486.464844 389.988281 486.464844 389.347656 486.445312 388.679688 C 481.75 391.527344 476.488281 394.300781 471.492188 395.257812 C 469.273438 395.691406 467.070312 395.648438 465.398438 395.578125 C 464.507812 395.558594 463.566406 395.769531 462.554688 396.050781 C 462.027344 396.179688 461.496094 396.328125 460.933594 396.429688 C 458.523438 396.898438 456.113281 396.988281 453.738281 396.988281 C 453.089844 396.988281 452.449219 396.988281 451.808594 396.96875 L 348.929688 396.96875 C 341.285156 396.96875 332.757812 396.96875 324.855469 393.320312 L 324.703125 412.210938 C 333.789062 416.441406 343.316406 419.34375 353.015625 420.84375 C 355.238281 421.164062 357.328125 421.59375 359.449219 422.101562 C 360.921875 422.484375 362.742188 422.382812 364.472656 422.292969 C 365.285156 422.253906 366.09375 422.214844 366.863281 422.214844 L 451.859375 422.234375 C 454.652344 422.253906 457.5625 422.292969 460.273438 421.652344 C 460.746094 421.542969 461.214844 421.394531 461.6875 421.273438 C 462.898438 420.902344 464.136719 420.523438 465.546875 420.582031 C 474.335938 421.054688 483.730469 413.84375 486.722656 411.34375 Z M 492.277344 384.117188 C 492.710938 386.488281 493.160156 388.9375 492.667969 391.757812 C 492 395.429688 491.386719 400.089844 492.320312 403.671875 C 493.648438 408.730469 493.109375 413.34375 492.578125 417.832031 C 492.296875 420.183594 492.046875 422.402344 492.046875 424.703125 L 492.046875 444.925781 C 492.046875 446.808594 492.148438 448.667969 492.257812 450.628906 C 492.367188 452.488281 492.488281 454.386719 492.488281 456.308594 C 492.519531 458.320312 492.390625 460.277344 492.257812 462.179688 C 492.148438 463.949219 492.046875 465.640625 492.046875 467.351562 L 492.046875 502.363281 C 492.046875 509.285156 489.945312 514.945312 485.992188 518.765625 C 485.785156 518.957031 485.574219 519.15625 485.355469 519.347656 C 480.121094 523.917969 473.753906 526.667969 468.199219 528.757812 C 449.335938 535.890625 429.363281 537.898438 410.148438 537.898438 C 399.679688 537.898438 389.421875 537.300781 379.703125 536.601562 C 368.335938 535.789062 356.265625 534.699219 344.917969 531.238281 C 338.464844 529.277344 332.589844 526.628906 327.464844 523.359375 L 326.773438 522.929688 C 325.242188 521.949219 323.34375 520.726562 321.480469 519.316406 C 320.972656 520.199219 320.390625 521.078125 319.601562 521.867188 C 316.96875 524.527344 313.65625 525.558594 311.671875 526.179688 L 285.132812 534.378906 C 284.414062 534.589844 283.683594 534.71875 282.933594 534.71875 C 279.621094 534.71875 276.757812 532.609375 275.777344 529.4375 C 274.554688 525.519531 276.777344 521.308594 280.710938 520.085938 L 307.25 511.894531 C 307.890625 511.695312 308.382812 511.527344 308.703125 511.394531 C 308.773438 510.957031 308.8125 510.074219 308.722656 508.367188 C 308.679688 507.515625 308.640625 506.65625 308.570312 505.785156 L 308.550781 505.546875 C 308.382812 502.753906 308.191406 499.824219 308.320312 496.8125 C 308.402344 495.214844 308.570312 493.804688 308.773438 492.414062 C 308.941406 491.132812 309.09375 489.921875 309.113281 488.8125 L 310.183594 358.933594 C 310.261719 348.414062 310.050781 338.050781 309.851562 328.058594 C 309.683594 319.777344 309.492188 311.21875 309.492188 302.4375 C 309.492188 295.375 311.882812 291.632812 314.707031 289.644531 L 314.707031 277.152344 C 314.707031 276.414062 314.597656 275.421875 314.476562 274.382812 C 314.125 271.3125 313.746094 267.820312 315.265625 265.03125 C 317.246094 261.371094 321.441406 260.011719 324.792969 258.921875 C 325.492188 258.691406 326.15625 258.46875 326.734375 258.261719 L 390.53125 233.726562 C 394.503906 232.207031 399 230.476562 403.894531 230.675781 C 407.496094 230.796875 410.878906 231.996094 413.839844 233.046875 L 472.753906 253.878906 C 473.886719 254.289062 475.035156 254.710938 476.1875 255.160156 C 479.589844 256.460938 483.09375 257.789062 486.363281 258.171875 C 489.507812 258.519531 491.679688 259.601562 492.109375 263.769531 C 492.109375 263.789062 492.109375 263.789062 492.109375 263.8125 C 492.488281 264.300781 492.667969 264.941406 492.519531 265.601562 C 492.449219 265.839844 492.347656 266.082031 492.199219 266.261719 C 492.21875 267.480469 492.199219 268.679688 492.128906 269.832031 C 492.089844 270.832031 492.046875 271.820312 492.046875 272.78125 L 492.046875 304.507812 C 492.046875 306.046875 492.089844 307.585938 492.128906 309.097656 C 492.167969 311.148438 492.21875 313.199219 492.199219 315.25 C 492.167969 316.207031 492.109375 317.1875 492.070312 318.179688 C 491.9375 320.140625 491.828125 322 492.109375 323.75 C 493.257812 331.332031 492.859375 338.722656 492.449219 345.851562 C 492.257812 349.433594 492.046875 353.132812 492.046875 356.785156 C 492.046875 358.785156 492.089844 360.816406 492.128906 362.863281 C 492.238281 367.054688 492.347656 371.386719 492.046875 375.636719 C 491.828125 378.496094 491.726562 380.886719 492.199219 383.597656 L 492.277344 384.117188 " fill-opacity="1" fill-rule="nonzero"/></g></svg>