<svg xmlns="http://www.w3.org/2000/svg" xmlns:xlink="http://www.w3.org/1999/xlink" width="1024" zoomAndPan="magnify" viewBox="0 0 768 767.999994" height="1024" preserveAspectRatio="xMidYMid meet" version="1.0"><defs><clipPath id="9f9e93bfbf"><path d="M 253.054688 285 L 476 285 L 476 537.898438 L 253.054688 537.898438 Z M 253.054688 285 " clip-rule="nonzero"/></clipPath><clipPath id="af74dec2b3"><path d="M 406 230.398438 L 435 230.398438 L 435 293 L 406 293 Z M 406 230.398438 " clip-rule="nonzero"/></clipPath><clipPath id="c18a5f5163"><path d="M 343 230.398438 L 351 230.398438 L 351 272 L 343 272 Z M 343 230.398438 " clip-rule="nonzero"/></clipPath><clipPath id="5ee23ba659"><path d="M 304 230.398438 L 312 230.398438 L 312 272 L 304 272 Z M 304 230.398438 " clip-rule="nonzero"/></clipPath><clipPath id="2e28215cc0"><path d="M 468 329 L 514.804688 329 L 514.804688 369 L 468 369 Z M 468 329 " clip-rule="nonzero"/></clipPath><clipPath id="92446fb3d6"><path d="M 468 454 L 514.804688 454 L 514.804688 495 L 468 495 Z M 468 454 " clip-rule="nonzero"/></clipPath></defs><g clip-path="url(#9f9e93bfbf)"><path fill="#000000" d="M 472.1875 537.898438 L 256.582031 537.898438 C 254.65625 537.898438 253.09375 536.335938 253.09375 534.40625 L 253.09375 289.152344 C 253.09375 287.222656 254.65625 285.65625 256.582031 285.65625 L 472.1875 285.65625 C 474.113281 285.65625 475.675781 287.222656 475.675781 289.152344 L 475.675781 534.40625 C 475.675781 536.335938 474.113281 537.898438 472.1875 537.898438 Z M 260.070312 530.910156 L 468.699219 530.910156 L 468.699219 292.644531 L 260.070312 292.644531 Z M 260.070312 530.910156 " fill-opacity="1" fill-rule="nonzero"/></g><path fill="#000000" d="M 318.398438 292.644531 L 297.421875 292.644531 C 295.496094 292.644531 293.933594 291.082031 293.933594 289.152344 L 293.933594 268.144531 C 293.933594 266.214844 295.496094 264.652344 297.421875 264.652344 L 318.398438 264.652344 C 320.324219 264.652344 321.886719 266.214844 321.886719 268.144531 L 321.886719 289.152344 C 321.886719 291.082031 320.324219 292.644531 318.398438 292.644531 Z M 300.910156 285.65625 L 314.90625 285.65625 L 314.90625 271.640625 L 300.910156 271.640625 Z M 300.910156 285.65625 " fill-opacity="1" fill-rule="nonzero"/><path fill="#000000" d="M 357.417969 292.644531 L 336.445312 292.644531 C 334.519531 292.644531 332.957031 291.082031 332.957031 289.152344 L 332.957031 268.144531 C 332.957031 266.214844 334.519531 264.652344 336.445312 264.652344 L 357.417969 264.652344 C 359.347656 264.652344 360.910156 266.214844 360.910156 268.144531 L 360.910156 289.152344 C 360.910156 291.082031 359.347656 292.644531 357.417969 292.644531 Z M 339.933594 285.65625 L 353.929688 285.65625 L 353.929688 271.640625 L 339.933594 271.640625 Z M 339.933594 285.65625 " fill-opacity="1" fill-rule="nonzero"/><g clip-path="url(#af74dec2b3)"><path fill="#000000" d="M 431.347656 292.644531 L 410.371094 292.644531 C 408.445312 292.644531 406.882812 291.082031 406.882812 289.152344 L 406.882812 233.894531 C 406.882812 231.964844 408.445312 230.398438 410.371094 230.398438 L 431.347656 230.398438 C 433.273438 230.398438 434.835938 231.964844 434.835938 233.894531 L 434.835938 289.152344 C 434.835938 291.082031 433.273438 292.644531 431.347656 292.644531 Z M 413.863281 285.65625 L 427.859375 285.65625 L 427.859375 237.386719 L 413.863281 237.386719 Z M 413.863281 285.65625 " fill-opacity="1" fill-rule="nonzero"/></g><g clip-path="url(#c18a5f5163)"><path fill="#000000" d="M 346.933594 271.640625 C 345.003906 271.640625 343.441406 270.074219 343.441406 268.144531 L 343.441406 233.894531 C 343.441406 231.964844 345.003906 230.398438 346.933594 230.398438 C 348.859375 230.398438 350.421875 231.964844 350.421875 233.894531 L 350.421875 268.144531 C 350.421875 270.074219 348.859375 271.640625 346.933594 271.640625 Z M 346.933594 271.640625 " fill-opacity="1" fill-rule="nonzero"/></g><g clip-path="url(#5ee23ba659)"><path fill="#000000" d="M 307.910156 271.640625 C 305.980469 271.640625 304.417969 270.074219 304.417969 268.144531 L 304.417969 233.894531 C 304.417969 231.964844 305.980469 230.398438 307.910156 230.398438 C 309.835938 230.398438 311.398438 231.964844 311.398438 233.894531 L 311.398438 268.144531 C 311.398438 270.074219 309.835938 271.640625 307.910156 271.640625 Z M 307.910156 271.640625 " fill-opacity="1" fill-rule="nonzero"/></g><g clip-path="url(#2e28215cc0)"><path fill="#000000" d="M 511.210938 368.828125 L 472.1875 368.828125 C 470.257812 368.828125 468.699219 367.261719 468.699219 365.332031 L 468.699219 333 C 468.699219 331.070312 470.257812 329.503906 472.1875 329.503906 L 511.210938 329.503906 C 513.136719 329.503906 514.699219 331.070312 514.699219 333 L 514.699219 365.332031 C 514.699219 367.261719 513.136719 368.828125 511.210938 368.828125 Z M 475.675781 361.839844 L 507.722656 361.839844 L 507.722656 336.492188 L 475.675781 336.492188 Z M 475.675781 361.839844 " fill-opacity="1" fill-rule="nonzero"/></g><g clip-path="url(#92446fb3d6)"><path fill="#000000" d="M 511.210938 494.050781 L 472.1875 494.050781 C 470.257812 494.050781 468.699219 492.488281 468.699219 490.558594 L 468.699219 458.222656 C 468.699219 456.292969 470.257812 454.730469 472.1875 454.730469 L 511.210938 454.730469 C 513.136719 454.730469 514.699219 456.292969 514.699219 458.222656 L 514.699219 490.558594 C 514.699219 492.488281 513.136719 494.050781 511.210938 494.050781 Z M 475.675781 487.0625 L 507.722656 487.0625 L 507.722656 461.71875 L 475.675781 461.71875 Z M 475.675781 487.0625 " fill-opacity="1" fill-rule="nonzero"/></g><path fill="#000000" d="M 287.054688 423.570312 L 273.1875 423.570312 C 271.261719 423.570312 269.699219 422.007812 269.699219 420.078125 C 269.699219 418.148438 271.261719 416.582031 273.1875 416.582031 L 287.054688 416.582031 C 288.980469 416.582031 290.542969 418.148438 290.542969 420.078125 C 290.542969 422.007812 288.980469 423.570312 287.054688 423.570312 Z M 287.054688 423.570312 " fill-opacity="1" fill-rule="nonzero"/><path fill="#000000" d="M 287.054688 489.101562 L 273.1875 489.101562 C 271.261719 489.101562 269.699219 487.539062 269.699219 485.609375 C 269.699219 483.679688 271.261719 482.113281 273.1875 482.113281 L 287.054688 482.113281 C 288.980469 482.113281 290.542969 483.679688 290.542969 485.609375 C 290.542969 487.539062 288.980469 489.101562 287.054688 489.101562 Z M 287.054688 489.101562 " fill-opacity="1" fill-rule="nonzero"/><path fill="#000000" d="M 331.917969 342.851562 L 287.285156 342.851562 C 285.355469 342.851562 283.792969 341.289062 283.792969 339.359375 L 283.792969 318.09375 C 283.792969 316.164062 285.355469 314.601562 287.285156 314.601562 L 331.917969 314.601562 C 333.84375 314.601562 335.40625 316.164062 335.40625 318.09375 L 335.40625 339.359375 C 335.40625 341.289062 333.84375 342.851562 331.917969 342.851562 Z M 290.773438 335.863281 L 328.425781 335.863281 L 328.425781 321.589844 L 290.773438 321.589844 Z M 290.773438 335.863281 " fill-opacity="1" fill-rule="nonzero"/><path fill="#000000" d="M 331.917969 379.308594 L 287.285156 379.308594 C 285.355469 379.308594 283.792969 377.742188 283.792969 375.8125 L 283.792969 354.546875 C 283.792969 352.617188 285.355469 351.054688 287.285156 351.054688 L 331.917969 351.054688 C 333.84375 351.054688 335.40625 352.617188 335.40625 354.546875 L 335.40625 375.8125 C 335.40625 377.742188 333.84375 379.308594 331.917969 379.308594 Z M 290.773438 372.316406 L 328.425781 372.316406 L 328.425781 358.042969 L 290.773438 358.042969 Z M 290.773438 372.316406 " fill-opacity="1" fill-rule="nonzero"/><path fill="#000000" d="M 429.460938 380.71875 C 420.90625 380.71875 413.945312 373.746094 413.945312 365.179688 C 413.945312 356.613281 420.90625 349.644531 429.460938 349.644531 C 438.015625 349.644531 444.972656 356.613281 444.972656 365.179688 C 444.972656 373.746094 438.015625 380.71875 429.460938 380.71875 Z M 429.460938 356.632812 C 424.753906 356.632812 420.925781 360.46875 420.925781 365.179688 C 420.925781 369.894531 424.753906 373.730469 429.460938 373.730469 C 434.167969 373.730469 437.996094 369.894531 437.996094 365.179688 C 437.996094 360.46875 434.167969 356.632812 429.460938 356.632812 Z M 429.460938 356.632812 " fill-opacity="1" fill-rule="nonzero"/><path fill="#000000" d="M 429.460938 344.265625 C 420.90625 344.265625 413.945312 337.292969 413.945312 328.726562 C 413.945312 320.160156 420.90625 313.191406 429.460938 313.191406 C 438.015625 313.191406 444.972656 320.160156 444.972656 328.726562 C 444.972656 337.292969 438.015625 344.265625 429.460938 344.265625 Z M 429.460938 320.179688 C 424.753906 320.179688 420.925781 324.011719 420.925781 328.726562 C 420.925781 333.441406 424.753906 337.273438 429.460938 337.273438 C 434.167969 337.273438 437.996094 333.441406 437.996094 328.726562 C 437.996094 324.011719 434.167969 320.179688 429.460938 320.179688 Z M 429.460938 320.179688 " fill-opacity="1" fill-rule="nonzero"/><path fill="#000000" d="M 389.410156 332.222656 L 359.941406 332.222656 C 358.015625 332.222656 356.453125 330.65625 356.453125 328.726562 C 356.453125 326.796875 358.015625 325.230469 359.941406 325.230469 L 389.410156 325.230469 C 391.335938 325.230469 392.898438 326.796875 392.898438 328.726562 C 392.898438 330.65625 391.335938 332.222656 389.410156 332.222656 Z M 389.410156 332.222656 " fill-opacity="1" fill-rule="nonzero"/><path fill="#000000" d="M 389.410156 368.675781 L 359.941406 368.675781 C 358.015625 368.675781 356.453125 367.109375 356.453125 365.179688 C 356.453125 363.25 358.015625 361.6875 359.941406 361.6875 L 389.410156 361.6875 C 391.335938 361.6875 392.898438 363.25 392.898438 365.179688 C 392.898438 367.109375 391.335938 368.675781 389.410156 368.675781 Z M 389.410156 368.675781 " fill-opacity="1" fill-rule="nonzero"/><path fill="#000000" d="M 441.484375 510.367188 L 287.285156 510.367188 C 285.355469 510.367188 283.792969 508.804688 283.792969 506.875 L 283.792969 398.8125 C 283.792969 396.882812 285.355469 395.320312 287.285156 395.320312 L 441.484375 395.320312 C 443.414062 395.320312 444.976562 396.882812 444.976562 398.8125 L 444.976562 506.871094 C 444.972656 508.804688 443.414062 510.367188 441.484375 510.367188 Z M 290.773438 503.378906 L 437.996094 503.378906 L 437.996094 402.308594 L 290.773438 402.308594 Z M 290.773438 503.378906 " fill-opacity="1" fill-rule="nonzero"/><path fill="#000000" d="M 365.816406 464.800781 C 365.742188 464.800781 365.664062 464.796875 365.585938 464.792969 L 340.316406 463.128906 C 339.082031 463.046875 337.980469 462.3125 337.425781 461.203125 C 336.871094 460.09375 336.945312 458.773438 337.621094 457.734375 L 364.632812 416.222656 C 365.472656 414.929688 367.054688 414.34375 368.53125 414.773438 C 370.007812 415.203125 371.027344 416.550781 371.046875 418.089844 L 371.332031 443.636719 C 371.351562 445.566406 369.808594 447.148438 367.882812 447.171875 C 367.867188 447.171875 367.855469 447.171875 367.839844 447.171875 C 365.933594 447.171875 364.375 445.632812 364.351562 443.714844 L 364.195312 429.695312 L 346.722656 456.546875 L 366.042969 457.816406 C 367.964844 457.945312 369.421875 459.609375 369.296875 461.535156 C 369.175781 463.382812 367.640625 464.800781 365.816406 464.800781 Z M 365.816406 464.800781 " fill-opacity="1" fill-rule="nonzero"/><path fill="#000000" d="M 366.273438 491.050781 C 365.976562 491.050781 365.671875 491.011719 365.375 490.933594 C 363.867188 490.53125 362.8125 489.179688 362.785156 487.617188 L 362.324219 461.367188 C 362.292969 459.4375 363.824219 457.84375 365.753906 457.8125 C 365.773438 457.8125 365.792969 457.8125 365.816406 457.8125 C 367.714844 457.8125 369.269531 459.335938 369.300781 461.242188 L 369.546875 475.277344 L 385.734375 448.207031 L 367.640625 447.164062 C 365.71875 447.054688 364.246094 445.402344 364.359375 443.476562 C 364.46875 441.550781 366.113281 440.089844 368.042969 440.1875 L 391.890625 441.5625 C 393.105469 441.632812 394.199219 442.332031 394.773438 443.414062 C 395.34375 444.496094 395.308594 445.796875 394.683594 446.84375 L 369.265625 489.351562 C 368.625 490.425781 367.480469 491.050781 366.273438 491.050781 Z M 366.273438 491.050781 " fill-opacity="1" fill-rule="nonzero"/></svg>