<svg xmlns="http://www.w3.org/2000/svg" xmlns:xlink="http://www.w3.org/1999/xlink" width="1024" zoomAndPan="magnify" viewBox="0 0 768 767.999994" height="1024" preserveAspectRatio="xMidYMid meet" version="1.0"><defs><clipPath id="19d04fb607"><path d="M 280.039062 346 L 488.539062 346 L 488.539062 422 L 280.039062 422 Z M 280.039062 346 " clip-rule="nonzero"/></clipPath><clipPath id="f0ce56a78b"><path d="M 474.96875 346 L 686.46875 346 L 686.46875 422 L 474.96875 422 Z M 474.96875 346 " clip-rule="nonzero"/></clipPath><clipPath id="607b1c87e8"><path d="M 0 346 L 124.398438 346 L 124.398438 422 L 0 422 Z M 0 346 " clip-rule="nonzero"/></clipPath><clipPath id="0925491c41"><path d="M 110.824219 346 L 322.324219 346 L 322.324219 422 L 110.824219 422 Z M 110.824219 346 " clip-rule="nonzero"/></clipPath><clipPath id="dfa2d1ba90"><path d="M 686.425781 346 L 768 346 L 768 422 L 686.425781 422 Z M 686.425781 346 " clip-rule="nonzero"/></clipPath></defs><g clip-path="url(#19d04fb607)"><path fill="#020b0a" d="M 498.503906 421.628906 L 269.765625 421.628906 C 267.984375 421.628906 266.542969 420.1875 266.542969 418.414062 L 266.542969 349.441406 C 266.542969 347.664062 267.984375 346.222656 269.765625 346.222656 L 498.503906 346.222656 C 500.285156 346.222656 501.730469 347.664062 501.730469 349.441406 L 501.730469 418.414062 C 501.726562 420.191406 500.285156 421.628906 498.503906 421.628906 Z M 272.988281 415.199219 L 495.277344 415.199219 L 495.277344 352.65625 L 272.988281 352.65625 Z M 485.351562 368.613281 L 458.660156 368.613281 C 456.878906 368.613281 455.433594 367.171875 455.433594 365.394531 C 455.433594 363.621094 456.878906 362.179688 458.660156 362.179688 L 485.351562 362.179688 C 487.128906 362.179688 488.574219 363.621094 488.574219 365.394531 C 488.574219 367.171875 487.128906 368.613281 485.351562 368.613281 Z M 440.90625 368.613281 L 293.519531 368.613281 C 291.738281 368.613281 290.296875 367.171875 290.296875 365.394531 C 290.296875 363.621094 291.738281 362.179688 293.519531 362.179688 L 440.90625 362.179688 C 442.6875 362.179688 444.128906 363.621094 444.128906 365.394531 C 444.128906 367.171875 442.6875 368.613281 440.90625 368.613281 Z M 440.90625 368.613281 " fill-opacity="1" fill-rule="nonzero"/></g><g clip-path="url(#f0ce56a78b)"><path fill="#020b0a" d="M 696.609375 421.628906 L 467.871094 421.628906 C 466.089844 421.628906 464.648438 420.1875 464.648438 418.414062 L 464.648438 349.441406 C 464.648438 347.664062 466.09375 346.222656 467.871094 346.222656 L 696.609375 346.222656 C 698.390625 346.222656 699.835938 347.664062 699.835938 349.441406 L 699.835938 418.414062 C 699.835938 420.191406 698.390625 421.628906 696.609375 421.628906 Z M 471.097656 415.199219 L 693.386719 415.199219 L 693.386719 352.65625 L 471.097656 352.65625 Z M 683.457031 368.613281 L 656.765625 368.613281 C 654.984375 368.613281 653.539062 367.171875 653.539062 365.394531 C 653.539062 363.621094 654.984375 362.179688 656.765625 362.179688 L 683.457031 362.179688 C 685.238281 362.179688 686.683594 363.621094 686.683594 365.394531 C 686.683594 367.171875 685.238281 368.613281 683.457031 368.613281 Z M 639.011719 368.613281 L 491.625 368.613281 C 489.847656 368.613281 488.402344 367.171875 488.402344 365.394531 C 488.402344 363.621094 489.847656 362.179688 491.625 362.179688 L 639.011719 362.179688 C 640.792969 362.179688 642.238281 363.621094 642.238281 365.394531 C 642.238281 367.171875 640.792969 368.613281 639.011719 368.613281 Z M 639.011719 368.613281 " fill-opacity="1" fill-rule="nonzero"/></g><g clip-path="url(#607b1c87e8)"><path fill="#020b0a" d="M 134.441406 421.628906 L -94.296875 421.628906 C -96.074219 421.628906 -97.519531 420.1875 -97.519531 418.414062 L -97.519531 349.441406 C -97.519531 347.664062 -96.074219 346.222656 -94.296875 346.222656 L 134.441406 346.222656 C 136.222656 346.222656 137.667969 347.664062 137.667969 349.441406 L 137.667969 418.414062 C 137.667969 420.191406 136.222656 421.628906 134.441406 421.628906 Z M -91.070312 415.199219 L 131.21875 415.199219 L 131.21875 352.65625 L -91.070312 352.65625 Z M 121.289062 368.613281 L 94.597656 368.613281 C 92.816406 368.613281 91.371094 367.171875 91.371094 365.394531 C 91.371094 363.621094 92.816406 362.179688 94.597656 362.179688 L 121.289062 362.179688 C 123.070312 362.179688 124.515625 363.621094 124.515625 365.394531 C 124.515625 367.171875 123.070312 368.613281 121.289062 368.613281 Z M 76.84375 368.613281 L -70.539062 368.613281 C -72.320312 368.613281 -73.765625 367.171875 -73.765625 365.394531 C -73.765625 363.621094 -72.320312 362.179688 -70.539062 362.179688 L 76.84375 362.179688 C 78.625 362.179688 80.070312 363.621094 80.070312 365.394531 C 80.070312 367.171875 78.625 368.613281 76.84375 368.613281 Z M 76.84375 368.613281 " fill-opacity="1" fill-rule="nonzero"/></g><g clip-path="url(#0925491c41)"><path fill="#020b0a" d="M 332.46875 421.628906 L 103.726562 421.628906 C 101.949219 421.628906 100.503906 420.1875 100.503906 418.414062 L 100.503906 349.441406 C 100.503906 347.664062 101.949219 346.222656 103.726562 346.222656 L 332.46875 346.222656 C 334.246094 346.222656 335.691406 347.664062 335.691406 349.441406 L 335.691406 418.414062 C 335.691406 420.191406 334.246094 421.628906 332.46875 421.628906 Z M 106.953125 415.199219 L 329.242188 415.199219 L 329.242188 352.65625 L 106.953125 352.65625 Z M 319.3125 368.613281 L 292.621094 368.613281 C 290.839844 368.613281 289.398438 367.171875 289.398438 365.394531 C 289.398438 363.621094 290.839844 362.179688 292.621094 362.179688 L 319.3125 362.179688 C 321.09375 362.179688 322.539062 363.621094 322.539062 365.394531 C 322.539062 367.171875 321.09375 368.613281 319.3125 368.613281 Z M 274.867188 368.613281 L 127.484375 368.613281 C 125.703125 368.613281 124.257812 367.171875 124.257812 365.394531 C 124.257812 363.621094 125.703125 362.179688 127.484375 362.179688 L 274.867188 362.179688 C 276.648438 362.179688 278.09375 363.621094 278.09375 365.394531 C 278.09375 367.171875 276.648438 368.613281 274.867188 368.613281 Z M 274.867188 368.613281 " fill-opacity="1" fill-rule="nonzero"/></g><g clip-path="url(#dfa2d1ba90)"><path fill="#020b0a" d="M 904.890625 421.628906 L 676.152344 421.628906 C 674.371094 421.628906 672.929688 420.1875 672.929688 418.414062 L 672.929688 349.441406 C 672.929688 347.664062 674.371094 346.222656 676.152344 346.222656 L 904.890625 346.222656 C 906.671875 346.222656 908.113281 347.664062 908.113281 349.441406 L 908.113281 418.414062 C 908.113281 420.191406 906.671875 421.628906 904.890625 421.628906 Z M 679.375 415.199219 L 901.664062 415.199219 L 901.664062 352.65625 L 679.375 352.65625 Z M 891.738281 368.613281 L 865.042969 368.613281 C 863.265625 368.613281 861.820312 367.171875 861.820312 365.394531 C 861.820312 363.621094 863.265625 362.179688 865.042969 362.179688 L 891.738281 362.179688 C 893.515625 362.179688 894.960938 363.621094 894.960938 365.394531 C 894.960938 367.171875 893.515625 368.613281 891.738281 368.613281 Z M 847.292969 368.613281 L 699.90625 368.613281 C 698.125 368.613281 696.683594 367.171875 696.683594 365.394531 C 696.683594 363.621094 698.125 362.179688 699.90625 362.179688 L 847.292969 362.179688 C 849.074219 362.179688 850.515625 363.621094 850.515625 365.394531 C 850.515625 367.171875 849.074219 368.613281 847.292969 368.613281 Z M 847.292969 368.613281 " fill-opacity="1" fill-rule="nonzero"/></g></svg>