<?xml version="1.0" encoding="iso-8859-1"?>
<!-- Uploaded to: SVG Repo, www.svgrepo.com, Generator: SVG Repo Mixer Tools -->
<svg height="800px" width="800px" version="1.1" id="Layer_1" xmlns="http://www.w3.org/2000/svg" xmlns:xlink="http://www.w3.org/1999/xlink" 
	 viewBox="0 0 512 512" xml:space="preserve">
<g>
	<polygon style="fill:#CEA214;" points="353.103,344.276 406.069,344.276 406.069,167.724 353.103,167.724 	"/>
	<g>
		<polygon style="fill:#F0C419;" points="0,344.276 220.69,344.276 220.69,167.724 0,167.724 		"/>
		<polygon style="fill:#F0C419;" points="406.069,326.621 512,326.621 512,185.379 406.069,185.379 		"/>
	</g>
	<g>
		<path style="fill:#CEA214;" d="M476.69,353.103c-4.882,0-8.828-3.946-8.828-8.828V167.724c0-4.882,3.946-8.828,8.828-8.828
			c4.882,0,8.828,3.946,8.828,8.828v176.552C485.517,349.158,481.571,353.103,476.69,353.103"/>
		<path style="fill:#CEA214;" d="M441.379,353.103c-4.882,0-8.828-3.946-8.828-8.828V167.724c0-4.882,3.946-8.828,8.828-8.828
			c4.882,0,8.828,3.946,8.828,8.828v176.552C450.207,349.158,446.261,353.103,441.379,353.103"/>
	</g>
	<polygon style="fill:#ECF0F1;" points="220.69,379.586 353.103,379.586 353.103,132.414 220.69,132.414 	"/>
	<g>
		<path style="fill:#BDC3C7;" d="M353.103,211.862H220.69c-4.882,0-8.828-3.946-8.828-8.828s3.946-8.828,8.828-8.828h132.414
			c4.882,0,8.828,3.946,8.828,8.828S357.985,211.862,353.103,211.862"/>
		<path style="fill:#BDC3C7;" d="M353.103,247.172H220.69c-4.882,0-8.828-3.946-8.828-8.828c0-4.882,3.946-8.828,8.828-8.828
			h132.414c4.882,0,8.828,3.946,8.828,8.828C361.931,243.226,357.985,247.172,353.103,247.172"/>
		<path style="fill:#BDC3C7;" d="M353.103,282.483H220.69c-4.882,0-8.828-3.946-8.828-8.828c0-4.882,3.946-8.828,8.828-8.828
			h132.414c4.882,0,8.828,3.946,8.828,8.828C361.931,278.537,357.985,282.483,353.103,282.483"/>
		<path style="fill:#BDC3C7;" d="M353.103,317.793H220.69c-4.882,0-8.828-3.946-8.828-8.828s3.946-8.828,8.828-8.828h132.414
			c4.882,0,8.828,3.946,8.828,8.828S357.985,317.793,353.103,317.793"/>
		<path style="fill:#BDC3C7;" d="M353.103,353.103H220.69c-4.882,0-8.828-3.946-8.828-8.828s3.946-8.828,8.828-8.828h132.414
			c4.882,0,8.828,3.946,8.828,8.828S357.985,353.103,353.103,353.103"/>
		<path style="fill:#BDC3C7;" d="M353.103,176.552H220.69c-4.882,0-8.828-3.946-8.828-8.828s3.946-8.828,8.828-8.828h132.414
			c4.882,0,8.828,3.946,8.828,8.828S357.985,176.552,353.103,176.552"/>
	</g>
</g>
</svg>