<svg xmlns="http://www.w3.org/2000/svg" xmlns:xlink="http://www.w3.org/1999/xlink" width="1024" zoomAndPan="magnify" viewBox="0 0 768 767.999994" height="1024" preserveAspectRatio="xMidYMid meet" version="1.0"><defs><clipPath id="275c37480c"><path d="M 536 274 L 542.277344 274 L 542.277344 406 L 536 406 Z M 536 274 " clip-rule="nonzero"/></clipPath><clipPath id="a3d3c3c234"><path d="M 234.777344 328 L 278 328 L 278 352 L 234.777344 352 Z M 234.777344 328 " clip-rule="nonzero"/></clipPath><clipPath id="58cbda8ce9"><path d="M 318 237.21875 L 380 237.21875 L 380 271 L 318 271 Z M 318 237.21875 " clip-rule="nonzero"/></clipPath><clipPath id="a8cfd7aabd"><path d="M 285 423 L 469 423 L 469 439.71875 L 285 439.71875 Z M 285 423 " clip-rule="nonzero"/></clipPath></defs><path fill="#040606" d="M 310.078125 387.730469 L 456.542969 387.730469 L 456.542969 393.554688 L 310.078125 393.554688 Z M 310.078125 375.1875 L 456.542969 375.1875 L 456.542969 381.011719 L 310.078125 381.011719 Z M 310.078125 362.644531 L 456.542969 362.644531 L 456.542969 368.46875 L 310.078125 368.46875 Z M 415.183594 323.882812 L 415.183594 355.925781 L 351.4375 355.925781 L 351.4375 323.882812 Z M 310.078125 311.339844 L 456.542969 311.339844 L 456.542969 317.164062 L 310.078125 317.164062 Z M 310.078125 298.796875 L 456.542969 298.796875 L 456.542969 304.621094 L 310.078125 304.621094 Z M 310.078125 286.253906 L 456.542969 286.253906 L 456.542969 292.082031 L 310.078125 292.082031 Z M 307.644531 407.636719 L 458.976562 407.636719 L 458.976562 272.175781 L 307.644531 272.175781 L 307.644531 407.636719 " fill-opacity="1" fill-rule="nonzero"/><path fill="#040606" d="M 413.320312 325.742188 L 353.300781 325.742188 L 353.300781 354.066406 L 413.320312 354.066406 L 413.320312 325.742188 " fill-opacity="1" fill-rule="nonzero"/><path fill="#040606" d="M 461.105469 265.300781 L 461.105469 414.507812 L 521.871094 414.507812 L 535.242188 407.824219 L 535.242188 271.984375 L 521.871094 265.300781 L 461.105469 265.300781 " fill-opacity="1" fill-rule="nonzero"/><g clip-path="url(#275c37480c)"><path fill="#040606" d="M 536.359375 274.78125 L 536.359375 405.027344 L 542.148438 402.253906 L 542.148438 277.554688 L 536.359375 274.78125 " fill-opacity="1" fill-rule="nonzero"/></g><path fill="#040606" d="M 296.269531 278.125 L 287.824219 278.125 C 282.71875 278.125 278.578125 282.253906 278.578125 287.351562 L 278.578125 392.457031 C 278.578125 397.554688 282.71875 401.683594 287.824219 401.683594 L 296.269531 401.683594 C 301.375 401.683594 305.515625 397.554688 305.515625 392.457031 L 305.515625 287.351562 C 305.515625 282.253906 301.375 278.125 296.269531 278.125 " fill-opacity="1" fill-rule="nonzero"/><g clip-path="url(#a3d3c3c234)"><path fill="#040606" d="M 272.988281 331.082031 L 261.699219 331.082031 L 261.699219 328.746094 L 234.941406 328.746094 L 234.941406 351.066406 L 277.324219 351.066406 L 277.324219 328.746094 L 272.988281 328.746094 L 272.988281 331.082031 " fill-opacity="1" fill-rule="nonzero"/></g><g clip-path="url(#58cbda8ce9)"><path fill="#040606" d="M 322.832031 270.753906 L 375.042969 270.753906 C 377.273438 270.753906 379.085938 268.945312 379.085938 266.722656 L 379.085938 241.261719 C 379.085938 239.03125 377.273438 237.226562 375.042969 237.226562 L 322.832031 237.226562 C 320.597656 237.226562 318.789062 239.03125 318.789062 241.261719 L 318.789062 266.722656 C 318.789062 268.945312 320.597656 270.753906 322.832031 270.753906 " fill-opacity="1" fill-rule="nonzero"/></g><path fill="#040606" d="M 323.746094 411.355469 L 323.746094 421.527344 L 429.929688 421.527344 L 429.929688 411.355469 L 323.746094 411.355469 " fill-opacity="1" fill-rule="nonzero"/><g clip-path="url(#a8cfd7aabd)"><path fill="#040606" d="M 285.566406 439.742188 L 468.113281 439.742188 L 468.113281 423.015625 L 285.566406 423.015625 L 285.566406 439.742188 " fill-opacity="1" fill-rule="nonzero"/></g></svg>