<svg xmlns="http://www.w3.org/2000/svg" xmlns:xlink="http://www.w3.org/1999/xlink" width="1024" zoomAndPan="magnify" viewBox="0 0 768 767.999994" height="1024" preserveAspectRatio="xMidYMid meet" version="1.0"><defs><clipPath id="8eda4c24c3"><path d="M 536 274 L 542.277344 274 L 542.277344 406 L 536 406 Z M 536 274 " clip-rule="nonzero"/></clipPath><clipPath id="033456f05c"><path d="M 234.777344 328 L 278 328 L 278 352 L 234.777344 352 Z M 234.777344 328 " clip-rule="nonzero"/></clipPath><clipPath id="92a8284061"><path d="M 318 237.21875 L 380 237.21875 L 380 271 L 318 271 Z M 318 237.21875 " clip-rule="nonzero"/></clipPath><clipPath id="1f8772f822"><path d="M 285 423 L 469 423 L 469 439.71875 L 285 439.71875 Z M 285 423 " clip-rule="nonzero"/></clipPath><clipPath id="ac641d3f61"><path d="M 316.808594 50.546875 L 503.558594 50.546875 L 503.558594 237.296875 L 316.808594 237.296875 Z M 316.808594 50.546875 " clip-rule="nonzero"/></clipPath></defs><path fill="#040606" d="M 310.078125 387.730469 L 456.542969 387.730469 L 456.542969 393.554688 L 310.078125 393.554688 Z M 310.078125 375.1875 L 456.542969 375.1875 L 456.542969 381.011719 L 310.078125 381.011719 Z M 310.078125 362.644531 L 456.542969 362.644531 L 456.542969 368.46875 L 310.078125 368.46875 Z M 415.183594 323.882812 L 415.183594 355.925781 L 351.4375 355.925781 L 351.4375 323.882812 Z M 310.078125 311.339844 L 456.542969 311.339844 L 456.542969 317.167969 L 310.078125 317.167969 Z M 310.078125 298.796875 L 456.542969 298.796875 L 456.542969 304.621094 L 310.078125 304.621094 Z M 310.078125 286.253906 L 456.542969 286.253906 L 456.542969 292.082031 L 310.078125 292.082031 Z M 307.644531 407.636719 L 458.976562 407.636719 L 458.976562 272.175781 L 307.644531 272.175781 L 307.644531 407.636719 " fill-opacity="1" fill-rule="nonzero"/><path fill="#040606" d="M 413.320312 325.742188 L 353.300781 325.742188 L 353.300781 354.066406 L 413.320312 354.066406 L 413.320312 325.742188 " fill-opacity="1" fill-rule="nonzero"/><path fill="#040606" d="M 461.105469 265.300781 L 461.105469 414.507812 L 521.871094 414.507812 L 535.242188 407.824219 L 535.242188 271.984375 L 521.871094 265.300781 L 461.105469 265.300781 " fill-opacity="1" fill-rule="nonzero"/><g clip-path="url(#8eda4c24c3)"><path fill="#040606" d="M 536.359375 274.78125 L 536.359375 405.027344 L 542.148438 402.253906 L 542.148438 277.554688 L 536.359375 274.78125 " fill-opacity="1" fill-rule="nonzero"/></g><path fill="#040606" d="M 296.269531 278.125 L 287.824219 278.125 C 282.71875 278.125 278.578125 282.253906 278.578125 287.351562 L 278.578125 392.457031 C 278.578125 397.554688 282.71875 401.683594 287.824219 401.683594 L 296.269531 401.683594 C 301.375 401.683594 305.515625 397.554688 305.515625 392.457031 L 305.515625 287.351562 C 305.515625 282.253906 301.375 278.125 296.269531 278.125 " fill-opacity="1" fill-rule="nonzero"/><g clip-path="url(#033456f05c)"><path fill="#040606" d="M 272.988281 331.082031 L 261.699219 331.082031 L 261.699219 328.746094 L 234.941406 328.746094 L 234.941406 351.066406 L 277.324219 351.066406 L 277.324219 328.746094 L 272.988281 328.746094 L 272.988281 331.082031 " fill-opacity="1" fill-rule="nonzero"/></g><g clip-path="url(#92a8284061)"><path fill="#040606" d="M 322.832031 270.753906 L 375.042969 270.753906 C 377.273438 270.753906 379.085938 268.945312 379.085938 266.722656 L 379.085938 241.261719 C 379.085938 239.03125 377.273438 237.226562 375.042969 237.226562 L 322.832031 237.226562 C 320.597656 237.226562 318.789062 239.03125 318.789062 241.261719 L 318.789062 266.722656 C 318.789062 268.945312 320.597656 270.753906 322.832031 270.753906 " fill-opacity="1" fill-rule="nonzero"/></g><path fill="#040606" d="M 323.746094 411.355469 L 323.746094 421.527344 L 429.929688 421.527344 L 429.929688 411.355469 L 323.746094 411.355469 " fill-opacity="1" fill-rule="nonzero"/><g clip-path="url(#1f8772f822)"><path fill="#040606" d="M 285.566406 439.742188 L 468.113281 439.742188 L 468.113281 423.015625 L 285.566406 423.015625 L 285.566406 439.742188 " fill-opacity="1" fill-rule="nonzero"/></g><g clip-path="url(#ac641d3f61)"><path fill="#000000" d="M 382.402344 234.652344 L 382.402344 218.617188 C 382.402344 217.210938 381.257812 216.066406 379.851562 216.066406 L 374.019531 216.066406 L 374.019531 178.855469 L 379.851562 178.855469 C 381.257812 178.855469 382.402344 177.714844 382.402344 176.304688 L 382.402344 160.273438 C 382.402344 158.863281 381.257812 157.722656 379.851562 157.722656 L 374.019531 157.722656 L 374.019531 134.449219 C 374.039062 119.765625 385.933594 107.867188 400.621094 107.851562 L 424.074219 107.851562 L 424.074219 113.679688 C 424.074219 115.089844 425.214844 116.230469 426.625 116.230469 L 442.65625 116.230469 C 444.066406 116.230469 445.207031 115.089844 445.207031 113.679688 L 445.207031 107.851562 L 482.417969 107.851562 L 482.417969 113.679688 C 482.417969 115.089844 483.5625 116.230469 484.96875 116.230469 L 501.003906 116.230469 C 502.410156 116.230469 503.554688 115.089844 503.554688 113.679688 L 503.554688 53.195312 C 503.554688 51.789062 502.410156 50.644531 501.003906 50.644531 L 484.96875 50.644531 C 483.5625 50.644531 482.417969 51.789062 482.417969 53.195312 L 482.417969 59.027344 L 445.207031 59.027344 L 445.207031 53.195312 C 445.207031 51.789062 444.066406 50.644531 442.65625 50.644531 L 426.625 50.644531 C 425.214844 50.644531 424.074219 51.789062 424.074219 53.195312 L 424.074219 59.027344 L 400.621094 59.027344 C 358.984375 59.074219 325.242188 92.8125 325.195312 134.449219 L 325.195312 157.722656 L 319.367188 157.722656 C 317.957031 157.722656 316.816406 158.863281 316.816406 160.273438 L 316.816406 176.304688 C 316.816406 177.714844 317.957031 178.855469 319.367188 178.855469 L 325.195312 178.855469 L 325.195312 216.066406 L 319.367188 216.066406 C 317.957031 216.066406 316.816406 217.210938 316.816406 218.617188 L 316.816406 234.652344 C 316.816406 236.058594 317.957031 237.199219 319.367188 237.199219 L 379.851562 237.199219 C 381.257812 237.199219 382.402344 236.058594 382.402344 234.652344 Z M 359.445312 216.066406 L 359.445312 178.855469 L 368.917969 178.855469 L 368.917969 216.066406 Z M 368.917969 134.449219 L 368.917969 157.722656 L 359.445312 157.722656 L 359.445312 134.449219 C 359.472656 111.71875 377.890625 93.304688 400.621094 93.277344 L 424.074219 93.277344 L 424.074219 102.75 L 400.621094 102.75 C 383.121094 102.769531 368.9375 116.949219 368.917969 134.449219 Z M 445.207031 102.75 L 445.207031 93.277344 L 482.417969 93.277344 L 482.417969 102.75 Z M 498.453125 55.746094 L 498.453125 111.128906 L 487.519531 111.128906 L 487.519531 55.746094 Z M 482.417969 64.125 L 482.417969 88.175781 L 445.207031 88.175781 L 445.207031 64.125 Z M 440.105469 55.746094 L 440.105469 111.128906 L 429.175781 111.128906 L 429.175781 55.746094 Z M 330.296875 134.449219 C 330.335938 95.628906 361.796875 64.167969 400.621094 64.125 L 424.074219 64.125 L 424.074219 88.175781 L 400.621094 88.175781 C 375.074219 88.207031 354.375 108.90625 354.34375 134.449219 L 354.34375 157.722656 L 330.296875 157.722656 Z M 321.917969 173.753906 L 321.917969 162.824219 L 377.300781 162.824219 L 377.300781 173.753906 Z M 354.34375 178.855469 L 354.34375 216.066406 L 330.296875 216.066406 L 330.296875 178.855469 Z M 321.917969 232.101562 L 321.917969 221.167969 L 377.300781 221.167969 L 377.300781 232.101562 Z M 321.917969 232.101562 " fill-opacity="1" fill-rule="nonzero"/></g><path stroke-linecap="butt" transform="matrix(0.75, 0, 0, 0.75, -366.50078, 309.681801)" fill="none" stroke-linejoin="miter" d="M 0.00103955 2.50239 L 865.178166 2.50239 " stroke="#000000" stroke-width="5" stroke-opacity="1" stroke-miterlimit="4"/><path stroke-linecap="butt" transform="matrix(0.75, 0, 0, 0.75, -366.50078, 363.754454)" fill="none" stroke-linejoin="miter" d="M 0.00103955 2.49927 L 865.178166 2.49927 " stroke="#000000" stroke-width="5" stroke-opacity="1" stroke-miterlimit="4"/><path stroke-linecap="butt" transform="matrix(0.75, 0, 0, 0.75, 485.617179, 53.804549)" fill="none" stroke-linejoin="miter" d="M 0.0000113706 2.500184 L 865.177138 2.500184 " stroke="#000000" stroke-width="5" stroke-opacity="1" stroke-miterlimit="4"/><path stroke-linecap="butt" transform="matrix(0.75, 0, 0, 0.75, 485.617179, 107.876967)" fill="none" stroke-linejoin="miter" d="M 0.0000113706 2.502586 L 865.177138 2.502586 " stroke="#000000" stroke-width="5" stroke-opacity="1" stroke-miterlimit="4"/></svg>