<svg xmlns="http://www.w3.org/2000/svg" xmlns:xlink="http://www.w3.org/1999/xlink" width="1024" zoomAndPan="magnify" viewBox="0 0 768 767.999994" height="1024" preserveAspectRatio="xMidYMid meet" version="1.0"><defs><clipPath id="f9becd3238"><path d="M 464 147.710938 L 472 147.710938 L 472 160 L 464 160 Z M 464 147.710938 " clip-rule="nonzero"/></clipPath></defs><path fill="#000000" d="M 388.140625 187.648438 L 394.113281 187.648438 C 394.421875 187.648438 394.8125 187.667969 395.246094 187.6875 L 395.347656 186.390625 L 395.574219 187.730469 C 395.984375 187.75 396.542969 187.8125 397.058594 187.8125 C 397.179688 187.8125 397.324219 187.8125 397.449219 187.792969 L 398.601562 187.710938 L 398.683594 186.554688 C 398.726562 185.792969 398.644531 184.515625 398.539062 183.589844 L 398.4375 182.394531 L 379.488281 182.355469 L 379.488281 187.75 L 380.828125 187.710938 C 382.640625 187.667969 385.007812 187.648438 388.140625 187.648438 " fill-opacity="1" fill-rule="nonzero"/><path fill="#000000" d="M 450.378906 195.660156 L 450.378906 206.351562 C 452.152344 206.265625 453.921875 206.082031 455.753906 205.730469 C 466.753906 203.632812 478.410156 204.0625 489.65625 204.496094 C 494.082031 204.660156 498.429688 204.804688 502.671875 204.804688 C 515.628906 204.804688 528.601562 204.742188 541.558594 204.703125 C 552.347656 204.621094 563.367188 204.578125 574.367188 204.578125 C 574.40625 203.15625 574.40625 201.714844 574.488281 200.253906 C 574.53125 198.75 574.574219 197.203125 574.574219 195.660156 C 539.558594 194.917969 504.21875 194.589844 469.308594 194.792969 C 463.273438 194.835938 456.824219 194.917969 450.378906 195.558594 C 450.378906 195.578125 450.378906 195.617188 450.378906 195.660156 " fill-opacity="1" fill-rule="nonzero"/><path fill="#000000" d="M 493.261719 181.097656 C 476.660156 181.222656 457.980469 181.449219 441.976562 188.492188 C 442.019531 188.902344 442.019531 189.296875 442.058594 189.644531 C 442.882812 189.6875 443.6875 189.726562 444.425781 189.726562 C 445.105469 189.726562 445.703125 189.851562 446.28125 190.035156 C 454.167969 188.964844 462.058594 188.902344 469.265625 188.84375 C 504.648438 188.65625 540.484375 188.964844 575.910156 189.726562 C 549.363281 180.746094 519.703125 180.933594 493.261719 181.097656 " fill-opacity="1" fill-rule="nonzero"/><path fill="#000000" d="M 332.734375 193.621094 L 331.273438 193.683594 C 330.265625 193.722656 329.234375 193.765625 328.265625 193.828125 L 323.117188 194.113281 L 322.972656 206.125 L 333.414062 206.125 L 333.210938 204.640625 C 332.777344 201.28125 332.652344 198.070312 332.839844 195.0625 L 332.734375 193.621094 " fill-opacity="1" fill-rule="nonzero"/><path fill="#000000" d="M 383.011719 206.125 L 384.371094 206.125 L 393.578125 206.082031 L 393.515625 191.355469 L 383.402344 191.191406 L 383.011719 206.125 " fill-opacity="1" fill-rule="nonzero"/><path fill="#000000" d="M 562.894531 163.816406 L 563.863281 164.042969 C 565.511719 164.433594 567.117188 164.867188 568.683594 165.300781 L 570.496094 165.792969 L 570.351562 163.917969 C 570.164062 161.921875 570.164062 160.128906 570.308594 158.441406 L 570.308594 158.398438 C 570.351562 157.71875 570.351562 157.164062 570.289062 156.792969 L 569.855469 155.371094 L 568.394531 155.742188 L 567.734375 155.804688 C 566.828125 155.886719 565.902344 155.804688 565.222656 155.742188 L 564.5 155.640625 L 563.039062 155.761719 L 562.914062 157.183594 C 562.769531 158.871094 562.75 160.726562 562.851562 162.828125 L 562.894531 163.816406 " fill-opacity="1" fill-rule="nonzero"/><path fill="#000000" d="M 671.269531 243.054688 L 675.429688 249.996094 L 684.472656 250.097656 L 684.78125 222.953125 L 680.886719 223.324219 L 680.910156 224.539062 C 680.949219 228.535156 680.558594 232.40625 679.777344 236.070312 C 679.550781 237.265625 678.457031 238.132812 677.203125 238.132812 L 668.160156 238.132812 L 669.476562 240.171875 C 670.136719 241.179688 670.734375 242.148438 671.269531 243.054688 " fill-opacity="1" fill-rule="nonzero"/><g clip-path="url(#f9becd3238)"><path fill="#000000" d="M 466.382812 159.347656 C 467.328125 159.183594 468.257812 159.078125 469.183594 158.957031 L 471.757812 158.605469 L 471.800781 148.554688 L 471.058594 148.203125 L 470.441406 148.019531 C 468.75 147.875 467.351562 147.832031 466.09375 147.851562 L 464.796875 147.894531 L 464.859375 159.59375 L 466.382812 159.347656 " fill-opacity="1" fill-rule="nonzero"/></g><path fill="#000000" d="M 316.980469 190.941406 L 319.617188 190.800781 L 319.617188 189.152344 L 333.539062 189.152344 C 333.929688 189.152344 334.363281 189.171875 334.835938 189.210938 L 335.269531 189.234375 C 335.476562 189.253906 335.660156 189.253906 335.867188 189.253906 L 337.265625 189.253906 L 337.183594 187.851562 C 337.144531 187.277344 337.0625 186.492188 336.980469 185.835938 L 336.835938 184.679688 L 317.96875 184.679688 L 317.96875 186.515625 L 316.507812 186.515625 L 316.980469 190.941406 " fill-opacity="1" fill-rule="nonzero"/><path fill="#000000" d="M 493.21875 175.144531 C 521.703125 174.960938 554.019531 174.753906 582.8125 185.917969 C 582.8125 184.351562 582.6875 182.726562 582.460938 181.28125 C 581.988281 181.015625 581.058594 180.707031 580.441406 180.457031 L 579.042969 179.902344 C 571.316406 176.8125 562.730469 174.363281 553.503906 172.550781 C 535.296875 168.984375 516.738281 168.304688 499.335938 168.101562 C 488.851562 167.976562 477.691406 168.019531 467.125 169.933594 C 457.136719 171.703125 448.402344 175.144531 441.542969 180.027344 C 441.542969 180.707031 441.625 181.488281 441.625 182.210938 C 458.246094 175.515625 476.742188 175.269531 493.21875 175.144531 " fill-opacity="1" fill-rule="nonzero"/><path fill="#000000" d="M 514.554688 592.53125 C 514.554688 592.410156 514.554688 592.265625 514.554688 592.183594 C 514.472656 590.71875 514.269531 589.277344 514.082031 587.898438 C 513.792969 585.796875 513.527344 583.695312 513.484375 581.410156 C 513.445312 578.113281 513.691406 574.507812 514.144531 570.082031 C 514.308594 568.699219 514.183594 567.15625 514.082031 565.527344 C 513.957031 563.59375 513.792969 561.617188 514.042969 559.472656 C 514.433594 555.621094 514.78125 551.832031 514.824219 547.671875 C 514.390625 545.300781 514.082031 543.304688 514.269531 540.542969 C 514.722656 534.324219 515.113281 528.78125 514.226562 523.324219 C 513.917969 521.328125 514.125 519.472656 514.269531 517.824219 C 514.351562 516.855469 514.472656 515.867188 514.433594 514.921875 C 514.390625 513.683594 514.269531 512.511719 514.144531 511.273438 C 514 509.378906 513.835938 507.527344 513.835938 505.609375 L 513.835938 496.9375 C 512.722656 498.855469 511.507812 500.707031 509.964844 502.460938 C 506.585938 506.289062 502.546875 508.949219 498.285156 510.246094 C 498.984375 520.339844 498.246094 530.511719 496.019531 539.945312 C 503.742188 556.691406 510.046875 574.589844 514.554688 592.53125 " fill-opacity="1" fill-rule="nonzero"/><path fill="#000000" d="M 580.441406 604.210938 C 580.957031 606.476562 581.140625 608.414062 581.140625 610.65625 C 581.140625 612.839844 579.371094 614.632812 577.1875 614.632812 L 517.789062 614.632812 C 516.285156 614.632812 515.070312 613.769531 514.351562 612.574219 L 514.082031 612.574219 C 512.207031 612.53125 510.582031 611.214844 510.230469 609.359375 C 505.804688 586.601562 498.203125 563.304688 488.253906 542.046875 C 487.90625 541.222656 487.78125 540.296875 488.027344 539.433594 C 488.460938 537.621094 488.8125 535.703125 489.121094 533.808594 C 487.101562 533.933594 485.0625 534.015625 483.003906 534.078125 C 486.484375 540.625 487.699219 547.917969 488.933594 554.984375 L 489.328125 557.289062 C 493.15625 579.390625 499.582031 601.203125 507.511719 619.101562 C 531.257812 619.453125 556.632812 619.535156 584.910156 619.246094 L 585.570312 615.292969 C 583.757812 611.171875 582.089844 606.972656 580.546875 602.75 C 580.441406 603.347656 580.339844 603.820312 580.441406 604.210938 " fill-opacity="1" fill-rule="nonzero"/><path fill="#000000" d="M 260.300781 206.125 L 269.488281 206.125 L 269.527344 193.066406 L 259.929688 193.125 L 259.867188 194.382812 C 259.765625 197.511719 259.867188 200.851562 260.199219 204.90625 L 260.300781 206.125 " fill-opacity="1" fill-rule="nonzero"/><path fill="#000000" d="M 624.621094 217.246094 C 622.910156 216.9375 621.160156 216.730469 619.390625 216.691406 C 593.5 216.296875 567.136719 216.402344 541.617188 216.566406 C 528.644531 216.609375 515.667969 216.691406 502.671875 216.691406 C 498.285156 216.691406 493.753906 216.523438 489.203125 216.339844 C 478.636719 215.949219 467.640625 215.535156 457.980469 217.410156 C 449.535156 218.996094 442.101562 218.234375 434.890625 217.515625 C 431.164062 217.121094 427.332031 216.773438 423.378906 216.691406 C 414.070312 216.523438 404.511719 216.609375 395.285156 216.648438 C 390.632812 216.648438 385.914062 216.691406 381.199219 216.691406 L 203.148438 216.691406 C 198.800781 216.691406 194.414062 216.648438 190.046875 216.609375 C 185.785156 216.523438 181.417969 216.484375 177.050781 216.484375 C 172.746094 216.484375 168.402344 216.523438 164.160156 216.691406 C 159.609375 216.855469 154.539062 217.882812 149.351562 219.492188 C 138.394531 270.347656 133.308594 316.238281 134.027344 359.554688 C 134.832031 409.957031 143.5625 456.566406 159.835938 498.257812 C 164.304688 498.609375 169.308594 498.382812 173.941406 498.132812 C 176.949219 497.96875 179.875 497.824219 182.570312 497.824219 C 189.101562 497.824219 195.710938 497.351562 202.078125 496.835938 C 204.898438 496.628906 207.65625 496.464844 210.480469 496.320312 C 210.210938 495.25 209.882812 494.179688 209.757812 493.066406 C 209.058594 487.484375 209.265625 481.695312 209.449219 476.15625 C 209.53125 473.664062 209.613281 471.171875 209.613281 468.761719 L 209.613281 467.402344 C 209.613281 466.496094 209.613281 465.546875 209.613281 464.640625 C 209.65625 460.398438 209.964844 456.011719 213.011719 453.871094 C 214.84375 452.570312 216.925781 452.570312 217.996094 452.570312 L 230.191406 452.59375 C 235.585938 452.59375 240.960938 452.59375 246.355469 452.632812 C 251.03125 452.675781 255.769531 452.570312 260.527344 452.449219 C 261.390625 452.449219 261.90625 452.40625 262.503906 452.367188 C 265.777344 452.078125 271.296875 451.6875 274.140625 455.929688 C 275.460938 457.90625 275.644531 460.234375 275.851562 462.148438 C 275.890625 462.851562 275.933594 463.53125 276.078125 464.128906 C 276.675781 466.144531 276.921875 468.082031 276.921875 470.390625 L 276.921875 474.859375 C 277.785156 478.339844 278.816406 481.820312 280.132812 485.261719 C 282.171875 490.65625 284.191406 494.386719 286.746094 497.226562 C 287.054688 497.578125 287.363281 497.867188 287.691406 498.175781 C 300.402344 498.050781 313.066406 497.742188 325.445312 497.390625 C 330.242188 497.226562 335.042969 497.105469 339.820312 496.980469 C 354.960938 496.589844 370.199219 496.9375 384.925781 497.308594 C 395.101562 497.578125 405.625 497.824219 415.964844 497.824219 L 503.371094 497.824219 C 503.578125 497.617188 503.824219 497.453125 503.96875 497.226562 C 506.523438 494.386719 508.5625 490.65625 510.621094 485.261719 C 511.898438 481.820312 512.929688 478.339844 513.835938 474.859375 L 513.835938 470.390625 C 513.835938 468.125 514.082031 466.1875 514.636719 464.128906 C 514.78125 463.53125 514.824219 462.808594 514.90625 462.109375 C 515.070312 460.234375 515.296875 457.90625 516.617188 455.929688 C 519.457031 451.6875 524.957031 452.078125 528.253906 452.367188 C 528.808594 452.40625 529.34375 452.449219 529.839844 452.449219 L 530.230469 452.449219 C 534.945312 452.570312 539.703125 452.632812 544.398438 452.632812 C 549.773438 452.59375 555.171875 452.59375 560.566406 452.59375 L 572.71875 452.570312 C 573.808594 452.570312 575.910156 452.570312 577.742188 453.871094 C 580.75 456.011719 581.058594 460.398438 581.140625 464.3125 C 581.140625 465.546875 581.140625 466.496094 581.140625 467.402344 L 581.140625 468.761719 C 581.140625 471.171875 581.226562 473.664062 581.308594 476.113281 C 581.492188 481.695312 581.699219 487.484375 580.976562 493.066406 C 580.832031 494.179688 580.546875 495.292969 580.234375 496.363281 C 580.070312 496.898438 579.949219 497.390625 579.84375 497.824219 L 602.273438 497.824219 C 611.625 497.824219 620.191406 496.402344 628.019531 493.746094 C 639.550781 469.625 641.757812 441.347656 642.394531 414.242188 C 643.9375 348.183594 637.925781 281.941406 624.621094 217.246094 " fill-opacity="1" fill-rule="nonzero"/><path fill="#000000" d="M 686.097656 464.683594 C 685.480469 463.921875 683.976562 463.53125 681.855469 463.570312 C 681.074219 463.570312 680.3125 463.613281 679.527344 463.695312 C 679.054688 463.734375 678.582031 463.734375 678.066406 463.777344 C 676.726562 466.1875 675.285156 468.515625 673.824219 470.820312 C 675.820312 470.574219 677.796875 470.222656 679.734375 469.710938 C 681.113281 469.359375 682.578125 469.792969 683.566406 470.820312 C 684.554688 471.851562 684.902344 473.3125 684.511719 474.695312 C 683.769531 477.226562 683.175781 479.84375 682.824219 482.5 L 686.902344 482.5 C 686.921875 482.5 686.984375 482.5 687.066406 482.5 C 687.066406 482.417969 687.066406 482.292969 687.085938 482.171875 C 687.457031 477.699219 687.5 473.148438 687.128906 468.71875 C 687.027344 467.050781 686.777344 465.464844 686.097656 464.683594 " fill-opacity="1" fill-rule="nonzero"/><path fill="#000000" d="M 686.738281 303.28125 C 684.410156 285.628906 673.636719 267.605469 664.121094 251.683594 L 662.1875 248.492188 C 657.863281 241.160156 647.667969 226.433594 633.207031 219.902344 C 646.039062 283.835938 651.867188 349.214844 650.324219 414.425781 C 649.746094 439.535156 647.769531 465.671875 638.625 489.152344 C 644.804688 485.734375 650.34375 481.304688 655.265625 475.886719 C 657.863281 473.027344 660.332031 469.851562 662.578125 466.453125 C 676.316406 445.589844 685.007812 419.90625 688.363281 390.078125 C 691.332031 363.632812 690.773438 334.445312 686.738281 303.28125 " fill-opacity="1" fill-rule="nonzero"/><path fill="#000000" d="M 521.394531 581.328125 C 521.433594 583.117188 521.683594 584.929688 521.910156 586.828125 C 522.15625 588.414062 522.363281 590.039062 522.464844 591.667969 C 522.589844 593.519531 522.320312 595.273438 522.113281 596.773438 C 521.992188 597.433594 521.867188 598.15625 521.828125 598.875 C 521.640625 601.203125 521.683594 603.574219 521.703125 606.066406 C 521.703125 606.3125 521.703125 606.519531 521.703125 606.703125 L 572.863281 606.703125 C 572.820312 606.433594 572.761719 606.148438 572.71875 605.878906 C 572.183594 603.574219 572.636719 601.71875 572.988281 600.214844 C 573.070312 599.863281 573.152344 599.453125 573.214844 599.0625 C 573.378906 598.195312 573.355469 596.917969 573.253906 595.703125 C 573.214844 595.023438 573.214844 594.324219 573.214844 593.644531 L 573.214844 550 C 573.214844 542.871094 573.253906 535.476562 572.347656 528.535156 C 571.605469 522.808594 572.082031 517.1875 572.554688 511.75 L 572.820312 508.597656 C 572.945312 507.277344 572.675781 505.777344 572.390625 504.191406 C 572.082031 502.601562 571.769531 500.789062 571.769531 498.855469 C 571.792969 497.0625 572.222656 495.519531 572.636719 494.179688 C 572.820312 493.457031 573.027344 492.800781 573.152344 492.035156 C 573.75 487.132812 573.582031 481.65625 573.378906 476.402344 C 573.316406 473.828125 573.214844 471.253906 573.214844 468.761719 L 573.214844 467.359375 C 573.214844 466.496094 573.214844 465.632812 573.214844 464.765625 C 573.191406 462.664062 573.070312 461.265625 572.902344 460.480469 C 572.78125 460.480469 572.78125 460.480469 572.761719 460.480469 L 560.566406 460.523438 C 555.171875 460.523438 549.816406 460.523438 544.441406 460.5625 C 539.640625 460.605469 534.863281 460.480469 530.066406 460.359375 L 529.671875 460.359375 C 529.035156 460.359375 528.355469 460.316406 527.65625 460.234375 C 526.460938 460.171875 523.761719 459.964844 523.101562 460.398438 C 522.980469 460.667969 522.875 462.027344 522.773438 462.808594 C 522.710938 463.921875 522.589844 465.074219 522.28125 466.226562 C 521.910156 467.566406 521.742188 468.824219 521.742188 470.390625 L 521.742188 505.609375 C 521.742188 507.277344 521.910156 508.949219 522.03125 510.574219 C 522.15625 511.914062 522.28125 513.253906 522.363281 514.613281 C 522.382812 515.992188 522.28125 517.289062 522.15625 518.566406 C 522.03125 519.882812 521.910156 521.101562 522.074219 522.089844 C 523.0625 528.433594 522.628906 534.671875 522.195312 540.730469 C 522.03125 542.996094 522.28125 544.375 522.671875 546.476562 C 522.710938 546.722656 522.734375 547.074219 522.734375 547.320312 C 522.734375 551.976562 522.320312 556.300781 521.910156 560.296875 C 521.742188 561.757812 521.867188 563.304688 521.992188 564.929688 C 522.113281 566.867188 522.28125 568.84375 522.03125 570.945312 C 521.558594 575.066406 521.351562 578.359375 521.394531 581.328125 " fill-opacity="1" fill-rule="nonzero"/><path fill="#000000" d="M 140.554688 222.746094 C 130.816406 227.03125 121.320312 233.085938 114.421875 240.046875 C 106.59375 247.9375 101.136719 258.234375 97.285156 272.445312 C 95.945312 277.390625 94.152344 281.984375 92.425781 286.453125 C 90.117188 292.363281 87.914062 297.988281 86.90625 303.960938 C 80.683594 341.613281 76.855469 381.097656 90.898438 414.589844 C 104.0625 445.796875 120.558594 480.277344 150.421875 495.683594 C 135.140625 454.550781 126.902344 408.84375 126.117188 359.675781 C 125.398438 317.183594 130.195312 272.242188 140.554688 222.746094 " fill-opacity="1" fill-rule="nonzero"/><path fill="#000000" d="M 302.726562 539.433594 C 302.933594 540.296875 302.851562 541.222656 302.460938 542.046875 C 292.511719 563.304688 284.953125 586.539062 280.527344 609.359375 C 280.15625 611.214844 278.527344 612.53125 276.632812 612.574219 L 276.367188 612.574219 C 275.6875 613.769531 274.46875 614.632812 272.945312 614.632812 L 213.570312 614.632812 C 211.386719 614.632812 209.613281 612.839844 209.613281 610.65625 C 209.613281 608.414062 209.800781 606.476562 210.292969 604.210938 C 210.355469 603.820312 210.316406 603.347656 210.210938 602.75 C 208.625 606.972656 207 611.171875 205.125 615.292969 L 205.84375 619.246094 C 234.082031 619.535156 259.457031 619.453125 283.246094 619.101562 C 291.132812 601.203125 297.578125 579.390625 301.429688 557.289062 L 301.820312 555.042969 C 302.996094 547.9375 304.230469 540.667969 307.710938 534.078125 C 305.695312 534.015625 303.632812 533.933594 301.574219 533.808594 C 301.945312 535.703125 302.253906 537.621094 302.726562 539.433594 " fill-opacity="1" fill-rule="nonzero"/><path fill="#000000" d="M 268.992188 505.609375 L 268.992188 470.390625 C 268.992188 468.804688 268.847656 467.566406 268.476562 466.226562 C 268.167969 465.074219 268.042969 463.921875 267.960938 462.851562 C 267.902344 462.027344 267.777344 460.707031 267.53125 460.316406 C 266.972656 459.964844 264.253906 460.171875 263.101562 460.234375 C 262.378906 460.316406 261.679688 460.359375 261.082031 460.359375 C 255.894531 460.480469 251.09375 460.5625 246.316406 460.5625 C 240.921875 460.523438 235.542969 460.523438 230.191406 460.523438 L 217.957031 460.480469 C 217.914062 460.480469 217.875 460.480469 217.8125 460.480469 C 217.648438 461.265625 217.5625 462.582031 217.523438 464.4375 C 217.523438 465.632812 217.523438 466.496094 217.523438 467.359375 L 217.523438 468.761719 C 217.523438 471.296875 217.441406 473.828125 217.359375 476.445312 C 217.171875 481.65625 216.96875 487.132812 217.605469 492.035156 C 217.6875 492.800781 217.914062 493.457031 218.121094 494.179688 C 218.511719 495.519531 218.945312 497.0625 218.945312 498.855469 C 218.984375 500.789062 218.636719 502.601562 218.347656 504.191406 C 218.078125 505.777344 217.8125 507.238281 217.914062 508.597656 L 218.160156 511.707031 C 218.636719 517.1875 219.148438 522.808594 218.410156 528.535156 C 217.480469 535.476562 217.480469 542.871094 217.523438 550 L 217.523438 593.644531 C 217.523438 594.324219 217.480469 595.023438 217.441406 595.703125 C 217.421875 596.917969 217.359375 598.195312 217.523438 599.0625 C 217.605469 599.453125 217.6875 599.863281 217.769531 600.214844 C 218.078125 601.71875 218.511719 603.574219 218.039062 605.878906 C 217.957031 606.148438 217.914062 606.433594 217.875 606.703125 L 269.035156 606.703125 C 269.035156 606.519531 269.035156 606.3125 269.035156 606.105469 C 269.074219 603.574219 269.117188 601.203125 268.929688 598.875 C 268.847656 598.15625 268.765625 597.476562 268.640625 596.773438 C 268.394531 595.273438 268.167969 593.5625 268.292969 591.707031 C 268.355469 590.039062 268.601562 588.414062 268.808594 586.828125 C 269.074219 584.929688 269.300781 583.117188 269.300781 581.328125 C 269.34375 578.320312 269.15625 575.148438 268.722656 570.945312 C 268.476562 568.84375 268.640625 566.867188 268.765625 564.929688 C 268.890625 563.304688 268.992188 561.757812 268.847656 560.296875 C 268.394531 556.261719 268.003906 551.933594 268.003906 547.320312 C 268.003906 547.074219 268.003906 546.847656 268.042969 546.601562 C 268.476562 544.375 268.722656 542.996094 268.601562 541.101562 L 268.558594 540.707031 C 268.128906 534.652344 267.695312 528.433594 268.683594 522.089844 C 268.847656 521.101562 268.722656 519.882812 268.601562 518.566406 C 268.476562 517.289062 268.3125 515.992188 268.394531 514.613281 C 268.4375 513.253906 268.558594 511.914062 268.683594 510.617188 C 268.847656 508.949219 268.992188 507.277344 268.992188 505.609375 " fill-opacity="1" fill-rule="nonzero"/><path fill="#000000" d="M 276.714844 559.472656 C 276.960938 561.617188 276.796875 563.59375 276.675781 565.527344 C 276.550781 567.15625 276.449219 568.699219 276.59375 570.082031 C 277.085938 574.589844 277.273438 578.074219 277.230469 581.410156 C 277.230469 583.695312 276.921875 585.796875 276.632812 587.898438 C 276.488281 589.277344 276.28125 590.71875 276.160156 592.183594 C 276.160156 592.285156 276.199219 592.410156 276.199219 592.53125 C 280.710938 574.589844 286.972656 556.652344 294.695312 539.945312 C 292.511719 530.511719 291.730469 520.339844 292.429688 510.246094 C 288.167969 508.949219 284.109375 506.289062 280.792969 502.460938 C 279.25 500.707031 278.035156 498.855469 276.921875 496.9375 L 276.921875 505.609375 C 276.921875 507.527344 276.757812 509.421875 276.59375 511.273438 C 276.488281 512.511719 276.367188 513.726562 276.324219 514.921875 C 276.28125 515.867188 276.367188 516.855469 276.488281 517.824219 C 276.632812 519.472656 276.796875 521.328125 276.53125 523.324219 C 275.644531 528.742188 276.054688 534.28125 276.449219 540.152344 L 276.488281 540.542969 C 276.675781 543.34375 276.324219 545.363281 275.933594 547.671875 C 275.933594 551.789062 276.324219 555.582031 276.714844 559.472656 " fill-opacity="1" fill-rule="nonzero"/></svg>