<svg xmlns="http://www.w3.org/2000/svg" xmlns:xlink="http://www.w3.org/1999/xlink" width="1024" zoomAndPan="magnify" viewBox="0 0 768 767.999994" height="1024" preserveAspectRatio="xMidYMid meet" version="1.0"><defs><clipPath id="c3b23bd631"><path d="M 230.398438 236.542969 L 537.898438 236.542969 L 537.898438 531.292969 L 230.398438 531.292969 Z M 230.398438 236.542969 " clip-rule="nonzero"/></clipPath></defs><g clip-path="url(#c3b23bd631)"><path fill="#000000" d="M 531.410156 236.523438 L 446.863281 236.523438 C 445.855469 236.523438 444.910156 236.757812 444.019531 237.226562 C 443.128906 237.695312 442.402344 238.34375 441.832031 239.175781 L 386.59375 319.75 C 386.28125 320.207031 386.035156 320.695312 385.855469 321.222656 C 385.675781 321.746094 385.570312 322.285156 385.539062 322.835938 C 385.507812 323.390625 385.550781 323.9375 385.667969 324.480469 C 385.785156 325.019531 385.972656 325.535156 386.234375 326.027344 C 386.492188 326.515625 386.8125 326.964844 387.191406 327.367188 C 387.574219 327.769531 388 328.113281 388.476562 328.402344 C 388.949219 328.6875 389.457031 328.90625 389.992188 329.054688 C 390.523438 329.203125 391.070312 329.277344 391.625 329.277344 L 399.550781 329.277344 L 399.550781 365.269531 L 355.648438 365.269531 L 355.660156 283.851562 L 381.570312 246.054688 C 381.886719 245.597656 382.132812 245.105469 382.3125 244.582031 C 382.492188 244.054688 382.597656 243.519531 382.628906 242.964844 C 382.660156 242.410156 382.617188 241.863281 382.5 241.324219 C 382.382812 240.78125 382.195312 240.265625 381.933594 239.773438 C 381.675781 239.285156 381.355469 238.839844 380.976562 238.433594 C 380.59375 238.03125 380.167969 237.6875 379.691406 237.402344 C 379.214844 237.113281 378.710938 236.898438 378.175781 236.75 C 377.640625 236.601562 377.097656 236.523438 376.542969 236.523438 L 291.992188 236.523438 C 290.984375 236.523438 290.039062 236.761719 289.148438 237.226562 C 288.257812 237.695312 287.53125 238.34375 286.960938 239.175781 L 231.957031 319.40625 C 231.632812 319.882812 231.378906 320.390625 231.195312 320.933594 C 231.007812 321.476562 230.898438 322.035156 230.867188 322.609375 C 230.832031 323.179688 230.878906 323.746094 231 324.308594 C 231.121094 324.871094 231.316406 325.402344 231.585938 325.910156 C 231.855469 326.417969 232.183594 326.882812 232.578125 327.300781 C 232.972656 327.714844 233.417969 328.074219 233.910156 328.371094 C 234.402344 328.667969 234.925781 328.890625 235.480469 329.046875 C 236.03125 329.199219 236.597656 329.277344 237.171875 329.277344 L 244.683594 329.277344 L 244.683594 368.328125 C 244.683594 368.734375 244.761719 369.125 244.914062 369.5 C 245.070312 369.875 245.292969 370.207031 245.582031 370.492188 C 245.867188 370.78125 246.199219 371.003906 246.574219 371.15625 C 246.949219 371.3125 247.34375 371.390625 247.75 371.390625 L 381.015625 371.398438 L 381.015625 422.226562 L 354.082031 422.226562 C 350.105469 422.226562 346.871094 425.222656 346.871094 428.902344 L 346.871094 438.734375 L 339.089844 438.734375 L 339.089844 434.078125 C 339.089844 430.984375 337.011719 428.5625 334.359375 428.5625 L 321.90625 428.5625 C 319.253906 428.5625 317.175781 430.984375 317.175781 434.078125 L 317.175781 438.734375 L 313.640625 438.734375 C 313.363281 438.730469 313.089844 438.75 312.820312 438.800781 C 312.550781 438.847656 312.285156 438.921875 312.03125 439.023438 C 311.773438 439.125 311.53125 439.246094 311.300781 439.394531 C 311.066406 439.542969 310.851562 439.714844 310.65625 439.902344 C 310.457031 440.09375 310.277344 440.300781 310.121094 440.527344 C 309.964844 440.753906 309.828125 440.992188 309.71875 441.242188 C 309.609375 441.496094 309.523438 441.753906 309.464844 442.023438 C 309.40625 442.289062 309.375 442.5625 309.367188 442.835938 L 309.367188 452.976562 C 309.375 453.253906 309.40625 453.523438 309.464844 453.792969 C 309.523438 454.058594 309.609375 454.320312 309.71875 454.570312 C 309.828125 454.824219 309.964844 455.0625 310.121094 455.289062 C 310.277344 455.511719 310.457031 455.71875 310.652344 455.910156 C 310.851562 456.101562 311.066406 456.269531 311.296875 456.417969 C 311.53125 456.566406 311.773438 456.691406 312.03125 456.792969 C 312.285156 456.890625 312.550781 456.964844 312.820312 457.015625 C 313.089844 457.0625 313.363281 457.085938 313.640625 457.082031 L 317.175781 457.082031 L 317.175781 512.910156 C 316.308594 513.121094 315.496094 513.46875 314.746094 513.949219 C 313.996094 514.433594 313.34375 515.027344 312.789062 515.726562 C 312.238281 516.429688 311.8125 517.199219 311.519531 518.042969 C 311.226562 518.886719 311.082031 519.753906 311.078125 520.644531 L 311.078125 528.191406 C 311.078125 528.597656 311.15625 528.984375 311.3125 529.363281 C 311.46875 529.738281 311.6875 530.066406 311.976562 530.355469 C 312.265625 530.640625 312.597656 530.863281 312.972656 531.019531 C 313.347656 531.175781 313.738281 531.25 314.144531 531.25 L 454.023438 531.25 C 454.429688 531.25 454.820312 531.175781 455.195312 531.019531 C 455.570312 530.863281 455.902344 530.640625 456.191406 530.355469 C 456.480469 530.066406 456.699219 529.738281 456.855469 529.363281 C 457.011719 528.984375 457.089844 528.597656 457.089844 528.191406 L 457.089844 520.644531 C 457.085938 519.753906 456.941406 518.886719 456.648438 518.042969 C 456.355469 517.199219 455.929688 516.429688 455.378906 515.726562 C 454.824219 515.027344 454.171875 514.433594 453.421875 513.949219 C 452.671875 513.46875 451.859375 513.121094 450.992188 512.910156 L 450.992188 457.085938 L 454.53125 457.085938 C 454.804688 457.089844 455.078125 457.066406 455.347656 457.019531 C 455.617188 456.972656 455.882812 456.894531 456.136719 456.796875 C 456.394531 456.695312 456.636719 456.570312 456.871094 456.421875 C 457.101562 456.273438 457.316406 456.105469 457.515625 455.914062 C 457.710938 455.726562 457.890625 455.515625 458.046875 455.292969 C 458.203125 455.066406 458.339844 454.828125 458.449219 454.574219 C 458.558594 454.324219 458.644531 454.066406 458.703125 453.796875 C 458.761719 453.527344 458.792969 453.257812 458.800781 452.980469 L 458.800781 442.839844 C 458.792969 442.566406 458.761719 442.292969 458.703125 442.027344 C 458.644531 441.757812 458.558594 441.5 458.449219 441.246094 C 458.339844 440.996094 458.203125 440.757812 458.046875 440.53125 C 457.890625 440.304688 457.710938 440.097656 457.515625 439.90625 C 457.316406 439.71875 457.101562 439.546875 456.871094 439.398438 C 456.636719 439.25 456.394531 439.128906 456.136719 439.027344 C 455.882812 438.925781 455.617188 438.851562 455.347656 438.804688 C 455.078125 438.753906 454.804688 438.734375 454.53125 438.738281 L 450.992188 438.738281 L 450.992188 434.082031 C 450.992188 430.988281 448.914062 428.566406 446.261719 428.566406 L 433.8125 428.566406 C 431.15625 428.566406 429.078125 430.988281 429.078125 434.082031 L 429.078125 438.738281 L 421.296875 438.738281 L 421.296875 428.90625 C 421.296875 425.222656 418.058594 422.230469 414.082031 422.230469 L 387.148438 422.230469 L 387.148438 371.398438 L 507.457031 371.40625 C 507.863281 371.40625 508.253906 371.328125 508.628906 371.171875 C 509.003906 371.015625 509.335938 370.792969 509.625 370.507812 C 509.910156 370.21875 510.132812 369.890625 510.289062 369.515625 C 510.445312 369.140625 510.523438 368.75 510.523438 368.34375 L 510.53125 283.855469 L 536.441406 246.054688 C 536.753906 245.597656 537 245.109375 537.179688 244.582031 C 537.359375 244.058594 537.464844 243.519531 537.496094 242.96875 C 537.53125 242.414062 537.488281 241.867188 537.367188 241.324219 C 537.25 240.78125 537.0625 240.265625 536.804688 239.777344 C 536.542969 239.285156 536.226562 238.839844 535.84375 238.4375 C 535.460938 238.035156 535.035156 237.6875 534.558594 237.402344 C 534.082031 237.117188 533.578125 236.898438 533.042969 236.75 C 532.507812 236.601562 531.964844 236.527344 531.410156 236.527344 Z M 237.171875 323.152344 C 237.097656 323.152344 237.042969 323.117188 237.011719 323.054688 C 236.976562 322.992188 236.980469 322.929688 237.019531 322.867188 L 291.992188 242.648438 L 376.472656 242.648438 L 321.339844 323.078125 C 321.304688 323.128906 321.253906 323.15625 321.191406 323.15625 Z M 349.519531 365.269531 L 250.816406 365.265625 L 250.816406 329.277344 L 321.191406 329.277344 C 322.234375 329.277344 323.214844 329.035156 324.140625 328.550781 C 325.0625 328.0625 325.816406 327.390625 326.40625 326.53125 L 349.527344 292.800781 Z M 323.308594 434.691406 L 332.957031 434.691406 L 332.957031 438.738281 L 323.308594 438.738281 Z M 450.957031 525.128906 L 317.210938 525.128906 L 317.210938 520.644531 C 317.210938 520.402344 317.257812 520.164062 317.351562 519.941406 C 317.445312 519.714844 317.578125 519.515625 317.753906 519.339844 C 317.925781 519.167969 318.125 519.035156 318.351562 518.941406 C 318.578125 518.847656 318.816406 518.800781 319.058594 518.800781 L 449.105469 518.800781 C 449.351562 518.800781 449.585938 518.847656 449.8125 518.941406 C 450.039062 519.035156 450.238281 519.167969 450.414062 519.339844 C 450.585938 519.515625 450.71875 519.714844 450.816406 519.941406 C 450.910156 520.164062 450.957031 520.402344 450.957031 520.644531 Z M 323.308594 512.675781 L 323.308594 457.085938 L 360.714844 457.085938 L 360.714844 512.675781 Z M 366.847656 512.675781 L 366.847656 457.085938 L 401.316406 457.085938 L 401.316406 512.675781 Z M 407.449219 512.675781 L 407.449219 457.085938 L 444.859375 457.085938 L 444.859375 512.675781 Z M 435.210938 434.691406 L 444.859375 434.691406 L 444.859375 438.738281 L 435.210938 438.738281 Z M 452.664062 444.859375 L 452.664062 450.960938 L 315.5 450.960938 L 315.5 444.859375 Z M 414.082031 428.351562 C 414.757812 428.351562 415.160156 428.734375 415.160156 428.902344 L 415.160156 438.734375 L 353.003906 438.734375 L 353.003906 428.90625 C 353.003906 428.734375 353.410156 428.351562 354.082031 428.351562 Z M 504.390625 365.277344 L 405.6875 365.269531 L 405.6875 329.277344 L 476.0625 329.277344 C 477.101562 329.277344 478.085938 329.035156 479.007812 328.550781 C 479.929688 328.0625 480.6875 327.390625 481.273438 326.53125 L 504.398438 292.800781 Z M 476.210938 323.078125 C 476.175781 323.128906 476.125 323.15625 476.0625 323.15625 L 391.695312 323.15625 L 446.863281 242.648438 L 531.34375 242.648438 Z M 476.210938 323.078125 " fill-opacity="1" fill-rule="nonzero"/></g><path fill="#000000" d="M 407.386719 314.890625 C 407.757812 315.59375 408.28125 316.148438 408.960938 316.558594 C 409.640625 316.964844 410.378906 317.171875 411.171875 317.167969 L 470.742188 317.167969 C 471.445312 317.167969 472.113281 317.003906 472.734375 316.675781 C 473.359375 316.347656 473.871094 315.890625 474.273438 315.308594 L 515.394531 255.320312 C 515.84375 254.664062 516.089844 253.941406 516.136719 253.152344 C 516.183594 252.359375 516.019531 251.613281 515.648438 250.914062 C 515.277344 250.210938 514.753906 249.65625 514.074219 249.246094 C 513.394531 248.839844 512.65625 248.632812 511.863281 248.632812 L 452.296875 248.632812 C 451.589844 248.632812 450.925781 248.796875 450.300781 249.125 C 449.675781 249.457031 449.164062 249.910156 448.765625 250.492188 L 407.640625 310.484375 C 407.191406 311.136719 406.945312 311.859375 406.898438 312.652344 C 406.855469 313.441406 407.015625 314.1875 407.386719 314.890625 Z M 435.523438 311.046875 L 445.585938 296.363281 L 458.988281 296.363281 L 448.925781 311.046875 Z M 449.785156 290.242188 L 459.847656 275.5625 L 473.25 275.5625 L 463.1875 290.242188 Z M 469.761719 311.046875 L 456.359375 311.046875 L 466.421875 296.363281 L 479.824219 296.363281 Z M 484.023438 290.242188 L 470.621094 290.242188 L 480.683594 275.5625 L 494.089844 275.5625 Z M 508.347656 254.757812 L 498.285156 269.4375 L 484.882812 269.4375 L 494.949219 254.757812 Z M 487.511719 254.757812 L 477.449219 269.4375 L 464.046875 269.4375 L 474.109375 254.757812 Z M 453.273438 254.757812 L 466.675781 254.757812 L 456.613281 269.4375 L 443.210938 269.4375 Z M 439.011719 275.5625 L 452.414062 275.5625 L 442.351562 290.242188 L 428.949219 290.242188 Z M 424.75 296.363281 L 438.152344 296.363281 L 428.09375 311.046875 L 414.6875 311.046875 Z M 424.75 296.363281 " fill-opacity="1" fill-rule="nonzero"/><path fill="#000000" d="M 360.777344 250.914062 C 360.410156 250.210938 359.882812 249.65625 359.203125 249.246094 C 358.523438 248.835938 357.789062 248.632812 356.992188 248.632812 L 297.425781 248.632812 C 296.71875 248.632812 296.054688 248.796875 295.429688 249.125 C 294.804688 249.453125 294.292969 249.910156 293.894531 250.492188 L 252.769531 310.484375 C 252.324219 311.136719 252.078125 311.859375 252.03125 312.652344 C 251.984375 313.441406 252.148438 314.1875 252.515625 314.890625 C 252.886719 315.589844 253.414062 316.144531 254.09375 316.554688 C 254.769531 316.964844 255.507812 317.167969 256.300781 317.167969 L 315.867188 317.167969 C 316.574219 317.167969 317.238281 317.003906 317.863281 316.675781 C 318.488281 316.347656 319 315.890625 319.398438 315.308594 L 360.523438 255.320312 C 360.972656 254.667969 361.222656 253.945312 361.265625 253.152344 C 361.3125 252.359375 361.148438 251.613281 360.777344 250.914062 Z M 332.644531 254.757812 L 322.578125 269.4375 L 309.175781 269.4375 L 319.238281 254.757812 Z M 318.382812 275.5625 L 308.316406 290.242188 L 294.914062 290.242188 L 304.980469 275.5625 Z M 298.402344 254.757812 L 311.808594 254.757812 L 301.746094 269.4375 L 288.339844 269.4375 Z M 284.140625 275.5625 L 297.546875 275.5625 L 287.484375 290.242188 L 274.078125 290.242188 Z M 259.816406 311.046875 L 269.882812 296.363281 L 283.289062 296.363281 L 273.222656 311.046875 Z M 280.652344 311.046875 L 290.71875 296.363281 L 304.121094 296.363281 L 294.058594 311.046875 Z M 314.890625 311.046875 L 301.488281 311.046875 L 311.554688 296.363281 L 324.957031 296.363281 Z M 329.152344 290.242188 L 315.75 290.242188 L 325.8125 275.5625 L 339.214844 275.5625 Z M 343.414062 269.4375 L 330.011719 269.4375 L 340.074219 254.757812 L 353.476562 254.757812 Z M 343.414062 269.4375 " fill-opacity="1" fill-rule="nonzero"/><path fill="#000000" d="M 346.921875 483.0625 L 344.269531 483.0625 L 344.269531 481.226562 C 344.269531 480.820312 344.191406 480.429688 344.035156 480.054688 C 343.878906 479.679688 343.660156 479.347656 343.371094 479.058594 C 343.082031 478.773438 342.75 478.550781 342.375 478.394531 C 342 478.242188 341.609375 478.164062 341.203125 478.164062 C 340.796875 478.164062 340.40625 478.242188 340.027344 478.394531 C 339.652344 478.550781 339.320312 478.773438 339.035156 479.058594 C 338.746094 479.347656 338.523438 479.679688 338.367188 480.054688 C 338.214844 480.429688 338.136719 480.820312 338.136719 481.226562 L 338.136719 483.0625 L 335.480469 483.0625 C 335.074219 483.0625 334.683594 483.140625 334.308594 483.296875 C 333.933594 483.449219 333.601562 483.671875 333.3125 483.960938 C 333.027344 484.246094 332.804688 484.578125 332.648438 484.953125 C 332.492188 485.328125 332.414062 485.71875 332.414062 486.125 C 332.414062 486.53125 332.492188 486.921875 332.648438 487.296875 C 332.804688 487.671875 333.027344 488.003906 333.3125 488.289062 C 333.601562 488.578125 333.933594 488.796875 334.308594 488.953125 C 334.683594 489.109375 335.074219 489.1875 335.480469 489.1875 L 338.132812 489.1875 L 338.132812 491.027344 C 338.132812 491.433594 338.210938 491.824219 338.367188 492.199219 C 338.523438 492.574219 338.746094 492.90625 339.03125 493.191406 C 339.320312 493.480469 339.652344 493.703125 340.027344 493.855469 C 340.402344 494.011719 340.792969 494.089844 341.199219 494.089844 C 341.609375 494.089844 342 494.011719 342.375 493.855469 C 342.75 493.703125 343.082031 493.480469 343.371094 493.191406 C 343.65625 492.90625 343.878906 492.574219 344.035156 492.199219 C 344.191406 491.824219 344.269531 491.433594 344.269531 491.027344 L 344.269531 489.1875 L 346.917969 489.1875 C 347.324219 489.1875 347.71875 489.109375 348.09375 488.953125 C 348.46875 488.796875 348.800781 488.578125 349.085938 488.289062 C 349.375 488.003906 349.597656 487.671875 349.753906 487.296875 C 349.90625 486.921875 349.984375 486.53125 349.984375 486.125 C 349.984375 485.71875 349.90625 485.328125 349.753906 484.953125 C 349.597656 484.578125 349.375 484.246094 349.085938 483.960938 C 348.800781 483.671875 348.46875 483.449219 348.09375 483.296875 C 347.71875 483.140625 347.324219 483.0625 346.917969 483.0625 Z M 346.921875 483.0625 " fill-opacity="1" fill-rule="nonzero"/><path fill="#000000" d="M 432.898438 482.398438 L 422.734375 482.398438 C 422.328125 482.398438 421.9375 482.476562 421.5625 482.632812 C 421.1875 482.789062 420.855469 483.007812 420.566406 483.296875 C 420.277344 483.582031 420.058594 483.914062 419.902344 484.289062 C 419.746094 484.664062 419.667969 485.054688 419.667969 485.460938 C 419.667969 485.867188 419.746094 486.257812 419.902344 486.632812 C 420.058594 487.007812 420.277344 487.339844 420.566406 487.625 C 420.855469 487.914062 421.1875 488.136719 421.5625 488.289062 C 421.9375 488.445312 422.328125 488.523438 422.734375 488.523438 L 432.898438 488.523438 C 433.304688 488.523438 433.695312 488.445312 434.070312 488.289062 C 434.445312 488.136719 434.777344 487.914062 435.066406 487.625 C 435.351562 487.339844 435.574219 487.007812 435.730469 486.632812 C 435.886719 486.257812 435.964844 485.867188 435.964844 485.460938 C 435.964844 485.054688 435.886719 484.664062 435.730469 484.289062 C 435.574219 483.914062 435.351562 483.582031 435.066406 483.296875 C 434.777344 483.007812 434.445312 482.789062 434.070312 482.632812 C 433.695312 482.476562 433.304688 482.398438 432.898438 482.398438 Z M 432.898438 482.398438 " fill-opacity="1" fill-rule="nonzero"/><path fill="#000000" d="M 388.714844 476.746094 L 383.421875 478.429688 L 388.210938 469.386719 C 388.410156 469.027344 388.527344 468.644531 388.570312 468.238281 C 388.613281 467.832031 388.574219 467.429688 388.457031 467.039062 C 388.339844 466.648438 388.148438 466.292969 387.890625 465.976562 C 387.628906 465.660156 387.316406 465.40625 386.953125 465.214844 C 386.59375 465.023438 386.207031 464.910156 385.796875 464.871094 C 385.390625 464.835938 384.992188 464.878906 384.601562 465 C 384.207031 465.125 383.855469 465.316406 383.542969 465.582031 C 383.230469 465.84375 382.980469 466.160156 382.792969 466.523438 L 375.144531 480.953125 C 374.976562 481.273438 374.855469 481.609375 374.785156 481.960938 C 374.714844 482.316406 374.699219 482.671875 374.738281 483.03125 C 374.773438 483.390625 374.863281 483.734375 375.003906 484.070312 C 375.140625 484.402344 375.328125 484.707031 375.558594 484.984375 C 375.789062 485.261719 376.058594 485.496094 376.359375 485.695312 C 376.660156 485.894531 376.984375 486.042969 377.332031 486.144531 C 377.679688 486.246094 378.03125 486.292969 378.394531 486.289062 C 378.753906 486.285156 379.109375 486.226562 379.453125 486.117188 L 384.746094 484.4375 L 379.953125 493.476562 C 379.761719 493.835938 379.648438 494.21875 379.609375 494.621094 C 379.570312 495.027344 379.613281 495.421875 379.734375 495.808594 C 379.851562 496.199219 380.042969 496.546875 380.300781 496.859375 C 380.558594 497.175781 380.871094 497.425781 381.230469 497.617188 C 381.589844 497.804688 381.972656 497.917969 382.375 497.957031 C 382.78125 497.996094 383.175781 497.953125 383.566406 497.835938 C 383.957031 497.714844 384.304688 497.527344 384.621094 497.269531 C 384.933594 497.007812 385.183594 496.699219 385.375 496.339844 L 393.019531 481.914062 C 393.191406 481.59375 393.308594 481.257812 393.378906 480.902344 C 393.449219 480.550781 393.464844 480.195312 393.429688 479.835938 C 393.394531 479.476562 393.304688 479.128906 393.164062 478.796875 C 393.023438 478.464844 392.839844 478.160156 392.609375 477.882812 C 392.375 477.605469 392.109375 477.367188 391.808594 477.171875 C 391.503906 476.972656 391.179688 476.824219 390.835938 476.722656 C 390.488281 476.621094 390.132812 476.570312 389.773438 476.574219 C 389.410156 476.582031 389.058594 476.636719 388.714844 476.746094 Z M 388.714844 476.746094 " fill-opacity="1" fill-rule="nonzero"/></svg>