<svg xmlns="http://www.w3.org/2000/svg" xmlns:xlink="http://www.w3.org/1999/xlink" width="1024" zoomAndPan="magnify" viewBox="0 0 768 767.999994" height="1024" preserveAspectRatio="xMidYMid meet" version="1.0"><defs><clipPath id="bc6a09359e"><path d="M 114.601562 134.132812 L 653 134.132812 L 653 633.632812 L 114.601562 633.632812 Z M 114.601562 134.132812 " clip-rule="nonzero"/></clipPath></defs><g clip-path="url(#bc6a09359e)"><path fill="#000000" d="M 191.75 134.132812 L 230.167969 172.554688 L 268.589844 134.132812 Z M 191.75 191.765625 L 191.75 249.402344 L 157.417969 249.402344 C 133.945312 249.402344 114.910156 309.609375 114.910156 383.882812 C 114.910156 458.152344 133.945312 518.363281 157.417969 518.363281 L 499.109375 518.363281 L 499.109375 556.785156 L 575.949219 556.785156 L 575.949219 518.363281 L 610.246094 518.363281 C 633.738281 518.363281 652.792969 458.152344 652.792969 383.882812 C 652.792969 309.609375 633.757812 249.402344 610.28125 249.402344 L 268.589844 249.402344 L 268.589844 191.765625 Z M 210.960938 287.824219 L 249.378906 287.824219 L 249.378906 403.09375 C 249.378906 413.679688 257.984375 422.304688 268.589844 422.304688 C 279.195312 422.304688 287.800781 413.679688 287.800781 403.09375 L 287.800781 364.671875 C 287.800781 332.894531 313.65625 307.035156 345.429688 307.035156 C 377.203125 307.035156 403.058594 332.894531 403.058594 364.671875 L 403.058594 403.09375 C 403.058594 413.679688 411.667969 422.304688 422.269531 422.304688 C 432.875 422.304688 441.480469 413.679688 441.480469 403.09375 L 441.480469 364.671875 C 441.480469 332.894531 467.335938 307.035156 499.109375 307.035156 C 530.882812 307.035156 556.742188 332.894531 556.742188 364.671875 L 556.742188 479.9375 L 518.320312 479.9375 L 518.320312 364.671875 C 518.320312 354.085938 509.714844 345.457031 499.109375 345.457031 C 488.507812 345.457031 479.902344 354.085938 479.902344 364.671875 L 479.902344 403.09375 C 479.902344 434.867188 454.042969 460.726562 422.269531 460.726562 C 390.496094 460.726562 364.640625 434.867188 364.640625 403.09375 L 364.640625 364.671875 C 364.640625 354.085938 356.035156 345.457031 345.429688 345.457031 C 334.824219 345.457031 326.21875 354.085938 326.21875 364.671875 L 326.21875 403.09375 C 326.21875 434.867188 300.363281 460.726562 268.589844 460.726562 C 236.816406 460.726562 210.960938 434.867188 210.960938 403.09375 Z M 499.109375 595.207031 L 537.53125 633.632812 L 575.949219 595.207031 Z M 499.109375 595.207031 " fill-opacity="1" fill-rule="nonzero"/></g></svg>