<svg xmlns="http://www.w3.org/2000/svg" xmlns:xlink="http://www.w3.org/1999/xlink" width="1024" zoomAndPan="magnify" viewBox="0 0 768 767.999994" height="1024" preserveAspectRatio="xMidYMid meet" version="1.0"><defs><clipPath id="f566428f77"><path d="M 341 230.402344 L 427 230.402344 L 427 537.902344 L 341 537.902344 Z M 341 230.402344 " clip-rule="nonzero"/></clipPath><clipPath id="f6f44ad987"><path d="M 317.375 332 L 450.875 332 L 450.875 367 L 317.375 367 Z M 317.375 332 " clip-rule="nonzero"/></clipPath><clipPath id="a6015b3c6d"><path d="M 317.375 401 L 450.875 401 L 450.875 436 L 317.375 436 Z M 317.375 401 " clip-rule="nonzero"/></clipPath></defs><g clip-path="url(#f566428f77)"><path fill="#000000" d="M 341.339844 534.898438 L 341.339844 451.023438 C 341.339844 449.367188 342.679688 448.019531 344.332031 448.019531 C 345.988281 448.019531 347.328125 449.367188 347.328125 451.023438 L 347.328125 531.894531 L 420.914062 531.894531 L 420.914062 451.023438 C 420.914062 449.367188 422.253906 448.019531 423.910156 448.019531 C 425.5625 448.019531 426.902344 449.367188 426.902344 451.023438 L 426.902344 534.898438 C 426.902344 536.554688 425.5625 537.898438 423.910156 537.898438 L 344.332031 537.898438 C 342.679688 537.898438 341.339844 536.554688 341.339844 534.898438 Z M 341.339844 404.839844 L 341.339844 363.457031 C 341.339844 361.800781 342.679688 360.453125 344.332031 360.453125 C 345.988281 360.453125 347.328125 361.800781 347.328125 363.457031 L 347.328125 404.839844 C 347.328125 406.5 345.988281 407.84375 344.332031 407.84375 C 342.679688 407.84375 341.339844 406.5 341.339844 404.839844 Z M 341.339844 317.277344 L 341.339844 233.402344 C 341.339844 231.742188 342.679688 230.398438 344.332031 230.398438 L 423.90625 230.398438 C 425.5625 230.398438 426.902344 231.742188 426.902344 233.402344 L 426.902344 317.277344 C 426.902344 318.933594 425.5625 320.277344 423.90625 320.277344 C 422.253906 320.277344 420.914062 318.933594 420.914062 317.277344 L 420.914062 236.402344 L 347.328125 236.402344 L 347.328125 317.277344 C 347.328125 318.933594 345.984375 320.277344 344.332031 320.277344 C 342.679688 320.277344 341.339844 318.933594 341.339844 317.277344 Z M 420.914062 404.839844 L 420.914062 363.457031 C 420.914062 361.800781 422.253906 360.453125 423.910156 360.453125 C 425.5625 360.453125 426.902344 361.800781 426.902344 363.457031 L 426.902344 404.839844 C 426.902344 406.5 425.5625 407.84375 423.910156 407.84375 C 422.253906 407.84375 420.914062 406.5 420.914062 404.839844 Z M 420.914062 404.839844 " fill-opacity="1" fill-rule="evenodd"/></g><g clip-path="url(#f6f44ad987)"><path fill="#000000" d="M 317.390625 363.457031 L 317.390625 335.375 C 317.390625 333.71875 318.734375 332.371094 320.386719 332.371094 L 447.855469 332.371094 C 449.507812 332.371094 450.847656 333.71875 450.847656 335.375 L 450.847656 363.457031 C 450.847656 365.117188 449.507812 366.460938 447.855469 366.460938 L 320.386719 366.460938 C 318.734375 366.460938 317.394531 365.117188 317.394531 363.457031 Z M 323.378906 338.378906 L 323.378906 360.453125 L 444.859375 360.453125 L 444.859375 338.378906 Z M 323.378906 338.378906 " fill-opacity="1" fill-rule="evenodd"/></g><g clip-path="url(#a6015b3c6d)"><path fill="#000000" d="M 317.390625 432.921875 L 317.390625 404.839844 C 317.390625 403.179688 318.734375 401.835938 320.386719 401.835938 L 447.855469 401.835938 C 449.507812 401.835938 450.847656 403.179688 450.847656 404.839844 L 450.847656 432.921875 C 450.847656 434.578125 449.507812 435.921875 447.855469 435.921875 L 320.386719 435.921875 C 318.734375 435.921875 317.394531 434.578125 317.394531 432.921875 Z M 323.378906 407.84375 L 323.378906 429.917969 L 444.859375 429.917969 L 444.859375 407.84375 Z M 323.378906 407.84375 " fill-opacity="1" fill-rule="evenodd"/></g><path fill="#000000" d="M 373.546875 335.378906 L 373.546875 320.875 C 373.546875 317.234375 376.5 314.273438 380.128906 314.273438 L 392.289062 314.273438 C 395.921875 314.273438 398.875 317.234375 398.875 320.875 L 398.875 335.378906 C 398.875 337.039062 397.535156 338.382812 395.882812 338.382812 L 376.539062 338.382812 C 374.886719 338.382812 373.546875 337.039062 373.546875 335.378906 Z M 392.886719 320.875 C 392.886719 320.550781 392.613281 320.277344 392.289062 320.277344 L 380.128906 320.277344 C 379.808594 320.277344 379.535156 320.550781 379.535156 320.875 L 379.535156 332.375 L 392.886719 332.375 Z M 392.886719 320.875 " fill-opacity="1" fill-rule="evenodd"/><path fill="#000000" d="M 412.035156 335.378906 L 412.035156 320.875 C 412.035156 317.234375 414.988281 314.273438 418.621094 314.273438 L 430.78125 314.273438 C 434.410156 314.273438 437.363281 317.234375 437.363281 320.875 L 437.363281 335.378906 C 437.363281 337.039062 436.023438 338.382812 434.371094 338.382812 L 415.03125 338.382812 C 413.375 338.382812 412.035156 337.039062 412.035156 335.378906 Z M 431.375 320.875 C 431.375 320.675781 431.28125 320.535156 431.199219 320.457031 C 431.117188 320.375 430.980469 320.277344 430.777344 320.277344 L 418.617188 320.277344 C 418.296875 320.277344 418.023438 320.550781 418.023438 320.875 L 418.023438 332.375 L 431.375 332.375 Z M 431.375 320.875 " fill-opacity="1" fill-rule="evenodd"/><path fill="#000000" d="M 330.878906 335.378906 L 330.878906 320.875 C 330.878906 317.234375 333.832031 314.273438 337.460938 314.273438 L 349.621094 314.273438 C 353.253906 314.273438 356.207031 317.234375 356.207031 320.875 L 356.207031 335.378906 C 356.207031 337.039062 354.867188 338.382812 353.210938 338.382812 L 333.871094 338.382812 C 332.21875 338.382812 330.878906 337.039062 330.878906 335.378906 Z M 350.21875 320.875 C 350.21875 320.550781 349.945312 320.277344 349.621094 320.277344 L 337.460938 320.277344 C 337.140625 320.277344 336.867188 320.550781 336.867188 320.875 L 336.867188 332.375 L 350.21875 332.375 Z M 350.21875 320.875 " fill-opacity="1" fill-rule="evenodd"/><path fill="#000000" d="M 373.546875 447.421875 L 373.546875 432.921875 C 373.546875 431.261719 374.886719 429.917969 376.539062 429.917969 L 395.882812 429.917969 C 397.535156 429.917969 398.875 431.261719 398.875 432.921875 L 398.875 447.421875 C 398.875 451.066406 395.921875 454.027344 392.289062 454.027344 L 380.128906 454.027344 C 376.5 454.027344 373.546875 451.066406 373.546875 447.421875 Z M 379.535156 435.921875 L 379.535156 447.421875 C 379.535156 447.75 379.808594 448.019531 380.128906 448.019531 L 392.289062 448.019531 C 392.613281 448.019531 392.886719 447.746094 392.886719 447.421875 L 392.886719 435.921875 Z M 379.535156 435.921875 " fill-opacity="1" fill-rule="evenodd"/><path fill="#000000" d="M 412.035156 447.421875 L 412.035156 432.921875 C 412.035156 431.261719 413.375 429.917969 415.03125 429.917969 L 434.371094 429.917969 C 436.023438 429.917969 437.363281 431.261719 437.363281 432.921875 L 437.363281 447.421875 C 437.363281 449.183594 436.679688 450.839844 435.433594 452.089844 C 434.1875 453.339844 432.535156 454.027344 430.78125 454.027344 L 418.621094 454.027344 C 414.988281 454.027344 412.035156 451.066406 412.035156 447.421875 Z M 418.023438 435.921875 L 418.023438 447.421875 C 418.023438 447.75 418.296875 448.019531 418.617188 448.019531 L 430.777344 448.019531 C 431.101562 448.019531 431.375 447.746094 431.375 447.421875 L 431.375 435.921875 Z M 418.023438 435.921875 " fill-opacity="1" fill-rule="evenodd"/><path fill="#000000" d="M 330.878906 447.421875 L 330.878906 432.921875 C 330.878906 431.261719 332.21875 429.917969 333.871094 429.917969 L 353.210938 429.917969 C 354.867188 429.917969 356.207031 431.261719 356.207031 432.921875 L 356.207031 447.421875 C 356.207031 451.066406 353.253906 454.027344 349.621094 454.027344 L 337.460938 454.027344 C 333.832031 454.027344 330.878906 451.066406 330.878906 447.421875 Z M 336.867188 435.921875 L 336.867188 447.421875 C 336.867188 447.75 337.140625 448.019531 337.460938 448.019531 L 349.621094 448.019531 C 349.945312 448.019531 350.21875 447.746094 350.21875 447.421875 L 350.21875 435.921875 Z M 336.867188 435.921875 " fill-opacity="1" fill-rule="evenodd"/></svg>