<svg xmlns="http://www.w3.org/2000/svg" xmlns:xlink="http://www.w3.org/1999/xlink" width="1024" zoomAndPan="magnify" viewBox="0 0 768 767.999994" height="1024" preserveAspectRatio="xMidYMid meet" version="1.0"><defs><filter x="0%" y="0%" width="100%" height="100%" id="c07957da39"><feColorMatrix values="0 0 0 0 1 0 0 0 0 1 0 0 0 0 1 0 0 0 1 0" color-interpolation-filters="sRGB"/></filter><clipPath id="65b91201c9"><path d="M 78 650.496094 L 690 650.496094 L 690 690.996094 L 78 690.996094 Z M 78 650.496094 " clip-rule="nonzero"/></clipPath><clipPath id="af8cf98ac4"><path d="M 650.6875 78 L 691.1875 78 L 691.1875 690 L 650.6875 690 Z M 650.6875 78 " clip-rule="nonzero"/></clipPath><clipPath id="c7479aed70"><path d="M 76.992188 78 L 117.492188 78 L 117.492188 690 L 76.992188 690 Z M 76.992188 78 " clip-rule="nonzero"/></clipPath><mask id="6255c1fd67"><g filter="url(#c07957da39)"><rect x="-76.8" width="921.6" fill="#000000" y="-76.799999" height="921.599993" fill-opacity="0.65"/></g></mask><clipPath id="d558abd5d2"><path d="M 0.75 1.070312 L 535.105469 1.070312 L 535.105469 457.203125 L 0.75 457.203125 Z M 0.75 1.070312 " clip-rule="nonzero"/></clipPath><clipPath id="2a57bf4e59"><rect x="0" width="536" y="0" height="458"/></clipPath></defs><g clip-path="url(#65b91201c9)"><path fill="#000000" d="M 669.394531 650.496094 L 99.203125 650.496094 C 87.964844 650.496094 78.839844 659.546875 78.839844 670.746094 C 78.839844 681.945312 87.964844 690.996094 99.203125 690.996094 L 669.394531 690.996094 C 680.636719 690.996094 689.757812 681.945312 689.757812 670.746094 C 689.757812 659.546875 680.636719 650.496094 669.394531 650.496094 Z M 669.394531 650.496094 " fill-opacity="1" fill-rule="nonzero"/></g><g clip-path="url(#af8cf98ac4)"><path fill="#000000" d="M 691.1875 669.390625 L 691.1875 99.203125 C 691.1875 87.960938 682.136719 78.835938 670.9375 78.835938 C 659.738281 78.835938 650.6875 87.960938 650.6875 99.203125 L 650.6875 669.390625 C 650.6875 680.632812 659.738281 689.753906 670.9375 689.753906 C 682.136719 689.753906 691.1875 680.632812 691.1875 669.390625 Z M 691.1875 669.390625 " fill-opacity="1" fill-rule="nonzero"/></g><g clip-path="url(#c7479aed70)"><path fill="#000000" d="M 117.492188 669.390625 L 117.492188 99.203125 C 117.492188 87.960938 108.4375 78.835938 97.242188 78.835938 C 86.042969 78.835938 76.992188 87.960938 76.992188 99.203125 L 76.992188 669.390625 C 76.992188 680.632812 86.042969 689.753906 97.242188 689.753906 C 108.4375 689.753906 117.492188 680.632812 117.492188 669.390625 Z M 117.492188 669.390625 " fill-opacity="1" fill-rule="nonzero"/></g><g mask="url(#6255c1fd67)"><g transform="matrix(1, 0, 0, 1, 116, 194)"><g clip-path="url(#2a57bf4e59)"><g clip-path="url(#d558abd5d2)"><path fill="#05e0e9" d="M 0.75 1.070312 L 535.285156 1.070312 L 535.285156 457.203125 L 0.75 457.203125 Z M 0.75 1.070312 " fill-opacity="1" fill-rule="nonzero"/></g></g></g></g></svg>