<svg xmlns="http://www.w3.org/2000/svg" xmlns:xlink="http://www.w3.org/1999/xlink" width="1024" zoomAndPan="magnify" viewBox="0 0 768 767.999994" height="1024" preserveAspectRatio="xMidYMid meet" version="1.0"><defs><clipPath id="0f83abd7c7"><path d="M 414.6875 438.558594 L 446.308594 438.558594 L 446.308594 533.488281 L 414.6875 533.488281 Z M 414.6875 438.558594 " clip-rule="nonzero"/></clipPath><clipPath id="48e454ac67"><path d="M 230.398438 247 L 263 247 L 263 343 L 230.398438 343 Z M 230.398438 247 " clip-rule="nonzero"/></clipPath><clipPath id="0960077e6a"><path d="M 442.148438 321.449219 L 537.546875 321.449219 L 537.546875 353 L 442.148438 353 Z M 442.148438 321.449219 " clip-rule="nonzero"/></clipPath><clipPath id="bedbd198e2"><path d="M 442.148438 234.238281 L 537.546875 234.238281 L 537.546875 265.800781 L 442.148438 265.800781 Z M 442.148438 234.238281 " clip-rule="nonzero"/></clipPath></defs><path fill="#212121" d="M 419.566406 516.1875 C 419.367188 516.1875 419.164062 516.175781 418.957031 516.148438 C 410.847656 515.121094 402.898438 512.976562 395.335938 509.785156 C 384.574219 505.238281 374.914062 498.742188 366.628906 490.46875 C 358.335938 482.195312 351.824219 472.554688 347.273438 461.808594 C 342.554688 450.675781 340.160156 438.859375 340.160156 426.695312 L 340.160156 393.730469 C 340.160156 391.089844 342.308594 388.949219 344.953125 388.949219 C 347.601562 388.949219 349.746094 391.089844 349.746094 393.730469 L 349.746094 426.695312 C 349.746094 437.570312 351.886719 448.132812 356.101562 458.082031 C 360.171875 467.683594 365.992188 476.304688 373.40625 483.703125 C 380.816406 491.101562 389.453125 496.910156 399.070312 500.972656 C 405.828125 503.824219 412.925781 505.738281 420.167969 506.660156 C 422.792969 506.992188 424.652344 509.386719 424.316406 512.007812 C 424.007812 514.421875 421.949219 516.1875 419.566406 516.1875 " fill-opacity="1" fill-rule="evenodd"/><path fill="#212121" d="M 419.5625 462.949219 C 419.042969 462.949219 418.507812 462.859375 417.984375 462.679688 C 402.652344 457.347656 392.351562 442.886719 392.351562 426.695312 L 392.351562 393.730469 C 392.351562 391.089844 394.496094 388.949219 397.144531 388.949219 C 399.792969 388.949219 401.9375 391.089844 401.9375 393.730469 L 401.9375 426.695312 C 401.9375 438.820312 409.652344 449.648438 421.140625 453.648438 C 423.640625 454.515625 424.960938 457.242188 424.089844 459.738281 C 423.402344 461.710938 421.542969 462.949219 419.5625 462.949219 " fill-opacity="1" fill-rule="evenodd"/><path fill="#212121" d="M 397.148438 376.652344 C 394.5 376.652344 392.355469 374.511719 392.355469 371.867188 L 392.355469 353.941406 C 392.355469 343.066406 390.214844 332.503906 386 322.554688 C 381.929688 312.953125 376.113281 304.332031 368.699219 296.933594 C 361.285156 289.535156 352.648438 283.726562 343.03125 279.667969 C 333.058594 275.457031 322.480469 273.320312 311.582031 273.320312 L 262.277344 273.320312 L 262.277344 315.847656 L 311.582031 315.847656 C 332.625 315.847656 349.746094 332.9375 349.746094 353.941406 L 349.746094 371.867188 C 349.746094 374.507812 347.601562 376.652344 344.953125 376.652344 C 342.308594 376.652344 340.160156 374.507812 340.160156 371.867188 L 340.160156 353.941406 C 340.160156 338.210938 327.339844 325.417969 311.582031 325.417969 L 257.488281 325.417969 C 254.84375 325.417969 252.695312 323.273438 252.695312 320.632812 L 252.695312 268.539062 C 252.695312 265.894531 254.84375 263.753906 257.488281 263.753906 L 311.582031 263.753906 C 323.769531 263.753906 335.609375 266.140625 346.761719 270.855469 C 357.527344 275.398438 367.1875 281.898438 375.476562 290.167969 C 383.765625 298.441406 390.277344 308.085938 394.828125 318.828125 C 399.546875 329.960938 401.941406 341.777344 401.941406 353.941406 L 401.941406 371.867188 C 401.941406 374.511719 399.796875 376.652344 397.148438 376.652344 " fill-opacity="1" fill-rule="evenodd"/><path fill="#212121" d="M 516.078125 331.125 C 513.433594 331.125 511.289062 328.984375 511.289062 326.339844 L 511.289062 265.671875 L 468.679688 265.671875 L 468.679688 326.339844 C 468.679688 328.984375 466.535156 331.125 463.886719 331.125 C 461.238281 331.125 459.09375 328.984375 459.09375 326.339844 L 459.09375 260.890625 C 459.09375 258.246094 461.238281 256.105469 463.886719 256.105469 L 516.078125 256.105469 C 518.726562 256.105469 520.875 258.246094 520.875 260.890625 L 520.875 326.339844 C 520.875 328.984375 518.726562 331.125 516.078125 331.125 " fill-opacity="1" fill-rule="evenodd"/><path fill="#212121" d="M 441.464844 516.1875 C 439.085938 516.1875 437.023438 514.421875 436.714844 512.007812 C 436.378906 509.386719 438.238281 506.992188 440.863281 506.660156 C 448.109375 505.738281 455.203125 503.824219 461.960938 500.972656 C 471.578125 496.910156 480.214844 491.101562 487.628906 483.699219 C 495.042969 476.300781 500.863281 467.683594 504.929688 458.082031 C 509.148438 448.132812 511.289062 437.570312 511.289062 426.695312 L 511.289062 348.203125 C 511.289062 345.5625 513.433594 343.417969 516.078125 343.417969 C 518.726562 343.417969 520.875 345.5625 520.875 348.203125 L 520.875 426.695312 C 520.875 438.859375 518.476562 450.675781 513.757812 461.808594 C 509.210938 472.550781 502.695312 482.195312 494.40625 490.46875 C 486.117188 498.742188 476.457031 505.242188 465.695312 509.785156 C 458.136719 512.976562 450.183594 515.121094 442.074219 516.148438 C 441.871094 516.175781 441.664062 516.1875 441.464844 516.1875 " fill-opacity="1" fill-rule="evenodd"/><path fill="#212121" d="M 441.46875 462.949219 C 439.488281 462.949219 437.632812 461.710938 436.941406 459.738281 C 436.070312 457.242188 437.390625 454.515625 439.894531 453.648438 C 451.378906 449.648438 459.09375 438.820312 459.09375 426.695312 L 459.09375 348.203125 C 459.09375 345.5625 461.238281 343.417969 463.886719 343.417969 C 466.535156 343.417969 468.679688 345.5625 468.679688 348.203125 L 468.679688 426.695312 C 468.679688 442.886719 458.378906 457.347656 443.046875 462.683594 C 442.523438 462.859375 441.992188 462.949219 441.46875 462.949219 " fill-opacity="1" fill-rule="evenodd"/><g clip-path="url(#0f83abd7c7)"><path fill="#212121" d="M 430.515625 533.523438 C 421.835938 533.523438 414.773438 526.472656 414.773438 517.808594 L 414.773438 454.300781 C 414.773438 445.632812 421.835938 438.582031 430.515625 438.582031 C 439.199219 438.582031 446.261719 445.632812 446.261719 454.300781 L 446.261719 517.808594 C 446.261719 526.472656 439.199219 533.523438 430.515625 533.523438 Z M 430.515625 448.152344 C 427.121094 448.152344 424.359375 450.910156 424.359375 454.300781 L 424.359375 517.808594 C 424.359375 521.199219 427.121094 523.957031 430.515625 523.957031 C 433.914062 523.957031 436.675781 521.199219 436.675781 517.808594 L 436.675781 454.300781 C 436.675781 450.910156 433.914062 448.152344 430.515625 448.152344 " fill-opacity="1" fill-rule="evenodd"/></g><g clip-path="url(#48e454ac67)"><path fill="#212121" d="M 246.535156 342.058594 C 237.851562 342.058594 230.789062 335.007812 230.789062 326.339844 L 230.789062 262.828125 C 230.789062 254.164062 237.851562 247.113281 246.535156 247.113281 C 255.214844 247.113281 262.277344 254.164062 262.277344 262.828125 L 262.277344 326.339844 C 262.277344 330.539062 260.644531 334.484375 257.667969 337.453125 C 254.691406 340.421875 250.738281 342.058594 246.535156 342.058594 Z M 246.535156 256.679688 C 243.136719 256.679688 240.375 259.4375 240.375 262.828125 L 240.375 326.339844 C 240.375 329.730469 243.136719 332.488281 246.535156 332.488281 C 248.179688 332.488281 249.726562 331.851562 250.890625 330.6875 C 252.054688 329.527344 252.695312 327.984375 252.695312 326.339844 L 252.695312 262.828125 C 252.695312 259.441406 249.929688 256.679688 246.535156 256.679688 " fill-opacity="1" fill-rule="evenodd"/></g><path fill="#212121" d="M 402.863281 398.515625 L 339.234375 398.515625 C 330.554688 398.515625 323.488281 391.464844 323.488281 382.800781 C 323.488281 374.132812 330.554688 367.082031 339.234375 367.082031 L 402.863281 367.082031 C 411.546875 367.082031 418.609375 374.132812 418.609375 382.800781 C 418.609375 391.464844 411.546875 398.515625 402.863281 398.515625 Z M 339.234375 376.652344 C 335.839844 376.652344 333.074219 379.410156 333.074219 382.800781 C 333.074219 386.1875 335.839844 388.945312 339.234375 388.945312 L 402.863281 388.949219 C 406.261719 388.949219 409.023438 386.1875 409.023438 382.800781 C 409.023438 379.410156 406.261719 376.652344 402.863281 376.652344 L 339.234375 376.652344 " fill-opacity="1" fill-rule="evenodd"/><g clip-path="url(#0960077e6a)"><path fill="#212121" d="M 521.796875 352.992188 L 458.167969 352.992188 C 449.484375 352.992188 442.421875 345.941406 442.421875 337.273438 C 442.421875 328.609375 449.484375 321.558594 458.167969 321.558594 L 521.796875 321.558594 C 530.480469 321.558594 537.542969 328.605469 537.542969 337.273438 C 537.542969 345.9375 530.480469 352.992188 521.796875 352.992188 Z M 458.167969 331.125 C 454.769531 331.125 452.007812 333.882812 452.007812 337.273438 C 452.007812 340.660156 454.769531 343.417969 458.167969 343.417969 L 521.796875 343.417969 C 525.195312 343.417969 527.957031 340.660156 527.957031 337.273438 C 527.957031 333.882812 525.195312 331.125 521.796875 331.125 L 458.167969 331.125 " fill-opacity="1" fill-rule="evenodd"/></g><g clip-path="url(#bedbd198e2)"><path fill="#212121" d="M 458.160156 265.671875 C 453.957031 265.671875 450.007812 264.035156 447.035156 261.066406 C 444.0625 258.097656 442.421875 254.152344 442.421875 249.957031 C 442.421875 241.289062 449.484375 234.238281 458.167969 234.238281 L 521.796875 234.238281 C 530.480469 234.238281 537.542969 241.289062 537.542969 249.957031 C 537.542969 258.621094 530.480469 265.671875 521.796875 265.671875 L 458.167969 265.671875 C 458.164062 265.671875 458.164062 265.671875 458.160156 265.671875 Z M 458.167969 243.808594 C 454.769531 243.808594 452.007812 246.566406 452.007812 249.957031 C 452.007812 251.597656 452.648438 253.140625 453.8125 254.304688 C 454.976562 255.464844 456.519531 256.101562 458.164062 256.101562 L 521.796875 256.105469 C 525.195312 256.105469 527.957031 253.347656 527.957031 249.957031 C 527.957031 246.566406 525.195312 243.808594 521.796875 243.808594 L 458.167969 243.808594 " fill-opacity="1" fill-rule="evenodd"/></g></svg>