<svg xmlns="http://www.w3.org/2000/svg" xmlns:xlink="http://www.w3.org/1999/xlink" width="1024" zoomAndPan="magnify" viewBox="0 0 768 767.999994" height="1024" preserveAspectRatio="xMidYMid meet" version="1.0"><defs><clipPath id="c635f6942a"><path d="M 230.398438 230.398438 L 537.898438 230.398438 L 537.898438 537.898438 L 230.398438 537.898438 Z M 230.398438 230.398438 " clip-rule="nonzero"/></clipPath></defs><g clip-path="url(#c635f6942a)"><path fill="#4d4d4d" d="M 505.078125 443.597656 C 525.464844 420.9375 537.882812 391.023438 537.882812 358.214844 C 537.882812 287.742188 480.542969 230.398438 410.070312 230.398438 C 372.527344 230.398438 338.738281 246.664062 315.339844 272.492188 L 262.515625 272.492188 L 262.515625 258.503906 C 262.515625 256.628906 261.007812 255.121094 259.132812 255.121094 L 233.796875 255.121094 C 231.921875 255.121094 230.414062 256.628906 230.414062 258.503906 L 230.414062 457.925781 C 230.414062 459.804688 231.921875 461.308594 233.796875 461.308594 L 259.132812 461.308594 C 261.007812 461.308594 262.515625 459.804688 262.515625 457.925781 L 262.515625 443.9375 L 314.878906 443.9375 L 282.65625 504.449219 C 282.410156 504.9375 282.253906 505.492188 282.253906 506.046875 L 282.253906 534.519531 C 282.253906 536.394531 283.761719 537.898438 285.636719 537.898438 L 534.503906 537.898438 C 536.378906 537.898438 537.882812 536.394531 537.882812 534.519531 L 537.882812 506.046875 C 537.882812 505.492188 537.761719 504.9375 537.484375 504.449219 Z M 410.070312 237.164062 C 476.820312 237.164062 531.121094 291.464844 531.121094 358.214844 C 531.121094 424.964844 476.820312 479.265625 410.070312 479.265625 C 343.316406 479.265625 289.019531 424.964844 289.019531 358.214844 C 289.019531 291.464844 343.316406 237.164062 410.070312 237.164062 Z M 255.75 454.546875 L 237.179688 454.546875 L 237.179688 261.914062 L 255.75 261.914062 Z M 262.515625 279.257812 L 309.679688 279.257812 C 292.523438 301.027344 282.253906 328.421875 282.253906 358.214844 C 282.253906 388.007812 292.523438 415.402344 309.679688 437.171875 L 262.515625 437.171875 Z M 289.019531 531.105469 L 289.019531 509.429688 L 319.152344 509.429688 C 321.027344 509.429688 322.53125 507.921875 322.53125 506.046875 C 322.53125 504.171875 321.027344 502.664062 319.152344 502.664062 L 291.261719 502.664062 L 319.949219 448.796875 C 343.070312 471.824219 374.925781 486.0625 410.070312 486.0625 C 445.183594 486.0625 477.066406 471.824219 500.1875 448.796875 L 528.875 502.664062 L 500.988281 502.664062 C 499.113281 502.664062 497.605469 504.171875 497.605469 506.046875 C 497.605469 507.921875 499.113281 509.429688 500.988281 509.429688 L 531.121094 509.429688 L 531.121094 531.105469 Z M 289.019531 531.105469 " fill-opacity="1" fill-rule="nonzero"/></g><path fill="#4d4d4d" d="M 410.070312 429.269531 C 449.242188 429.269531 481.125 397.386719 481.125 358.214844 C 481.125 319.042969 449.242188 287.160156 410.070312 287.160156 C 370.898438 287.160156 339.011719 319.042969 339.011719 358.214844 C 339.011719 397.386719 370.867188 429.269531 410.070312 429.269531 Z M 353.617188 388.960938 C 358.136719 390.929688 362.472656 391.730469 366.5 391.730469 C 377.847656 391.730469 386.734375 385.519531 390.820312 382.074219 C 395.25 385.640625 400.660156 388.007812 406.566406 388.683594 C 405.980469 395.726562 402.320312 412.730469 381.199219 415.679688 C 369.546875 409.746094 359.890625 400.429688 353.617188 388.960938 Z M 348.421875 340.011719 C 355.339844 357.539062 372.34375 360.859375 379.597656 361.472656 C 380.214844 367.410156 382.582031 372.851562 386.117188 377.277344 C 380.769531 381.859375 366.195312 391.390625 349.066406 378.414062 C 346.945312 372.050781 345.808594 365.257812 345.808594 358.214844 C 345.777344 351.910156 346.699219 345.792969 348.421875 340.011719 Z M 410.070312 334.324219 C 423.230469 334.324219 433.960938 345.054688 433.960938 358.214844 C 433.960938 371.375 423.230469 382.105469 410.070312 382.105469 C 396.910156 382.105469 386.179688 371.375 386.179688 358.214844 C 386.179688 345.054688 396.878906 334.324219 410.070312 334.324219 Z M 474.363281 358.214844 C 474.363281 364.519531 473.4375 370.636719 471.71875 376.386719 C 464.800781 358.859375 447.796875 355.570312 440.539062 354.957031 C 439.925781 349.023438 437.558594 343.578125 434.023438 339.152344 C 439.402344 334.601562 454.039062 325.132812 471.070312 337.984375 C 473.191406 344.378906 474.363281 351.144531 474.363281 358.214844 Z M 391.898438 419.894531 C 409.425781 412.976562 412.746094 395.972656 413.328125 388.714844 C 419.261719 388.101562 424.707031 385.734375 429.132812 382.199219 C 433.683594 387.578125 443.152344 402.214844 430.269531 419.246094 C 423.90625 421.371094 417.109375 422.507812 410.070312 422.507812 C 403.765625 422.507812 397.648438 421.585938 391.898438 419.894531 Z M 440.816406 414.667969 C 448.320312 397.355469 438.601562 382.996094 433.898438 377.460938 C 437.464844 373.035156 439.832031 367.625 440.507812 361.71875 C 447.550781 362.304688 464.554688 365.964844 467.503906 387.085938 C 461.601562 398.738281 452.285156 408.394531 440.816406 414.667969 Z M 466.519531 327.46875 C 449.210938 319.964844 434.851562 329.683594 429.316406 334.386719 C 424.890625 330.820312 419.476562 328.453125 413.542969 327.777344 C 414.097656 320.734375 417.695312 303.730469 438.910156 300.78125 C 450.59375 306.683594 460.25 316 466.519531 327.46875 Z M 428.242188 296.566406 C 410.714844 303.484375 407.394531 320.488281 406.808594 327.746094 C 400.875 328.359375 395.464844 330.726562 391.007812 334.261719 C 386.457031 328.882812 376.957031 314.246094 389.867188 297.214844 C 396.234375 295.089844 403.027344 293.953125 410.070312 293.953125 C 416.371094 293.921875 422.492188 294.84375 428.242188 296.566406 Z M 379.324219 301.761719 C 371.820312 319.074219 381.535156 333.433594 386.242188 338.96875 C 382.675781 343.363281 380.304688 348.804688 379.628906 354.710938 C 372.589844 354.125 355.585938 350.464844 352.632812 329.34375 C 358.507812 317.691406 367.855469 308.035156 379.324219 301.761719 Z M 379.324219 301.761719 " fill-opacity="1" fill-rule="nonzero"/></svg>