<svg xmlns="http://www.w3.org/2000/svg" xmlns:xlink="http://www.w3.org/1999/xlink" width="1024" zoomAndPan="magnify" viewBox="0 0 768 767.999994" height="1024" preserveAspectRatio="xMidYMid meet" version="1.0"><defs><g/><clipPath id="1c8126364c"><path d="M 198 77 L 569.953125 77 L 569.953125 768 L 198 768 Z M 198 77 " clip-rule="nonzero"/></clipPath></defs><g clip-path="url(#1c8126364c)"><path fill="#ffd492" d="M 248.046875 625.125 L 248.046875 618.125 C 248.046875 616.855469 248 615.429688 247.953125 613.953125 C 247.882812 611.417969 247.839844 608.722656 247.929688 606.097656 C 237.332031 604.921875 227.242188 603.496094 217.589844 601.742188 C 221.484375 606.050781 226.691406 609.96875 231.207031 613.402344 L 233.738281 615.289062 C 238.253906 618.746094 243.070312 621.992188 248.046875 625.125 Z M 268.410156 621.671875 C 268.503906 616.511719 268.640625 611.167969 268.042969 606.511719 C 267.605469 603.265625 266.269531 600.777344 264.078125 599.394531 C 261.960938 598.035156 259.773438 598.035156 258.503906 598.425781 C 255.925781 599.234375 256.269531 609.347656 256.410156 613.652344 C 256.429688 615.242188 256.476562 616.765625 256.476562 618.125 L 256.476562 726.144531 C 256.476562 728.125 256.316406 730.476562 256.109375 733.011719 C 255.671875 738.332031 255.140625 745.636719 257.03125 748.539062 C 257.03125 748.539062 257.078125 748.492188 257.167969 748.492188 C 257.332031 748.492188 257.699219 748.539062 257.953125 748.539062 C 258.503906 748.585938 259.105469 748.628906 259.65625 748.746094 C 264.703125 749.597656 266.613281 749.296875 267.28125 748.882812 C 268.457031 747.363281 268.363281 740.476562 268.34375 737.871094 L 268.34375 735.753906 C 268.34375 714.328125 268.34375 692.855469 268.34375 671.386719 L 268.296875 627.984375 C 268.296875 625.957031 268.34375 623.8125 268.410156 621.671875 Z M 292.761719 126.34375 C 290.894531 123.257812 288.660156 120.148438 285.964844 116.992188 C 264.496094 121.761719 243.644531 130.699219 225.445312 142.976562 C 220.125 146.546875 216.207031 150.808594 214.226562 155.117188 L 221.300781 167.050781 C 230.929688 158.066406 242.515625 149.886719 256.617188 142.332031 C 268.203125 136.042969 280.320312 130.746094 292.761719 126.34375 Z M 287.902344 760.21875 C 287.902344 759.964844 287.902344 759.640625 287.945312 759.296875 C 287.601562 759.25 287.324219 759.203125 287.023438 759.179688 C 286.632812 759.136719 286.3125 759.089844 285.964844 759.089844 C 284.699219 758.996094 283.386719 759.042969 282.070312 759.042969 C 281.335938 759.089844 280.574219 759.089844 279.816406 759.089844 L 245.859375 759.089844 C 244.5 759.089844 243.160156 759.136719 241.804688 759.089844 C 241.503906 760.148438 241.503906 762.199219 241.503906 763.050781 C 241.503906 763.8125 241.503906 764.363281 241.457031 764.871094 C 241.457031 765.632812 241.410156 766.804688 241.503906 767.429688 C 243.160156 767.726562 244.960938 767.660156 246.824219 767.613281 C 247.746094 767.566406 248.644531 767.519531 249.519531 767.519531 L 279.835938 767.519531 C 280.574219 767.519531 281.496094 767.613281 282.511719 767.660156 C 283.824219 767.773438 286.585938 767.980469 287.992188 767.683594 C 287.945312 767.222656 287.902344 766.761719 287.902344 766.414062 Z M 295.457031 109.527344 L 291.863281 103.558594 C 272.050781 104.828125 252.929688 112.222656 238.394531 118.582031 C 228.347656 122.980469 220.21875 127.058594 213.167969 132.773438 C 206.53125 138.164062 200.886719 146.917969 198.609375 155.488281 C 199.667969 157.558594 201.003906 159.585938 202.5 161.476562 C 204.042969 160.921875 205.449219 160.046875 206.738281 159.082031 L 205.910156 157.652344 C 205.265625 156.59375 205.105469 155.324219 205.519531 154.148438 C 208.398438 145.671875 215.402344 139.542969 220.722656 135.972656 C 240.488281 122.636719 263.273438 113.074219 286.585938 108.214844 C 288.085938 107.914062 289.582031 108.421875 290.597656 109.527344 C 291.5625 110.609375 292.507812 111.714844 293.382812 112.820312 C 294.097656 111.875 294.789062 110.839844 295.457031 109.527344 Z M 438.980469 95.128906 C 439.164062 94.574219 439.324219 94.046875 439.488281 93.539062 C 435.871094 91.074219 431.308594 89.945312 426.632812 90.289062 L 422.53125 113.144531 C 426.515625 113.652344 430.386719 114.296875 434.304688 115.011719 C 434.949219 108.214844 436.976562 101.554688 438.980469 95.128906 Z M 439.164062 81.46875 C 439.464844 80.5 439.738281 79.53125 440.039062 78.566406 C 438.402344 77.550781 436.332031 77 434.097656 77 C 433.265625 78.585938 432.667969 80.316406 432.253906 82.066406 C 434.394531 82.367188 436.492188 82.894531 438.496094 83.65625 C 438.75 82.941406 438.957031 82.179688 439.164062 81.46875 Z M 505.671875 641.921875 L 505.671875 627.984375 C 505.671875 626.003906 505.628906 623.929688 505.605469 621.878906 C 505.464844 617.410156 505.375 612.847656 505.71875 608.46875 C 501.410156 608.839844 497.035156 609.300781 492.816406 609.898438 C 488.972656 610.40625 485.148438 611.074219 481.300781 611.71875 C 474.089844 612.941406 466.578125 614.253906 459.023438 614.667969 C 439.671875 615.726562 420.179688 616.257812 400.691406 616.257812 C 377.03125 616.257812 353.371094 615.449219 329.921875 613.90625 C 319.625 613.191406 309.324219 612.042969 299.375 610.914062 C 291.957031 610.105469 284.328125 609.300781 276.726562 608.632812 C 277.027344 612.984375 276.933594 617.476562 276.84375 621.878906 C 276.773438 623.929688 276.726562 626.003906 276.726562 627.984375 L 276.726562 640.101562 C 282.324219 642.542969 288.199219 644.871094 294.328125 647.105469 C 297.554688 648.234375 300.847656 649.386719 304.140625 650.421875 C 352.359375 666.042969 400.828125 670.117188 444.347656 662.332031 C 465.980469 658.4375 486.574219 651.574219 505.671875 641.921875 Z M 525.578125 748.421875 C 527.28125 745.636719 526.730469 738.332031 526.316406 733.011719 C 526.085938 730.476562 525.921875 728.125 525.921875 726.144531 L 525.921875 618.125 C 525.921875 616.765625 525.96875 615.242188 526.015625 613.652344 C 526.175781 609.347656 526.476562 599.234375 523.941406 598.425781 C 522.675781 598.035156 520.441406 598.035156 518.367188 599.394531 C 516.179688 600.777344 514.796875 603.265625 514.359375 606.511719 C 513.78125 611.167969 513.898438 616.511719 514.035156 621.671875 C 514.082031 623.8125 514.105469 625.957031 514.105469 627.984375 L 514.105469 671.386719 C 514.082031 692.855469 514.082031 714.328125 514.082031 735.753906 L 514.082031 737.871094 C 514.035156 740.476562 513.945312 747.363281 515.164062 748.882812 C 515.855469 749.296875 517.699219 749.597656 522.765625 748.746094 C 523.320312 748.628906 523.894531 748.585938 524.496094 748.539062 C 524.863281 748.539062 525.417969 748.492188 525.578125 748.421875 Z M 540.898438 767.429688 C 541.035156 766.851562 540.988281 765.632812 540.941406 764.871094 C 540.941406 764.363281 540.898438 763.8125 540.898438 763.304688 C 540.898438 762.246094 540.898438 760.148438 540.644531 759.089844 C 539.261719 759.136719 537.902344 759.089844 536.566406 759.089844 L 502.632812 759.089844 C 501.894531 759.089844 501.089844 759.089844 500.328125 759.042969 C 499.015625 759.042969 497.75 758.996094 496.433594 759.089844 C 496.113281 759.089844 495.765625 759.136719 495.421875 759.179688 C 495.097656 759.203125 494.800781 759.25 494.5 759.296875 C 494.5 759.640625 494.5 759.964844 494.5 760.21875 L 494.5 766.414062 C 494.5 766.761719 494.5 767.222656 494.453125 767.683594 C 495.859375 767.980469 498.648438 767.773438 499.890625 767.660156 C 500.949219 767.613281 501.847656 767.519531 502.5625 767.519531 L 532.878906 767.519531 C 533.777344 767.519531 534.699219 767.566406 535.574219 767.613281 C 537.535156 767.660156 539.375 767.726562 540.898438 767.429688 Z M 550.847656 198.011719 C 555.066406 199.027344 558.957031 200.617188 562.714844 202.4375 C 558.75 194.925781 553.175781 188.382812 547.554688 182.417969 C 539.007812 173.25 528.042969 164.910156 513.988281 156.847656 C 475.054688 134.5 430.042969 123.257812 385.09375 123.257812 C 342.523438 123.257812 300.019531 133.300781 262.605469 153.460938 C 243.414062 163.804688 229.109375 175.207031 218.902344 188.316406 C 214.597656 193.84375 211.1875 199.578125 208.652344 205.429688 C 243.160156 191.886719 282.257812 183.753906 327.847656 180.851562 C 368.417969 178.222656 409.675781 179.953125 449.625 181.65625 L 457.59375 181.933594 C 489.363281 183.246094 520.601562 190.757812 550.847656 198.011719 Z M 560.753906 601.167969 C 558.707031 601.535156 556.632812 601.882812 554.558594 602.179688 C 551.308594 602.640625 548.292969 603.058594 545.273438 603.769531 C 542.761719 604.371094 540.296875 604.460938 537.996094 604.53125 C 536.773438 604.578125 535.574219 604.667969 534.445312 604.738281 C 534.609375 607.824219 534.539062 610.980469 534.445312 613.953125 C 534.402344 615.429688 534.355469 616.855469 534.355469 618.125 L 534.355469 624.320312 C 535.804688 623.261719 537.234375 622.246094 538.617188 621.164062 C 543.179688 617.617188 547.601562 613.816406 551.746094 609.945312 L 553.796875 607.988281 C 556.285156 605.683594 558.660156 603.449219 560.753906 601.167969 Z M 569.027344 227.109375 C 569.417969 224.160156 569.738281 221.328125 569.417969 218.929688 C 569.164062 216.996094 568.195312 214.714844 567.089844 212.34375 C 561.191406 209.117188 555.527344 206.078125 549.28125 204.578125 C 519.378906 197.414062 488.417969 189.996094 457.292969 188.683594 L 449.324219 188.359375 C 409.585938 186.703125 368.460938 185.019531 328.261719 187.601562 C 281.082031 190.59375 241.042969 199.234375 205.957031 213.839844 C 204.804688 219.324219 205.058594 225.726562 205.359375 232.015625 C 205.519531 235.082031 205.65625 238.074219 205.65625 240.957031 L 205.65625 560.621094 C 205.65625 571.265625 208.398438 580.320312 211.601562 590.777344 L 212.359375 593.265625 C 212.40625 593.542969 212.570312 593.75 212.660156 594.003906 C 224.042969 596.238281 235.972656 598.011719 248.714844 599.394531 C 249.683594 595.132812 251.753906 591.722656 255.972656 590.363281 C 260.070312 589.097656 264.75 589.808594 268.59375 592.253906 C 271.914062 594.417969 274.332031 597.710938 275.597656 601.742188 C 283.824219 602.433594 292.09375 603.308594 300.132812 604.207031 C 310.015625 605.335938 320.269531 606.488281 330.335938 607.15625 C 372.910156 610.015625 416.082031 610.265625 458.652344 607.917969 C 465.820312 607.503906 473.121094 606.257812 480.171875 605.039062 C 484.085938 604.417969 487.957031 603.726562 491.898438 603.195312 C 496.871094 602.503906 501.964844 602.019531 506.894531 601.535156 C 508.160156 597.621094 510.535156 594.371094 513.828125 592.253906 C 517.652344 589.808594 522.375 589.097656 526.429688 590.363281 C 530.230469 591.539062 532.210938 594.464844 533.316406 598.082031 C 534.816406 597.917969 536.289062 597.828125 537.742188 597.78125 C 539.835938 597.710938 541.820312 597.621094 543.753906 597.207031 C 547.003906 596.445312 550.34375 595.9375 553.589844 595.476562 C 558.199219 594.832031 562.621094 594.210938 566.675781 592.804688 C 567.804688 590.292969 568.402344 587.761719 568.402344 585.019531 C 568.449219 579.191406 568.402344 573.339844 568.402344 567.511719 L 568.402344 234.710938 C 568.402344 232.039062 568.726562 229.550781 569.027344 227.109375 " fill-opacity="1" fill-rule="nonzero"/></g><g fill="#ffffff" fill-opacity="1"><g transform="translate(352.910142, 376.149846)"><g><path d="M 12.359375 -24.265625 C 14.023438 -24.265625 15.453125 -23.96875 16.640625 -23.375 C 17.835938 -22.78125 18.75 -21.925781 19.375 -20.8125 C 20.007812 -19.695312 20.328125 -18.390625 20.328125 -16.890625 C 20.328125 -15.378906 20.007812 -14.070312 19.375 -12.96875 C 18.75 -11.863281 17.835938 -11.007812 16.640625 -10.40625 C 15.453125 -9.800781 14.023438 -9.5 12.359375 -9.5 L 6.53125 -9.5 L 6.53125 0 L 3.671875 0 L 3.671875 -24.265625 Z M 12.265625 -11.9375 C 15.640625 -11.9375 17.328125 -13.585938 17.328125 -16.890625 C 17.328125 -20.191406 15.640625 -21.84375 12.265625 -21.84375 L 6.53125 -21.84375 L 6.53125 -11.9375 Z M 12.265625 -11.9375 "/></g></g></g><g fill="#ffffff" fill-opacity="1"><g transform="translate(375.037487, 376.149846)"><g><path d="M 10.609375 0.34375 C 9.078125 0.34375 7.707031 0.140625 6.5 -0.265625 C 5.289062 -0.679688 4.28125 -1.226562 3.46875 -1.90625 C 2.664062 -2.582031 2.0625 -3.328125 1.65625 -4.140625 L 3.21875 -6.03125 L 3.640625 -6.03125 C 5.140625 -3.488281 7.460938 -2.21875 10.609375 -2.21875 C 12.429688 -2.21875 13.785156 -2.597656 14.671875 -3.359375 C 15.566406 -4.128906 16.015625 -5.195312 16.015625 -6.5625 C 16.015625 -7.351562 15.867188 -8.023438 15.578125 -8.578125 C 15.285156 -9.128906 14.800781 -9.601562 14.125 -10 C 13.445312 -10.394531 12.53125 -10.738281 11.375 -11.03125 L 8.53125 -11.71875 C 6.414062 -12.226562 4.859375 -13.039062 3.859375 -14.15625 C 2.859375 -15.269531 2.359375 -16.675781 2.359375 -18.375 C 2.359375 -19.582031 2.664062 -20.660156 3.28125 -21.609375 C 3.90625 -22.554688 4.8125 -23.296875 6 -23.828125 C 7.195312 -24.359375 8.628906 -24.625 10.296875 -24.625 C 12.117188 -24.625 13.65625 -24.363281 14.90625 -23.84375 C 16.164062 -23.332031 17.175781 -22.5625 17.9375 -21.53125 L 16.53125 -19.65625 L 16.125 -19.65625 C 15.425781 -20.507812 14.597656 -21.132812 13.640625 -21.53125 C 12.691406 -21.925781 11.578125 -22.125 10.296875 -22.125 C 8.609375 -22.125 7.335938 -21.796875 6.484375 -21.140625 C 5.628906 -20.492188 5.203125 -19.59375 5.203125 -18.4375 C 5.203125 -17.34375 5.515625 -16.472656 6.140625 -15.828125 C 6.773438 -15.179688 7.835938 -14.679688 9.328125 -14.328125 L 12.234375 -13.625 C 14.585938 -13.070312 16.289062 -12.222656 17.34375 -11.078125 C 18.40625 -9.929688 18.9375 -8.46875 18.9375 -6.6875 C 18.9375 -5.3125 18.628906 -4.097656 18.015625 -3.046875 C 17.398438 -1.992188 16.46875 -1.164062 15.21875 -0.5625 C 13.96875 0.0390625 12.429688 0.34375 10.609375 0.34375 Z M 10.609375 0.34375 "/></g></g></g><g fill="#ffffff" fill-opacity="1"><g transform="translate(395.836859, 376.149846)"><g><path d="M 17.9375 -24.265625 L 17.9375 -21.921875 L 6.53125 -21.921875 L 6.53125 -13.078125 L 16.78125 -13.078125 L 16.78125 -10.703125 L 6.53125 -10.703125 L 6.53125 0 L 3.671875 0 L 3.671875 -24.265625 Z M 17.9375 -24.265625 "/></g></g></g></svg>