<svg xmlns="http://www.w3.org/2000/svg" xmlns:xlink="http://www.w3.org/1999/xlink" width="1024" zoomAndPan="magnify" viewBox="0 0 768 767.999994" height="1024" preserveAspectRatio="xMidYMid meet" version="1.0"><defs><g/><clipPath id="88318656dd"><path d="M 77 116 L 691.050781 116 L 691.050781 652 L 77 652 Z M 77 116 " clip-rule="nonzero"/></clipPath></defs><g clip-path="url(#88318656dd)"><path fill="#000000" d="M 224.382812 116.40625 L 224.382812 651.726562 L 252.367188 651.726562 L 252.367188 116.40625 Z M 580.941406 116.40625 L 580.941406 651.726562 L 608.921875 651.726562 L 608.921875 116.40625 Z M 77.539062 144.597656 L 77.539062 200.949219 L 119.503906 200.949219 L 119.503906 144.597656 Z M 133.488281 158.683594 L 133.488281 186.875 L 210.402344 186.875 L 210.402344 158.683594 Z M 266.296875 158.683594 L 266.296875 186.875 L 567.011719 186.875 L 567.011719 158.683594 Z M 622.90625 158.683594 L 622.90625 186.875 L 636.835938 186.875 C 652.328125 186.875 664.871094 199.429688 664.871094 215.035156 C 664.871094 230.640625 652.308594 243.226562 636.835938 243.226562 L 622.90625 243.226562 L 622.90625 271.402344 L 636.835938 271.402344 C 667.496094 271.402344 692.839844 245.902344 692.839844 215.035156 C 692.839844 184.167969 667.488281 158.683594 636.835938 158.683594 Z M 266.296875 200.949219 L 266.296875 229.125 L 567.011719 229.125 L 567.011719 200.949219 Z M 196.457031 243.226562 C 165.804688 243.226562 140.464844 268.722656 140.464844 299.589844 C 140.464844 330.457031 165.796875 355.898438 196.457031 355.898438 L 210.402344 355.898438 L 210.402344 327.710938 L 196.457031 327.710938 C 180.984375 327.710938 168.433594 315.195312 168.433594 299.589844 C 168.433594 283.984375 180.964844 271.402344 196.457031 271.402344 L 210.402344 271.402344 L 210.402344 243.226562 Z M 266.296875 243.226562 L 266.296875 271.402344 L 567.011719 271.402344 L 567.011719 243.226562 Z M 266.296875 285.488281 L 266.296875 313.621094 L 567.011719 313.621094 L 567.011719 285.488281 Z M 266.296875 327.710938 L 266.296875 355.898438 L 567.011719 355.898438 L 567.011719 327.710938 Z M 622.90625 327.710938 L 622.90625 355.898438 L 636.835938 355.898438 C 652.328125 355.898438 664.871094 368.511719 664.871094 384.117188 C 664.871094 399.722656 652.308594 412.25 636.835938 412.25 L 622.90625 412.25 L 622.90625 440.425781 L 636.835938 440.425781 C 667.496094 440.425781 692.839844 414.984375 692.839844 384.117188 C 692.839844 353.246094 667.488281 327.710938 636.835938 327.710938 Z M 266.296875 369.988281 L 266.296875 398.164062 L 567.011719 398.164062 L 567.011719 369.988281 Z M 196.457031 412.25 C 165.804688 412.25 140.464844 437.746094 140.464844 468.613281 C 140.464844 499.484375 165.796875 524.925781 196.457031 524.925781 L 210.402344 524.925781 L 210.402344 496.789062 L 196.457031 496.789062 C 180.984375 496.789062 168.433594 484.21875 168.433594 468.613281 C 168.433594 453.011719 180.964844 440.425781 196.457031 440.425781 L 210.402344 440.425781 L 210.402344 412.25 Z M 266.296875 412.25 L 266.296875 440.425781 L 567.011719 440.425781 L 567.011719 412.25 Z M 266.296875 454.527344 L 266.296875 482.703125 L 567.011719 482.703125 L 567.011719 454.527344 Z M 266.296875 496.789062 L 266.296875 524.925781 L 567.011719 524.925781 L 567.011719 496.789062 Z M 622.90625 496.789062 L 622.90625 524.925781 L 636.835938 524.925781 C 652.328125 524.925781 664.871094 537.550781 664.871094 553.15625 C 664.871094 568.761719 652.308594 581.277344 636.835938 581.277344 L 622.90625 581.277344 L 622.90625 609.464844 L 636.835938 609.464844 C 667.496094 609.464844 692.839844 584.023438 692.839844 553.15625 C 692.839844 522.285156 667.488281 496.789062 636.835938 496.789062 Z M 266.296875 539.011719 L 266.296875 567.203125 L 567.011719 567.203125 L 567.011719 539.011719 Z M 77.539062 567.203125 L 77.539062 623.550781 L 119.503906 623.550781 L 119.503906 567.203125 Z M 133.488281 581.277344 L 133.488281 609.464844 L 210.402344 609.464844 L 210.402344 581.277344 Z M 266.296875 581.277344 L 266.296875 609.464844 L 567.011719 609.464844 L 567.011719 581.277344 Z M 266.296875 581.277344 " fill-opacity="1" fill-rule="nonzero"/></g><g fill="#ffffff" fill-opacity="1"><g transform="translate(315.105455, 394.5)"><g><path d="M 3.015625 0 L 3.015625 -19.984375 L 10.28125 -19.984375 C 11.625 -19.984375 12.75 -19.757812 13.65625 -19.3125 C 14.570312 -18.875 15.253906 -18.253906 15.703125 -17.453125 C 16.160156 -16.648438 16.390625 -15.695312 16.390625 -14.59375 C 16.390625 -13.351562 16.078125 -12.328125 15.453125 -11.515625 C 14.835938 -10.710938 13.875 -10.109375 12.5625 -9.703125 L 12.5625 -9.421875 C 13.207031 -9.160156 13.734375 -8.753906 14.140625 -8.203125 C 14.554688 -7.660156 14.9375 -6.847656 15.28125 -5.765625 L 17.125 0 L 14.71875 0 L 12.71875 -6.109375 C 12.476562 -6.828125 12.203125 -7.390625 11.890625 -7.796875 C 11.585938 -8.210938 11.195312 -8.507812 10.71875 -8.6875 C 10.25 -8.875 9.648438 -8.96875 8.921875 -8.96875 L 5.375 -8.96875 L 5.375 0 Z M 10.234375 -10.96875 C 11.472656 -10.96875 12.398438 -11.253906 13.015625 -11.828125 C 13.628906 -12.410156 13.9375 -13.296875 13.9375 -14.484375 C 13.9375 -15.660156 13.628906 -16.539062 13.015625 -17.125 C 12.398438 -17.707031 11.472656 -18 10.234375 -18 L 5.375 -18 L 5.375 -10.96875 Z M 10.234375 -10.96875 "/></g></g></g><g fill="#ffffff" fill-opacity="1"><g transform="translate(333.61459, 394.5)"><g><path d="M 10.96875 0.28125 C 9.238281 0.28125 7.695312 -0.0859375 6.34375 -0.828125 C 5 -1.578125 3.9375 -2.71875 3.15625 -4.25 C 2.382812 -5.789062 2 -7.707031 2 -10 C 2 -12.28125 2.382812 -14.1875 3.15625 -15.71875 C 3.9375 -17.257812 5 -18.40625 6.34375 -19.15625 C 7.695312 -19.90625 9.238281 -20.28125 10.96875 -20.28125 C 12.695312 -20.28125 14.234375 -19.90625 15.578125 -19.15625 C 16.929688 -18.40625 17.992188 -17.257812 18.765625 -15.71875 C 19.546875 -14.1875 19.9375 -12.28125 19.9375 -10 C 19.9375 -7.707031 19.546875 -5.789062 18.765625 -4.25 C 17.992188 -2.71875 16.929688 -1.578125 15.578125 -0.828125 C 14.234375 -0.0859375 12.695312 0.28125 10.96875 0.28125 Z M 10.96875 -1.890625 C 13.039062 -1.890625 14.632812 -2.535156 15.75 -3.828125 C 16.863281 -5.128906 17.421875 -7.1875 17.421875 -10 C 17.421875 -12.800781 16.863281 -14.851562 15.75 -16.15625 C 14.632812 -17.457031 13.039062 -18.109375 10.96875 -18.109375 C 6.664062 -18.109375 4.515625 -15.40625 4.515625 -10 C 4.515625 -4.59375 6.664062 -1.890625 10.96875 -1.890625 Z M 10.96875 -1.890625 "/></g></g></g><g fill="#ffffff" fill-opacity="1"><g transform="translate(355.541217, 394.5)"><g/></g></g><g fill="#ffffff" fill-opacity="1"><g transform="translate(362.403541, 394.5)"><g><path d="M 10.171875 -19.984375 C 11.546875 -19.984375 12.722656 -19.738281 13.703125 -19.25 C 14.691406 -18.757812 15.441406 -18.054688 15.953125 -17.140625 C 16.472656 -16.222656 16.734375 -15.144531 16.734375 -13.90625 C 16.734375 -12.664062 16.472656 -11.585938 15.953125 -10.671875 C 15.441406 -9.765625 14.691406 -9.0625 13.703125 -8.5625 C 12.722656 -8.070312 11.546875 -7.828125 10.171875 -7.828125 L 5.375 -7.828125 L 5.375 0 L 3.015625 0 L 3.015625 -19.984375 Z M 10.109375 -9.828125 C 12.890625 -9.828125 14.28125 -11.1875 14.28125 -13.90625 C 14.28125 -16.632812 12.890625 -18 10.109375 -18 L 5.375 -18 L 5.375 -9.828125 Z M 10.109375 -9.828125 "/></g></g></g><g fill="#ffffff" fill-opacity="1"><g transform="translate(380.625613, 394.5)"><g><path d="M 5.375 -19.984375 L 5.375 -1.9375 L 15 -1.9375 L 15 0 L 3.015625 0 L 3.015625 -19.984375 Z M 5.375 -19.984375 "/></g></g></g><g fill="#ffffff" fill-opacity="1"><g transform="translate(396.46911, 394.5)"><g><path d="M 18 0 L 15.484375 0 L 13.625 -5.484375 L 5.109375 -5.484375 L 3.25 0 L 0.796875 0 L 7.765625 -19.984375 L 11.015625 -19.984375 Z M 9.203125 -17.5625 L 5.765625 -7.453125 L 12.96875 -7.453125 L 9.546875 -17.5625 Z M 9.203125 -17.5625 "/></g></g></g><g fill="#ffffff" fill-opacity="1"><g transform="translate(415.251645, 394.5)"><g><path d="M 5.3125 0 L 3.015625 0 L 3.015625 -19.984375 L 5.90625 -19.984375 L 15.65625 -4.71875 L 16 -4.765625 L 16 -19.984375 L 18.28125 -19.984375 L 18.28125 0 L 15.8125 0 L 5.65625 -16.34375 L 5.3125 -16.28125 Z M 5.3125 0 "/></g></g></g><g fill="#ffffff" fill-opacity="1"><g transform="translate(436.563129, 394.5)"><g><path d="M 15.59375 -19.984375 L 15.59375 -18 L 9.34375 -18 L 9.34375 0 L 7 0 L 7 -18 L 0.734375 -18 L 0.734375 -19.984375 Z M 15.59375 -19.984375 "/></g></g></g></svg>